<?xml version="1.0" encoding="utf-8"?>
<svg xmlns="http://www.w3.org/2000/svg"
	xmlns:xlink="http://www.w3.org/1999/xlink"
	width="14px" height="14px" viewBox="0 0 14 14">
<g><path fillRule="evenodd" d="M 12.88 6.5C 12.88 6.5 7.5 6.5 7.5 6.5 7.5 6.5 7.5 1.12 7.5 1.12 7.5 0.84 7.27 0.62 7 0.62 6.72 0.62 6.5 0.84 6.5 1.12 6.5 1.12 6.5 6.5 6.5 6.5 6.5 6.5 1.12 6.5 1.12 6.5 0.84 6.5 0.62 6.72 0.62 7 0.62 7.27 0.84 7.5 1.12 7.5 1.12 7.5 6.5 7.5 6.5 7.5 6.5 7.5 6.5 12.88 6.5 12.88 6.5 13.16 6.72 13.38 7 13.38 7.27 13.38 7.5 13.16 7.5 12.88 7.5 12.88 7.5 7.5 7.5 7.5 7.5 7.5 12.88 7.5 12.88 7.5 13.16 7.5 13.38 7.27 13.38 7 13.38 6.72 13.16 6.5 12.88 6.5Z" fill="rgb(255,133,3)"/><path fillRule="evenodd" d="M 12.88 6.5C 12.88 6.5 12.88 6.25 12.88 6.25 12.88 6.25 7.75 6.25 7.75 6.25 7.75 6.25 7.75 1.12 7.75 1.12 7.75 0.7 7.41 0.37 7 0.37 6.59 0.37 6.25 0.7 6.25 1.12 6.25 1.12 6.25 6.25 6.25 6.25 6.25 6.25 1.12 6.25 1.12 6.25 0.7 6.25 0.37 6.59 0.37 7 0.37 7.41 0.7 7.75 1.12 7.75 1.12 7.75 6.25 7.75 6.25 7.75 6.25 7.75 6.25 12.88 6.25 12.88 6.25 13.3 6.59 13.63 7 13.63 7.41 13.63 7.75 13.3 7.75 12.88 7.75 12.88 7.75 7.75 7.75 7.75 7.75 7.75 12.88 7.75 12.88 7.75 13.3 7.75 13.63 7.41 13.63 7 13.63 6.59 13.3 6.25 12.88 6.25 12.88 6.25 12.88 6.5 12.88 6.5 12.88 6.5 12.88 6.75 12.88 6.75 13.02 6.75 13.13 6.86 13.13 7 13.13 7.14 13.02 7.25 12.88 7.25 12.88 7.25 7.25 7.25 7.25 7.25 7.25 7.25 7.25 12.88 7.25 12.88 7.25 13.02 7.14 13.13 7 13.13 6.86 13.13 6.75 13.02 6.75 12.88 6.75 12.88 6.75 7.25 6.75 7.25 6.75 7.25 1.12 7.25 1.12 7.25 0.98 7.25 0.87 7.14 0.87 7 0.87 6.86 0.98 6.75 1.12 6.75 1.12 6.75 6.75 6.75 6.75 6.75 6.75 6.75 6.75 1.12 6.75 1.12 6.75 0.98 6.86 0.87 7 0.87 7.14 0.87 7.25 0.98 7.25 1.12 7.25 1.12 7.25 6.75 7.25 6.75 7.25 6.75 12.88 6.75 12.88 6.75 12.88 6.75 12.88 6.5 12.88 6.5 12.88 6.5 12.88 6.5 12.88 6.5Z" fill="rgb(255,133,3)"/></g></svg>