<?xml version="1.0" encoding="utf-8"?>
<svg xmlns="http://www.w3.org/2000/svg"
	xmlns:xlink="http://www.w3.org/1999/xlink"
	width="27px" height="14px" viewBox="0 0 27 14">
<g><circle cx="2.00" cy="7.00" r="2.00" fill="rgb(211,221,231)"/><path fillRule="evenodd" d="M 2 8C 2.55 8 3 7.55 3 7 3 6.45 2.55 6 2 6 1.45 6 1 6.45 1 7 1 7.55 1.45 8 2 8M 2 9C 0.9 9-0 8.1-0 7-0 5.9 0.9 5 2 5 3.1 5 4 5.9 4 7 4 8.1 3.1 9 2 9 2 9 2 9 2 9Z" fill="rgb(211,221,231)"/></g><g><circle cx="12.00" cy="7.00" r="2.00" fill="rgb(211,221,231)"/><path fillRule="evenodd" d="M 12 8C 12.55 8 13 7.55 13 7 13 6.45 12.55 6 12 6 11.45 6 11 6.45 11 7 11 7.55 11.45 8 12 8M 12 9C 10.9 9 10 8.1 10 7 10 5.9 10.9 5 12 5 13.1 5 14 5.9 14 7 14 8.1 13.1 9 12 9 12 9 12 9 12 9Z" fill="rgb(211,221,231)"/></g><g><path fillRule="evenodd" d="M 20.68 12.88C 20.6 12.96 20.5 13 20.4 13 20.29 13 20.19 12.96 20.12 12.88 19.96 12.71 19.96 12.44 20.12 12.28 20.12 12.28 25.04 7 25.04 7 25.04 7 20.12 1.72 20.12 1.72 19.96 1.56 19.96 1.29 20.12 1.12 20.27 0.96 20.52 0.96 20.68 1.12 20.68 1.12 25.88 6.7 25.88 6.7 26.04 6.87 26.04 7.13 25.88 7.3 25.88 7.3 20.68 12.88 20.68 12.88Z" fill="rgb(211,221,231)"/><path fillRule="evenodd" d="M 20.68 12.88C 20.68 12.88 20.31 12.53 20.31 12.53 20.31 12.53 20.4 12.61 20.4 12.61 20.4 12.61 20.4 12.5 20.4 12.5 20.4 12.5 20.31 12.53 20.31 12.53 20.31 12.53 20.4 12.61 20.4 12.61 20.4 12.61 20.4 12.5 20.4 12.5 20.4 12.5 20.4 12.61 20.4 12.61 20.4 12.61 20.48 12.53 20.48 12.53 20.48 12.53 20.4 12.5 20.4 12.5 20.4 12.5 20.4 12.61 20.4 12.61 20.4 12.61 20.48 12.53 20.48 12.53 20.48 12.53 20.44 12.58 20.44 12.58 20.44 12.58 20.5 12.58 20.5 12.58 20.5 12.58 20.48 12.53 20.48 12.53 20.48 12.53 20.44 12.58 20.44 12.58 20.44 12.58 20.5 12.58 20.5 12.58 20.5 12.58 20.44 12.58 20.44 12.58 20.44 12.58 20.48 12.62 20.48 12.62 20.48 12.62 20.5 12.58 20.5 12.58 20.5 12.58 20.44 12.58 20.44 12.58 20.44 12.58 20.48 12.62 20.48 12.62 20.48 12.62 20.48 12.62 20.48 12.62 20.48 12.62 25.73 7 25.73 7 25.73 7 20.48 1.38 20.48 1.38 20.48 1.38 20.44 1.42 20.44 1.42 20.44 1.42 20.5 1.42 20.5 1.42 20.5 1.42 20.48 1.38 20.48 1.38 20.48 1.38 20.44 1.42 20.44 1.42 20.44 1.42 20.5 1.42 20.5 1.42 20.5 1.42 20.44 1.42 20.44 1.42 20.44 1.42 20.48 1.47 20.48 1.47 20.48 1.47 20.5 1.42 20.5 1.42 20.5 1.42 20.44 1.42 20.44 1.42 20.44 1.42 20.48 1.47 20.48 1.47 20.48 1.47 20.48 1.46 20.48 1.46 20.48 1.46 20.4 1.39 20.4 1.39 20.4 1.39 20.4 1.5 20.4 1.5 20.4 1.5 20.48 1.46 20.48 1.46 20.48 1.46 20.4 1.39 20.4 1.39 20.4 1.39 20.4 1.5 20.4 1.5 20.4 1.5 20.4 1.39 20.4 1.39 20.4 1.39 20.31 1.47 20.31 1.47 20.31 1.47 20.4 1.5 20.4 1.5 20.4 1.5 20.4 1.39 20.4 1.39 20.4 1.39 20.31 1.47 20.31 1.47 20.31 1.47 25.52 7.04 25.52 7.04 25.52 7.04 25.56 7 25.56 7 25.56 7 25.5 7 25.5 7 25.5 7 25.52 7.04 25.52 7.04 25.52 7.04 25.56 7 25.56 7 25.56 7 25.5 7 25.5 7 25.5 7 25.56 7 25.56 7 25.56 7 25.52 6.96 25.52 6.96 25.52 6.96 25.5 7 25.5 7 25.5 7 25.56 7 25.56 7 25.56 7 25.52 6.96 25.52 6.96 25.52 6.96 25.52 6.96 25.52 6.96 25.52 6.96 20.31 12.53 20.31 12.53 20.31 12.53 20.68 12.88 20.68 12.88 20.68 12.88 21.04 13.22 21.04 13.22 21.04 13.22 26.25 7.64 26.25 7.64 26.25 7.64 26.25 7.64 26.25 7.64 26.42 7.46 26.5 7.23 26.5 7 26.5 6.77 26.42 6.54 26.25 6.36 26.25 6.36 21.04 0.78 21.04 0.78 20.87 0.6 20.63 0.5 20.4 0.5 20.16 0.5 19.92 0.6 19.75 0.78 19.75 0.78 19.75 0.78 19.75 0.78 19.58 0.97 19.5 1.2 19.5 1.42 19.5 1.65 19.58 1.88 19.75 2.07 19.75 2.07 24.36 7 24.36 7 24.36 7 19.75 11.93 19.75 11.93 19.75 11.93 19.75 11.93 19.75 11.93 19.58 12.12 19.5 12.35 19.5 12.58 19.5 12.8 19.58 13.03 19.75 13.22 19.91 13.39 20.16 13.5 20.4 13.5 20.63 13.5 20.88 13.39 21.04 13.22 21.04 13.22 20.68 12.88 20.68 12.88 20.68 12.88 20.68 12.88 20.68 12.88Z" fill="rgb(211,221,231)"/></g></svg>