<?xml version="1.0" encoding="utf-8"?>
<svg xmlns="http://www.w3.org/2000/svg"
	xmlns:xlink="http://www.w3.org/1999/xlink"
	width="30px" height="30px" viewBox="0 0 30 30">
<g><circle cx="15.00" cy="15.00" r="15.00" fill="rgb(255,255,255)"/><path fillRule="evenodd" d="M 15 29C 22.72 29 29 22.72 29 15 29 7.28 22.72 1 15 1 7.28 1 1 7.28 1 15 1 22.72 7.28 29 15 29M 15 30C 6.72 30-0 23.28-0 15-0 6.72 6.72-0 15-0 23.28-0 30 6.72 30 15 30 23.28 23.28 30 15 30 15 30 15 30 15 30Z" fill="rgb(229,229,229)"/></g><g><path fillRule="evenodd" d="M 14.94 15.39C 14.94 15.39 10.85 19.52 10.85 19.52 10.74 19.63 10.74 19.82 10.85 19.93 10.91 19.99 10.99 20.02 11.06 20.02 11.13 20.02 11.21 19.99 11.27 19.93 11.27 19.93 15.38 15.78 15.38 15.78 15.38 15.78 19.5 19.93 19.5 19.93 19.56 19.99 19.63 20.02 19.71 20.02 19.78 20.02 19.86 19.99 19.91 19.93 20.03 19.82 20.03 19.63 19.91 19.52 19.91 19.52 15.83 15.39 15.83 15.39 15.83 15.39 19.92 11.27 19.92 11.27 20.03 11.15 20.03 10.97 19.92 10.85 19.8 10.74 19.62 10.74 19.51 10.85 19.51 10.85 15.38 15.01 15.38 15.01 15.38 15.01 11.26 10.85 11.26 10.85 11.15 10.74 10.96 10.74 10.85 10.85 10.74 10.97 10.74 11.15 10.85 11.27 10.85 11.27 14.94 15.39 14.94 15.39Z" fill="rgb(179,185,193)"/><path fillRule="evenodd" d="M 19.71 20.02C 19.63 20.02 19.56 19.99 19.5 19.93 19.5 19.93 15.38 15.78 15.38 15.78 15.38 15.78 11.27 19.93 11.27 19.93 11.21 19.99 11.13 20.02 11.06 20.02 10.99 20.02 10.91 19.99 10.85 19.93 10.74 19.82 10.74 19.63 10.85 19.52 10.85 19.52 14.94 15.39 14.94 15.39 14.94 15.39 10.85 11.27 10.85 11.27 10.74 11.15 10.74 10.97 10.85 10.85 10.91 10.8 10.98 10.77 11.06 10.77 11.13 10.77 11.21 10.8 11.26 10.85 11.26 10.85 15.38 15.01 15.38 15.01 15.38 15.01 19.51 10.85 19.51 10.85 19.56 10.8 19.64 10.77 19.71 10.77 19.79 10.77 19.86 10.8 19.92 10.85 20.03 10.97 20.03 11.15 19.92 11.27 19.92 11.27 15.83 15.39 15.83 15.39 15.83 15.39 19.91 19.52 19.91 19.52 20.03 19.63 20.03 19.82 19.91 19.93 19.86 19.99 19.78 20.02 19.71 20.02 19.71 20.02 19.71 20.02 19.71 20.02Z" fill="rgb(179,185,193)"/></g></svg>