<?xml version="1.0" encoding="utf-8"?>
<svg xmlns="http://www.w3.org/2000/svg"
	xmlns:xlink="http://www.w3.org/1999/xlink"
	width="22px" height="19px" viewBox="0 0 22 19">
<g><path fillRule="evenodd" d="M 19.31 13.31C 18.48 14.23 17.35 14.78 16.15 14.87 16.13 14.87 16.12 14.87 16.11 14.87 16.11 14.87 13.18 14.87 13.18 14.87 12.88 14.87 12.64 14.63 12.64 14.34 12.64 14.04 12.88 13.8 13.18 13.8 13.18 13.8 16.09 13.8 16.09 13.8 17.99 13.66 19.53 11.95 19.53 9.99 19.53 8.14 18.21 6.52 16.45 6.22 16.21 6.18 16.03 5.99 16.01 5.75 15.79 3.43 13.86 1.69 11.53 1.69 9.8 1.69 8.21 2.7 7.47 4.27 7.35 4.51 7.06 4.63 6.8 4.54 6.59 4.46 6.36 4.42 6.13 4.42 5.04 4.42 4.15 5.31 4.15 6.4 4.15 6.64 4.19 6.86 4.27 7.08 4.35 7.32 4.26 7.59 4.03 7.72 3.07 8.29 2.47 9.33 2.47 10.44 2.47 12.17 3.82 13.71 5.44 13.81 5.44 13.81 8.82 13.81 8.82 13.81 9.11 13.81 9.35 14.04 9.35 14.34 9.35 14.64 9.11 14.87 8.82 14.87 8.82 14.87 5.42 14.87 5.42 14.87 5.41 14.87 5.4 14.87 5.39 14.87 4.32 14.81 3.31 14.3 2.55 13.44 1.81 12.6 1.4 11.54 1.4 10.45 1.4 9.1 2.06 7.82 3.14 7.04 3.11 6.83 3.08 6.62 3.08 6.4 3.08 4.73 4.45 3.36 6.13 3.36 6.32 3.36 6.52 3.38 6.71 3.42 7.15 2.65 7.77 2 8.51 1.52 9.41 0.94 10.46 0.63 11.53 0.63 12.92 0.63 14.26 1.15 15.28 2.09 16.21 2.93 16.81 4.04 17.01 5.26 19.08 5.81 20.6 7.78 20.6 9.99 20.6 11.21 20.15 12.39 19.31 13.31ZM 8.18 11.11C 8.04 11.11 7.91 11.06 7.8 10.95 7.59 10.74 7.59 10.41 7.8 10.2 7.8 10.2 10.63 7.38 10.63 7.38 10.73 7.28 10.86 7.22 11 7.22 11.14 7.22 11.28 7.28 11.38 7.38 11.38 7.38 14.2 10.2 14.2 10.2 14.41 10.41 14.41 10.74 14.2 10.95 13.99 11.16 13.65 11.16 13.45 10.95 13.45 10.95 11.53 9.04 11.53 9.04 11.53 9.04 11.53 17.84 11.53 17.84 11.53 18.13 11.3 18.37 11 18.37 10.71 18.37 10.47 18.13 10.47 17.84 10.47 17.84 10.47 9.04 10.47 9.04 10.47 9.04 8.55 10.95 8.55 10.95 8.45 11.06 8.31 11.11 8.18 11.11Z" fill="rgb(0,163,255)"/><path fillRule="evenodd" d="M 10.47 17.84C 10.47 17.84 10.97 17.84 10.97 17.84 10.97 17.84 10.97 7.83 10.97 7.83 10.97 7.83 8.19 10.61 8.19 10.61 8.19 10.61 8.19 10.61 8.19 10.61 8.19 10.61 8.18 10.61 8.18 10.61 8.18 10.61 8.16 10.6 8.16 10.6 8.16 10.6 8.16 10.6 8.16 10.6 8.16 10.6 8.16 10.6 8.16 10.6 8.16 10.6 8.15 10.58 8.15 10.58 8.15 10.58 8.16 10.55 8.16 10.55 8.16 10.55 10.99 7.72 10.99 7.72 10.99 7.72 10.99 7.73 10.99 7.73 10.99 7.73 11 7.72 11 7.72 11 7.72 11.02 7.73 11.02 7.73 11.02 7.73 11.02 7.73 11.02 7.73 11.02 7.73 13.85 10.55 13.85 10.55 13.85 10.55 13.86 10.58 13.86 10.58 13.86 10.58 13.85 10.6 13.85 10.6 13.85 10.6 13.82 10.61 13.82 10.61 13.82 10.61 13.81 10.6 13.81 10.6 13.81 10.6 13.8 10.6 13.8 10.6 13.8 10.6 11.04 7.83 11.04 7.83 11.04 7.83 11.04 17.84 11.04 17.84 11.04 17.84 11 17.87 11 17.87 11 17.87 10.97 17.84 10.97 17.84 10.97 17.84 10.47 17.84 10.47 17.84 10.47 17.84 9.97 17.84 9.97 17.84 9.97 18.4 10.43 18.87 11 18.87 11.57 18.87 12.03 18.41 12.04 17.84 12.04 17.84 12.04 10.25 12.04 10.25 12.04 10.25 13.1 11.31 13.1 11.31 13.1 11.31 13.45 10.95 13.45 10.95 13.45 10.95 13.09 11.3 13.09 11.3 13.29 11.51 13.56 11.61 13.82 11.61 14.09 11.61 14.35 11.51 14.55 11.31 14.75 11.11 14.86 10.84 14.86 10.58 14.86 10.31 14.75 10.05 14.55 9.85 14.55 9.85 11.71 7 11.71 7 11.71 7 11.73 7.02 11.73 7.02 11.54 6.83 11.28 6.72 11 6.72 10.73 6.72 10.47 6.83 10.27 7.03 10.27 7.03 10.63 7.38 10.63 7.38 10.63 7.38 10.27 7.02 10.27 7.02 10.27 7.02 7.45 9.85 7.45 9.85 7.25 10.05 7.15 10.31 7.15 10.58 7.15 10.84 7.25 11.11 7.45 11.31 7.45 11.31 7.45 11.31 7.45 11.31 7.65 11.51 7.91 11.61 8.18 11.61 8.44 11.61 8.71 11.51 8.91 11.3 8.91 11.3 8.55 10.95 8.55 10.95 8.55 10.95 8.91 11.31 8.91 11.31 8.91 11.31 9.97 10.25 9.97 10.25 9.97 10.25 9.97 17.84 9.97 17.84 9.97 17.84 10.47 17.84 10.47 17.84 10.47 17.84 10.47 17.84 10.47 17.84ZM 5.42 14.87C 5.42 14.87 5.42 14.37 5.42 14.37 5.42 14.37 5.39 14.37 5.39 14.37 5.39 14.37 5.39 14.87 5.39 14.87 5.39 14.87 5.42 14.37 5.42 14.37 4.49 14.32 3.61 13.88 2.92 13.11 2.26 12.36 1.9 11.42 1.9 10.45 1.9 9.26 2.48 8.14 3.44 7.44 3.44 7.44 3.7 7.25 3.7 7.25 3.7 7.25 3.64 6.94 3.64 6.94 3.6 6.76 3.58 6.58 3.58 6.4 3.58 5 4.72 3.86 6.13 3.86 6.29 3.86 6.46 3.88 6.62 3.91 6.62 3.91 6.97 3.98 6.97 3.98 6.97 3.98 7.14 3.67 7.14 3.67 7.54 2.97 8.11 2.38 8.79 1.94 9.6 1.41 10.55 1.13 11.53 1.13 12.8 1.13 14.01 1.6 14.94 2.46 15.79 3.23 16.33 4.24 16.52 5.35 16.52 5.35 16.58 5.67 16.58 5.67 16.58 5.67 16.89 5.75 16.89 5.75 18.73 6.23 20.1 8.01 20.1 9.99 20.1 11.09 19.69 12.14 18.94 12.97 18.19 13.8 17.18 14.29 16.11 14.37 16.11 14.37 16.15 14.87 16.15 14.87 16.15 14.87 16.15 14.37 16.15 14.37 16.15 14.37 16.11 14.37 16.11 14.37 16.11 14.37 13.18 14.37 13.18 14.37 13.18 14.37 13.14 14.34 13.14 14.34 13.14 14.34 13.18 14.3 13.18 14.3 13.18 14.3 16.11 14.3 16.11 14.3 16.11 14.3 16.13 14.3 16.13 14.3 18.31 14.13 20.03 12.21 20.03 9.99 20.03 7.9 18.55 6.08 16.53 5.73 16.53 5.73 16.51 5.7 16.51 5.7 16.26 3.13 14.12 1.19 11.54 1.19 9.61 1.19 7.84 2.31 7.02 4.05 7.02 4.05 7.02 4.05 7.02 4.05 7.02 4.05 6.98 4.07 6.98 4.07 6.98 4.07 6.97 4.07 6.97 4.07 6.7 3.97 6.42 3.92 6.13 3.92 4.76 3.92 3.65 5.03 3.65 6.4 3.65 6.69 3.7 6.98 3.8 7.25 3.8 7.25 4.27 7.08 4.27 7.08 4.27 7.08 3.79 7.24 3.79 7.24 3.79 7.24 3.8 7.26 3.8 7.26 3.8 7.26 3.78 7.29 3.78 7.29 2.66 7.95 1.97 9.15 1.97 10.44 1.98 12.43 3.49 14.17 5.41 14.31 5.41 14.31 5.42 14.31 5.42 14.31 5.42 14.31 8.82 14.31 8.82 14.31 8.82 14.31 8.85 14.34 8.85 14.34 8.85 14.34 8.82 14.37 8.82 14.37 8.82 14.37 5.42 14.37 5.42 14.37 5.42 14.37 5.42 14.87 5.42 14.87 5.42 14.87 5.42 15.37 5.42 15.37 5.42 15.37 8.82 15.37 8.82 15.37 9.39 15.37 9.85 14.91 9.85 14.34 9.85 13.77 9.39 13.31 8.82 13.31 8.82 13.31 5.44 13.31 5.44 13.31 5.44 13.31 5.44 13.81 5.44 13.81 5.44 13.81 5.47 13.31 5.47 13.31 4.16 13.24 2.96 11.92 2.97 10.44 2.97 9.51 3.47 8.63 4.28 8.15 4.61 7.97 4.8 7.62 4.8 7.26 4.8 7.14 4.78 7.02 4.74 6.91 4.74 6.91 4.74 6.91 4.74 6.91 4.74 6.91 4.73 6.9 4.73 6.9 4.68 6.75 4.65 6.58 4.65 6.4 4.65 5.59 5.31 4.92 6.13 4.92 6.3 4.92 6.47 4.95 6.63 5.01 6.75 5.05 6.87 5.07 6.98 5.07 7.37 5.07 7.74 4.85 7.92 4.48 7.92 4.48 7.92 4.48 7.92 4.48 7.92 4.48 7.92 4.48 7.92 4.48 8.57 3.09 10 2.19 11.54 2.19 13.61 2.19 15.31 3.74 15.51 5.79 15.56 6.26 15.91 6.64 16.37 6.71 17.87 6.96 19.04 8.38 19.03 9.99 19.04 11.69 17.67 13.19 16.05 13.3 16.05 13.3 16.09 13.8 16.09 13.8 16.09 13.8 16.09 13.3 16.09 13.3 16.09 13.3 13.18 13.3 13.18 13.3 12.61 13.3 12.14 13.77 12.14 14.34 12.14 14.91 12.61 15.37 13.18 15.37 13.18 15.37 16.11 15.37 16.11 15.37 16.11 15.37 16.15 15.37 16.15 15.37 16.15 15.37 16.16 15.37 16.16 15.37 16.16 15.37 16.18 15.37 16.18 15.37 17.52 15.27 18.76 14.66 19.68 13.64 20.6 12.64 21.1 11.34 21.1 9.99 21.09 7.55 19.44 5.39 17.14 4.78 17.14 4.78 17.02 5.26 17.02 5.26 17.02 5.26 17.51 5.18 17.51 5.18 17.28 3.85 16.62 2.64 15.62 1.72 14.5 0.7 13.04 0.13 11.53 0.13 10.36 0.13 9.22 0.47 8.24 1.1 7.43 1.62 6.75 2.33 6.28 3.17 6.28 3.17 6.71 3.42 6.71 3.42 6.71 3.42 6.8 2.93 6.8 2.93 6.58 2.88 6.36 2.86 6.13 2.86 4.17 2.86 2.58 4.45 2.58 6.4 2.58 6.66 2.61 6.9 2.65 7.13 2.65 7.13 3.15 7.04 3.15 7.04 3.15 7.04 2.85 6.63 2.85 6.63 1.64 7.51 0.9 8.93 0.9 10.45 0.9 11.67 1.35 12.85 2.17 13.77 3.02 14.73 4.15 15.3 5.36 15.37 5.36 15.37 5.38 15.37 5.38 15.37 5.38 15.37 5.39 15.37 5.39 15.37 5.39 15.37 5.42 15.37 5.42 15.37 5.42 15.37 5.42 14.87 5.42 14.87 5.42 14.87 5.42 14.87 5.42 14.87Z" fill="rgb(0,163,255)"/></g></svg>