<?xml version="1.0" encoding="UTF-8"?>
<svg width="105px" height="105px" viewBox="0 0 105 105" version="1.1" xmlns="http://www.w3.org/2000/svg" xmlns:xlink="http://www.w3.org/1999/xlink" style="background: #FFFFFF;">
    <!-- Generator: Sketch 52.6 (67491) - http://www.bohemiancoding.com/sketch -->
    <title>Untitled</title>
    <desc>Created with Sketch.</desc>
    <g id="Page-1" stroke="none" stroke-width="1" fill="none" fill-rule="evenodd">
        <g id="applications" fill="#B7C1C7" fill-rule="nonzero">
            <path d="M65.1831683,81.55 L40.960396,81.55 L40.960396,104.85 L65.1831683,104.85 L65.1831683,81.55 Z M24.3787129,81.55 L0.155940594,81.55 L0.155940594,104.85 L24.3787129,104.85 L24.3787129,81.55 Z M24.3787129,40.4 L0.155940594,40.4 L0.155940594,63.7 L24.3787129,63.7 L24.3787129,40.4 Z M24.3787129,0.65 L0.155940594,0.65 L0.155940594,23.95 L24.3787129,23.95 L24.3787129,0.65 Z M65.1831683,40.4 L40.960396,40.4 L40.960396,63.7 L65.1831683,63.7 L65.1831683,40.4 Z M65.1831683,0.65 L40.960396,0.65 L40.960396,23.95 L65.1831683,23.95 L65.1831683,0.65 Z M104.220297,81.55 L79.9975248,81.55 L79.9975248,104.85 L104.220297,104.85 L104.220297,81.55 Z M104.220297,40.4 L79.9975248,40.4 L79.9975248,63.7 L104.220297,63.7 L104.220297,40.4 Z M104.220297,0.65 L79.9975248,0.65 L79.9975248,23.95 L104.220297,23.95 L104.220297,0.65 Z" id="Shape"></path>
        </g>
    </g>
</svg>