<?xml version="1.0" encoding="UTF-8"?>
<svg width="113px" height="111px" viewBox="0 0 113 111" version="1.1" xmlns="http://www.w3.org/2000/svg" xmlns:xlink="http://www.w3.org/1999/xlink">
    <!-- Generator: Sketch 52.6 (67491) - http://www.bohemiancoding.com/sketch -->
    <title>calendar</title>
    <desc>Created with Sketch.</desc>
    <g id="Page-1" stroke="none" stroke-width="1" fill="none" fill-rule="evenodd">
        <g id="calendar" transform="translate(4.000000, 3.000000)">
            <g id="Layer0_0_FILL-link" transform="translate(18.461538, 35.368421)" fill="#B7C1C7" fill-rule="nonzero">
                <g id="Layer0_0_FILL">
                    <path d="M35.1923077,40.1763158 C33.1153846,40.2131579 31.3653846,40.8947368 29.9423077,42.2210526 C28.4807692,43.6210526 27.75,45.3342105 27.75,47.3605263 C27.75,49.35 28.4807692,51.0447368 29.9423077,52.4447368 C31.4038462,53.8078947 33.1730769,54.4894737 35.25,54.4894737 C37.3269231,54.4894737 39.0961538,53.8078947 40.5576923,52.4447368 C42.0192308,51.0447368 42.75,49.35 42.75,47.3605263 C42.75,45.3342105 42.0192308,43.6210526 40.5576923,42.2210526 C39.1346154,40.8947368 37.4038462,40.2131579 35.3653846,40.1763158 L35.1923077,40.1763158 Z M35.3653846,20.4473684 L35.1923077,20.4473684 C33.1153846,20.4842105 31.3653846,21.1657895 29.9423077,22.4921053 C28.4807692,23.8921053 27.75,25.6052632 27.75,27.6315789 C27.75,29.6210526 28.4807692,31.3157895 29.9423077,32.7157895 C31.4038462,34.0789474 33.1730769,34.7605263 35.25,34.7605263 C37.3269231,34.7605263 39.0961538,34.0789474 40.5576923,32.7157895 C42.0192308,31.3157895 42.75,29.6210526 42.75,27.6315789 C42.75,25.6052632 42.0192308,23.8921053 40.5576923,22.4921053 C39.1346154,21.1657895 37.4038462,20.4842105 35.3653846,20.4473684 Z M0.519230769,27.6315789 C0.519230769,29.6210526 1.25,31.3157895 2.71153846,32.7157895 C4.17307692,34.0789474 5.94230769,34.7605263 8.01923077,34.7605263 C10.0961538,34.7605263 11.8653846,34.0789474 13.3269231,32.7157895 C14.7884615,31.3157895 15.5192308,29.6210526 15.5192308,27.6315789 C15.5192308,25.6052632 14.7884615,23.8921053 13.3269231,22.4921053 C11.9038462,21.1657895 10.1730769,20.4842105 8.13461538,20.4473684 L7.96153846,20.4473684 C5.88461538,20.4842105 4.13461538,21.1657895 2.71153846,22.4921053 C1.25,23.8921053 0.519230769,25.6052632 0.519230769,27.6315789 Z M2.71153846,42.2210526 C1.25,43.6210526 0.519230769,45.3342105 0.519230769,47.3605263 C0.519230769,49.35 1.25,51.0447368 2.71153846,52.4447368 C4.17307692,53.8078947 5.94230769,54.4894737 8.01923077,54.4894737 C10.0961538,54.4894737 11.8653846,53.8078947 13.3269231,52.4447368 C14.7884615,51.0447368 15.5192308,49.35 15.5192308,47.3605263 C15.5192308,45.3342105 14.7884615,43.6210526 13.3269231,42.2210526 C11.9038462,40.8947368 10.1730769,40.2131579 8.13461538,40.1763158 L7.96153846,40.1763158 C5.88461538,40.2131579 4.13461538,40.8947368 2.71153846,42.2210526 Z M35.25,0.165789474 C33.1730769,0.165789474 31.4038462,0.847368421 29.9423077,2.21052632 C28.4807692,3.61052632 27.75,5.32368421 27.75,7.35 C27.75,9.33947368 28.4807692,11.0342105 29.9423077,12.4342105 C31.3653846,13.7605263 33.1153846,14.4421053 35.1923077,14.4789474 L35.3653846,14.4789474 C37.4038462,14.4421053 39.1346154,13.7605263 40.5576923,12.4342105 C42.0192308,11.0342105 42.75,9.33947368 42.75,7.35 C42.75,5.32368421 42.0192308,3.61052632 40.5576923,2.21052632 C39.0961538,0.847368421 37.3269231,0.165789474 35.25,0.165789474 Z M13.3269231,2.21052632 C11.8653846,0.847368421 10.0961538,0.165789474 8.01923077,0.165789474 C5.94230769,0.165789474 4.17307692,0.847368421 2.71153846,2.21052632 C1.25,3.61052632 0.519230769,5.32368421 0.519230769,7.35 C0.519230769,9.33947368 1.25,11.0342105 2.71153846,12.4342105 C4.13461538,13.7605263 5.88461538,14.4421053 7.96153846,14.4789474 L8.13461538,14.4789474 C10.1730769,14.4421053 11.9038462,13.7605263 13.3269231,12.4342105 C14.7884615,11.0342105 15.5192308,9.33947368 15.5192308,7.35 C15.5192308,5.32368421 14.7884615,3.61052632 13.3269231,2.21052632 Z M61.1538462,40.1763158 C59.0769231,40.2131579 57.3269231,40.8947368 55.9038462,42.2210526 C54.4423077,43.6210526 53.7115385,45.3342105 53.7115385,47.3605263 C53.7115385,49.35 54.4423077,51.0447368 55.9038462,52.4447368 C57.3653846,53.8078947 59.1346154,54.4894737 61.2115385,54.4894737 C63.2884615,54.4894737 65.0576923,53.8078947 66.5192308,52.4447368 C67.9807692,51.0447368 68.7115385,49.35 68.7115385,47.3605263 C68.7115385,45.3342105 67.9807692,43.6210526 66.5192308,42.2210526 C65.0961538,40.8947368 63.3653846,40.2131579 61.3269231,40.1763158 L61.1538462,40.1763158 Z M55.9038462,22.4921053 C54.4423077,23.8921053 53.7115385,25.6052632 53.7115385,27.6315789 C53.7115385,29.6210526 54.4423077,31.3157895 55.9038462,32.7157895 C57.3653846,34.0789474 59.1346154,34.7605263 61.2115385,34.7605263 C63.2884615,34.7605263 65.0576923,34.0789474 66.5192308,32.7157895 C67.9807692,31.3157895 68.7115385,29.6210526 68.7115385,27.6315789 C68.7115385,25.6052632 67.9807692,23.8921053 66.5192308,22.4921053 C65.0961538,21.1657895 63.3653846,20.4842105 61.3269231,20.4473684 L61.1538462,20.4473684 C59.0769231,20.4842105 57.3269231,21.1657895 55.9038462,22.4921053 Z M66.5192308,2.21052632 C65.0576923,0.847368421 63.2884615,0.165789474 61.2115385,0.165789474 C59.1346154,0.165789474 57.3653846,0.847368421 55.9038462,2.21052632 C54.4423077,3.61052632 53.7115385,5.32368421 53.7115385,7.35 C53.7115385,9.33947368 54.4423077,11.0342105 55.9038462,12.4342105 C57.3269231,13.7605263 59.0769231,14.4421053 61.1538462,14.4789474 L61.3269231,14.4789474 C63.3653846,14.4421053 65.0961538,13.7605263 66.5192308,12.4342105 C67.9807692,11.0342105 68.7115385,9.33947368 68.7115385,7.35 C68.7115385,5.32368421 67.9807692,3.61052632 66.5192308,2.21052632 Z" id="Shape"></path>
                </g>
            </g>
            <g id="Layer0_0_1_STROKES-link" stroke="#B7C1C7" stroke-linecap="round" stroke-linejoin="round" stroke-width="7">
                <path d="M25.5576923,28.2394737 L25.5576923,11.55 L11.7692308,11.55 C4.07692308,11.55 0.230769231,15.2342105 0.230769231,22.6026316 L0.230769231,92.9526316 C0.230769231,100.321053 4.07692308,104.005263 11.7692308,104.005263 L93.1153846,104.005263 C100.807692,104.005263 104.653846,100.321053 104.653846,92.9526316 L104.653846,22.6026316 C104.653846,15.2342105 100.807692,11.55 93.1153846,11.55 L81,11.55 L81,28.2394737 M81,0.939473684 L81,11.55 L52.4423077,11.55 L52.4423077,28.2394737 M25.5576923,0.939473684 L25.5576923,11.55 L52.4423077,11.55 L52.4423077,0.939473684" id="Layer0_0_1_STROKES"></path>
            </g>
        </g>
    </g>
</svg>