<?xml version="1.0" encoding="UTF-8"?>
<svg width="111px" height="75px" viewBox="0 0 111 75" version="1.1" xmlns="http://www.w3.org/2000/svg" xmlns:xlink="http://www.w3.org/1999/xlink">
    <!-- Generator: Sketch 52.6 (67491) - http://www.bohemiancoding.com/sketch -->
    <title>charges</title>
    <desc>Created with Sketch.</desc>
    <g id="Page-1" stroke="none" stroke-width="1" fill="none" fill-rule="evenodd" stroke-linecap="round" stroke-linejoin="round">
        <g id="charges" transform="translate(3.000000, 3.000000)" stroke="#B7C1C7" stroke-width="7">
            <path d="M0.954545455,16 L0.954545455,10.9 C0.954545455,4.23333333 4.48989899,0.9 11.5606061,0.9 L93.5984848,0.9 C100.669192,0.9 104.204545,4.23333333 104.204545,10.9 L104.204545,16 L104.204545,29.7 L104.204545,58.1 C104.204545,64.7666667 100.669192,68.1 93.5984848,68.1 L11.5606061,68.1 C4.48989899,68.1 0.954545455,64.7666667 0.954545455,58.1 L0.954545455,29.7 L0.954545455,16 L104.204545,16 L0.954545455,16 Z M83.8409091,48.9 C83.8409091,50.8 83.1338384,52.4166667 81.719697,53.75 C80.3055556,55.0833333 78.5909091,55.75 76.5757576,55.75 C74.5606061,55.75 72.8459596,55.0833333 71.4318182,53.75 C70.0176768,52.4166667 69.3106061,50.8 69.3106061,48.9 C69.3106061,47 70.0176768,45.3833333 71.4318182,44.05 C72.8459596,42.7166667 74.5606061,42.05 76.5757576,42.05 C78.5909091,42.05 80.3055556,42.7166667 81.719697,44.05 C83.1338384,45.3833333 83.8409091,47 83.8409091,48.9 Z M41.6818182,55.75 L21.3181818,55.75 L41.6818182,55.75 Z M41.6818182,46.15 L21.3181818,46.15 L41.6818182,46.15 Z M104.204545,29.7 L0.954545455,29.7 L104.204545,29.7 Z" id="Layer0_0_1_STROKES"></path>
        </g>
    </g>
</svg>