
<svg xmlns="http://www.w3.org/2000/svg" version="1.1" xmlns:xlink="http://www.w3.org/1999/xlink" preserveAspectRatio="none" x="0px" y="0px" width="300px" height="300px" viewBox="0 0 300 300">
<defs>
<g id="Layer0_0_FILL">
<path fill="#52C8C9" stroke="none" d="
M 137.15 121.15
Q 137.15 119.85 136.2 118.9 135.3 118 134 118 132.7 118 131.75 118.9 130.85 119.85 130.85 121.15 130.85 122.45 131.75 123.35 132.7 124.3 134 124.3 135.3 124.3 136.2 123.35 137.15 122.45 137.15 121.15
M 126.5 123.35
Q 127.45 122.45 127.45 121.15 127.45 119.85 126.5 118.9 125.6 118 124.3 118 123 118 122.05 118.9 121.15 119.85 121.15 121.15 121.15 122.45 122.05 123.35 123 124.3 124.3 124.3 125.6 124.3 126.5 123.35
M 146.4 123.35
Q 147.35 122.45 147.35 121.15 147.35 119.85 146.4 118.9 145.5 118 144.2 118 142.9 118 141.95 118.9 141.05 119.85 141.05 121.15 141.05 122.45 141.95 123.35 142.9 124.3 144.2 124.3 145.5 124.3 146.4 123.35 Z"/>
</g>

<path id="Layer0_0_1_STROKES" stroke="#52C8C9" stroke-width="7" stroke-linejoin="round" stroke-linecap="round" fill="none" d="
M 172.6 200.45
L 122.5 200.45
Q 112.5 200.45 112.5 190.45
L 112.5 131.2 112.5 121.3
Q 112.5 111.3 122.5 111.3
L 200.15 111.3
Q 210.15 111.3 210.15 121.3
L 210.15 131.2 210.15 163.65
M 194.65 176.6
L 208.35 176.6
Q 216.25 176.6 217.9 182.85
L 208.15 192.15 219.45 203.45
Q 221.15 205.15 221.15 207.6 221.1 210 219.4 211.7 217.65 213.45 215.25 213.45 212.85 213.45 211.15 211.75
L 199.65 200.25 189.85 209.55
Q 184.65 207.5 184.65 200.3
L 184.65 186.6
Q 184.65 176.6 194.65 176.6 Z
M 130.65 152.65
L 176.7 152.65
M 130.65 169.15
L 172.6 169.15
M 112.5 131.2
L 210.15 131.2"/>
</defs>

<g transform="matrix( 1, 0, 0, 1, 0,0) ">
<use xlink:href="#Layer0_0_FILL"/>

<use xlink:href="#Layer0_0_1_STROKES"/>
</g>
</svg>
