
<svg xmlns="http://www.w3.org/2000/svg" version="1.1" xmlns:xlink="http://www.w3.org/1999/xlink" preserveAspectRatio="none" x="0px" y="0px" width="300px" height="300px" viewBox="0 0 300 300">
<defs>
<g id="Layer0_0_FILL">
<path fill="#56A1FC" stroke="none" d="
M 162.05 167.85
L 162.05 161.3 155.95 161.3
Q 155.45 158.85 154.2 156.75
L 159.5 151.4 154.9 146.8 149.8 151.9
Q 148.9 151.2 147.95 150.7 146.05 149.65 144 149.2
L 144 142.7 137.45 142.7 137.45 149.05
Q 137 149.1 136.6 149.2 133.8 149.8 131.45 151.45
L 126.8 146.8 122.15 151.45 126.85 156.1
Q 125.85 157.6 125.25 159.25 124.85 160.25 124.65 161.3
L 118.95 161.3 118.9 167.85 124.6 167.85
Q 125.1 170.7 126.55 173.05
L 122.15 177.45 126.8 182.05 131.05 177.85
Q 133.9 179.95 137.45 180.55
L 137.45 186.2 144 186.2 144 180.4
Q 147.3 179.65 150.05 177.55 150.1 177.5 150.2 177.4
L 154.9 182.1 159.5 177.5 154.45 172.4
Q 155.6 170.3 156.05 167.85
L 162.05 167.85
M 145.4 169.2
Q 144.75 169.9 144 170.35 142.5 171.2 140.6 171.2 138.85 171.2 137.45 170.45 136.6 169.95 135.85 169.2 133.85 167.25 133.85 164.45 133.85 163.9 133.9 163.45 134.2 161.25 135.85 159.65 137.8 157.7 140.6 157.7 143.45 157.7 145.4 159.65 147 161.25 147.35 163.45 147.35 163.9 147.35 164.45 147.35 167.25 145.4 169.2
M 146.4 123.35
Q 147.35 122.45 147.35 121.15 147.35 119.85 146.4 118.9 145.5 118 144.2 118 142.9 118 141.95 118.9 141.05 119.85 141.05 121.15 141.05 122.45 141.95 123.35 142.9 124.3 144.2 124.3 145.5 124.3 146.4 123.35
M 136.2 123.35
Q 137.15 122.45 137.15 121.15 137.15 119.85 136.2 118.9 135.3 118 134 118 132.7 118 131.75 118.9 130.85 119.85 130.85 121.15 130.85 122.45 131.75 123.35 132.7 124.3 134 124.3 135.3 124.3 136.2 123.35
M 126.5 123.35
Q 127.45 122.45 127.45 121.15 127.45 119.85 126.5 118.9 125.6 118 124.3 118 123 118 122.05 118.9 121.15 119.85 121.15 121.15 121.15 122.45 122.05 123.35 123 124.3 124.3 124.3 125.6 124.3 126.5 123.35 Z"/>
</g>

<path id="Layer0_0_1_STROKES" stroke="#57A1FC" stroke-width="7" stroke-linejoin="round" stroke-linecap="round" fill="none" d="
M 122.5 111.3
L 200.15 111.3
Q 210.15 111.3 210.15 121.3
L 210.15 131.2 210.15 190.45
Q 210.15 200.45 200.15 200.45
L 122.5 200.45
Q 112.5 200.45 112.5 190.45
L 112.5 131.2 112.5 121.3
Q 112.5 111.3 122.5 111.3 Z
M 168.8 177.75
L 181.85 177.75
M 168.8 164.7
L 199.5 164.7
M 168.8 151.1
L 199.5 151.1
M 112.5 131.2
L 210.15 131.2"/>
</defs>

<g transform="matrix( 1, 0, 0, 1, 0,0) ">
<use xlink:href="#Layer0_0_FILL"/>

<use xlink:href="#Layer0_0_1_STROKES"/>
</g>
</svg>
