<?xml version="1.0" encoding="UTF-8"?>
<svg width="113px" height="73px" viewBox="0 0 113 73" version="1.1" xmlns="http://www.w3.org/2000/svg" xmlns:xlink="http://www.w3.org/1999/xlink">
    <!-- Generator: Sketch 52.6 (67491) - http://www.bohemiancoding.com/sketch -->
    <title>invite</title>
    <desc>Created with Sketch.</desc>
    <g id="Page-1" stroke="none" stroke-width="1" fill="none" fill-rule="evenodd" stroke-linecap="round" stroke-linejoin="round">
        <g id="invite" transform="translate(4.000000, 4.000000)" stroke="#B7C1C7" stroke-width="7">
            <path d="M0.248684211,0.198473282 L1.71315789,0.198473282 L103.922368,0.198473282 L104.530263,0.198473282 L104.530263,64.8015267 L0.248684211,64.8015267 L0.248684211,0.198473282 Z M1.71315789,0.198473282 L32.2184211,26.0992366 C32.5315789,25.7022901 32.8907895,25.321883 33.2960526,24.9580153 C35.4513158,23.0394402 38.0394737,22.0801527 41.0605263,22.0801527 C44.0815789,22.0801527 46.6605263,23.0394402 48.7973684,24.9580153 C50.9157895,26.8600509 51.9934211,29.1424936 52.0302632,31.8053435 C52.0671053,29.1424936 53.1355263,26.8600509 55.2355263,24.9580153 C57.3907895,23.0394402 59.9789474,22.0801527 63,22.0801527 C66.0210526,22.0801527 68.6,23.0394402 70.7368421,24.9580153 C71.75,25.8676845 72.5236842,26.8600509 73.0578947,27.9351145 L103.922368,0.198473282 L1.71315789,0.198473282 Z M73.0578947,27.9351145 C73.6657895,29.1424936 73.9697368,30.4739186 73.9697368,31.9293893 C73.9697368,34.6418575 72.8921053,36.9573791 70.7368421,38.8759542 C69.8342105,39.6863868 68.4618421,41.0591603 66.6197368,42.9942748 L52.6657895,56.0438931 L34.8986842,40.0916031 C34.3276316,39.7277354 33.7934211,39.3225191 33.2960526,38.8759542 C32.7986842,38.4293893 32.3565789,37.9580153 31.9697368,37.4618321 C30.7171053,35.8575064 30.0907895,34.0133588 30.0907895,31.9293893 C30.0907895,29.7296438 30.8,27.7862595 32.2184211,26.0992366 L73.0578947,27.9351145 Z M52.0302632,31.8053435 L52.0302632,32.0534351 L52.0302632,31.8053435 Z M34.8986842,40.0916031 L31.9697368,37.4618321 L34.8986842,40.0916031 Z" id="Layer0_0_1_STROKES"></path>
        </g>
    </g>
</svg>