<?xml version="1.0" encoding="UTF-8"?>
<svg width="113px" height="113px" viewBox="0 0 113 113" version="1.1" xmlns="http://www.w3.org/2000/svg" xmlns:xlink="http://www.w3.org/1999/xlink">
    <!-- Generator: Sketch 52.6 (67491) - http://www.bohemiancoding.com/sketch -->
    <title>people</title>
    <desc>Created with Sketch.</desc>
    <g id="Page-1" stroke="none" stroke-width="1" fill="none" fill-rule="evenodd" stroke-linecap="round" stroke-linejoin="round">
        <g id="people" transform="translate(4.000000, 4.000000)" stroke="#B7C1C7" stroke-width="7">
            <path d="M79.4741379,27.9204545 C79.4741379,35.2784091 76.9396552,41.6022727 71.8706897,46.8920455 C71.6293103,47.1306818 71.408046,47.3494318 71.2068966,47.5482955 C65.7356322,52.9971591 59.1178161,55.7215909 51.3534483,55.7215909 C43.5890805,55.7215909 36.9511494,52.9971591 31.4396552,47.5482955 C31.2385057,47.3494318 31.0373563,47.1306818 30.8362069,46.8920455 C25.7672414,41.6022727 23.2327586,35.2784091 23.2327586,27.9204545 C23.2327586,20.2443182 25.9683908,13.6818182 31.4396552,8.23295455 C36.9511494,2.82386364 43.5890805,0.119318182 51.3534483,0.119318182 C59.1178161,0.119318182 65.7356322,2.82386364 71.2068966,8.23295455 C76.7183908,13.6818182 79.4741379,20.2443182 79.4741379,27.9204545 Z M27.6982759,73.7386364 L77.4224138,73.7386364 C84.9454023,73.7386364 91.362069,76.3636364 96.6724138,81.6136364 C102.022989,86.9034091 104.698276,93.2670455 104.698276,100.704545 L104.698276,100.764205 C104.698276,102.15625 104.617816,103.508523 104.456897,104.821023 L0.724137931,104.821023 C0.522988506,103.508523 0.422413793,102.15625 0.422413793,100.764205 L0.422413793,100.704545 C0.422413793,93.2670455 3.07758621,86.9034091 8.38793103,81.6136364 C13.7385057,76.3636364 20.1752874,73.7386364 27.6982759,73.7386364 Z" id="Layer0_0_1_STROKES"></path>
        </g>
    </g>
</svg>