<?xml version="1.0" encoding="utf-8"?>
<svg xmlns="http://www.w3.org/2000/svg"
	xmlns:xlink="http://www.w3.org/1999/xlink"
	width="20px" height="26px" viewBox="0 0 20 26">
<g><path fillRule="evenodd" d="M 18 25.29C 18 25.29 2 25.29 2 25.29 1.33 25.29 0.78 24.74 0.78 24.08 0.78 24.08 0.78 1.92 0.78 1.92 0.78 1.26 1.33 0.71 2 0.71 2 0.71 14.23 0.71 14.23 0.71 14.39 0.71 14.54 0.78 14.64 0.88 14.64 0.88 14.64 0.88 14.64 0.88 14.64 0.88 19.05 5.29 19.05 5.29 19.16 5.39 19.21 5.54 19.21 5.69 19.21 5.69 19.22 5.69 19.22 5.69 19.22 5.69 19.22 24.08 19.22 24.08 19.22 24.74 18.67 25.29 18 25.29ZM 14.81 2.68C 14.81 2.68 14.81 5.06 14.81 5.06 14.81 5.09 14.84 5.12 14.87 5.12 14.87 5.12 17.25 5.12 17.25 5.12 17.25 5.12 14.81 2.68 14.81 2.68ZM 18.06 6.27C 18.06 6.27 14.87 6.27 14.87 6.27 14.2 6.27 13.66 5.72 13.66 5.06 13.66 5.06 13.66 1.86 13.66 1.86 13.66 1.86 2 1.86 2 1.86 1.96 1.86 1.94 1.89 1.94 1.92 1.94 1.92 1.94 24.08 1.94 24.08 1.94 24.11 1.96 24.14 2 24.14 2 24.14 18 24.14 18 24.14 18.04 24.14 18.06 24.11 18.06 24.08 18.06 24.08 18.06 24.08 18.06 24.08 18.06 24.08 18.06 6.27 18.06 6.27ZM 15.09 16.68C 15.09 16.68 4.91 16.68 4.91 16.68 4.59 16.68 4.33 16.42 4.33 16.1 4.33 15.79 4.59 15.53 4.91 15.53 4.91 15.53 15.09 15.53 15.09 15.53 15.41 15.53 15.67 15.79 15.67 16.1 15.67 16.42 15.41 16.68 15.09 16.68ZM 15.09 13.21C 15.09 13.21 4.91 13.21 4.91 13.21 4.59 13.21 4.33 12.95 4.33 12.63 4.33 12.31 4.59 12.06 4.91 12.06 4.91 12.06 15.09 12.06 15.09 12.06 15.41 12.06 15.67 12.31 15.67 12.63 15.67 12.95 15.41 13.21 15.09 13.21ZM 15.09 9.74C 15.09 9.74 4.91 9.74 4.91 9.74 4.59 9.74 4.33 9.48 4.33 9.16 4.33 8.84 4.59 8.58 4.91 8.58 4.91 8.58 15.09 8.58 15.09 8.58 15.41 8.58 15.67 8.84 15.67 9.16 15.67 9.48 15.41 9.74 15.09 9.74ZM 4.91 19C 4.91 19 10 19 10 19 10.32 19 10.58 19.26 10.58 19.58 10.58 19.89 10.32 20.15 10 20.15 10 20.15 4.91 20.15 4.91 20.15 4.59 20.15 4.33 19.89 4.33 19.58 4.33 19.26 4.59 19 4.91 19Z" fill="rgb(183,195,201)"/><path fillRule="evenodd" d="M 2 25.29C 2 25.29 2 25.04 2 25.04 1.47 25.04 1.04 24.61 1.03 24.08 1.03 24.08 1.03 1.92 1.03 1.92 1.04 1.39 1.47 0.96 2 0.96 2 0.96 14.23 0.96 14.23 0.96 14.33 0.96 14.4 1 14.46 1.06 14.46 1.06 18.87 5.46 18.87 5.46 18.93 5.52 18.96 5.6 18.96 5.69 18.96 5.69 18.96 5.75 18.96 5.75 18.96 5.75 18.99 5.8 18.99 5.8 18.99 5.8 19.2 5.69 19.2 5.69 19.2 5.69 18.97 5.69 18.97 5.69 18.97 5.69 18.99 5.8 18.99 5.8 18.99 5.8 19.2 5.69 19.2 5.69 19.2 5.69 18.97 5.69 18.97 5.69 18.97 5.69 18.97 24.08 18.97 24.08 18.97 24.61 18.53 25.04 18 25.04 18 25.04 2 25.04 2 25.04 2 25.04 2 25.29 2 25.29 2 25.29 2 25.54 2 25.54 2 25.54 18 25.54 18 25.54 18.81 25.54 19.47 24.88 19.47 24.08 19.47 24.08 19.47 5.69 19.47 5.69 19.47 5.69 19.44 5.58 19.44 5.58 19.44 5.58 19.21 5.69 19.21 5.69 19.21 5.69 19.46 5.68 19.46 5.68 19.46 5.47 19.38 5.26 19.22 5.11 19.22 5.11 14.82 0.7 14.82 0.7 14.67 0.55 14.46 0.46 14.23 0.46 14.23 0.46 2 0.46 2 0.46 1.19 0.46 0.53 1.12 0.53 1.92 0.53 1.92 0.53 24.08 0.53 24.08 0.53 24.88 1.19 25.54 2 25.54 2 25.54 2 25.29 2 25.29 2 25.29 2 25.29 2 25.29ZM 1.94 1.92C 1.94 1.92 1.69 1.92 1.69 1.92 1.69 1.92 1.69 24.08 1.69 24.08 1.69 24.24 1.82 24.39 2 24.39 2 24.39 18 24.39 18 24.39 18.17 24.39 18.31 24.25 18.31 24.08 18.31 24.08 18.31 6.02 18.31 6.02 18.31 6.02 14.87 6.02 14.87 6.02 14.34 6.02 13.91 5.59 13.91 5.06 13.91 5.06 13.91 1.61 13.91 1.61 13.91 1.61 2 1.61 2 1.61 1.82 1.61 1.69 1.75 1.69 1.92 1.69 1.92 1.94 1.92 1.94 1.92 1.94 1.92 2.19 1.92 2.19 1.92 2.19 1.92 2 1.92 2 1.92 2 1.92 2 2.11 2 2.11 2.1 2.11 2.19 2.03 2.19 1.92 2.19 1.92 2 1.92 2 1.92 2 1.92 2 2.11 2 2.11 2 2.11 13.41 2.11 13.41 2.11 13.41 2.11 13.41 5.06 13.41 5.06 13.41 5.86 14.06 6.52 14.87 6.52 14.87 6.52 17.81 6.52 17.81 6.52 17.81 6.52 17.81 24.08 17.81 24.08 17.81 24.08 18 24.08 18 24.08 18 24.08 18 23.89 18 23.89 17.9 23.89 17.82 23.97 17.81 24.08 17.81 24.08 18 24.08 18 24.08 18 24.08 18 23.89 18 23.89 18 23.89 2 23.89 2 23.89 2 23.89 2 24.08 2 24.08 2 24.08 2.19 24.08 2.19 24.08 2.19 23.98 2.1 23.89 2 23.89 2 23.89 2 24.08 2 24.08 2 24.08 2.19 24.08 2.19 24.08 2.19 24.08 2.19 1.92 2.19 1.92 2.19 1.92 1.94 1.92 1.94 1.92 1.94 1.92 1.94 1.92 1.94 1.92ZM 14.81 5.06C 14.81 5.06 14.56 5.06 14.56 5.06 14.56 5.23 14.7 5.37 14.87 5.37 14.87 5.37 17.85 5.37 17.85 5.37 17.85 5.37 14.56 2.07 14.56 2.07 14.56 2.07 14.56 5.06 14.56 5.06 14.56 5.06 14.81 5.06 14.81 5.06 14.81 5.06 15.06 5.06 15.06 5.06 15.06 5.06 15.06 3.28 15.06 3.28 15.06 3.28 16.65 4.87 16.65 4.87 16.65 4.87 14.87 4.87 14.87 4.87 14.87 4.87 14.87 5.06 14.87 5.06 14.87 5.06 15.06 5.06 15.06 5.06 15.06 4.95 14.98 4.87 14.87 4.87 14.87 4.87 14.87 5.06 14.87 5.06 14.87 5.06 15.06 5.06 15.06 5.06 15.06 5.06 14.81 5.06 14.81 5.06 14.81 5.06 14.81 5.06 14.81 5.06ZM 4.91 20.15C 4.91 20.15 4.91 19.9 4.91 19.9 4.73 19.9 4.58 19.76 4.58 19.58 4.58 19.4 4.73 19.25 4.91 19.25 4.91 19.25 10 19.25 10 19.25 10.18 19.25 10.32 19.4 10.33 19.58 10.32 19.76 10.18 19.9 10 19.9 10 19.9 4.91 19.9 4.91 19.9 4.91 19.9 4.91 20.15 4.91 20.15 4.91 20.15 4.91 20.4 4.91 20.4 4.91 20.4 10 20.4 10 20.4 10.46 20.4 10.83 20.03 10.83 19.58 10.83 19.12 10.46 18.75 10 18.75 10 18.75 4.91 18.75 4.91 18.75 4.45 18.75 4.08 19.12 4.08 19.58 4.08 20.03 4.45 20.4 4.91 20.4 4.91 20.4 4.91 20.15 4.91 20.15 4.91 20.15 4.91 20.15 4.91 20.15ZM 4.91 16.68C 4.91 16.68 4.91 16.43 4.91 16.43 4.73 16.43 4.58 16.28 4.58 16.1 4.58 15.93 4.73 15.78 4.91 15.78 4.91 15.78 15.09 15.78 15.09 15.78 15.27 15.78 15.42 15.92 15.42 16.1 15.42 16.28 15.27 16.43 15.09 16.43 15.09 16.43 4.91 16.43 4.91 16.43 4.91 16.43 4.91 16.68 4.91 16.68 4.91 16.68 4.91 16.93 4.91 16.93 4.91 16.93 15.09 16.93 15.09 16.93 15.55 16.93 15.92 16.56 15.92 16.1 15.92 15.65 15.55 15.28 15.09 15.28 15.09 15.28 4.91 15.28 4.91 15.28 4.45 15.28 4.08 15.65 4.08 16.1 4.08 16.56 4.45 16.93 4.91 16.93 4.91 16.93 4.91 16.68 4.91 16.68 4.91 16.68 4.91 16.68 4.91 16.68ZM 4.91 13.21C 4.91 13.21 4.91 12.96 4.91 12.96 4.73 12.96 4.58 12.81 4.58 12.63 4.58 12.45 4.73 12.31 4.91 12.31 4.91 12.31 15.09 12.31 15.09 12.31 15.27 12.31 15.42 12.45 15.42 12.63 15.42 12.81 15.27 12.96 15.09 12.96 15.09 12.96 4.91 12.96 4.91 12.96 4.91 12.96 4.91 13.21 4.91 13.21 4.91 13.21 4.91 13.46 4.91 13.46 4.91 13.46 15.09 13.46 15.09 13.46 15.55 13.46 15.92 13.09 15.92 12.63 15.92 12.18 15.55 11.81 15.09 11.81 15.09 11.81 4.91 11.81 4.91 11.81 4.45 11.81 4.08 12.18 4.08 12.63 4.08 13.09 4.45 13.46 4.91 13.46 4.91 13.46 4.91 13.21 4.91 13.21 4.91 13.21 4.91 13.21 4.91 13.21ZM 4.91 9.74C 4.91 9.74 4.91 9.49 4.91 9.49 4.73 9.49 4.58 9.34 4.58 9.16 4.58 8.98 4.73 8.83 4.91 8.83 4.91 8.83 15.09 8.83 15.09 8.83 15.27 8.83 15.42 8.98 15.42 9.16 15.42 9.34 15.27 9.49 15.09 9.49 15.09 9.49 4.91 9.49 4.91 9.49 4.91 9.49 4.91 9.74 4.91 9.74 4.91 9.74 4.91 9.99 4.91 9.99 4.91 9.99 15.09 9.99 15.09 9.99 15.55 9.99 15.92 9.62 15.92 9.16 15.92 8.7 15.55 8.33 15.09 8.33 15.09 8.33 4.91 8.33 4.91 8.33 4.45 8.33 4.08 8.7 4.08 9.16 4.08 9.62 4.45 9.99 4.91 9.99 4.91 9.99 4.91 9.74 4.91 9.74 4.91 9.74 4.91 9.74 4.91 9.74Z" fill="rgb(183,195,201)"/></g></svg>