<?xml version="1.0" encoding="UTF-8"?>
<svg width="112px" height="112px" viewBox="0 0 112 112" version="1.1" xmlns="http://www.w3.org/2000/svg" xmlns:xlink="http://www.w3.org/1999/xlink">
    <!-- Generator: Sketch 52.6 (67491) - http://www.bohemiancoding.com/sketch -->
    <title>settings</title>
    <desc>Created with Sketch.</desc>
    <g id="Page-1" stroke="none" stroke-width="1" fill="none" fill-rule="evenodd" stroke-linecap="round" stroke-linejoin="round">
        <g id="settings" transform="translate(4.000000, 4.000000)" stroke="#B7C1C7" stroke-width="7">
            <path d="M44.6833333,0.461538462 L60.4916667,0.461538462 L60.4916667,16.0384615 C63.8361111,16.7692308 67.0055556,17.9423077 70,19.5576923 C71.5555556,20.4038462 73.0527778,21.3653846 74.4916667,22.4423077 L86.8,10.2692308 L97.9416667,21.2884615 L85.1083333,34.0384615 C87.0916667,37.3846154 88.4916667,41 89.3083333,44.8846154 L104.066667,44.8269231 L104.008333,60.4615385 L89.5416667,60.5192308 C88.8027778,64.3653846 87.5194444,67.9615385 85.6916667,71.3076923 L97.9416667,83.4230769 L86.8,94.4423077 L75.4833333,83.25 C75.3346137,83.3667368 75.1887804,83.4821214 75.0458333,83.5961538 C70.6456163,86.9444111 65.7942274,89.2136418 60.4916667,90.4038462 L60.4916667,104.25 L44.6833333,104.25 L44.6833333,90.8076923 C39.0444444,89.8461538 33.9111111,87.6923077 29.2833333,84.3461538 L19.075,94.3846154 L7.875,83.3653846 L18.4916667,72.9230769 C16.1194444,69.1153846 14.525,64.9807692 13.7083333,60.5192308 L0.0583333333,60.5192308 L0.116666667,44.8846154 L13.8833333,44.8846154 C14.2333333,43.1923077 14.7,41.5576923 15.2833333,39.9807692 C16.2555556,37.3269231 17.5388889,34.8076923 19.1333333,32.4230769 L7.875,21.3461538 L19.075,10.3269231 L30.275,21.3461538 C34.0861111,18.7692308 38.2083333,17 42.6416667,16.0384615 C43.3027778,15.8846154 43.9833333,15.75 44.6833333,15.6346154 L44.6833333,0.461538462 Z M68.6583333,52.3269231 C68.6583333,56.8269231 67.0833333,60.6346154 63.9333333,63.75 C62.8444444,64.8269231 61.6972222,65.7115385 60.4916667,66.4038462 C58.0805556,67.7884615 55.3583333,68.4807692 52.325,68.4807692 C49.525,68.4807692 46.9777778,67.8653846 44.6833333,66.6346154 C43.3222222,65.9038462 42.0388889,64.9423077 40.8333333,63.75 C37.6444444,60.6346154 36.05,56.8269231 36.05,52.3269231 C36.05,51.5192308 36.1083333,50.7307692 36.225,49.9615385 C36.6916667,46.5 38.2277778,43.5 40.8333333,40.9615385 C44.0222222,37.8076923 47.8527778,36.2307692 52.325,36.2307692 C56.875,36.2307692 60.7444444,37.8076923 63.9333333,40.9615385 C66.5,43.5 68.0361111,46.5 68.5416667,49.9615385 C68.6194444,50.7307692 68.6583333,51.5192308 68.6583333,52.3269231 Z" id="Layer0_0_1_STROKES"></path>
        </g>
    </g>
</svg>