<?xml version="1.0" encoding="UTF-8"?>
<svg width="112px" height="112px" viewBox="0 0 112 112" version="1.1" xmlns="http://www.w3.org/2000/svg" xmlns:xlink="http://www.w3.org/1999/xlink">
    <!-- Generator: Sketch 52.6 (67491) - http://www.bohemiancoding.com/sketch -->
    <title>support</title>
    <desc>Created with Sketch.</desc>
    <g id="Page-1" stroke="none" stroke-width="1" fill="none" fill-rule="evenodd">
        <g id="support" transform="translate(3.000000, 4.000000)">
            <g id="Layer0_0_FILL-link" transform="translate(40.894737, 23.210526)" fill="#B7C1C7" fill-rule="nonzero">
                <g id="Layer0_0_FILL">
                    <path d="M16.4684211,11.3842105 C17.6842105,10.2052632 18.2921053,8.76842105 18.2921053,7.07368421 C18.2921053,5.37894737 17.6842105,3.92368421 16.4684211,2.70789474 C15.2894737,1.52894737 13.8526316,0.939473684 12.1578947,0.939473684 C10.4631579,0.939473684 9.00789474,1.52894737 7.79210526,2.70789474 C6.61315789,3.92368421 6.02368421,5.37894737 6.02368421,7.07368421 C6.02368421,8.76842105 6.61315789,10.2052632 7.79210526,11.3842105 C9.00789474,12.6 10.4631579,13.2078947 12.1578947,13.2078947 C13.8526316,13.2078947 15.2894737,12.6 16.4684211,11.3842105 Z M23.1552632,59.9605263 L23.1552632,51.6157895 L17.4078947,51.6157895 L17.4078947,21.4421053 L3.92368421,21.4421053 L3.92368421,28.5157895 L8.4,28.5157895 L8.4,51.6157895 L0.718421053,51.6157895 L0.718421053,59.9605263 L23.1552632,59.9605263 Z" id="Shape"></path>
                </g>
            </g>
            <g id="Layer0_0_1_STROKES-link" stroke="#B7C1C7" stroke-linecap="round" stroke-linejoin="round" stroke-width="7">
                <path d="M105,51.8921053 C105,66.4078947 99.9710526,78.6763158 89.9131579,88.6973684 C86.45,92.1605263 82.8026316,95.0157895 78.9710526,97.2631579 C71.2710526,101.721053 62.5947368,103.95 52.9421053,103.95 C43.9894737,103.95 35.8657895,101.960526 28.5710526,97.9815789 C24.2236842,95.6605263 20.1342105,92.5657895 16.3026316,88.6973684 C6.13421053,78.6763158 1.05,66.4078947 1.05,51.8921053 C1.05,49.3131579 1.23421053,46.7710526 1.60263158,44.2657895 C3.11315789,33.1394737 8.01315789,23.4868421 16.3026316,15.3078947 C26.4710526,5.13947368 38.6842105,0.0552631579 52.9421053,0.0552631579 C67.4210526,0.0552631579 79.7447368,5.13947368 89.9131579,15.3078947 C98.0921053,23.4868421 102.992105,33.1394737 104.613158,44.2657895 C104.871053,46.7710526 105,49.3131579 105,51.8921053 Z" id="Layer0_0_1_STROKES"></path>
            </g>
        </g>
    </g>
</svg>