<?xml version="1.0" encoding="UTF-8"?>
<svg width="105px" height="67px" viewBox="0 0 105 67" version="1.1" xmlns="http://www.w3.org/2000/svg" xmlns:xlink="http://www.w3.org/1999/xlink">
    <!-- Generator: Sketch 52.6 (67491) - http://www.bohemiancoding.com/sketch -->
    <title>group</title>
    <desc>Created with Sketch.</desc>
    <g id="Page-1" stroke="#B7C1C7" stroke-width="1" fill="none" fill-rule="evenodd">
        <g id="group" transform="translate(0.156708, 0.305896)" fill="#BEBEBE" fill-rule="nonzero">
            <path d="M90.6360281,29.2765739 C93.702083,27.1220489 95.7323085,23.5380793 95.7323085,19.4983448 C95.7323085,12.8897535 90.3874291,7.54487401 83.7788378,7.54487401 C77.1702465,7.54487401 71.825367,12.8897535 71.825367,19.4983448 C71.825367,23.5380793 73.8348759,27.1220489 76.9216474,29.2765739 C74.2906409,30.1881037 71.8875167,31.5968317 69.8572912,33.4198913 C67.0605519,31.0374838 63.7666146,29.2144242 60.1619284,28.1371616 C64.5331283,25.4854385 67.4748837,20.6584737 67.4748837,15.1685781 C67.4748837,6.79907687 60.7005597,0.0247528786 52.3310585,0.0247528786 C43.9615573,0.0247528786 37.1872333,6.81979346 37.1872333,15.1685781 C37.1872333,20.6584737 40.1082721,25.4854385 44.5001885,28.1371616 C40.9369356,29.2144242 37.6844314,31.0167672 34.9084087,33.3577416 C32.8781832,31.5761151 30.5164922,30.1881037 27.9269188,29.2972905 C30.9929737,27.1427654 33.0231993,23.5587959 33.0231993,19.5190614 C33.0231993,12.9104701 27.6783198,7.5655906 21.0697285,7.5655906 C14.4611372,7.5655906 9.11625772,12.9104701 9.11625772,19.5190614 C9.11625772,23.5587959 11.1257667,27.1427654 14.2125382,29.2972905 C5.98805306,32.1354629 0.0838257261,39.9456163 0.0838257261,49.1230644 L0.0838257261,50.4903591 C0.0838257261,50.5317923 0.1252589,50.5732255 0.166692075,50.5732255 L25.5030781,50.5732255 C25.358062,51.7126378 25.2751957,52.8934833 25.2751957,54.0743287 L25.2751957,55.4830566 C25.2751957,61.5737333 30.2057434,66.504281 36.29642,66.504281 L68.4071301,66.504281 C74.4978067,66.504281 79.4283545,61.5737333 79.4283545,55.4830566 L79.4283545,54.0743287 C79.4283545,52.8934833 79.3454881,51.7126378 79.200472,50.5732255 L104.702591,50.5732255 C104.744024,50.5732255 104.785457,50.5317923 104.785457,50.4903591 L104.785457,49.1230644 C104.744024,39.9248997 98.8605132,32.1147464 90.6360281,29.2765739 Z M75.1400209,19.4776282 C75.1400209,14.7128132 79.0140227,10.8388114 83.7788378,10.8388114 C88.5436528,10.8388114 92.4176546,14.7128132 92.4176546,19.4776282 C92.4176546,24.1802935 88.6265191,28.0128621 83.9445705,28.116445 C83.8824207,28.116445 83.8409875,28.116445 83.7788378,28.116445 C83.716688,28.116445 83.6752548,28.116445 83.6131051,28.116445 C78.9104398,28.0335787 75.1400209,24.2010101 75.1400209,19.4776282 Z M40.4604541,15.1685781 C40.4604541,8.64285313 45.7639004,3.33940682 52.2896253,3.33940682 C58.8153503,3.33940682 64.1187966,8.64285313 64.1187966,15.1685781 C64.1187966,21.4664206 59.1675322,26.6248508 52.9732727,26.9770327 C52.7453902,26.9770327 52.5175078,26.9770327 52.2896253,26.9770327 C52.0617429,26.9770327 51.8338604,26.9770327 51.6059779,26.9770327 C45.4117184,26.6248508 40.4604541,21.4664206 40.4604541,15.1685781 Z M12.3687619,19.4776282 C12.3687619,14.7128132 16.2427637,10.8388114 21.0075787,10.8388114 C25.7723938,10.8388114 29.6463956,14.7128132 29.6463956,19.4776282 C29.6463956,24.1802935 25.8552601,28.0128621 21.1733114,28.116445 C21.1111617,28.116445 21.0697285,28.116445 21.0075787,28.116445 C20.945429,28.116445 20.9039958,28.116445 20.841846,28.116445 C16.1598973,28.0335787 12.3687619,24.2010101 12.3687619,19.4776282 Z M26.0831426,47.237855 L3.43991284,47.237855 C4.37215926,38.4125888 11.8301306,31.4932487 20.8832792,31.431099 C20.9247124,31.431099 20.9661456,31.431099 21.0075787,31.431099 C21.0490119,31.431099 21.0904451,31.431099 21.1318783,31.431099 C25.4409284,31.4518156 29.3770799,33.0469928 32.4224182,35.6365662 C29.4392297,38.8683538 27.2225549,42.8459385 26.0831426,47.237855 Z M76.0722673,55.4830566 C76.0722673,59.729957 72.6125973,63.1896271 68.3656969,63.1896271 L36.2549869,63.1896271 C32.0080865,63.1896271 28.5484165,59.729957 28.5484165,55.4830566 L28.5484165,54.0743287 C28.5484165,41.2093281 38.8238437,30.6853018 51.6059779,30.3124033 C51.8338604,30.3331199 52.0824594,30.3331199 52.3103419,30.3331199 C52.5382244,30.3331199 52.7868234,30.3331199 53.0147059,30.3124033 C65.7968401,30.6853018 76.0722673,41.2093281 76.0722673,54.0743287 L76.0722673,55.4830566 Z M78.5375412,47.237855 C77.3981289,42.8666551 75.2228873,38.9512201 72.2604153,35.7194325 C75.3264702,33.0677094 79.3040549,31.4725322 83.6545382,31.431099 C83.6959714,31.431099 83.7374046,31.431099 83.7788378,31.431099 C83.8202709,31.431099 83.8617041,31.431099 83.9031373,31.431099 C92.9562859,31.4932487 100.414257,38.4125888 101.346504,47.237855 L78.5375412,47.237855 Z" id="Shape"></path>
        </g>
    </g>
</svg>