<?xml version="1.0" encoding="UTF-8"?>
<svg width="112px" height="112px" viewBox="0 0 112 112" version="1.1" xmlns="http://www.w3.org/2000/svg" xmlns:xlink="http://www.w3.org/1999/xlink">
    <!-- Generator: Sketch 52.6 (67491) - http://www.bohemiancoding.com/sketch -->
    <title>time logs</title>
    <desc>Created with Sketch.</desc>
    <g id="Page-1" stroke="none" stroke-width="1" fill="none" fill-rule="evenodd" stroke-linecap="round" stroke-linejoin="round">
        <g id="time-logs" transform="translate(3.000000, 3.000000)" stroke="#B7C1C7" stroke-width="7">
            <path d="M0.974226804,55.3685567 C0.93814433,54.5025773 0.920103093,53.6365979 0.920103093,52.7706186 C0.920103093,38.4458763 5.98969072,26.2139175 16.128866,16.0747423 C26.2680412,5.93556701 38.5,0.865979381 52.8247423,0.865979381 C54.0876289,0.865979381 55.3324742,0.902061856 56.5592784,0.974226804 C69.2603093,1.80412371 80.2293814,6.83762887 89.4664948,16.0747423 C99.6056701,26.2139175 104.675258,38.4458763 104.675258,52.7706186 C104.675258,53.2757732 104.657216,53.7809278 104.621134,54.2860825 C104.296392,67.9613402 99.2448454,79.6881443 89.4664948,89.4664948 C80.2293814,98.7036082 69.2603093,103.737113 56.5592784,104.56701 C55.3324742,104.639175 54.0876289,104.675258 52.8247423,104.675258 C38.5,104.675258 26.2680412,99.6056701 16.128866,89.4664948 C6.60309278,79.9407216 1.55154639,68.5747423 0.974226804,55.3685567 L12.556701,55.3685567 M56.5592784,13.4226804 L56.5592784,0.974226804 M104.621134,54.2860825 L92.8221649,54.2860825 M52.6623711,27.2783505 L52.6623711,56.3427835 L69.8737113,76.2603093 M56.5592784,104.56701 L56.5592784,90.5489691" id="Layer0_0_1_STROKES"></path>
        </g>
    </g>
</svg>