<?xml version="1.0" encoding="UTF-8"?>
<svg width="113px" height="111px" viewBox="0 0 113 111" version="1.1" xmlns="http://www.w3.org/2000/svg" xmlns:xlink="http://www.w3.org/1999/xlink">
    <!-- Generator: Sketch 52.6 (67491) - http://www.bohemiancoding.com/sketch -->
    <title>work diary</title>
    <desc>Created with Sketch.</desc>
    <g id="Page-1" stroke="none" stroke-width="1" fill="none" fill-rule="evenodd" stroke-linecap="round" stroke-linejoin="round">
        <g id="work-diary" transform="translate(4.000000, 3.000000)" stroke="#B7C1C7" stroke-width="7">
            <path d="M81.3125,41.8425 C81.3125,46.6725 79.2708333,50.8025 75.1875,54.2325 C71.1041667,57.6625 66.1875,59.3775 60.4375,59.3775 C54.6875,59.3775 49.7708333,57.6625 45.6875,54.2325 C41.6041667,50.8025 39.5625,46.6725 39.5625,41.8425 C39.5625,37.0125 41.6041667,32.8825 45.6875,29.4525 C49.7708333,26.0225 54.6875,24.3075 60.4375,24.3075 C66.1875,24.3075 71.1041667,26.0225 75.1875,29.4525 C79.2708333,32.8825 81.3125,37.0125 81.3125,41.8425 Z M104.875,2.3625 L104.875,103.2675 L104.875,2.3625 Z M23.0625,14.07 L12.625,14.07 L12.625,34.545 L23.0625,34.545 L23.0625,14.07 Z M0.4375,52.815 L12.625,52.815 L12.625,34.545 L0.4375,34.545 L0.4375,52.815 Z M23.0625,52.815 L12.625,52.815 L12.625,71.085 L23.0625,71.085 L23.0625,52.815 Z M12.625,14.07 L0.4375,14.07 L12.625,14.07 Z M12.625,103.2675 L12.625,90.09 L0.4375,90.09 L12.625,103.2675 Z M23.0625,90.09 L12.625,90.09 L12.625,71.085 L0.4375,71.085 L23.0625,90.09 Z M12.625,2.3625 L12.625,14.07 L12.625,2.3625 Z M13.5,0.8925 L104.875,0.8925 L13.5,0.8925 Z M101.375,104.0025 L15.25,104.0025 L101.375,104.0025 Z M77,90.09 L43.9375,90.09 L77,90.09 Z M77,75.4425 L43.9375,75.4425 L77,75.4425 Z" id="Layer0_0_1_STROKES"></path>
        </g>
    </g>
</svg>