<?xml version="1.0" encoding="utf-8"?>
<svg xmlns="http://www.w3.org/2000/svg"
	xmlns:xlink="http://www.w3.org/1999/xlink"
	width="40px" height="40px" viewBox="0 0 40 40">
<circle cx="20.00" cy="20.00" r="20.00" fill="rgb(217,247,255)"/><g><path fillRule="evenodd" d="M 27.1 17.71C 27.1 17.71 27.1 16.97 27.1 16.97 27.1 15.21 26.47 13.58 25.33 12.36 24.16 11.12 22.56 10.43 20.81 10.43 20.81 10.43 20.2 10.43 20.2 10.43 18.45 10.43 16.84 11.12 15.68 12.36 14.54 13.58 13.91 15.21 13.91 16.97 13.91 16.97 13.91 17.71 13.91 17.71 12.53 17.8 11.43 18.94 11.43 20.34 11.43 20.34 11.43 21.49 11.43 21.49 11.43 22.94 12.62 24.12 14.08 24.12 14.08 24.12 15.58 24.12 15.58 24.12 15.85 24.12 16.07 23.9 16.07 23.64 16.07 23.64 16.07 18.18 16.07 18.18 16.07 17.92 15.85 17.7 15.58 17.7 15.58 17.7 14.88 17.7 14.88 17.7 14.88 17.7 14.88 16.97 14.88 16.97 14.88 13.79 17.17 11.4 20.19 11.4 20.19 11.4 20.81 11.4 20.81 11.4 23.84 11.4 26.12 13.79 26.12 16.97 26.12 16.97 26.12 17.7 26.12 17.7 26.12 17.7 25.42 17.7 25.42 17.7 25.15 17.7 24.93 17.92 24.93 18.18 24.93 18.18 24.93 23.63 24.93 23.63 24.93 23.9 25.15 24.12 25.42 24.12 25.42 24.12 26.1 24.12 26.1 24.12 25.9 26.63 24.16 27.21 23.35 27.35 23.12 26.67 22.48 26.18 21.72 26.18 21.72 26.18 20.51 26.18 20.51 26.18 19.57 26.18 18.8 26.94 18.8 27.87 18.8 28.8 19.57 29.57 20.51 29.57 20.51 29.57 21.73 29.57 21.73 29.57 22.51 29.57 23.17 29.03 23.37 28.32 23.77 28.26 24.39 28.12 25.02 27.76 25.9 27.25 26.94 26.21 27.08 24.11 28.47 24.03 29.57 22.88 29.57 21.48 29.57 21.48 29.57 20.33 29.57 20.33 29.57 18.94 28.48 17.8 27.1 17.71ZM 15.1 23.15C 15.1 23.15 14.09 23.15 14.09 23.15 13.17 23.15 12.41 22.4 12.41 21.48 12.41 21.48 12.41 20.33 12.41 20.33 12.41 19.41 13.17 18.67 14.09 18.67 14.09 18.67 15.1 18.67 15.1 18.67 15.1 18.67 15.1 23.15 15.1 23.15ZM 21.73 28.6C 21.73 28.6 20.51 28.6 20.51 28.6 20.1 28.6 19.77 28.28 19.77 27.87 19.77 27.47 20.1 27.15 20.51 27.15 20.51 27.15 21.73 27.15 21.73 27.15 22.13 27.15 22.46 27.47 22.46 27.87 22.46 28.28 22.13 28.6 21.73 28.6ZM 28.6 21.48C 28.6 22.4 27.85 23.15 26.92 23.15 26.92 23.15 25.91 23.15 25.91 23.15 25.91 23.15 25.91 18.67 25.91 18.67 25.91 18.67 26.92 18.67 26.92 18.67 27.85 18.67 28.6 19.41 28.6 20.33 28.6 20.33 28.6 21.48 28.6 21.48Z" fill="rgb(85,161,207)"/><path fillRule="evenodd" d="M 27.1 17.71C 27.1 17.71 27.6 17.71 27.6 17.71 27.6 17.71 27.6 16.97 27.6 16.97 27.6 15.09 26.92 13.33 25.7 12.02 24.44 10.67 22.69 9.93 20.81 9.93 20.81 9.93 20.2 9.93 20.2 9.93 18.32 9.93 16.57 10.67 15.31 12.02 14.08 13.33 13.41 15.09 13.41 16.97 13.41 16.97 13.41 17.71 13.41 17.71 13.41 17.71 13.91 17.71 13.91 17.71 13.91 17.71 13.88 17.21 13.88 17.21 12.24 17.32 10.93 18.67 10.93 20.34 10.93 20.34 10.93 21.49 10.93 21.49 10.93 23.22 12.35 24.62 14.08 24.62 14.08 24.62 15.58 24.62 15.58 24.62 16.12 24.62 16.56 24.18 16.57 23.64 16.57 23.64 16.57 18.18 16.57 18.18 16.56 17.64 16.12 17.2 15.58 17.2 15.58 17.2 15.38 17.2 15.38 17.2 15.38 17.2 15.38 16.97 15.38 16.97 15.4 14.04 17.45 11.91 20.19 11.9 20.19 11.9 20.81 11.9 20.81 11.9 23.56 11.91 25.6 14.04 25.62 16.97 25.62 16.97 25.62 17.2 25.62 17.2 25.62 17.2 25.42 17.2 25.42 17.2 24.88 17.2 24.44 17.64 24.43 18.18 24.43 18.18 24.43 23.63 24.43 23.63 24.44 24.18 24.88 24.61 25.42 24.62 25.42 24.62 26.1 24.62 26.1 24.62 26.1 24.62 26.1 24.12 26.1 24.12 26.1 24.12 25.6 24.08 25.6 24.08 25.4 26.32 23.98 26.7 23.26 26.85 23.26 26.85 23.35 27.35 23.35 27.35 23.35 27.35 23.82 27.19 23.82 27.19 23.53 26.31 22.7 25.68 21.72 25.68 21.72 25.68 20.51 25.68 20.51 25.68 19.29 25.68 18.3 26.66 18.3 27.87 18.3 29.08 19.29 30.06 20.51 30.07 20.51 30.07 21.73 30.07 21.73 30.07 22.74 30.06 23.59 29.38 23.85 28.45 23.85 28.45 23.37 28.32 23.37 28.32 23.37 28.32 23.44 28.81 23.44 28.81 23.88 28.75 24.57 28.6 25.27 28.19 26.26 27.63 27.44 26.4 27.58 24.14 27.58 24.14 27.08 24.11 27.08 24.11 27.08 24.11 27.11 24.61 27.11 24.61 28.76 24.51 30.07 23.15 30.07 21.48 30.07 21.48 30.07 20.33 30.07 20.33 30.07 20.33 30.07 20.33 30.07 20.33 30.07 18.67 28.77 17.32 27.13 17.21 27.13 17.21 27.1 17.71 27.1 17.71 27.1 17.71 27.6 17.71 27.6 17.71 27.6 17.71 27.1 17.71 27.1 17.71 27.1 17.71 27.06 18.21 27.06 18.21 28.18 18.28 29.07 19.21 29.07 20.33 29.07 20.33 29.07 20.33 29.07 20.33 29.07 20.33 29.07 21.48 29.07 21.48 29.07 22.61 28.18 23.54 27.05 23.61 27.05 23.61 26.61 23.64 26.61 23.64 26.61 23.64 26.58 24.08 26.58 24.08 26.44 26.02 25.54 26.87 24.77 27.33 24.22 27.65 23.65 27.77 23.3 27.82 23.3 27.82 22.98 27.87 22.98 27.87 22.98 27.87 22.89 28.19 22.89 28.19 22.75 28.69 22.28 29.07 21.73 29.07 21.73 29.07 20.51 29.07 20.51 29.07 19.84 29.06 19.3 28.52 19.3 27.87 19.3 27.22 19.84 26.68 20.51 26.68 20.51 26.68 21.72 26.68 21.72 26.68 22.26 26.68 22.71 27.03 22.87 27.5 22.87 27.5 23 27.91 23 27.91 23 27.91 23.43 27.84 23.43 27.84 24.33 27.73 26.4 26.94 26.6 24.15 26.6 24.15 26.64 23.62 26.64 23.62 26.64 23.62 25.42 23.62 25.42 23.62 25.42 23.62 25.42 23.63 25.42 23.63 25.42 23.63 25.43 23.63 25.43 23.63 25.43 23.63 25.42 23.62 25.42 23.62 25.42 23.62 25.42 23.63 25.42 23.63 25.42 23.63 25.43 23.63 25.43 23.63 25.43 23.63 25.43 18.18 25.43 18.18 25.43 18.18 25.42 18.18 25.42 18.18 25.42 18.18 25.42 18.2 25.42 18.2 25.42 18.2 25.43 18.18 25.43 18.18 25.43 18.18 25.42 18.18 25.42 18.18 25.42 18.18 25.42 18.2 25.42 18.2 25.42 18.2 26.12 18.2 26.12 18.2 26.12 18.2 26.62 18.2 26.62 18.2 26.62 18.2 26.62 16.97 26.62 16.97 26.61 13.55 24.11 10.91 20.81 10.9 20.81 10.9 20.19 10.9 20.19 10.9 16.89 10.91 14.39 13.55 14.38 16.97 14.38 16.97 14.38 17.7 14.38 17.7 14.38 17.7 14.38 18.2 14.38 18.2 14.38 18.2 15.58 18.2 15.58 18.2 15.58 18.2 15.58 18.18 15.58 18.18 15.58 18.18 15.57 18.18 15.57 18.18 15.57 18.18 15.58 18.2 15.58 18.2 15.58 18.2 15.58 18.18 15.58 18.18 15.58 18.18 15.57 18.18 15.57 18.18 15.57 18.18 15.57 23.64 15.57 23.64 15.57 23.64 15.58 23.64 15.58 23.64 15.58 23.64 15.58 23.62 15.58 23.62 15.58 23.62 15.57 23.64 15.57 23.64 15.57 23.64 15.58 23.64 15.58 23.64 15.58 23.64 15.58 23.62 15.58 23.62 15.58 23.62 14.08 23.62 14.08 23.62 12.9 23.62 11.93 22.66 11.93 21.49 11.93 21.49 11.93 20.34 11.93 20.34 11.93 19.21 12.82 18.28 13.94 18.21 13.94 18.21 14.41 18.18 14.41 18.18 14.41 18.18 14.41 16.97 14.41 16.97 14.41 15.33 14.99 13.82 16.04 12.71 17.11 11.56 18.58 10.94 20.2 10.93 20.2 10.93 20.81 10.93 20.81 10.93 22.43 10.94 23.89 11.56 24.97 12.71 26.01 13.82 26.6 15.33 26.6 16.97 26.6 16.97 26.6 17.71 26.6 17.71 26.6 17.71 26.6 18.18 26.6 18.18 26.6 18.18 27.06 18.21 27.06 18.21 27.06 18.21 27.1 17.71 27.1 17.71 27.1 17.71 27.1 17.71 27.1 17.71ZM 15.1 23.15C 15.1 23.15 15.1 22.65 15.1 22.65 15.1 22.65 14.09 22.65 14.09 22.65 13.44 22.65 12.91 22.12 12.91 21.48 12.91 21.48 12.91 20.33 12.91 20.33 12.91 19.69 13.44 19.17 14.09 19.17 14.09 19.17 14.6 19.17 14.6 19.17 14.6 19.17 14.6 23.15 14.6 23.15 14.6 23.15 15.1 23.15 15.1 23.15 15.1 23.15 15.1 22.65 15.1 22.65 15.1 22.65 15.1 23.15 15.1 23.15 15.1 23.15 15.6 23.15 15.6 23.15 15.6 23.15 15.6 18.17 15.6 18.17 15.6 18.17 14.09 18.17 14.09 18.17 12.89 18.17 11.91 19.13 11.91 20.33 11.91 20.33 11.91 21.48 11.91 21.48 11.91 22.68 12.89 23.65 14.09 23.65 14.09 23.65 15.1 23.65 15.1 23.65 15.1 23.65 15.6 23.65 15.6 23.65 15.6 23.65 15.6 23.15 15.6 23.15 15.6 23.15 15.1 23.15 15.1 23.15 15.1 23.15 15.1 23.15 15.1 23.15ZM 21.73 28.6C 21.73 28.6 21.73 28.1 21.73 28.1 21.73 28.1 20.51 28.1 20.51 28.1 20.37 28.1 20.27 28 20.27 27.87 20.27 27.75 20.37 27.65 20.51 27.65 20.51 27.65 21.73 27.65 21.73 27.65 21.86 27.65 21.96 27.75 21.96 27.87 21.96 28 21.86 28.1 21.73 28.1 21.73 28.1 21.73 28.6 21.73 28.6 21.73 28.6 21.73 29.1 21.73 29.1 22.4 29.1 22.96 28.55 22.96 27.87 22.96 27.19 22.4 26.65 21.73 26.65 21.73 26.65 20.51 26.65 20.51 26.65 19.83 26.65 19.27 27.19 19.27 27.87 19.27 28.55 19.83 29.1 20.51 29.1 20.51 29.1 21.73 29.1 21.73 29.1 21.73 29.1 21.73 28.6 21.73 28.6 21.73 28.6 21.73 28.6 21.73 28.6ZM 28.6 21.48C 28.6 21.48 28.1 21.48 28.1 21.48 28.1 22.12 27.57 22.65 26.92 22.65 26.92 22.65 26.41 22.65 26.41 22.65 26.41 22.65 26.41 19.17 26.41 19.17 26.41 19.17 26.92 19.17 26.92 19.17 27.57 19.17 28.1 19.69 28.1 20.33 28.1 20.33 28.1 21.48 28.1 21.48 28.1 21.48 28.6 21.48 28.6 21.48 28.6 21.48 29.1 21.48 29.1 21.48 29.1 21.48 29.1 20.33 29.1 20.33 29.1 19.13 28.12 18.17 26.92 18.17 26.92 18.17 25.91 18.17 25.91 18.17 25.91 18.17 25.41 18.17 25.41 18.17 25.41 18.17 25.41 23.65 25.41 23.65 25.41 23.65 26.92 23.65 26.92 23.65 28.12 23.65 29.1 22.68 29.1 21.48 29.1 21.48 28.6 21.48 28.6 21.48 28.6 21.48 28.6 21.48 28.6 21.48Z" fill="rgb(85,161,207)"/></g></svg>