<?xml version="1.0" encoding="utf-8"?>
<svg xmlns="http://www.w3.org/2000/svg"
	xmlns:xlink="http://www.w3.org/1999/xlink"
	width="40px" height="40px" viewBox="0 0 40 40">
<circle cx="20.00" cy="20.00" r="20.00" fill="rgb(233,226,252)"/><g><path fillRule="evenodd" d="M 30.81 19.09C 30.81 19.09 30.81 25.66 30.81 25.66 30.81 26.95 29.8 28 28.56 28 28.56 28 11.44 28 11.44 28 10.2 28 9.19 26.95 9.19 25.66 9.19 25.66 9.19 19.09 9.19 19.09 9.19 19.09 9.19 16.28 9.19 16.28 9.19 16.28 9.19 15.34 9.19 15.34 9.19 14.05 10.2 13 11.44 13 11.44 13 28.56 13 28.56 13 29.8 13 30.81 14.05 30.81 15.34 30.81 15.34 30.81 16.28 30.81 16.28 30.81 16.28 30.81 16.28 30.81 16.28 30.81 16.28 30.81 19.09 30.81 19.09 30.81 19.09 30.81 19.09 30.81 19.09ZM 29.91 15.34C 29.91 14.57 29.31 13.94 28.56 13.94 28.56 13.94 11.44 13.94 11.44 13.94 10.69 13.94 10.09 14.57 10.09 15.34 10.09 15.34 10.09 15.81 10.09 15.81 10.09 15.81 29.91 15.81 29.91 15.81 29.91 15.81 29.91 15.34 29.91 15.34ZM 29.91 16.75C 29.91 16.75 10.09 16.75 10.09 16.75 10.09 16.75 10.09 18.62 10.09 18.62 10.09 18.62 29.91 18.62 29.91 18.62 29.91 18.62 29.91 16.75 29.91 16.75ZM 29.91 19.56C 29.91 19.56 10.09 19.56 10.09 19.56 10.09 19.56 10.09 25.66 10.09 25.66 10.09 26.43 10.69 27.06 11.44 27.06 11.44 27.06 28.56 27.06 28.56 27.06 29.31 27.06 29.91 26.43 29.91 25.66 29.91 25.66 29.91 19.56 29.91 19.56ZM 26.76 25.19C 26.76 25.19 25.86 25.19 25.86 25.19 25.11 25.19 24.51 24.56 24.51 23.78 24.51 23.78 24.51 22.84 24.51 22.84 24.51 22.07 25.11 21.44 25.86 21.44 25.86 21.44 26.76 21.44 26.76 21.44 27.5 21.44 28.11 22.07 28.11 22.84 28.11 22.84 28.11 23.78 28.11 23.78 28.11 24.56 27.5 25.19 26.76 25.19ZM 27.21 22.84C 27.21 22.58 27.01 22.37 26.76 22.37 26.76 22.37 25.86 22.37 25.86 22.37 25.61 22.37 25.41 22.58 25.41 22.84 25.41 22.84 25.41 23.78 25.41 23.78 25.41 24.04 25.61 24.25 25.86 24.25 25.86 24.25 26.76 24.25 26.76 24.25 27.01 24.25 27.21 24.04 27.21 23.78 27.21 23.78 27.21 22.84 27.21 22.84ZM 17.75 25.19C 17.75 25.19 12.34 25.19 12.34 25.19 12.09 25.19 11.89 24.98 11.89 24.72 11.89 24.46 12.09 24.25 12.34 24.25 12.34 24.25 17.75 24.25 17.75 24.25 18 24.25 18.2 24.46 18.2 24.72 18.2 24.98 18 25.19 17.75 25.19ZM 17.75 23.31C 17.75 23.31 12.34 23.31 12.34 23.31 12.09 23.31 11.89 23.1 11.89 22.84 11.89 22.58 12.09 22.37 12.34 22.37 12.34 22.37 17.75 22.37 17.75 22.37 18 22.37 18.2 22.58 18.2 22.84 18.2 23.1 18 23.31 17.75 23.31Z" fill="rgb(174,147,249)"/><path fillRule="evenodd" d="M 11.44 28C 11.44 28 11.44 27.75 11.44 27.75 10.34 27.75 9.44 26.82 9.44 25.66 9.44 25.66 9.44 15.34 9.44 15.34 9.44 14.18 10.34 13.25 11.44 13.25 11.44 13.25 28.56 13.25 28.56 13.25 29.66 13.25 30.56 14.18 30.56 15.34 30.56 15.34 30.56 16.28 30.56 16.28 30.56 16.28 30.56 19.09 30.56 19.09 30.56 19.09 30.56 25.66 30.56 25.66 30.56 26.82 29.66 27.75 28.56 27.75 28.56 27.75 11.44 27.75 11.44 27.75 11.44 27.75 11.44 28 11.44 28 11.44 28 11.44 28.25 11.44 28.25 11.44 28.25 28.56 28.25 28.56 28.25 29.95 28.25 31.06 27.08 31.06 25.66 31.06 25.66 31.06 19.09 31.06 19.09 31.06 19.09 31.06 16.28 31.06 16.28 31.06 16.28 31.06 15.34 31.06 15.34 31.06 13.92 29.95 12.75 28.56 12.75 28.56 12.75 11.44 12.75 11.44 12.75 10.05 12.75 8.94 13.92 8.94 15.34 8.94 15.34 8.94 25.66 8.94 25.66 8.94 27.08 10.05 28.25 11.44 28.25 11.44 28.25 11.44 28 11.44 28 11.44 28 11.44 28 11.44 28ZM 10.09 25.66C 10.09 25.66 9.84 25.66 9.84 25.66 9.84 26.56 10.55 27.31 11.44 27.31 11.44 27.31 28.56 27.31 28.56 27.31 29.45 27.31 30.16 26.56 30.16 25.66 30.16 25.66 30.16 19.31 30.16 19.31 30.16 19.31 9.84 19.31 9.84 19.31 9.84 19.31 9.84 25.66 9.84 25.66 9.84 25.66 10.09 25.66 10.09 25.66 10.09 25.66 10.34 25.66 10.34 25.66 10.34 25.66 10.34 19.81 10.34 19.81 10.34 19.81 29.66 19.81 29.66 19.81 29.66 19.81 29.66 25.66 29.66 25.66 29.66 26.3 29.16 26.81 28.56 26.81 28.56 26.81 11.44 26.81 11.44 26.81 10.84 26.81 10.34 26.3 10.34 25.66 10.34 25.66 10.09 25.66 10.09 25.66 10.09 25.66 10.09 25.66 10.09 25.66ZM 10.09 18.63C 10.09 18.63 10.09 18.87 10.09 18.87 10.09 18.87 30.16 18.87 30.16 18.87 30.16 18.87 30.16 16.5 30.16 16.5 30.16 16.5 9.84 16.5 9.84 16.5 9.84 16.5 9.84 18.87 9.84 18.87 9.84 18.87 10.09 18.87 10.09 18.87 10.09 18.87 10.09 18.63 10.09 18.63 10.09 18.63 10.34 18.63 10.34 18.63 10.34 18.63 10.34 17 10.34 17 10.34 17 29.66 17 29.66 17 29.66 17 29.66 18.37 29.66 18.37 29.66 18.37 10.09 18.37 10.09 18.37 10.09 18.37 10.09 18.63 10.09 18.63 10.09 18.63 10.34 18.63 10.34 18.63 10.34 18.63 10.09 18.63 10.09 18.63 10.09 18.63 10.09 18.63 10.09 18.63ZM 29.91 15.81C 29.91 15.81 30.16 15.81 30.16 15.81 30.16 15.81 30.16 15.34 30.16 15.34 30.16 14.44 29.45 13.69 28.56 13.69 28.56 13.69 11.44 13.69 11.44 13.69 10.55 13.69 9.84 14.44 9.84 15.34 9.84 15.34 9.84 15.81 9.84 15.81 9.84 15.81 9.84 16.06 9.84 16.06 9.84 16.06 30.16 16.06 30.16 16.06 30.16 16.06 30.16 15.81 30.16 15.81 30.16 15.81 29.91 15.81 29.91 15.81 29.91 15.81 29.91 15.56 29.91 15.56 29.91 15.56 10.34 15.56 10.34 15.56 10.34 15.56 10.34 15.34 10.34 15.34 10.34 14.7 10.84 14.19 11.44 14.19 11.44 14.19 28.56 14.19 28.56 14.19 29.16 14.19 29.66 14.7 29.66 15.34 29.66 15.34 29.66 15.81 29.66 15.81 29.66 15.81 29.91 15.81 29.91 15.81 29.91 15.81 29.91 15.56 29.91 15.56 29.91 15.56 29.91 15.81 29.91 15.81 29.91 15.81 29.91 15.81 29.91 15.81ZM 25.86 25.19C 25.86 25.19 25.86 24.94 25.86 24.94 25.26 24.94 24.76 24.43 24.76 23.78 24.76 23.78 24.76 22.84 24.76 22.84 24.76 22.2 25.26 21.69 25.86 21.69 25.86 21.69 26.76 21.69 26.76 21.69 27.36 21.69 27.86 22.2 27.86 22.84 27.86 22.84 27.86 23.78 27.86 23.78 27.86 24.43 27.36 24.94 26.76 24.94 26.76 24.94 25.86 24.94 25.86 24.94 25.86 24.94 25.86 25.19 25.86 25.19 25.86 25.19 25.86 25.44 25.86 25.44 25.86 25.44 26.76 25.44 26.76 25.44 27.65 25.44 28.36 24.69 28.36 23.78 28.36 23.78 28.36 22.84 28.36 22.84 28.36 21.94 27.65 21.19 26.76 21.19 26.76 21.19 25.86 21.19 25.86 21.19 24.97 21.19 24.26 21.94 24.26 22.84 24.26 22.84 24.26 23.78 24.26 23.78 24.26 24.69 24.97 25.44 25.86 25.44 25.86 25.44 25.86 25.19 25.86 25.19 25.86 25.19 25.86 25.19 25.86 25.19ZM 25.41 22.84C 25.41 22.84 25.16 22.84 25.16 22.84 25.16 22.84 25.16 23.78 25.16 23.78 25.16 24.17 25.46 24.5 25.86 24.5 25.86 24.5 26.76 24.5 26.76 24.5 27.15 24.5 27.46 24.17 27.46 23.78 27.46 23.78 27.46 22.84 27.46 22.84 27.46 22.45 27.15 22.13 26.76 22.13 26.76 22.13 25.86 22.13 25.86 22.13 25.46 22.13 25.16 22.45 25.16 22.84 25.16 22.84 25.41 22.84 25.41 22.84 25.41 22.84 25.66 22.84 25.66 22.84 25.66 22.72 25.75 22.63 25.86 22.63 25.86 22.63 26.76 22.63 26.76 22.63 26.86 22.63 26.96 22.72 26.96 22.84 26.96 22.84 26.96 23.78 26.96 23.78 26.96 23.91 26.86 24 26.76 24 26.76 24 25.86 24 25.86 24 25.75 24 25.66 23.91 25.66 23.78 25.66 23.78 25.66 22.84 25.66 22.84 25.66 22.84 25.41 22.84 25.41 22.84 25.41 22.84 25.41 22.84 25.41 22.84ZM 12.34 25.19C 12.34 25.19 12.34 24.94 12.34 24.94 12.24 24.94 12.14 24.85 12.14 24.72 12.14 24.59 12.24 24.5 12.34 24.5 12.34 24.5 17.75 24.5 17.75 24.5 17.85 24.5 17.95 24.59 17.95 24.72 17.95 24.85 17.85 24.94 17.75 24.94 17.75 24.94 12.34 24.94 12.34 24.94 12.34 24.94 12.34 25.19 12.34 25.19 12.34 25.19 12.34 25.44 12.34 25.44 12.34 25.44 17.75 25.44 17.75 25.44 18.14 25.44 18.45 25.11 18.45 24.72 18.45 24.33 18.14 24 17.75 24 17.75 24 12.34 24 12.34 24 11.95 24 11.64 24.33 11.64 24.72 11.64 25.11 11.94 25.44 12.34 25.44 12.34 25.44 12.34 25.19 12.34 25.19 12.34 25.19 12.34 25.19 12.34 25.19ZM 12.34 23.31C 12.34 23.31 12.34 23.06 12.34 23.06 12.24 23.06 12.14 22.97 12.14 22.84 12.14 22.72 12.24 22.63 12.34 22.63 12.34 22.63 17.75 22.63 17.75 22.63 17.85 22.63 17.95 22.72 17.95 22.84 17.95 22.97 17.85 23.06 17.75 23.06 17.75 23.06 12.34 23.06 12.34 23.06 12.34 23.06 12.34 23.31 12.34 23.31 12.34 23.31 12.34 23.56 12.34 23.56 12.34 23.56 17.75 23.56 17.75 23.56 18.14 23.56 18.45 23.23 18.45 22.84 18.45 22.45 18.14 22.13 17.75 22.13 17.75 22.13 12.34 22.13 12.34 22.13 11.95 22.13 11.64 22.45 11.64 22.84 11.64 23.23 11.95 23.56 12.34 23.56 12.34 23.56 12.34 23.31 12.34 23.31 12.34 23.31 12.34 23.31 12.34 23.31Z" fill="rgb(175,147,249)"/></g><path fillRule="evenodd" d="M 11.79 28.61C 11.79 28.61 28.61 10.39 28.61 10.39 29.11 9.85 29.93 9.85 30.43 10.39 30.93 10.94 30.93 11.82 30.43 12.36 30.43 12.36 13.61 30.58 13.61 30.58 13.1 31.13 12.29 31.13 11.79 30.58 11.29 30.04 11.29 29.16 11.79 28.61Z" fill="rgb(241,121,130)"/></svg>