<?xml version="1.0" encoding="utf-8"?>
<svg xmlns="http://www.w3.org/2000/svg"
	xmlns:xlink="http://www.w3.org/1999/xlink"
	width="40px" height="40px" viewBox="0 0 40 40">
<circle cx="20.00" cy="20.00" r="20.00" fill="rgb(255,235,229)"/><g><path fillRule="evenodd" d="M 28.14 23.1C 28.48 22.65 28.65 22.17 28.63 21.67 28.61 21.12 28.37 20.69 28.17 20.43 28.4 19.84 28.49 18.92 27.73 18.21 27.17 17.69 26.23 17.45 24.92 17.52 24 17.56 23.23 17.74 23.2 17.75 23.2 17.75 23.2 17.75 23.2 17.75 23.02 17.78 22.84 17.82 22.65 17.86 22.63 17.63 22.67 17.06 23.08 15.77 23.57 14.23 23.55 13.05 22.99 12.27 22.41 11.44 21.49 11.37 21.21 11.37 20.95 11.37 20.71 11.49 20.54 11.69 20.15 12.16 20.19 13.02 20.24 13.41 19.78 14.69 18.49 17.82 17.39 18.69 17.37 18.7 17.35 18.72 17.34 18.74 17.01 19.09 16.8 19.47 16.65 19.8 16.44 19.69 16.21 19.62 15.96 19.62 15.96 19.62 13.82 19.62 13.82 19.62 13.02 19.62 12.37 20.3 12.37 21.12 12.37 21.12 12.37 26.98 12.37 26.98 12.37 27.81 13.02 28.48 13.82 28.48 13.82 28.48 15.96 28.48 15.96 28.48 16.27 28.48 16.56 28.38 16.8 28.21 16.8 28.21 17.62 28.31 17.62 28.31 17.75 28.33 19.98 28.62 22.28 28.57 22.7 28.61 23.09 28.62 23.45 28.62 24.08 28.62 24.63 28.57 25.08 28.47 26.15 28.24 26.88 27.77 27.25 27.08 27.54 26.55 27.54 26.03 27.49 25.7 28.19 25.05 28.31 24.33 28.29 23.83 28.27 23.54 28.21 23.29 28.14 23.1ZM 13.82 27.51C 13.54 27.51 13.31 27.27 13.31 26.98 13.31 26.98 13.31 21.12 13.31 21.12 13.31 20.83 13.54 20.59 13.82 20.59 13.82 20.59 15.96 20.59 15.96 20.59 16.24 20.59 16.47 20.83 16.47 21.12 16.47 21.12 16.47 26.98 16.47 26.98 16.47 27.27 16.24 27.51 15.96 27.51 15.96 27.51 13.82 27.51 13.82 27.51 13.82 27.51 13.82 27.51 13.82 27.51ZM 27.25 22.68C 27.1 22.84 27.07 23.08 27.18 23.27 27.18 23.27 27.33 23.52 27.34 23.87 27.37 24.34 27.15 24.76 26.69 25.12 26.52 25.25 26.46 25.47 26.53 25.67 26.53 25.68 26.68 26.15 26.43 26.6 26.2 27.04 25.68 27.35 24.89 27.52 24.25 27.66 23.39 27.69 22.34 27.6 22.32 27.6 22.3 27.6 22.29 27.6 20.04 27.65 17.76 27.35 17.74 27.34 17.74 27.34 17.74 27.34 17.74 27.34 17.74 27.34 17.38 27.3 17.38 27.3 17.4 27.2 17.41 27.09 17.41 26.98 17.41 26.98 17.41 21.12 17.41 21.12 17.41 20.96 17.39 20.81 17.35 20.67 17.41 20.43 17.59 19.89 18 19.43 19.57 18.15 21.1 13.82 21.17 13.63 21.2 13.55 21.21 13.47 21.19 13.39 21.13 12.98 21.15 12.49 21.24 12.34 21.42 12.35 21.92 12.4 22.22 12.83 22.58 13.34 22.57 14.25 22.18 15.45 21.59 17.29 21.54 18.25 22.01 18.68 22.24 18.89 22.55 18.9 22.77 18.82 22.99 18.77 23.19 18.73 23.38 18.69 23.4 18.69 23.41 18.69 23.43 18.68 24.5 18.44 26.42 18.29 27.09 18.92 27.66 19.46 27.26 20.16 27.21 20.24 27.08 20.44 27.12 20.7 27.3 20.87 27.3 20.87 27.67 21.23 27.68 21.71 27.7 22.03 27.55 22.36 27.25 22.68Z" fill="rgb(249,173,129)"/><path fillRule="evenodd" d="M 28.14 23.1C 28.14 23.1 28.54 23.4 28.54 23.4 28.92 22.91 29.13 22.34 29.13 21.75 29.13 21.75 29.13 21.65 29.13 21.65 29.13 21.65 29.13 21.65 29.13 21.65 29.1 20.96 28.81 20.45 28.57 20.13 28.57 20.13 28.17 20.43 28.17 20.43 28.17 20.43 28.64 20.61 28.64 20.61 28.75 20.32 28.83 19.98 28.83 19.6 28.84 19.03 28.63 18.37 28.07 17.85 27.43 17.25 26.5 17.01 25.33 17.01 25.19 17.01 25.04 17.01 24.9 17.02 23.93 17.06 23.13 17.25 23.09 17.26 23.09 17.26 23.2 17.75 23.2 17.75 23.2 17.75 23.2 17.25 23.2 17.25 23.2 17.25 23.2 17.25 23.2 17.25 23.2 17.25 23.15 17.25 23.15 17.25 23.15 17.25 23.1 17.25 23.1 17.25 22.92 17.29 22.73 17.33 22.53 17.37 22.53 17.37 22.65 17.86 22.65 17.86 22.65 17.86 23.15 17.83 23.15 17.83 23.15 17.83 23.14 17.78 23.14 17.78 23.14 17.59 23.2 17.05 23.56 15.92 23.8 15.16 23.93 14.47 23.93 13.84 23.93 13.13 23.76 12.49 23.4 11.98 22.66 10.94 21.55 10.88 21.21 10.87 20.81 10.87 20.41 11.06 20.15 11.37 19.76 11.86 19.72 12.44 19.71 12.9 19.71 13.13 19.73 13.33 19.75 13.48 19.75 13.48 20.24 13.41 20.24 13.41 20.24 13.41 19.77 13.24 19.77 13.24 19.35 14.47 17.97 17.64 17.08 18.3 17.08 18.3 17.39 18.69 17.39 18.69 17.39 18.69 17.11 18.28 17.11 18.28 17.11 18.28 16.98 18.39 16.98 18.39 16.98 18.39 16.97 18.4 16.97 18.4 16.97 18.4 16.97 18.4 16.97 18.4 16.6 18.8 16.36 19.23 16.19 19.6 16.19 19.6 16.65 19.8 16.65 19.8 16.65 19.8 16.9 19.37 16.9 19.37 16.62 19.21 16.3 19.12 15.96 19.12 15.96 19.12 13.82 19.12 13.82 19.12 12.73 19.12 11.87 20.03 11.87 21.12 11.87 21.12 11.87 26.98 11.87 26.98 11.87 28.08 12.74 28.98 13.82 28.98 13.82 28.98 15.96 28.98 15.96 28.98 16.38 28.98 16.77 28.85 17.09 28.61 17.09 28.61 16.8 28.21 16.8 28.21 16.8 28.21 16.74 28.71 16.74 28.71 16.74 28.71 17.56 28.81 17.56 28.81 17.56 28.81 17.62 28.31 17.62 28.31 17.62 28.31 17.55 28.81 17.55 28.81 17.69 28.83 19.62 29.08 21.77 29.08 21.95 29.08 22.12 29.08 22.29 29.07 22.29 29.07 22.28 28.57 22.28 28.57 22.28 28.57 22.24 29.07 22.24 29.07 22.67 29.11 23.07 29.12 23.45 29.12 24.11 29.12 24.69 29.07 25.19 28.96 26.34 28.71 27.23 28.17 27.69 27.32 27.94 26.85 28.01 26.39 28.01 26.03 28.01 25.88 28 25.75 27.99 25.63 27.99 25.63 27.49 25.7 27.49 25.7 27.49 25.7 27.83 26.07 27.83 26.07 28.59 25.37 28.79 24.54 28.79 23.94 28.79 23.94 28.78 23.81 28.78 23.81 28.78 23.81 28.78 23.8 28.78 23.8 28.77 23.45 28.69 23.16 28.61 22.93 28.61 22.93 28.14 23.1 28.14 23.1 28.14 23.1 28.54 23.4 28.54 23.4 28.54 23.4 28.14 23.1 28.14 23.1 28.14 23.1 27.67 23.27 27.67 23.27 27.72 23.42 27.77 23.62 27.79 23.85 27.79 23.85 27.79 23.85 27.79 23.85 27.79 23.85 27.79 23.94 27.79 23.94 27.78 24.34 27.68 24.83 27.15 25.33 27.15 25.33 26.96 25.51 26.96 25.51 26.96 25.51 27 25.77 27 25.77 27.01 25.84 27.01 25.93 27.01 26.03 27.01 26.27 26.97 26.56 26.81 26.84 26.53 27.37 25.96 27.77 24.97 27.99 24.57 28.08 24.05 28.13 23.45 28.12 23.11 28.12 22.73 28.11 22.32 28.08 22.32 28.08 22.3 28.07 22.3 28.07 22.3 28.07 22.27 28.07 22.27 28.07 22.11 28.08 21.94 28.08 21.77 28.08 19.71 28.08 17.78 27.83 17.69 27.82 17.69 27.82 17.69 27.82 17.69 27.82 17.69 27.82 16.86 27.71 16.86 27.71 16.86 27.71 16.66 27.69 16.66 27.69 16.66 27.69 16.5 27.81 16.5 27.81 16.35 27.92 16.16 27.98 15.96 27.98 15.96 27.98 13.82 27.98 13.82 27.98 13.31 27.98 12.87 27.55 12.87 26.98 12.87 26.98 12.87 21.12 12.87 21.12 12.87 20.56 13.31 20.12 13.82 20.12 13.82 20.12 15.96 20.12 15.96 20.12 16.12 20.12 16.27 20.16 16.41 20.24 16.41 20.24 16.89 20.51 16.89 20.51 16.89 20.51 17.11 20 17.11 20 17.24 19.71 17.43 19.38 17.7 19.08 17.7 19.08 17.34 18.74 17.34 18.74 17.34 18.74 17.7 19.09 17.7 19.09 17.7 19.09 17.61 19 17.61 19 17.61 19 17.68 19.1 17.68 19.1 17.68 19.1 17.7 19.09 17.7 19.09 17.7 19.09 17.61 19 17.61 19 17.61 19 17.68 19.1 17.68 19.1 17.68 19.1 17.69 19.09 17.69 19.09 17.69 19.09 17.7 19.08 17.7 19.08 19.01 18 20.21 14.91 20.71 13.58 20.71 13.58 20.75 13.47 20.75 13.47 20.75 13.47 20.74 13.35 20.74 13.35 20.73 13.24 20.71 13.08 20.71 12.9 20.7 12.54 20.79 12.15 20.92 12.01 21 11.92 21.09 11.88 21.21 11.87 21.42 11.87 22.16 11.94 22.58 12.55 22.8 12.87 22.93 13.28 22.93 13.84 22.93 14.33 22.83 14.92 22.61 15.61 22.23 16.8 22.15 17.42 22.14 17.78 22.14 17.78 22.15 17.89 22.15 17.89 22.15 17.89 22.18 18.48 22.18 18.48 22.18 18.48 22.76 18.35 22.76 18.35 22.94 18.31 23.12 18.27 23.29 18.24 23.29 18.24 23.2 17.75 23.2 17.75 23.2 17.75 23.2 18.25 23.2 18.25 23.2 18.25 23.2 18.25 23.2 18.25 23.2 18.25 23.26 18.25 23.26 18.25 23.26 18.25 23.31 18.23 23.31 18.23 23.33 18.23 24.07 18.06 24.94 18.02 25.08 18.01 25.21 18.01 25.33 18.01 26.36 18.01 27.04 18.24 27.39 18.58 27.73 18.91 27.83 19.24 27.83 19.6 27.83 19.83 27.78 20.06 27.71 20.25 27.71 20.25 27.61 20.51 27.61 20.51 27.61 20.51 27.77 20.73 27.77 20.73 27.93 20.94 28.11 21.28 28.13 21.69 28.13 21.69 28.13 21.69 28.13 21.69 28.13 21.69 28.13 21.69 28.13 21.69 28.13 21.69 28.13 21.75 28.13 21.75 28.13 22.1 28.01 22.44 27.74 22.8 27.74 22.8 27.58 23.02 27.58 23.02 27.58 23.02 27.67 23.27 27.67 23.27 27.67 23.27 28.14 23.1 28.14 23.1 28.14 23.1 28.14 23.1 28.14 23.1ZM 13.82 27.51C 13.82 27.51 13.82 27.01 13.82 27.01 13.82 27.01 13.81 26.98 13.81 26.98 13.81 26.98 13.81 21.12 13.81 21.12 13.81 21.12 13.82 21.09 13.82 21.09 13.82 21.09 15.96 21.09 15.96 21.09 15.96 21.09 15.97 21.12 15.97 21.12 15.97 21.12 15.97 26.98 15.97 26.98 15.97 26.98 15.96 27.01 15.96 27.01 15.96 27.01 13.32 27.01 13.32 27.01 13.32 27.01 13.32 27.51 13.32 27.51 13.32 27.51 13.82 27.51 13.82 27.51 13.82 27.51 13.82 27.01 13.82 27.01 13.82 27.01 13.82 27.51 13.82 27.51 13.82 27.51 14.32 27.51 14.32 27.51 14.32 27.51 14.32 27.51 14.32 27.51 14.32 27.51 13.82 27.51 13.82 27.51 13.82 27.51 13.82 28.01 13.82 28.01 13.82 28.01 15.96 28.01 15.96 28.01 16.53 28 16.97 27.54 16.97 26.98 16.97 26.98 16.97 21.12 16.97 21.12 16.97 20.57 16.53 20.09 15.96 20.09 15.96 20.09 13.82 20.09 13.82 20.09 13.26 20.09 12.81 20.56 12.81 21.12 12.81 21.12 12.81 26.98 12.81 26.98 12.81 27.54 13.25 28.01 13.82 28.01 13.82 28.01 14.32 28.01 14.32 28.01 14.32 28.01 14.32 27.51 14.32 27.51 14.32 27.51 13.82 27.51 13.82 27.51 13.82 27.51 13.82 27.51 13.82 27.51ZM 27.25 22.68C 27.25 22.68 26.88 22.34 26.88 22.34 26.7 22.53 26.61 22.77 26.61 23.02 26.61 23.19 26.66 23.37 26.75 23.53 26.75 23.53 27.18 23.27 27.18 23.27 27.18 23.27 26.68 23.27 26.68 23.27 26.8 23.77 26.8 23.54 26.84 23.9 26.84 23.9 26.85 23.94 26.85 23.94 26.84 24.21 26.74 24.44 26.38 24.72 26.38 24.72 26.38 24.72 26.38 24.72 26.38 24.72 26.38 24.73 26.38 24.73 26.13 24.92 26 25.21 26 25.51 26 25.62 26.02 25.73 26.05 25.84 26.05 25.84 26.53 25.67 26.53 25.67 26.53 25.67 26.03 25.67 26.03 25.67 26.07 25.97 26.06 25.81 26.07 26.03 26.07 26.14 26.05 26.26 25.99 26.37 25.87 26.61 25.5 26.88 24.78 27.03 24.44 27.11 23.99 27.15 23.47 27.15 23.13 27.15 22.77 27.13 22.38 27.1 22.38 27.1 22.36 27.1 22.36 27.1 22.36 27.1 22.34 27.1 22.34 27.1 22.34 27.1 22.29 27.1 22.29 27.1 22.29 27.1 22.28 27.1 22.28 27.1 22.28 27.1 22.28 27.1 22.28 27.1 22.11 27.1 21.94 27.11 21.77 27.11 19.74 27.11 17.82 26.85 17.81 26.85 17.81 26.85 17.78 26.84 17.78 26.84 17.78 26.84 17.77 26.84 17.77 26.84 17.77 26.84 17.44 26.8 17.44 26.8 17.44 26.8 17.38 27.3 17.38 27.3 17.38 27.3 17.87 27.4 17.87 27.4 17.9 27.26 17.91 27.12 17.91 26.98 17.91 26.98 17.91 21.12 17.91 21.12 17.91 20.91 17.88 20.71 17.83 20.53 17.83 20.53 17.35 20.67 17.35 20.67 17.35 20.67 17.83 20.8 17.83 20.8 17.88 20.6 18.04 20.13 18.37 19.77 18.37 19.77 18 19.43 18 19.43 18 19.43 18.31 19.82 18.31 19.82 20.09 18.32 21.54 14.02 21.64 13.8 21.64 13.8 21.17 13.63 21.17 13.63 21.17 13.63 21.64 13.8 21.64 13.8 21.68 13.69 21.7 13.58 21.7 13.47 21.7 13.47 21.69 13.31 21.69 13.31 21.69 13.31 21.69 13.31 21.69 13.31 21.67 13.19 21.66 13.04 21.66 12.91 21.64 12.71 21.7 12.61 21.67 12.59 21.67 12.59 21.24 12.34 21.24 12.34 21.24 12.34 21.23 12.84 21.23 12.84 21.35 12.84 21.67 12.89 21.81 13.12 21.91 13.24 21.98 13.48 21.98 13.83 21.98 14.21 21.89 14.71 21.7 15.3 21.37 16.34 21.2 17.12 21.2 17.75 21.19 18.26 21.32 18.73 21.67 19.05 21.67 19.05 21.67 19.05 21.67 19.05 21.67 19.05 21.67 19.05 21.67 19.05 21.92 19.28 22.23 19.37 22.5 19.37 22.66 19.37 22.81 19.34 22.95 19.29 22.95 19.29 22.77 18.82 22.77 18.82 22.77 18.82 22.89 19.31 22.89 19.31 23.09 19.26 23.29 19.22 23.46 19.19 23.46 19.19 23.48 19.18 23.48 19.18 23.48 19.18 23.51 19.18 23.51 19.18 23.51 19.18 23.55 19.17 23.55 19.17 23.55 19.17 23.43 18.68 23.43 18.68 23.43 18.68 23.54 19.17 23.54 19.17 24.01 19.06 24.68 18.97 25.3 18.98 25.99 18.96 26.61 19.12 26.75 19.29 26.75 19.29 26.75 19.29 26.75 19.29 26.75 19.29 26.75 19.29 26.75 19.29 26.87 19.41 26.89 19.49 26.89 19.6 26.9 19.77 26.79 19.97 26.78 19.98 26.78 19.98 27.21 20.24 27.21 20.24 27.21 20.24 26.79 19.97 26.79 19.97 26.69 20.13 26.63 20.32 26.63 20.5 26.63 20.77 26.75 21.04 26.96 21.23 26.96 21.23 27.3 20.87 27.3 20.87 27.3 20.87 26.94 21.21 26.94 21.21 26.94 21.21 27.19 21.49 27.18 21.72 27.18 21.72 27.18 21.72 27.18 21.72 27.18 21.72 27.18 21.73 27.18 21.73 27.18 21.73 27.18 21.75 27.18 21.75 27.19 21.89 27.12 22.08 26.88 22.34 26.88 22.34 26.88 22.34 26.88 22.34 26.88 22.34 26.88 22.34 26.88 22.34 26.88 22.34 27.25 22.68 27.25 22.68 27.25 22.68 27.61 23.02 27.61 23.02 27.96 22.65 28.18 22.22 28.18 21.75 28.18 21.75 28.18 21.68 28.18 21.68 28.18 21.68 28.18 21.67 28.18 21.67 28.18 21.67 28.18 21.69 28.18 21.69 28.14 20.96 27.66 20.54 27.65 20.52 27.65 20.52 27.64 20.51 27.64 20.51 27.64 20.51 27.64 20.5 27.64 20.5 27.64 20.5 27.63 20.5 27.63 20.5 27.63 20.5 27.62 20.5 27.62 20.5 27.62 20.5 27.63 20.51 27.63 20.51 27.63 20.51 27.63 20.5 27.63 20.5 27.63 20.5 27.62 20.5 27.62 20.5 27.62 20.5 27.63 20.51 27.63 20.51 27.63 20.51 27.64 20.5 27.64 20.5 27.64 20.5 27.64 20.49 27.64 20.49 27.69 20.41 27.89 20.08 27.89 19.6 27.9 19.28 27.77 18.87 27.44 18.56 27.44 18.56 27.43 18.56 27.43 18.56 26.87 18.06 26.09 17.99 25.3 17.98 24.59 17.98 23.86 18.07 23.32 18.2 23.32 18.2 23.31 18.2 23.31 18.2 23.31 18.2 23.3 18.2 23.3 18.2 23.3 18.2 23.26 18.21 23.26 18.21 23.26 18.21 23.38 18.69 23.38 18.69 23.38 18.69 23.3 18.2 23.3 18.2 23.09 18.24 22.88 18.28 22.66 18.33 22.66 18.33 22.63 18.34 22.63 18.34 22.63 18.34 22.6 18.35 22.6 18.35 22.6 18.35 22.5 18.37 22.5 18.37 22.5 18.37 22.35 18.31 22.35 18.31 22.35 18.31 22.35 18.31 22.35 18.31 22.28 18.25 22.2 18.12 22.2 17.75 22.19 17.31 22.34 16.59 22.66 15.6 22.87 14.94 22.98 14.35 22.98 13.83 22.98 13.35 22.88 12.9 22.63 12.54 22.17 11.9 21.5 11.85 21.25 11.84 21.25 11.84 20.95 11.84 20.95 11.84 20.95 11.84 20.8 12.09 20.8 12.09 20.66 12.39 20.67 12.6 20.66 12.91 20.66 13.09 20.67 13.28 20.7 13.46 20.7 13.46 20.7 13.48 20.7 13.48 20.7 13.48 20.7 13.46 20.7 13.46 20.7 13.46 20.7 13.47 20.7 13.47 20.7 13.47 20.74 13.47 20.74 13.47 20.74 13.47 20.7 13.46 20.7 13.46 20.7 13.46 20.7 13.47 20.7 13.47 20.7 13.47 20.74 13.47 20.74 13.47 20.74 13.47 20.7 13.46 20.7 13.46 20.7 13.46 20.7 13.46 20.7 13.46 20.7 13.46 20.7 13.46 20.7 13.46 20.67 13.62 19.05 17.98 17.68 19.05 17.68 19.05 17.65 19.07 17.65 19.07 17.65 19.07 17.63 19.1 17.63 19.1 17.13 19.65 16.94 20.26 16.86 20.54 16.86 20.54 16.83 20.68 16.83 20.68 16.83 20.68 16.87 20.81 16.87 20.81 16.9 20.91 16.91 21.02 16.91 21.12 16.91 21.12 16.91 26.98 16.91 26.98 16.91 26.98 16.89 27.2 16.89 27.2 16.89 27.2 16.78 27.73 16.78 27.73 16.78 27.73 17.67 27.84 17.67 27.84 17.67 27.84 17.7 27.84 17.7 27.84 17.7 27.84 17.74 27.84 17.74 27.84 17.74 27.84 17.74 27.34 17.74 27.34 17.74 27.34 17.67 27.84 17.67 27.84 17.72 27.85 19.66 28.11 21.77 28.11 21.94 28.11 22.12 28.1 22.3 28.1 22.3 28.1 22.29 27.6 22.29 27.6 22.29 27.6 22.29 28.1 22.29 28.1 22.29 28.1 22.34 28.1 22.34 28.1 22.34 28.1 22.34 27.6 22.34 27.6 22.34 27.6 22.29 28.1 22.29 28.1 22.71 28.13 23.1 28.15 23.47 28.15 24.05 28.15 24.55 28.11 24.99 28.01 25.85 27.82 26.52 27.47 26.87 26.84 27.03 26.55 27.07 26.25 27.07 26.03 27.08 25.83 26.99 25.67 27.03 25.67 27.03 25.67 27.03 25.59 27.03 25.59 27.03 25.59 27 25.51 27 25.51 27 25.51 26.99 25.51 26.99 25.51 26.99 25.51 27 25.51 27 25.51 27 25.51 27 25.51 27 25.51 27 25.51 26.99 25.51 26.99 25.51 26.99 25.51 27 25.51 27 25.51 27 25.51 27 25.51 27 25.51 27 25.51 27 25.51 27 25.51 27 25.51 27 25.51 27 25.51 27 25.51 27 25.51 27 25.51 27 25.51 27 25.51 27 25.51 27 25.51 27 25.51 27 25.51 27 25.51 26.99 25.51 26.99 25.51 27.51 25.12 27.85 24.56 27.85 23.94 27.85 23.94 27.84 23.84 27.84 23.84 27.85 23.51 27.59 23.27 27.68 23.27 27.68 23.27 27.68 23.13 27.68 23.13 27.68 23.13 27.61 23.01 27.61 23.01 27.61 23.01 27.6 23.02 27.6 23.02 27.6 23.02 27.61 23.02 27.61 23.02 27.61 23.02 27.61 23.01 27.61 23.01 27.61 23.01 27.6 23.02 27.6 23.02 27.6 23.02 27.61 23.02 27.61 23.02 27.61 23.02 27.61 23.02 27.61 23.02 27.61 23.02 27.61 23.02 27.61 23.02 27.61 23.02 27.61 23.02 27.61 23.02 27.61 23.02 27.61 23.02 27.61 23.02 27.61 23.02 27.61 23.02 27.61 23.02 27.61 23.02 27.61 23.02 27.61 23.02 27.61 23.02 27.25 22.68 27.25 22.68 27.25 22.68 27.25 22.68 27.25 22.68Z" fill="rgb(249,173,129)"/></g></svg>