<?xml version="1.0" encoding="utf-8"?>
<svg xmlns="http://www.w3.org/2000/svg"
	xmlns:xlink="http://www.w3.org/1999/xlink"
	width="596px" height="354px" viewBox="0 0 596 354">
<clipPath id="clip0"><rect x="152" y="75" width="318" height="242" rx="8"/></clipPath><clipPath id="clip1"><path fillRule="evenodd" d="M-15 151.25C-15 151.25-15-15.25-15-15.25-15-15.25 171-15.25 171-15.25 171-15.25 171 151.25 171 151.25 171 151.25-15 151.25-15 151.25ZM 139 24.75C 139 20.33 135.42 16.75 131 16.75 131 16.75 25 16.75 25 16.75 20.58 16.75 17 20.33 17 24.75 17 24.75 17 111.25 17 111.25 17 115.67 20.58 119.25 25 119.25 25 119.25 131 119.25 131 119.25 135.42 119.25 139 115.67 139 111.25 139 111.25 139 24.75 139 24.75Z"/></clipPath><clipPath id="clip2"><path fillRule="evenodd" d="M-15.91 106C-15.91 106-15.91-15-15.91-15-15.91-15 163.91-15 163.91-15 163.91-15 163.91 106 163.91 106 163.91 106-15.91 106-15.91 106ZM 131.91 25C 131.91 20.58 128.32 17 123.91 17 123.91 17 24.09 17 24.09 17 19.68 17 16.09 20.58 16.09 25 16.09 25 16.09 66 16.09 66 16.09 70.42 19.68 74 24.09 74 24.09 74 123.91 74 123.91 74 128.32 74 131.91 70.42 131.91 66 131.91 66 131.91 25 131.91 25Z"/></clipPath><clipPath id="clip3"><path fillRule="evenodd" d="M-15 106C-15 106-15-15-15-15-15-15 157-15 157-15 157-15 157 106 157 106 157 106-15 106-15 106ZM 125 25C 125 20.58 121.42 17 117 17 117 17 25 17 25 17 20.58 17 17 20.58 17 25 17 25 17 66 17 66 17 70.42 20.58 74 25 74 25 74 117 74 117 74 121.42 74 125 70.42 125 66 125 66 125 25 125 25Z"/></clipPath><defs>
<symbol id="symbol0"><rect x="106" y="193" width="122" height="102" rx="8"/></symbol><symbol id="symbol1"><rect x="410" y="197" width="116" height="57" rx="8"/></symbol><symbol id="symbol2"><rect x="396" y="155" width="108" height="57" rx="8"/></symbol></defs>
<path fillRule="evenodd" d="M 31 90C 2.03 118.73-5.56 166.83 6 203 21.92 252.84 72.27 274.61 146 302 218.3 328.85 290.61 353.77 328 354 437.4 354.68 581.7 300.79 595 212 609.95 112.13 455.95-10.26 331 1 271.58 6.35 257.65 40.8 198 56 159.27 65.87 69.57 51.75 31 90Z" fill="rgb(234,244,255)"/><g><rect x="152" y="75" width="318" height="242" rx="8" fill="rgb(255,255,255)"/><path fillRule="evenodd" d="M 462 317.22C 466.42 317.22 470 313.64 470 309.22 470 309.22 470 82.78 470 82.78 470 78.36 466.42 74.78 462 74.78 462 74.78 160 74.78 160 74.78 155.58 74.78 152 78.36 152 82.78 152 82.78 152 309.22 152 309.22 152 313.64 155.58 317.22 160 317.22 160 317.22 462 317.22 462 317.22M 462 325.22C 462 325.22 160 325.22 160 325.22 151.18 325.22 144 318.04 144 309.22 144 309.22 144 82.78 144 82.78 144 73.96 151.18 66.78 160 66.78 160 66.78 462 66.78 462 66.78 470.82 66.78 478 73.96 478 82.78 478 82.78 478 309.22 478 309.22 478 318.04 470.82 325.22 462 325.22 462 325.22 462 325.22 462 325.22Z" fill="rgb(73,73,75)"/></g><g><g><rect x="152" y="75" width="318" height="242" rx="8" fill="rgb(255,255,255)"/><rect x="149" y="70" width="326" height="57" fill="rgb(255,157,155)" clip-path="url(#clip0)"/></g><path fillRule="evenodd" d="M 462 317.22C 466.42 317.22 470 313.64 470 309.22 470 309.22 470 82.78 470 82.78 470 78.36 466.42 74.78 462 74.78 462 74.78 160 74.78 160 74.78 155.58 74.78 152 78.36 152 82.78 152 82.78 152 309.22 152 309.22 152 313.64 155.58 317.22 160 317.22 160 317.22 462 317.22 462 317.22M 462 325.22C 462 325.22 160 325.22 160 325.22 151.18 325.22 144 318.04 144 309.22 144 309.22 144 82.78 144 82.78 144 73.96 151.18 66.78 160 66.78 160 66.78 462 66.78 462 66.78 470.82 66.78 478 73.96 478 82.78 478 82.78 478 309.22 478 309.22 478 318.04 470.82 325.22 462 325.22 462 325.22 462 325.22 462 325.22Z" fill="rgb(73,73,75)"/></g><circle cx="180.00" cy="155.00" r="13.00" fill="rgb(235,235,235)"/><circle cx="224.00" cy="155.00" r="13.00" fill="rgb(235,235,235)"/><circle cx="267.00" cy="155.00" r="13.00" fill="rgb(235,235,235)"/><circle cx="311.00" cy="155.00" r="13.00" fill="rgb(235,235,235)"/><circle cx="355.00" cy="155.00" r="13.00" fill="rgb(235,235,235)"/><circle cx="398.00" cy="155.00" r="13.00" fill="rgb(235,235,235)"/><circle cx="442.00" cy="155.00" r="13.00" fill="rgb(235,235,235)"/><g><path fillRule="evenodd" d="M 255 102C 255 102 369 102 369 102" fill="rgb(255,255,255)"/><path fillRule="evenodd" d="M 255 94C 255 94 369 94 369 94 371.21 94 373 95.79 373 98 373 100.21 371.21 102 369 102 369 102 255 102 255 102 252.79 102 251 100.21 251 98 251 95.79 252.79 94 255 94 255 94 255 94 255 94Z" fill="rgb(239,71,69)"/></g><circle cx="180.00" cy="198.00" r="13.00" fill="rgb(235,235,235)"/><circle cx="224.00" cy="198.00" r="13.00" fill="rgb(235,235,235)"/><circle cx="267.00" cy="198.00" r="13.00" fill="rgb(85,161,207)"/><circle cx="311.00" cy="198.00" r="13.00" fill="rgb(235,235,235)"/><circle cx="355.00" cy="198.00" r="13.00" fill="rgb(235,235,235)"/><circle cx="398.00" cy="198.00" r="13.00" fill="rgb(235,235,235)"/><circle cx="442.00" cy="198.00" r="13.00" fill="rgb(235,235,235)"/><circle cx="180.00" cy="241.00" r="13.00" fill="rgb(235,235,235)"/><circle cx="224.00" cy="241.00" r="13.00" fill="rgb(235,235,235)"/><circle cx="267.00" cy="241.00" r="13.00" fill="rgb(235,235,235)"/><circle cx="311.00" cy="241.00" r="13.00" fill="rgb(235,235,235)"/><circle cx="355.00" cy="241.00" r="13.00" fill="rgb(235,235,235)"/><circle cx="398.00" cy="241.00" r="13.00" fill="rgb(235,235,235)"/><circle cx="442.00" cy="241.00" r="13.00" fill="rgb(235,235,235)"/><circle cx="180.00" cy="284.00" r="13.00" fill="rgb(235,235,235)"/><circle cx="224.00" cy="284.00" r="13.00" fill="rgb(235,235,235)"/><circle cx="267.00" cy="284.00" r="13.00" fill="rgb(235,235,235)"/><circle cx="311.00" cy="284.00" r="13.00" fill="rgb(235,235,235)"/><circle cx="355.00" cy="284.00" r="13.00" fill="rgb(235,235,235)"/><circle cx="398.00" cy="284.00" r="13.00" fill="rgb(235,235,235)"/><circle cx="442.00" cy="284.00" r="13.00" fill="rgb(235,235,235)"/><g><circle cx="200.00" cy="98.00" r="10.00" fill="rgb(255,255,255)"/><path fillRule="evenodd" d="M 200 107.53C 205.26 107.53 209.53 103.26 209.53 98 209.53 92.74 205.26 88.47 200 88.47 194.74 88.47 190.47 92.74 190.47 98 190.47 103.26 194.74 107.53 200 107.53M 200 115.53C 190.33 115.53 182.47 107.67 182.47 98 182.47 88.33 190.33 80.47 200 80.47 209.67 80.47 217.53 88.33 217.53 98 217.53 107.67 209.67 115.53 200 115.53 200 115.53 200 115.53 200 115.53Z" fill="rgb(73,73,75)"/></g><g><path fillRule="evenodd" d="M 204 96.92C 204 96.92 204 57.08 204 57.08" fill="rgb(255,255,255)"/><path fillRule="evenodd" d="M 196 96.92C 196 96.92 196 57.08 196 57.08 196 54.87 197.79 53.08 200 53.08 202.21 53.08 204 54.87 204 57.08 204 57.08 204 96.92 204 96.92 204 99.13 202.21 100.92 200 100.92 197.79 100.92 196 99.13 196 96.92 196 96.92 196 96.92 196 96.92Z" fill="rgb(73,73,75)"/></g><g><circle cx="423.00" cy="98.00" r="10.00" fill="rgb(255,255,255)"/><path fillRule="evenodd" d="M 423 107.53C 428.26 107.53 432.53 103.26 432.53 98 432.53 92.74 428.26 88.47 423 88.47 417.74 88.47 413.47 92.74 413.47 98 413.47 103.26 417.74 107.53 423 107.53M 423 115.53C 413.33 115.53 405.47 107.67 405.47 98 405.47 88.33 413.33 80.47 423 80.47 432.67 80.47 440.53 88.33 440.53 98 440.53 107.67 432.67 115.53 423 115.53 423 115.53 423 115.53 423 115.53Z" fill="rgb(73,73,75)"/></g><g><path fillRule="evenodd" d="M 427 96.92C 427 96.92 427 57.08 427 57.08" fill="rgb(255,255,255)"/><path fillRule="evenodd" d="M 419 96.92C 419 96.92 419 57.08 419 57.08 419 54.87 420.79 53.08 423 53.08 425.21 53.08 427 54.87 427 57.08 427 57.08 427 96.92 427 96.92 427 99.13 425.21 100.92 423 100.92 420.79 100.92 419 99.13 419 96.92 419 96.92 419 96.92 419 96.92Z" fill="rgb(73,73,75)"/></g><g><use xlink:href="#symbol0" x="89" y="176" width="156" height="136" fill="rgb(255,255,255)"/><use xlink:href="#symbol0" x="89" y="176" width="156" height="136" fill="none" stroke="rgb(255,255,255)" stroke-width="8.00px" clip-path="url(#clip1)"/><path fillRule="evenodd" d="M 220 295.25C 224.42 295.25 228 291.67 228 287.25 228 287.25 228 200.75 228 200.75 228 196.33 224.42 192.75 220 192.75 220 192.75 114 192.75 114 192.75 109.58 192.75 106 196.33 106 200.75 106 200.75 106 287.25 106 287.25 106 291.67 109.58 295.25 114 295.25 114 295.25 220 295.25 220 295.25M 220 303.25C 220 303.25 114 303.25 114 303.25 105.18 303.25 98 296.07 98 287.25 98 287.25 98 200.75 98 200.75 98 191.93 105.18 184.75 114 184.75 114 184.75 220 184.75 220 184.75 228.82 184.75 236 191.93 236 200.75 236 200.75 236 287.25 236 287.25 236 296.07 228.82 303.25 220 303.25 220 303.25 220 303.25 220 303.25Z" fill="rgb(255,135,132)"/></g><g><path fillRule="evenodd" d="M 152.94 282C 152.94 282 177.06 282 177.06 282" fill="rgb(255,255,255)"/><path fillRule="evenodd" d="M 152.94 274C 152.94 274 177.06 274 177.06 274 179.27 274 181.06 275.79 181.06 278 181.06 280.21 179.27 282 177.06 282 177.06 282 152.94 282 152.94 282 150.73 282 148.94 280.21 148.94 278 148.94 275.79 150.73 274 152.94 274 152.94 274 152.94 274 152.94 274Z" fill="rgb(228,217,255)"/></g><g><path fillRule="evenodd" d="M 128.78 267C 128.78 267 200.22 267 200.22 267" fill="rgb(255,255,255)"/><path fillRule="evenodd" d="M 128.78 259C 128.78 259 200.22 259 200.22 259 202.43 259 204.22 260.79 204.22 263 204.22 265.21 202.43 267 200.22 267 200.22 267 128.78 267 128.78 267 126.57 267 124.78 265.21 124.78 263 124.78 260.79 126.57 259 128.78 259 128.78 259 128.78 259 128.78 259Z" fill="rgb(228,217,255)"/></g><circle cx="167.00" cy="226.00" r="23.00" fill="rgb(85,161,207)"/><g><use xlink:href="#symbol1" x="394" y="180" width="148" height="91" fill="rgb(255,255,255)"/><use xlink:href="#symbol1" x="394" y="180" width="148" height="91" fill="none" stroke="rgb(255,255,255)" stroke-width="8.00px" clip-path="url(#clip2)"/><path fillRule="evenodd" d="M 517.91 254C 522.32 254 525.91 250.42 525.91 246 525.91 246 525.91 205 525.91 205 525.91 200.58 522.32 197 517.91 197 517.91 197 418.09 197 418.09 197 413.68 197 410.09 200.58 410.09 205 410.09 205 410.09 246 410.09 246 410.09 250.42 413.68 254 418.09 254 418.09 254 517.91 254 517.91 254M 517.91 262C 517.91 262 418.09 262 418.09 262 409.27 262 402.09 254.82 402.09 246 402.09 246 402.09 205 402.09 205 402.09 196.18 409.27 189 418.09 189 418.09 189 517.91 189 517.91 189 526.73 189 533.91 196.18 533.91 205 533.91 205 533.91 246 533.91 246 533.91 254.82 526.73 262 517.91 262 517.91 262 517.91 262 517.91 262Z" fill="rgb(171,139,255)"/></g><path fillRule="evenodd" d="M 468.34 212C 468.34 212 508.66 212 508.66 212 510.87 212 512.66 213.79 512.66 216 512.66 218.21 510.87 220 508.66 220 508.66 220 468.34 220 468.34 220 466.13 220 464.34 218.21 464.34 216 464.34 213.79 466.13 212 468.34 212 468.34 212 468.34 212 468.34 212Z" fill="rgb(213,237,251)"/><path fillRule="evenodd" d="M 444.17 212C 444.17 212 445.83 212 445.83 212 448.04 212 449.83 213.79 449.83 216 449.83 218.21 448.04 220 445.83 220 445.83 220 444.17 220 444.17 220 441.96 220 440.17 218.21 440.17 216 440.17 213.79 441.96 212 444.17 212 444.17 212 444.17 212 444.17 212Z" fill="rgb(255,181,205)"/><path fillRule="evenodd" d="M 468.34 233C 468.34 233 508.66 233 508.66 233 510.87 233 512.66 234.79 512.66 237 512.66 239.21 510.87 241 508.66 241 508.66 241 468.34 241 468.34 241 466.13 241 464.34 239.21 464.34 237 464.34 234.79 466.13 233 468.34 233 468.34 233 468.34 233 468.34 233Z" fill="rgb(213,237,251)"/><path fillRule="evenodd" d="M 444.17 233C 444.17 233 445.83 233 445.83 233 448.04 233 449.83 234.79 449.83 237 449.83 239.21 448.04 241 445.83 241 445.83 241 444.17 241 444.17 241 441.96 241 440.17 239.21 440.17 237 440.17 234.79 441.96 233 444.17 233 444.17 233 444.17 233 444.17 233Z" fill="rgb(255,181,205)"/><g><use xlink:href="#symbol2" x="379" y="138" width="142" height="91" fill="rgb(255,255,255)"/><use xlink:href="#symbol2" x="379" y="138" width="142" height="91" fill="none" stroke="rgb(255,255,255)" stroke-width="8.00px" clip-path="url(#clip3)"/><path fillRule="evenodd" d="M 496 212C 500.42 212 504 208.42 504 204 504 204 504 163 504 163 504 158.58 500.42 155 496 155 496 155 404 155 404 155 399.58 155 396 158.58 396 163 396 163 396 204 396 204 396 208.42 399.58 212 404 212 404 212 496 212 496 212M 496 220C 496 220 404 220 404 220 395.18 220 388 212.82 388 204 388 204 388 163 388 163 388 154.18 395.18 147 404 147 404 147 496 147 496 147 504.82 147 512 154.18 512 163 512 163 512 204 512 204 512 212.82 504.82 220 496 220 496 220 496 220 496 220Z" fill="rgb(165,215,177)"/></g><path fillRule="evenodd" d="M 416.59 169.79C 416.59 169.79 423.16 176.33 423.16 176.33 423.16 176.33 417.52 182 417.52 182 417.52 182 410.95 175.47 410.95 175.47 409.38 173.91 409.38 171.38 410.93 169.81 412.49 168.24 415.02 168.23 416.59 169.79 416.59 169.79 416.59 169.79 416.59 169.79ZM 411.88 176.33C 411.88 176.33 423.38 164.89 423.38 164.89 424.95 163.33 427.48 163.34 429.04 164.91 430.6 166.47 430.59 169.01 429.02 170.56 429.02 170.56 417.52 182 417.52 182 417.52 182 411.88 176.33 411.88 176.33 411.88 176.33 411.88 176.33 411.88 176.33ZM 417.52 182C 417.52 182 411.88 176.33 411.88 176.33 411.88 176.33 417.52 182 417.52 182 417.52 182 417.52 182 417.52 182 417.52 182 417.52 182 417.52 182ZM 417.52 182C 417.52 182 423.16 176.33 423.16 176.33 423.16 176.33 417.52 182 417.52 182 417.52 182 417.52 182 417.52 182Z" fill="rgb(166,214,177)"/><path fillRule="evenodd" d="M 446.67 171C 446.67 171 484.33 171 484.33 171 486.54 171 488.33 172.79 488.33 175 488.33 177.21 486.54 179 484.33 179 484.33 179 446.67 179 446.67 179 444.46 179 442.67 177.21 442.67 175 442.67 172.79 444.46 171 446.67 171 446.67 171 446.67 171 446.67 171Z" fill="rgb(213,237,251)"/><path fillRule="evenodd" d="M 416.59 192.79C 416.59 192.79 423.16 199.33 423.16 199.33 423.16 199.33 417.52 205 417.52 205 417.52 205 410.95 198.47 410.95 198.47 409.38 196.91 409.38 194.38 410.93 192.81 412.49 191.24 415.02 191.23 416.59 192.79 416.59 192.79 416.59 192.79 416.59 192.79ZM 411.88 199.33C 411.88 199.33 423.38 187.89 423.38 187.89 424.95 186.33 427.48 186.34 429.04 187.91 430.6 189.47 430.59 192.01 429.02 193.56 429.02 193.56 417.52 205 417.52 205 417.52 205 411.88 199.33 411.88 199.33 411.88 199.33 411.88 199.33 411.88 199.33ZM 417.52 205C 417.52 205 411.88 199.33 411.88 199.33 411.88 199.33 417.52 205 417.52 205 417.52 205 417.52 205 417.52 205 417.52 205 417.52 205 417.52 205ZM 417.52 205C 417.52 205 423.16 199.33 423.16 199.33 423.16 199.33 417.52 205 417.52 205 417.52 205 417.52 205 417.52 205Z" fill="rgb(166,214,177)"/><path fillRule="evenodd" d="M 446.67 194C 446.67 194 484.33 194 484.33 194 486.54 194 488.33 195.79 488.33 198 488.33 200.21 486.54 202 484.33 202 484.33 202 446.67 202 446.67 202 444.46 202 442.67 200.21 442.67 198 442.67 195.79 444.46 194 446.67 194 446.67 194 446.67 194 446.67 194Z" fill="rgb(213,237,251)"/></svg>