<?xml version="1.0" encoding="utf-8"?>
<svg xmlns="http://www.w3.org/2000/svg"
	xmlns:xlink="http://www.w3.org/1999/xlink"
	width="546px" height="325px" viewBox="0 0 546 325">
<clipPath id="clip0"><path fillRule="evenodd" d="M 86 289C 86 289 462 289 462 289"/></clipPath><clipPath id="clip1"><path fillRule="evenodd" d="M-15.41 113.81C-15.41 113.81-15.41-15.81-15.41-15.81-15.41-15.81 98.41-15.81 98.41-15.81 98.41-15.81 98.41 113.81 98.41 113.81 98.41 113.81-15.41 113.81-15.41 113.81ZM 66.41 24.19C 66.41 19.77 62.82 16.19 58.41 16.19 58.41 16.19 24.59 16.19 24.59 16.19 20.18 16.19 16.59 19.77 16.59 24.19 16.59 24.19 16.59 73.81 16.59 73.81 16.59 78.23 20.18 81.81 24.59 81.81 24.59 81.81 58.41 81.81 58.41 81.81 62.82 81.81 66.41 78.23 66.41 73.81 66.41 73.81 66.41 24.19 66.41 24.19Z"/></clipPath><clipPath id="clip2"><rect x="195" y="122" width="49" height="66" rx="8"/></clipPath><clipPath id="clip3"><path fillRule="evenodd" d="M-15.41 113.81C-15.41 113.81-15.41-15.81-15.41-15.81-15.41-15.81 98.41-15.81 98.41-15.81 98.41-15.81 98.41 113.81 98.41 113.81 98.41 113.81-15.41 113.81-15.41 113.81ZM 66.41 24.19C 66.41 19.77 62.82 16.19 58.41 16.19 58.41 16.19 24.59 16.19 24.59 16.19 20.18 16.19 16.59 19.77 16.59 24.19 16.59 24.19 16.59 73.81 16.59 73.81 16.59 78.23 20.18 81.81 24.59 81.81 24.59 81.81 58.41 81.81 58.41 81.81 62.82 81.81 66.41 78.23 66.41 73.81 66.41 73.81 66.41 24.19 66.41 24.19Z"/></clipPath><clipPath id="clip4"><path fillRule="evenodd" d="M-15 49.47C-15 49.47-15-15.53-15-15.53-15-15.53 99-15.53 99-15.53 99-15.53 99 49.47 99 49.47 99 49.47-15 49.47-15 49.47ZM 67 16.49C 67 16.48 66.99 16.47 66.98 16.47 66.98 16.47 17.02 16.47 17.02 16.47 17.01 16.47 17 16.48 17 16.49 17 16.49 17 17.44 17 17.44 17 17.46 17.01 17.47 17.02 17.47 17.02 17.47 66.98 17.47 66.98 17.47 66.99 17.47 67 17.46 67 17.44 67 17.44 67 16.49 67 16.49Z"/></clipPath><clipPath id="clip5"><path fillRule="evenodd" d="M-15.62 99C-15.62 99-15.62-15-15.62-15-15.62-15 98.37-15 98.37-15 98.37-15 98.37 99 98.37 99 98.37 99-15.62 99-15.62 99ZM 66.37 25C 66.37 20.58 62.79 17 58.37 17 58.37 17 24.37 17 24.37 17 19.96 17 16.37 20.58 16.37 25 16.37 25 16.37 59 16.37 59 16.37 63.42 19.96 67 24.37 67 24.37 67 58.37 67 58.37 67 62.79 67 66.37 63.42 66.37 59 66.37 59 66.37 25 66.37 25Z"/></clipPath><clipPath id="clip6"><path fillRule="evenodd" d="M-7.31 51.22C-7.31 51.22-7.31-7.34-7.31-7.34-7.31-7.34 51.22-7.34 51.22-7.34 51.22-7.34 51.22 51.22 51.22 51.22 51.22 51.22-7.31 51.22-7.31 51.22ZM 34.04 9.81C 32.48 8.25 29.95 8.25 28.38 9.81 28.38 9.81 9.83 28.38 9.83 28.38 8.27 29.95 8.27 32.48 9.83 34.04 11.39 35.6 13.92 35.6 15.49 34.04 15.49 34.04 34.04 15.47 34.04 15.47 35.61 13.9 35.6 11.37 34.04 9.81Z"/></clipPath><defs>
<symbol id="symbol0"><rect x="195" y="122" width="49" height="66" rx="8"/></symbol><symbol id="symbol1"><rect x="195" y="122" width="49" height="66" rx="8"/></symbol><symbol id="symbol2"><path fillRule="evenodd" d="M 273.02 173.47C 273.02 173.47 322.98 173.47 322.98 173.47 322.99 173.47 323 173.48 323 173.49 323 173.49 323 174.44 323 174.44 323 174.46 322.99 174.47 322.98 174.47 322.98 174.47 273.02 174.47 273.02 174.47 273.01 174.47 273 174.46 273 174.44 273 174.44 273 173.49 273 173.49 273 173.48 273.01 173.47 273.02 173.47Z"/></symbol><symbol id="symbol3"><rect x="397" y="47" width="50" height="50" rx="8"/></symbol><symbol id="symbol4"><path fillRule="evenodd" d="M 415.83 64.38C 415.83 64.38 434.38 45.81 434.38 45.81 435.95 44.25 438.48 44.25 440.04 45.81 441.6 47.37 441.61 49.9 440.04 51.47 440.04 51.47 421.49 70.04 421.49 70.04 419.92 71.6 417.39 71.6 415.83 70.04 414.27 68.48 414.27 65.95 415.83 64.38 415.83 64.38 415.83 64.38 415.83 64.38Z"/></symbol></defs>
<path fillRule="evenodd" d="M 22 179C 25.34 157.79 14.13 117.61 28 107 44.07 94.7 73.77 120.07 103 114 137.14 106.9 160.73 61.89 183 45 195.56 35.48 230.92 19.46 267 9 302.81-1.38 325.2-1.87 344 8 363.36 18.17 371.63 35.29 379 49 410.57 107.7 444.68 138.07 466 142 481.41 144.84 499.86 135.4 517 145 536.77 156.07 543.25 184.13 545 202 546.43 216.64 545.53 240.2 534 260 505.26 309.33 427.87 293.16 310 313 256.16 322.06 220.28 332.69 176 315 137.46 299.61 119.92 263.4 73 255 55.22 251.81 15.73 261.34 6 248-3.77 234.6 18.72 199.83 22 179Z" fill="rgb(228,234,255)"/><g><path fillRule="evenodd" d="M 123.37 59.62C 123.37 59.62 425.62 59.62 425.62 59.62 430.04 59.62 433.62 63.21 433.62 67.62 433.62 67.62 433.62 280.37 433.62 280.37 433.62 280.37 115.37 280.37 115.37 280.37 115.37 280.37 115.37 67.62 115.37 67.62 115.37 63.21 118.96 59.62 123.37 59.62Z" fill="rgb(255,255,255)"/><path fillRule="evenodd" d="M 433.63 280.37C 433.63 280.37 433.63 67.63 433.63 67.63 433.63 63.21 430.04 59.63 425.62 59.63 425.62 59.63 123.38 59.63 123.38 59.63 118.96 59.63 115.37 63.21 115.37 67.63 115.37 67.63 115.37 280.37 115.37 280.37 115.37 280.37 433.63 280.37 433.63 280.37M 433.63 288.37C 433.63 288.37 115.37 288.37 115.37 288.37 110.96 288.37 107.38 284.79 107.38 280.37 107.38 280.37 107.38 67.63 107.38 67.63 107.38 58.8 114.55 51.63 123.38 51.63 123.38 51.63 425.62 51.63 425.62 51.63 434.45 51.63 441.62 58.8 441.62 67.63 441.62 67.63 441.62 280.37 441.62 280.37 441.62 284.79 438.04 288.37 433.63 288.37 433.63 288.37 433.63 288.37 433.63 288.37Z" fill="rgb(73,73,75)"/></g><g><path fillRule="evenodd" d="M 86 289C 86 289 462 289 462 289" fill="rgb(255,255,255)"/><path fillRule="evenodd" d="M 86 281C 86 281 462 281 462 281 464.21 281 466 282.79 466 285 466 287.21 464.21 289 462 289 462 289 86 289 86 289 83.79 289 82 287.21 82 285 82 282.79 83.79 281 86 281 86 281 86 281 86 281Z" fill="rgb(73,73,75)"/></g><g><g><path fillRule="evenodd" d="M 86 289C 86 289 462 289 462 289" fill="rgb(255,255,255)"/><circle cx="224.00" cy="146.00" r="11.00" fill="rgb(85,161,207)" clip-path="url(#clip0)"/></g><path fillRule="evenodd" d="M 86 281C 86 281 462 281 462 281 464.21 281 466 282.79 466 285 466 287.21 464.21 289 462 289 462 289 86 289 86 289 83.79 289 82 287.21 82 285 82 282.79 83.79 281 86 281 86 281 86 281 86 281Z" fill="rgb(73,73,75)"/></g><path fillRule="evenodd" d="M 189.5 231C 189.5 231 404.5 231 404.5 231 406.71 231 408.5 232.79 408.5 235 408.5 237.21 406.71 239 404.5 239 404.5 239 189.5 239 189.5 239 187.29 239 185.5 237.21 185.5 235 185.5 232.79 187.29 231 189.5 231 189.5 231 189.5 231 189.5 231Z" fill="rgb(219,227,237)"/><path fillRule="evenodd" d="M 189.5 210C 189.5 210 404.5 210 404.5 210 406.71 210 408.5 211.79 408.5 214 408.5 216.21 406.71 218 404.5 218 404.5 218 189.5 218 189.5 218 187.29 218 185.5 216.21 185.5 214 185.5 211.79 187.29 210 189.5 210 189.5 210 189.5 210 189.5 210Z" fill="rgb(219,227,237)"/><path fillRule="evenodd" d="M 187.55 251C 187.55 251 309.45 251 309.45 251 311.66 251 313.45 252.79 313.45 255 313.45 257.21 311.66 259 309.45 259 309.45 259 187.55 259 187.55 259 185.34 259 183.55 257.21 183.55 255 183.55 252.79 185.34 251 187.55 251 187.55 251 187.55 251 187.55 251Z" fill="rgb(219,227,237)"/><g><path fillRule="evenodd" d="M 156 95.57C 156 95.57 156 264.43 156 264.43" fill="rgb(255,255,255)"/><path fillRule="evenodd" d="M 164 95.57C 164 95.57 164 264.43 164 264.43 164 266.64 162.21 268.43 160 268.43 157.79 268.43 156 266.64 156 264.43 156 264.43 156 95.57 156 95.57 156 93.36 157.79 91.57 160 91.57 162.21 91.57 164 93.36 164 95.57 164 95.57 164 95.57 164 95.57Z" fill="rgb(219,226,236)"/></g><g><path fillRule="evenodd" d="M 396.78 90C 396.78 90 143.22 90 143.22 90" fill="rgb(255,255,255)"/><path fillRule="evenodd" d="M 396.78 98C 396.78 98 143.22 98 143.22 98 141.01 98 139.22 96.21 139.22 94 139.22 91.79 141.01 90 143.22 90 143.22 90 396.78 90 396.78 90 398.99 90 400.78 91.79 400.78 94 400.78 96.21 398.99 98 396.78 98 396.78 98 396.78 98 396.78 98Z" fill="rgb(219,226,236)"/></g><g><path fillRule="evenodd" d="M 132.29 80C 132.29 80 159.71 80 159.71 80" fill="rgb(255,255,255)"/><path fillRule="evenodd" d="M 132.29 72C 132.29 72 159.71 72 159.71 72 161.92 72 163.71 73.79 163.71 76 163.71 78.21 161.92 80 159.71 80 159.71 80 132.29 80 132.29 80 130.08 80 128.29 78.21 128.29 76 128.29 73.79 130.08 72 132.29 72 132.29 72 132.29 72 132.29 72Z" fill="rgb(247,201,231)"/></g><g><path fillRule="evenodd" d="M 132.13 118C 132.13 118 139.87 118 139.87 118" fill="rgb(255,255,255)"/><path fillRule="evenodd" d="M 132.13 110C 132.13 110 139.87 110 139.87 110 142.08 110 143.87 111.79 143.87 114 143.87 116.21 142.08 118 139.87 118 139.87 118 132.13 118 132.13 118 129.92 118 128.13 116.21 128.13 114 128.13 111.79 129.92 110 132.13 110 132.13 110 132.13 110 132.13 110Z" fill="rgb(180,204,233)"/></g><g><path fillRule="evenodd" d="M 132.13 135C 132.13 135 139.87 135 139.87 135" fill="rgb(255,255,255)"/><path fillRule="evenodd" d="M 132.13 127C 132.13 127 139.87 127 139.87 127 142.08 127 143.87 128.79 143.87 131 143.87 133.21 142.08 135 139.87 135 139.87 135 132.13 135 132.13 135 129.92 135 128.13 133.21 128.13 131 128.13 128.79 129.92 127 132.13 127 132.13 127 132.13 127 132.13 127Z" fill="rgb(180,204,233)"/></g><g><path fillRule="evenodd" d="M 132.13 153C 132.13 153 139.87 153 139.87 153" fill="rgb(255,255,255)"/><path fillRule="evenodd" d="M 132.13 145C 132.13 145 139.87 145 139.87 145 142.08 145 143.87 146.79 143.87 149 143.87 151.21 142.08 153 139.87 153 139.87 153 132.13 153 132.13 153 129.92 153 128.13 151.21 128.13 149 128.13 146.79 129.92 145 132.13 145 132.13 145 132.13 145 132.13 145Z" fill="rgb(180,204,233)"/></g><g><path fillRule="evenodd" d="M 184 80C 184 80 196 80 196 80" fill="rgb(255,255,255)"/><path fillRule="evenodd" d="M 184 72C 184 72 196 72 196 72 198.21 72 200 73.79 200 76 200 78.21 198.21 80 196 80 196 80 184 80 184 80 181.79 80 180 78.21 180 76 180 73.79 181.79 72 184 72 184 72 184 72 184 72Z" fill="rgb(0,173,239)"/></g><g><path fillRule="evenodd" d="M 214 80C 214 80 226 80 226 80" fill="rgb(255,255,255)"/><path fillRule="evenodd" d="M 214 72C 214 72 226 72 226 72 228.21 72 230 73.79 230 76 230 78.21 228.21 80 226 80 226 80 214 80 214 80 211.79 80 210 78.21 210 76 210 73.79 211.79 72 214 72 214 72 214 72 214 72Z" fill="rgb(182,182,182)"/></g><g><path fillRule="evenodd" d="M 244 80C 244 80 256 80 256 80" fill="rgb(255,255,255)"/><path fillRule="evenodd" d="M 244 72C 244 72 256 72 256 72 258.21 72 260 73.79 260 76 260 78.21 258.21 80 256 80 256 80 244 80 244 80 241.79 80 240 78.21 240 76 240 73.79 241.79 72 244 72 244 72 244 72 244 72Z" fill="rgb(182,182,182)"/></g><g><use xlink:href="#symbol0" x="178" y="106" width="83" height="98" fill="rgb(255,255,255)"/><use xlink:href="#symbol0" x="178" y="106" width="83" height="98" fill="none" stroke="rgb(255,255,255)" stroke-width="8.00px" clip-path="url(#clip1)"/><path fillRule="evenodd" d="M 236.41 187.81C 240.82 187.81 244.41 184.23 244.41 179.81 244.41 179.81 244.41 130.19 244.41 130.19 244.41 125.77 240.82 122.19 236.41 122.19 236.41 122.19 202.59 122.19 202.59 122.19 198.18 122.19 194.59 125.77 194.59 130.19 194.59 130.19 194.59 179.81 194.59 179.81 194.59 184.23 198.18 187.81 202.59 187.81 202.59 187.81 236.41 187.81 236.41 187.81M 236.41 195.81C 236.41 195.81 202.59 195.81 202.59 195.81 193.77 195.81 186.59 188.63 186.59 179.81 186.59 179.81 186.59 130.19 186.59 130.19 186.59 121.36 193.77 114.19 202.59 114.19 202.59 114.19 236.41 114.19 236.41 114.19 245.23 114.19 252.41 121.36 252.41 130.19 252.41 130.19 252.41 179.81 252.41 179.81 252.41 188.63 245.23 195.81 236.41 195.81 236.41 195.81 236.41 195.81 236.41 195.81Z" fill="rgb(171,139,255)"/></g><g><g><use xlink:href="#symbol1" x="178" y="106" width="83" height="98" fill="rgb(255,255,255)"/><g clip-path="url(#clip2)"><circle cx="219.00" cy="198.00" r="29.00" fill="rgb(227,217,255)"/><path fillRule="evenodd" d="M 219 227C 235.02 227 248 214.02 248 198 248 181.98 235.02 169 219 169 202.98 169 190 181.98 190 198 190 214.02 202.98 227 219 227M 219 235C 198.6 235 182 218.4 182 198 182 177.6 198.6 161 219 161 239.4 161 256 177.6 256 198 256 218.4 239.4 235 219 235 219 235 219 235 219 235Z" fill="rgb(227,217,255)"/></g></g><use xlink:href="#symbol1" x="178" y="106" width="83" height="98" fill="none" stroke="rgb(255,255,255)" stroke-width="8.00px" clip-path="url(#clip3)"/><path fillRule="evenodd" d="M 236.41 187.81C 240.82 187.81 244.41 184.23 244.41 179.81 244.41 179.81 244.41 130.19 244.41 130.19 244.41 125.77 240.82 122.19 236.41 122.19 236.41 122.19 202.59 122.19 202.59 122.19 198.18 122.19 194.59 125.77 194.59 130.19 194.59 130.19 194.59 179.81 194.59 179.81 194.59 184.23 198.18 187.81 202.59 187.81 202.59 187.81 236.41 187.81 236.41 187.81M 236.41 195.81C 236.41 195.81 202.59 195.81 202.59 195.81 193.77 195.81 186.59 188.63 186.59 179.81 186.59 179.81 186.59 130.19 186.59 130.19 186.59 121.36 193.77 114.19 202.59 114.19 202.59 114.19 236.41 114.19 236.41 114.19 245.23 114.19 252.41 121.36 252.41 130.19 252.41 130.19 252.41 179.81 252.41 179.81 252.41 188.63 245.23 195.81 236.41 195.81 236.41 195.81 236.41 195.81 236.41 195.81Z" fill="rgb(171,139,255)"/></g><g><use xlink:href="#symbol2" x="256" y="157" width="84" height="34" fill="rgb(27,187,179)"/><use xlink:href="#symbol2" x="256" y="157" width="84" height="34" fill="none" stroke="rgb(255,255,255)" stroke-width="8.00px" clip-path="url(#clip4)"/><path fillRule="evenodd" d="M 322.98 174.47C 322.99 174.47 323 174.46 323 174.44 323 174.44 323 173.49 323 173.49 323 173.48 322.99 173.47 322.98 173.47 322.98 173.47 273.02 173.47 273.02 173.47 273.01 173.47 273 173.48 273 173.49 273 173.49 273 174.44 273 174.44 273 174.46 273.01 174.47 273.02 174.47 273.02 174.47 322.98 174.47 322.98 174.47M 322.98 182.47C 322.98 182.47 273.02 182.47 273.02 182.47 268.61 182.47 265 178.86 265 174.44 265 174.44 265 173.49 265 173.49 265 169.07 268.61 165.47 273.02 165.47 273.02 165.47 322.98 165.47 322.98 165.47 327.39 165.47 331 169.07 331 173.49 331 173.49 331 174.44 331 174.44 331 178.86 327.39 182.47 322.98 182.47 322.98 182.47 322.98 182.47 322.98 182.47Z" fill="rgb(27,187,179)"/></g><g><path fillRule="evenodd" d="M 268.25 130.9C 268.25 130.9 326.02 130.9 326.02 130.9" fill="rgb(255,255,255)"/><path fillRule="evenodd" d="M 268.25 122.9C 268.25 122.9 326.02 122.9 326.02 122.9 328.23 122.9 330.02 124.69 330.02 126.9 330.02 129.11 328.23 130.9 326.02 130.9 326.02 130.9 268.25 130.9 268.25 130.9 266.04 130.9 264.25 129.11 264.25 126.9 264.25 124.69 266.04 122.9 268.25 122.9 268.25 122.9 268.25 122.9 268.25 122.9Z" fill="rgb(181,203,233)"/></g><g><path fillRule="evenodd" d="M 267.49 149.01C 267.49 149.01 355.52 149.01 355.52 149.01" fill="rgb(255,255,255)"/><path fillRule="evenodd" d="M 267.49 141.01C 267.49 141.01 355.52 141.01 355.52 141.01 357.73 141.01 359.52 142.8 359.52 145.01 359.52 147.21 357.73 149.01 355.52 149.01 355.52 149.01 267.49 149.01 267.49 149.01 265.28 149.01 263.49 147.21 263.49 145.01 263.49 142.8 265.28 141.01 267.49 141.01 267.49 141.01 267.49 141.01 267.49 141.01Z" fill="rgb(228,217,255)"/></g><g><circle cx="219.50" cy="144.50" r="5.50" fill="rgb(216,203,252)"/><path fillRule="evenodd" d="M 219.27 150.03C 222.42 150.03 224.97 147.48 224.97 144.34 224.97 141.2 222.42 138.66 219.27 138.66 216.12 138.66 213.56 141.2 213.56 144.34 213.56 147.48 216.12 150.03 219.27 150.03M 219.27 158.03C 211.71 158.03 205.56 151.89 205.56 144.34 205.56 136.8 211.71 130.66 219.27 130.66 226.82 130.66 232.97 136.8 232.97 144.34 232.97 151.89 226.82 158.03 219.27 158.03 219.27 158.03 219.27 158.03 219.27 158.03Z" fill="rgb(216,203,252)"/></g><g><use xlink:href="#symbol3" x="381" y="30" width="83" height="84" fill="rgb(255,255,255)"/><use xlink:href="#symbol3" x="381" y="30" width="83" height="84" fill="none" stroke="rgb(255,255,255)" stroke-width="8.00px" clip-path="url(#clip5)"/><path fillRule="evenodd" d="M 439.37 97C 443.79 97 447.37 93.42 447.37 89 447.37 89 447.37 55 447.37 55 447.37 50.58 443.79 47 439.37 47 439.37 47 405.38 47 405.38 47 400.96 47 397.37 50.58 397.37 55 397.37 55 397.37 89 397.37 89 397.37 93.42 400.96 97 405.38 97 405.38 97 439.37 97 439.37 97M 439.37 105C 439.37 105 405.38 105 405.38 105 396.55 105 389.37 97.82 389.37 89 389.37 89 389.37 55 389.37 55 389.37 46.18 396.55 39 405.38 39 405.38 39 439.37 39 439.37 39 448.2 39 455.37 46.18 455.37 55 455.37 55 455.37 89 455.37 89 455.37 97.82 448.2 105 439.37 105 439.37 105 439.37 105 439.37 105Z" fill="rgb(168,84,167)"/></g><g><use xlink:href="#symbol4" x="406" y="36" width="44" height="44" fill="rgb(222,149,221)"/><use xlink:href="#symbol4" x="406" y="36" width="44" height="44" fill="none" stroke="rgb(255,255,255)" stroke-width="8.00px" clip-path="url(#clip6)"/></g><path fillRule="evenodd" d="M 409.16 77C 409.16 77 435.84 77 435.84 77 438.05 77 439.84 78.79 439.84 81 439.84 83.21 438.05 85 435.84 85 435.84 85 409.16 85 409.16 85 406.95 85 405.16 83.21 405.16 81 405.16 78.79 406.95 77 409.16 77 409.16 77 409.16 77 409.16 77Z" fill="rgb(219,227,237)"/><g><path fillRule="evenodd" d="M 486 255C 486 255 486 272 486 272" fill="rgb(255,255,255)"/><path fillRule="evenodd" d="M 494 255C 494 255 494 272 494 272 494 274.21 492.21 276 490 276 487.79 276 486 274.21 486 272 486 272 486 255 486 255 486 252.79 487.79 251 490 251 492.21 251 494 252.79 494 255 494 255 494 255 494 255Z" fill="rgb(125,167,216)"/></g><g><path fillRule="evenodd" d="M 481 268C 481 268 498 268 498 268" fill="rgb(255,255,255)"/><path fillRule="evenodd" d="M 481 260C 481 260 498 260 498 260 500.21 260 502 261.79 502 264 502 266.21 500.21 268 498 268 498 268 481 268 481 268 478.79 268 477 266.21 477 264 477 261.79 478.79 260 481 260 481 260 481 260 481 260Z" fill="rgb(125,167,216)"/></g><g><path fillRule="evenodd" d="M 467.16 196.66C 467.43 196.66 467.66 196.88 467.66 197.16 467.66 197.43 467.43 197.66 467.16 197.66 466.88 197.66 466.66 197.43 466.66 197.16 466.66 196.88 466.88 196.66 467.16 196.66Z" fill="rgb(135,129,189)"/><path fillRule="evenodd" d="M 467.16 197.66C 467.43 197.66 467.66 197.43 467.66 197.16 467.66 196.88 467.43 196.66 467.16 196.66 466.88 196.66 466.66 196.88 466.66 197.16 466.66 197.43 466.88 197.66 467.16 197.66M 467.16 205.66C 462.47 205.66 458.66 201.84 458.66 197.16 458.66 192.47 462.47 188.66 467.16 188.66 471.84 188.66 475.66 192.47 475.66 197.16 475.66 201.84 471.84 205.66 467.16 205.66 467.16 205.66 467.16 205.66 467.16 205.66Z" fill="rgb(135,129,189)"/></g><g><path fillRule="evenodd" d="M 66 122C 66 122 66 139 66 139" fill="rgb(255,255,255)"/><path fillRule="evenodd" d="M 74 122C 74 122 74 139 74 139 74 141.21 72.21 143 70 143 67.79 143 66 141.21 66 139 66 139 66 122 66 122 66 119.79 67.79 118 70 118 72.21 118 74 119.79 74 122 74 122 74 122 74 122Z" fill="rgb(140,198,62)"/></g><g><path fillRule="evenodd" d="M 61 135C 61 135 78 135 78 135" fill="rgb(255,255,255)"/><path fillRule="evenodd" d="M 61 127C 61 127 78 127 78 127 80.21 127 82 128.79 82 131 82 133.21 80.21 135 78 135 78 135 61 135 61 135 58.79 135 57 133.21 57 131 57 128.79 58.79 127 61 127 61 127 61 127 61 127Z" fill="rgb(140,198,62)"/></g><g><path fillRule="evenodd" d="M 9 205C 9 205 9 222 9 222" fill="rgb(255,255,255)"/><path fillRule="evenodd" d="M 17 205C 17 205 17 222 17 222 17 224.21 15.21 226 13 226 10.79 226 9 224.21 9 222 9 222 9 205 9 205 9 202.79 10.79 201 13 201 15.21 201 17 202.79 17 205 17 205 17 205 17 205Z" fill="rgb(252,181,214)"/></g><g><path fillRule="evenodd" d="M 4 218C 4 218 21 218 21 218" fill="rgb(255,255,255)"/><path fillRule="evenodd" d="M 4 210C 4 210 21 210 21 210 23.21 210 25 211.79 25 214 25 216.21 23.21 218 21 218 21 218 4 218 4 218 1.79 218-0 216.21-0 214-0 211.79 1.79 210 4 210 4 210 4 210 4 210Z" fill="rgb(252,181,214)"/></g></svg>