<?xml version="1.0" encoding="utf-8"?>
<svg xmlns="http://www.w3.org/2000/svg"
	xmlns:xlink="http://www.w3.org/1999/xlink"
	width="18px" height="26px" viewBox="0 0 18 26">
<g><path fillRule="evenodd" d="M 16.73 13.81C 16.73 13.81 9.77 25.44 9.77 25.44 9.63 25.66 9.39 25.8 9.13 25.8 9.13 25.8 9.13 25.8 9.12 25.8 8.87 25.8 8.62 25.67 8.49 25.45 8.49 25.45 1.34 13.93 1.34 13.93 0.46 12.51-0 10.88-0 9.2-0 4.24 4.04 0.2 9 0.2 13.96 0.2 18 4.24 18 9.2 18 10.83 17.56 12.42 16.73 13.81ZM 9 1.69C 4.86 1.69 1.49 5.06 1.49 9.2 1.49 10.6 1.89 11.96 2.62 13.14 2.62 13.14 9.11 23.61 9.11 23.61 9.11 23.61 15.44 13.04 15.44 13.04 16.13 11.88 16.5 10.56 16.5 9.2 16.5 5.06 13.14 1.69 9 1.69ZM 9 13.7C 6.49 13.7 4.5 11.67 4.5 9.2 4.5 6.72 6.52 4.7 9 4.7 11.48 4.7 13.5 6.72 13.5 9.2 13.5 11.64 11.55 13.7 9 13.7ZM 9 6.19C 7.35 6.19 5.99 7.55 5.99 9.2 5.99 10.86 7.34 12.21 9 12.21 10.69 12.21 12 10.83 12 9.2 12 7.55 10.65 6.19 9 6.19Z" fill="rgb(183,195,201)"/><path fillRule="evenodd" d="" fill="rgb(183,195,201)"/></g></svg>