<?xml version="1.0" encoding="utf-8"?>
<svg xmlns="http://www.w3.org/2000/svg"
	xmlns:xlink="http://www.w3.org/1999/xlink"
	width="23px" height="24px" viewBox="0 0 23 24">
<path fillRule="evenodd" d="M 20.83 23.2C 20.83 23.2 2.17 23.2 2.17 23.2 1.14 23.2 0.3 22.36 0.3 21.33 0.3 21.33 0.3 4.77 0.3 4.77 0.3 3.73 1.14 2.9 2.17 2.9 2.17 2.9 5.2 2.9 5.2 2.9 5.2 2.9 5.2 1.5 5.2 1.5 5.2 1.11 5.51 0.8 5.9 0.8 6.29 0.8 6.6 1.11 6.6 1.5 6.6 1.5 6.6 2.9 6.6 2.9 6.6 2.9 10.8 2.9 10.8 2.9 10.8 2.9 10.8 1.5 10.8 1.5 10.8 1.11 11.11 0.8 11.5 0.8 11.89 0.8 12.2 1.11 12.2 1.5 12.2 1.5 12.2 2.9 12.2 2.9 12.2 2.9 16.4 2.9 16.4 2.9 16.4 2.9 16.4 1.5 16.4 1.5 16.4 1.11 16.71 0.8 17.1 0.8 17.49 0.8 17.8 1.11 17.8 1.5 17.8 1.5 17.8 2.9 17.8 2.9 17.8 2.9 20.83 2.9 20.83 2.9 21.86 2.9 22.7 3.73 22.7 4.77 22.7 4.77 22.7 21.33 22.7 21.33 22.7 22.36 21.86 23.2 20.83 23.2ZM 21.3 4.77C 21.3 4.51 21.09 4.3 20.83 4.3 20.83 4.3 17.8 4.3 17.8 4.3 17.8 4.3 17.8 5.7 17.8 5.7 17.8 6.09 17.49 6.4 17.1 6.4 16.71 6.4 16.4 6.09 16.4 5.7 16.4 5.7 16.4 4.3 16.4 4.3 16.4 4.3 12.2 4.3 12.2 4.3 12.2 4.3 12.2 5.7 12.2 5.7 12.2 6.09 11.89 6.4 11.5 6.4 11.11 6.4 10.8 6.09 10.8 5.7 10.8 5.7 10.8 4.3 10.8 4.3 10.8 4.3 6.6 4.3 6.6 4.3 6.6 4.3 6.6 5.7 6.6 5.7 6.6 6.09 6.29 6.4 5.9 6.4 5.51 6.4 5.2 6.09 5.2 5.7 5.2 5.7 5.2 4.3 5.2 4.3 5.2 4.3 2.17 4.3 2.17 4.3 1.91 4.3 1.7 4.51 1.7 4.77 1.7 4.77 1.7 21.33 1.7 21.33 1.7 21.59 1.91 21.8 2.17 21.8 2.17 21.8 20.83 21.8 20.83 21.8 21.09 21.8 21.3 21.59 21.3 21.33 21.3 21.33 21.3 4.77 21.3 4.77ZM 15 16.2C 15 16.2 17.8 16.2 17.8 16.2 17.8 16.2 17.8 18.3 17.8 18.3 17.8 18.3 15 18.3 15 18.3 15 18.3 15 16.2 15 16.2ZM 15 12.7C 15 12.7 17.8 12.7 17.8 12.7 17.8 12.7 17.8 14.8 17.8 14.8 17.8 14.8 15 14.8 15 14.8 15 14.8 15 12.7 15 12.7ZM 15 9.2C 15 9.2 17.8 9.2 17.8 9.2 17.8 9.2 17.8 11.3 17.8 11.3 17.8 11.3 15 11.3 15 11.3 15 11.3 15 9.2 15 9.2ZM 10.1 16.2C 10.1 16.2 12.9 16.2 12.9 16.2 12.9 16.2 12.9 18.3 12.9 18.3 12.9 18.3 10.1 18.3 10.1 18.3 10.1 18.3 10.1 16.2 10.1 16.2ZM 10.1 12.7C 10.1 12.7 12.9 12.7 12.9 12.7 12.9 12.7 12.9 14.8 12.9 14.8 12.9 14.8 10.1 14.8 10.1 14.8 10.1 14.8 10.1 12.7 10.1 12.7ZM 10.1 9.2C 10.1 9.2 12.9 9.2 12.9 9.2 12.9 9.2 12.9 11.3 12.9 11.3 12.9 11.3 10.1 11.3 10.1 11.3 10.1 11.3 10.1 9.2 10.1 9.2ZM 5.2 16.2C 5.2 16.2 8 16.2 8 16.2 8 16.2 8 18.3 8 18.3 8 18.3 5.2 18.3 5.2 18.3 5.2 18.3 5.2 16.2 5.2 16.2ZM 5.2 12.7C 5.2 12.7 8 12.7 8 12.7 8 12.7 8 14.8 8 14.8 8 14.8 5.2 14.8 5.2 14.8 5.2 14.8 5.2 12.7 5.2 12.7ZM 5.2 9.2C 5.2 9.2 8 9.2 8 9.2 8 9.2 8 11.3 8 11.3 8 11.3 5.2 11.3 5.2 11.3 5.2 11.3 5.2 9.2 5.2 9.2Z" fill="rgb(183,195,201)"/></svg>