<?xml version="1.0" encoding="utf-8"?>
<svg xmlns="http://www.w3.org/2000/svg"
	xmlns:xlink="http://www.w3.org/1999/xlink"
	width="30px" height="20px" viewBox="0 0 30 20">
<path fillRule="evenodd" d="M 29.08 8.19C 29.08 8.19 29.08 16.65 29.08 16.65 29.08 18.32 27.77 19.67 26.15 19.67 26.15 19.67 3.85 19.67 3.85 19.67 2.23 19.67 0.92 18.32 0.92 16.65 0.92 16.65 0.92 8.19 0.92 8.19 0.92 8.19 0.92 4.56 0.92 4.56 0.92 4.56 0.92 3.35 0.92 3.35 0.92 1.68 2.23 0.33 3.85 0.33 3.85 0.33 26.15 0.33 26.15 0.33 27.77 0.33 29.08 1.68 29.08 3.35 29.08 3.35 29.08 4.56 29.08 4.56 29.08 4.56 29.08 4.56 29.08 4.56 29.08 4.56 29.08 8.19 29.08 8.19 29.08 8.19 29.08 8.19 29.08 8.19ZM 27.91 3.35C 27.91 2.35 27.12 1.54 26.15 1.54 26.15 1.54 3.85 1.54 3.85 1.54 2.88 1.54 2.09 2.35 2.09 3.35 2.09 3.35 2.09 3.95 2.09 3.95 2.09 3.95 27.91 3.95 27.91 3.95 27.91 3.95 27.91 3.35 27.91 3.35ZM 27.91 5.16C 27.91 5.16 2.09 5.16 2.09 5.16 2.09 5.16 2.09 7.58 2.09 7.58 2.09 7.58 27.91 7.58 27.91 7.58 27.91 7.58 27.91 5.16 27.91 5.16ZM 27.91 8.79C 27.91 8.79 2.09 8.79 2.09 8.79 2.09 8.79 2.09 16.65 2.09 16.65 2.09 17.65 2.88 18.46 3.85 18.46 3.85 18.46 26.15 18.46 26.15 18.46 27.12 18.46 27.91 17.65 27.91 16.65 27.91 16.65 27.91 8.79 27.91 8.79ZM 23.8 16.05C 23.8 16.05 22.63 16.05 22.63 16.05 21.66 16.05 20.87 15.23 20.87 14.23 20.87 14.23 20.87 13.02 20.87 13.02 20.87 12.02 21.66 11.21 22.63 11.21 22.63 11.21 23.8 11.21 23.8 11.21 24.77 11.21 25.56 12.02 25.56 13.02 25.56 13.02 25.56 14.23 25.56 14.23 25.56 15.23 24.77 16.05 23.8 16.05ZM 24.39 13.02C 24.39 12.69 24.13 12.42 23.8 12.42 23.8 12.42 22.63 12.42 22.63 12.42 22.3 12.42 22.04 12.69 22.04 13.02 22.04 13.02 22.04 14.23 22.04 14.23 22.04 14.57 22.3 14.84 22.63 14.84 22.63 14.84 23.8 14.84 23.8 14.84 24.13 14.84 24.39 14.57 24.39 14.23 24.39 14.23 24.39 13.02 24.39 13.02ZM 12.07 16.05C 12.07 16.05 5.02 16.05 5.02 16.05 4.7 16.05 4.44 15.77 4.44 15.44 4.44 15.11 4.7 14.84 5.02 14.84 5.02 14.84 12.07 14.84 12.07 14.84 12.39 14.84 12.65 15.11 12.65 15.44 12.65 15.77 12.39 16.05 12.07 16.05ZM 12.07 13.63C 12.07 13.63 5.02 13.63 5.02 13.63 4.7 13.63 4.44 13.36 4.44 13.02 4.44 12.69 4.7 12.42 5.02 12.42 5.02 12.42 12.07 12.42 12.07 12.42 12.39 12.42 12.65 12.69 12.65 13.02 12.65 13.36 12.39 13.63 12.07 13.63Z" fill="rgb(183,195,201)"/></svg>