<?xml version="1.0" encoding="utf-8"?>
<svg xmlns="http://www.w3.org/2000/svg"
	xmlns:xlink="http://www.w3.org/1999/xlink"
	width="25px" height="26px" viewBox="0 0 25 26">
<path fillRule="evenodd" d="M 19.07 13.74C 19.07 13.74 19.07 2.73 19.07 2.73 19.07 2.73 2.65 2.73 2.65 2.73 2.65 2.73 2.65 23.27 2.65 23.27 2.65 23.27 10.2 23.27 10.2 23.27 10.75 23.27 11.19 23.71 11.19 24.25 11.19 24.8 10.75 25.24 10.2 25.24 10.2 25.24 1.66 25.24 1.66 25.24 1.12 25.24 0.67 24.8 0.67 24.25 0.67 24.25 0.67 1.75 0.67 1.75 0.67 1.2 1.12 0.76 1.66 0.76 1.66 0.76 20.06 0.76 20.06 0.76 20.6 0.76 21.05 1.2 21.05 1.75 21.05 1.75 21.05 13.74 21.05 13.74 21.05 14.28 20.6 14.72 20.06 14.72 19.52 14.72 19.07 14.28 19.07 13.74ZM 24.15 16.14C 23.74 15.78 23.12 15.81 22.75 16.22 22.75 16.22 17.35 22.23 17.35 22.23 17.35 22.23 14.64 19.62 14.64 19.62 14.24 19.24 13.62 19.26 13.24 19.65 12.86 20.05 12.88 20.67 13.28 21.05 13.28 21.05 16.73 24.37 16.73 24.37 16.91 24.55 17.15 24.65 17.42 24.65 17.43 24.65 17.43 24.65 17.45 24.65 17.71 24.63 17.97 24.52 18.14 24.32 18.14 24.32 24.22 17.55 24.22 17.55 24.59 17.12 24.56 16.5 24.15 16.14ZM 15.46 6.51C 15.46 6.51 6.59 6.51 6.59 6.51 6.05 6.51 5.6 6.95 5.6 7.5 5.6 8.04 6.05 8.48 6.59 8.48 6.59 8.48 15.46 8.48 15.46 8.48 16 8.48 16.45 8.04 16.45 7.5 16.45 6.95 16 6.51 15.46 6.51ZM 16.45 12.92C 16.45 12.38 16 11.93 15.46 11.93 15.46 11.93 6.59 11.93 6.59 11.93 6.05 11.93 5.6 12.38 5.6 12.92 5.6 13.46 6.05 13.9 6.59 13.9 6.59 13.9 15.46 13.9 15.46 13.9 16 13.9 16.45 13.46 16.45 12.92ZM 6.59 17.19C 6.05 17.19 5.6 17.63 5.6 18.18 5.6 18.72 6.05 19.16 6.59 19.16 6.59 19.16 9.22 19.16 9.22 19.16 9.76 19.16 10.2 18.72 10.2 18.18 10.2 17.63 9.76 17.19 9.22 17.19 9.22 17.19 6.59 17.19 6.59 17.19Z" fill="rgb(183,195,201)"/></svg>