<?xml version="1.0" encoding="utf-8"?>
<svg xmlns="http://www.w3.org/2000/svg"
	xmlns:xlink="http://www.w3.org/1999/xlink"
	width="27px" height="23px" viewBox="0 0 27 23">
<g><path fillRule="evenodd" d="M 25.87 10.15C 25.75 10.31 25.55 10.4 25.35 10.4 25.22 10.4 25.08 10.36 24.97 10.28 24.97 10.28 13.5 2.37 13.5 2.37 13.5 2.37 2.03 10.28 2.03 10.28 1.74 10.48 1.34 10.42 1.12 10.15 0.91 9.88 0.98 9.49 1.27 9.29 1.27 9.29 13.12 1.12 13.12 1.12 13.34 0.96 13.65 0.96 13.88 1.12 13.88 1.12 25.73 9.29 25.73 9.29 26.02 9.49 26.09 9.88 25.87 10.15ZM 4.41 10.42C 4.76 10.42 5.05 10.69 5.05 11.03 5.05 11.03 5.05 20.78 5.05 20.78 5.05 20.78 10.25 20.78 10.25 20.78 10.25 20.78 10.25 15.46 10.25 15.46 10.25 13.77 11.71 12.4 13.5 12.4 15.29 12.4 16.75 13.77 16.75 15.46 16.75 15.46 16.75 20.78 16.75 20.78 16.75 20.78 21.94 20.78 21.94 20.78 21.94 20.78 21.94 11.03 21.94 11.03 21.94 10.69 22.23 10.42 22.59 10.42 22.95 10.42 23.24 10.69 23.24 11.03 23.24 11.03 23.24 21.39 23.24 21.39 23.24 21.73 22.95 22 22.59 22 22.59 22 16.1 22 16.1 22 15.76 22 15.48 21.75 15.45 21.43 15.45 21.42 15.45 21.41 15.45 21.39 15.45 21.39 15.45 15.46 15.45 15.46 15.45 14.44 14.57 13.62 13.5 13.62 12.42 13.62 11.55 14.44 11.55 15.46 11.55 15.46 11.55 21.39 11.55 21.39 11.55 21.41 11.55 21.42 11.55 21.44 11.52 21.75 11.24 22 10.9 22 10.9 22 4.41 22 4.41 22 4.05 22 3.76 21.73 3.76 21.39 3.76 21.39 3.76 11.03 3.76 11.03 3.76 10.69 4.05 10.42 4.41 10.42Z" fill="rgb(183,195,201)"/><path fillRule="evenodd" d="M 16.1 22C 16.1 22 16.1 21.5 16.1 21.5 16 21.5 15.95 21.43 15.95 21.39 15.95 21.39 15.45 21.44 15.45 21.44 15.45 21.44 15.95 21.4 15.95 21.4 15.95 21.4 15.95 21.39 15.95 21.39 15.95 21.39 15.95 15.46 15.95 15.46 15.94 14.14 14.83 13.12 13.5 13.12 12.17 13.12 11.06 14.14 11.05 15.46 11.05 15.46 11.05 21.39 11.05 21.39 11.05 21.39 11.17 21.39 11.17 21.39 11.17 21.39 11.05 21.37 11.05 21.37 11.05 21.37 11.05 21.39 11.05 21.39 11.05 21.39 11.17 21.39 11.17 21.39 11.17 21.39 11.05 21.37 11.05 21.37 11.05 21.37 11.05 21.38 11.05 21.38 11.05 21.38 11.05 21.39 11.05 21.39 11.05 21.43 11 21.5 10.9 21.5 10.9 21.5 4.41 21.5 4.41 21.5 4.3 21.5 4.26 21.43 4.26 21.39 4.26 21.39 4.26 11.03 4.26 11.03 4.26 10.99 4.3 10.92 4.41 10.92 4.51 10.92 4.55 10.99 4.56 11.03 4.56 11.03 4.56 21.28 4.56 21.28 4.56 21.28 10.75 21.28 10.75 21.28 10.75 21.28 10.75 15.46 10.75 15.46 10.75 14.07 11.96 12.9 13.5 12.9 15.04 12.9 16.24 14.07 16.25 15.46 16.25 15.46 16.25 21.28 16.25 21.28 16.25 21.28 22.44 21.28 22.44 21.28 22.44 21.28 22.44 11.03 22.44 11.03 22.44 10.99 22.49 10.92 22.59 10.92 22.7 10.92 22.74 10.99 22.74 11.03 22.74 11.03 22.74 21.39 22.74 21.39 22.74 21.43 22.7 21.5 22.59 21.5 22.59 21.5 16.1 21.5 16.1 21.5 16.1 21.5 16.1 22 16.1 22 16.1 22 16.1 22.5 16.1 22.5 16.1 22.5 22.59 22.5 22.59 22.5 23.2 22.5 23.74 22.03 23.74 21.39 23.74 21.39 23.74 11.03 23.74 11.03 23.74 10.39 23.2 9.92 22.59 9.92 21.98 9.92 21.45 10.39 21.44 11.03 21.44 11.03 21.44 20.28 21.44 20.28 21.44 20.28 17.25 20.28 17.25 20.28 17.25 20.28 17.25 15.46 17.25 15.46 17.24 13.47 15.54 11.9 13.5 11.9 11.45 11.9 9.76 13.47 9.75 15.46 9.75 15.46 9.75 20.28 9.75 20.28 9.75 20.28 5.56 20.28 5.56 20.28 5.56 20.28 5.56 11.03 5.56 11.03 5.55 10.39 5.02 9.92 4.41 9.92 3.79 9.92 3.26 10.39 3.26 11.03 3.26 11.03 3.26 21.39 3.26 21.39 3.26 22.03 3.79 22.5 4.41 22.5 4.41 22.5 10.9 22.5 10.9 22.5 11.49 22.5 11.99 22.07 12.05 21.48 12.05 21.48 11.55 21.44 11.55 21.44 11.55 21.44 12.04 21.5 12.04 21.5 12.04 21.5 12.05 21.39 12.05 21.39 12.05 21.39 12.05 15.46 12.05 15.46 12.05 14.74 12.68 14.12 13.5 14.12 14.32 14.12 14.95 14.74 14.95 15.46 14.95 15.46 14.95 21.39 14.95 21.39 14.95 21.39 14.95 21.47 14.95 21.47 14.95 21.47 14.95 21.47 14.95 21.47 14.95 21.47 14.95 21.48 14.95 21.48 15 22.07 15.51 22.5 16.1 22.5 16.1 22.5 16.1 22 16.1 22 16.1 22 16.1 22 16.1 22ZM 1.12 10.15C 1.12 10.15 1.52 9.84 1.52 9.84 1.52 9.84 1.5 9.79 1.5 9.79 1.5 9.79 1.55 9.7 1.55 9.7 1.55 9.7 1.55 9.7 1.55 9.7 1.55 9.7 13.4 1.53 13.4 1.53 13.4 1.53 13.4 1.53 13.4 1.53 13.4 1.53 13.5 1.5 13.5 1.5 13.5 1.5 13.6 1.53 13.6 1.53 13.6 1.53 13.6 1.53 13.6 1.53 13.6 1.53 25.45 9.7 25.45 9.7 25.45 9.71 25.5 9.79 25.5 9.79 25.5 9.79 25.48 9.84 25.48 9.84 25.48 9.84 25.48 9.84 25.48 9.84 25.48 9.84 25.48 9.84 25.48 9.84 25.48 9.84 25.35 9.9 25.35 9.9 25.35 9.9 25.25 9.87 25.25 9.87 25.25 9.87 25.25 9.87 25.25 9.87 25.25 9.87 13.5 1.76 13.5 1.76 13.5 1.76 1.75 9.87 1.75 9.87 1.75 9.87 1.75 9.87 1.75 9.87 1.75 9.87 1.65 9.9 1.65 9.9 1.65 9.9 1.52 9.84 1.52 9.84 1.52 9.84 1.52 9.84 1.52 9.84 1.52 9.84 1.12 10.15 1.12 10.15 1.12 10.15 0.73 10.46 0.73 10.46 0.96 10.75 1.31 10.9 1.65 10.9 1.88 10.9 2.11 10.83 2.32 10.69 2.32 10.69 2.32 10.69 2.32 10.69 2.32 10.69 13.5 2.98 13.5 2.98 13.5 2.98 24.69 10.7 24.69 10.7 24.69 10.7 24.68 10.69 24.68 10.69 24.88 10.83 25.12 10.9 25.35 10.9 25.69 10.9 26.04 10.75 26.27 10.46 26.27 10.46 26.27 10.46 26.27 10.46 26.27 10.46 26.27 10.46 26.27 10.46 26.42 10.26 26.5 10.02 26.5 9.79 26.5 9.44 26.32 9.09 26.02 8.88 26.02 8.88 14.16 0.7 14.16 0.7 14.16 0.7 14.17 0.71 14.17 0.71 13.96 0.57 13.73 0.5 13.5 0.5 13.27 0.5 13.03 0.57 12.83 0.71 12.83 0.71 12.83 0.71 12.83 0.71 12.83 0.71 0.98 8.88 0.98 8.88 0.98 8.88 0.98 8.88 0.98 8.88 0.67 9.09 0.5 9.44 0.5 9.79 0.5 10.02 0.58 10.26 0.73 10.46 0.73 10.46 0.73 10.46 0.73 10.46 0.73 10.46 1.12 10.15 1.12 10.15 1.12 10.15 1.12 10.15 1.12 10.15Z" fill="rgb(183,195,201)"/></g></svg>