<?xml version="1.0" encoding="utf-8"?>
<svg xmlns="http://www.w3.org/2000/svg"
	xmlns:xlink="http://www.w3.org/1999/xlink"
	width="27px" height="19px" viewBox="0 0 27 19">
<path fillRule="evenodd" d="M 26.12 17.24C 26.09 17.38 26.04 17.52 25.94 17.64 25.91 17.67 25.87 17.69 25.83 17.71 25.36 18.33 24.62 18.73 23.82 18.73 23.82 18.73 3.23 18.73 3.23 18.73 2.41 18.73 1.7 18.35 1.22 17.76 1.16 17.72 1.1 17.69 1.05 17.64 0.89 17.48 0.83 17.29 0.83 17.09 0.71 16.8 0.64 16.48 0.64 16.14 0.64 16.14 0.64 2.86 0.64 2.86 0.64 1.42 1.79 0.27 3.23 0.27 3.23 0.27 23.76 0.27 23.76 0.27 24.48 0.27 25.13 0.56 25.6 1.03 25.61 1.05 25.64 1.06 25.66 1.08 25.68 1.1 25.68 1.13 25.7 1.16 26.1 1.61 26.35 2.2 26.35 2.86 26.35 2.86 26.35 16.14 26.35 16.14 26.36 16.54 26.27 16.91 26.12 17.24ZM 3.23 17C 3.23 17 23.76 17 23.76 17 23.83 17 23.89 16.98 23.96 16.96 23.96 16.96 16.73 10.14 16.73 10.14 16.73 10.14 14.1 12.46 14.1 12.46 13.93 12.58 13.7 12.69 13.52 12.69 13.29 12.69 13.12 12.63 12.95 12.46 12.95 12.46 10.29 10.11 10.29 10.11 10.29 10.11 3.07 16.97 3.07 16.97 3.13 16.98 3.18 17 3.23 17ZM 2.37 3.1C 2.37 3.1 2.37 15.23 2.37 15.23 2.37 15.23 9.01 8.97 9.01 8.97 9.01 8.97 2.37 3.1 2.37 3.1ZM 3.7 2C 3.7 2 13.52 10.68 13.52 10.68 13.52 10.68 23.34 2 23.34 2 23.34 2 3.7 2 3.7 2ZM 18.01 9C 18.01 9 24.62 15.23 24.62 15.23 24.62 15.23 24.62 3.15 24.62 3.15 24.62 3.15 18.01 9 18.01 9Z" fill="rgb(183,195,201)"/></svg>