<?xml version="1.0" encoding="utf-8"?>
<svg xmlns="http://www.w3.org/2000/svg"
	xmlns:xlink="http://www.w3.org/1999/xlink"
	width="24px" height="22px" viewBox="0 0 24 22">
<path fillRule="evenodd" d="M 22.74 22C 22.74 22 1.26 22 1.26 22 0.8 22 0.44 21.64 0.44 21.18 0.44 16.9 3.93 13.43 8.2 13.43 8.2 13.43 15.8 13.43 15.8 13.43 20.09 13.43 23.56 16.92 23.56 21.18 23.56 21.64 23.2 22 22.74 22ZM 15.8 15.06C 15.8 15.06 8.2 15.06 8.2 15.06 5.09 15.06 2.53 17.39 2.13 20.37 2.13 20.37 21.87 20.37 21.87 20.37 21.47 17.37 18.91 15.06 15.8 15.06ZM 11.96 12.35C 8.55 12.35 5.77 9.56 5.77 6.16 5.77 2.77 8.55-0 11.96-0 15.38-0 18.15 2.75 18.15 6.16 18.15 9.58 15.38 12.35 11.96 12.35ZM 11.96 1.61C 9.46 1.61 7.41 3.66 7.41 6.16 7.41 8.67 9.46 10.72 11.96 10.72 14.47 10.72 16.52 8.67 16.52 6.16 16.52 3.66 14.47 1.61 11.96 1.61Z"  fill="rgb(183,195,201)"/></svg>