<?xml version="1.0" encoding="utf-8"?>
<svg xmlns="http://www.w3.org/2000/svg"
	xmlns:xlink="http://www.w3.org/1999/xlink"
	width="23px" height="23px" viewBox="0 0 23 23">
<path fillRule="evenodd" d="M 10.57 22C 10.57 22 10.57 21.63 10.57 21.63 10.12 21.62 9.74 21.3 9.66 20.85 9.66 20.85 9.38 19.15 9.38 19.15 9.38 19.15 9.16 19.08 9.16 19.08 8.7 18.94 8.26 18.76 7.83 18.54 7.83 18.54 7.63 18.43 7.63 18.43 7.63 18.43 6.21 19.44 6.21 19.44 6.21 19.44 6.21 19.44 6.21 19.44 6.05 19.56 5.87 19.61 5.68 19.62 5.43 19.61 5.2 19.52 5.02 19.34 5.02 19.34 3.72 18.04 3.72 18.04 3.72 18.04 3.72 18.04 3.72 18.04 3.54 17.86 3.45 17.62 3.45 17.38 3.45 17.2 3.5 17.01 3.62 16.85 3.62 16.85 3.62 16.85 3.62 16.85 3.62 16.85 4.62 15.46 4.62 15.46 4.62 15.46 4.51 15.25 4.51 15.25 4.27 14.81 4.08 14.36 3.93 13.89 3.93 13.89 3.86 13.67 3.86 13.67 3.86 13.67 2.15 13.38 2.15 13.38 2.15 13.38 2.15 13.38 2.15 13.38 1.7 13.3 1.38 12.92 1.37 12.47 1.37 12.47 1.37 10.62 1.37 10.62 1.38 10.17 1.7 9.79 2.15 9.71 2.15 9.71 2.24 9.69 2.24 9.69 2.24 9.69 3.83 9.42 3.83 9.42 3.83 9.42 3.9 9.2 3.9 9.2 4.04 8.73 4.23 8.27 4.46 7.83 4.46 7.83 4.56 7.63 4.56 7.63 4.56 7.63 3.55 6.21 3.55 6.21 3.55 6.21 3.55 6.21 3.55 6.21 3.44 6.05 3.38 5.86 3.38 5.67 3.38 5.44 3.47 5.2 3.65 5.02 3.65 5.02 4.96 3.71 4.96 3.71 4.96 3.71 4.97 3.71 4.97 3.71 5.14 3.54 5.37 3.44 5.62 3.44 5.81 3.44 6 3.5 6.15 3.61 6.15 3.61 6.17 3.63 6.17 3.63 6.17 3.63 7.55 4.62 7.55 4.62 7.55 4.62 7.75 4.51 7.75 4.51 8.19 4.27 8.65 4.08 9.11 3.93 9.11 3.93 9.33 3.86 9.33 3.86 9.33 3.86 9.63 2.15 9.63 2.15 9.7 1.7 10.08 1.38 10.54 1.38 10.54 1.38 12.38 1.38 12.38 1.38 12.84 1.38 13.22 1.7 13.29 2.15 13.29 2.15 13.58 3.83 13.58 3.83 13.58 3.83 13.8 3.9 13.8 3.9 14.29 4.04 14.76 4.24 15.22 4.48 15.22 4.48 15.42 4.59 15.42 4.59 15.42 4.59 16.83 3.59 16.83 3.59 16.83 3.59 16.83 3.59 16.83 3.59 16.99 3.47 17.17 3.42 17.36 3.41 17.61 3.42 17.84 3.51 18.01 3.69 18.01 3.69 19.33 5 19.33 5 19.33 5 19.32 5 19.32 5 19.5 5.17 19.59 5.41 19.59 5.65 19.59 5.83 19.54 6.02 19.42 6.18 19.42 6.18 19.42 6.18 19.42 6.18 19.42 6.18 18.42 7.59 18.42 7.59 18.42 7.59 18.53 7.79 18.53 7.79 18.76 8.23 18.95 8.68 19.09 9.16 19.09 9.16 19.16 9.38 19.16 9.38 19.16 9.38 20.86 9.67 20.86 9.67 20.86 9.67 20.86 9.67 20.86 9.67 21.31 9.74 21.63 10.11 21.63 10.56 21.63 10.56 21.63 10.57 21.63 10.57 21.63 10.57 21.63 10.57 21.63 10.57 21.63 10.57 21.63 12.42 21.63 12.42 21.63 12.88 21.3 13.26 20.85 13.33 20.85 13.33 20.85 13.33 20.85 13.33 20.85 13.33 19.15 13.62 19.15 13.62 19.15 13.62 19.08 13.84 19.08 13.84 18.94 14.31 18.75 14.76 18.52 15.21 18.52 15.21 18.41 15.41 18.41 15.41 18.41 15.41 19.41 16.82 19.41 16.82 19.53 16.98 19.58 17.17 19.58 17.35 19.58 17.59 19.49 17.83 19.31 18.01 19.31 18.01 18.01 19.31 18.01 19.31 17.83 19.49 17.6 19.58 17.35 19.58 17.16 19.58 16.97 19.53 16.82 19.41 16.82 19.41 16.82 19.41 16.82 19.41 16.82 19.41 15.41 18.41 15.41 18.41 15.41 18.41 15.21 18.52 15.21 18.52 14.77 18.75 14.32 18.94 13.84 19.08 13.84 19.08 13.62 19.15 13.62 19.15 13.62 19.15 13.33 20.85 13.33 20.85 13.26 21.3 12.88 21.62 12.42 21.63 12.42 21.63 10.57 21.63 10.57 21.63 10.57 21.63 10.57 22 10.57 22 10.57 22 10.57 22.37 10.57 22.37 10.57 22.37 12.42 22.37 12.42 22.37 13.24 22.38 13.94 21.79 14.07 20.98 14.07 20.98 14.32 19.5 14.32 19.5 14.32 19.5 13.95 19.44 13.95 19.44 13.95 19.44 14.07 19.8 14.07 19.8 14.58 19.64 15.08 19.43 15.56 19.18 15.56 19.18 15.38 18.85 15.38 18.85 15.38 18.85 15.17 19.16 15.17 19.16 15.17 19.16 16.38 20.02 16.38 20.02 16.38 20.02 16.38 20.02 16.38 20.02 16.66 20.23 17.01 20.33 17.35 20.33 17.8 20.34 18.22 20.16 18.54 19.84 18.54 19.84 19.84 18.54 19.84 18.54 20.17 18.21 20.33 17.78 20.33 17.35 20.33 17.01 20.23 16.67 20.02 16.38 20.02 16.38 19.16 15.16 19.16 15.16 19.16 15.16 18.85 15.38 18.85 15.38 18.85 15.38 19.18 15.55 19.18 15.55 19.43 15.08 19.64 14.57 19.8 14.06 19.8 14.06 19.44 13.95 19.44 13.95 19.44 13.95 19.5 14.32 19.5 14.32 19.5 14.32 20.98 14.07 20.98 14.07 20.98 14.07 20.98 14.07 20.98 14.07 21.79 13.94 22.38 13.24 22.38 12.42 22.38 12.42 22.38 10.58 22.38 10.58 22.38 10.58 22 10.58 22 10.58 22 10.58 22.38 10.58 22.38 10.58 22.38 10.58 22.38 10.56 22.38 10.56 22.38 9.75 21.79 9.06 20.99 8.93 20.99 8.93 20.99 8.93 20.99 8.93 20.99 8.93 19.51 8.68 19.51 8.68 19.51 8.68 19.45 9.05 19.45 9.05 19.45 9.05 19.81 8.93 19.81 8.93 19.65 8.42 19.44 7.92 19.19 7.44 19.19 7.44 18.86 7.62 18.86 7.62 18.86 7.62 19.16 7.83 19.16 7.83 19.16 7.83 20.03 6.62 20.03 6.62 20.03 6.62 20.03 6.62 20.03 6.62 20.24 6.33 20.34 5.98 20.34 5.65 20.35 5.22 20.18 4.79 19.85 4.46 19.85 4.46 19.85 4.46 19.85 4.46 19.85 4.46 18.55 3.16 18.55 3.16 18.23 2.84 17.81 2.66 17.36 2.66 17.01 2.66 16.68 2.77 16.39 2.98 16.39 2.98 16.39 2.98 16.39 2.98 16.39 2.98 15.18 3.84 15.18 3.84 15.18 3.84 15.39 4.15 15.39 4.15 15.39 4.15 15.57 3.82 15.57 3.82 15.07 3.56 14.56 3.34 14.02 3.18 14.02 3.18 13.91 3.54 13.91 3.54 13.91 3.54 14.28 3.48 14.28 3.48 14.28 3.48 14.03 2.02 14.03 2.02 13.9 1.21 13.2 0.62 12.38 0.63 12.38 0.63 10.54 0.63 10.54 0.63 9.72 0.62 9.02 1.21 8.89 2.02 8.89 2.02 8.63 3.51 8.63 3.51 8.63 3.51 9 3.58 9 3.58 9 3.58 8.89 3.22 8.89 3.22 8.38 3.38 7.88 3.59 7.4 3.84 7.4 3.84 7.58 4.18 7.58 4.18 7.58 4.18 7.8 3.87 7.8 3.87 7.8 3.87 6.59 3 6.59 3 6.59 3 6.59 3 6.59 3 6.3 2.8 5.96 2.69 5.62 2.69 5.17 2.69 4.74 2.87 4.43 3.18 4.43 3.18 4.7 3.45 4.7 3.45 4.7 3.45 4.43 3.18 4.43 3.18 4.43 3.18 3.12 4.49 3.12 4.49 2.8 4.81 2.63 5.24 2.63 5.67 2.63 6.01 2.73 6.35 2.94 6.64 2.94 6.64 2.94 6.64 2.94 6.64 2.94 6.64 3.82 7.88 3.82 7.88 3.82 7.88 4.12 7.66 4.12 7.66 4.12 7.66 3.79 7.49 3.79 7.49 3.54 7.97 3.34 8.47 3.18 8.99 3.18 8.99 3.54 9.09 3.54 9.09 3.54 9.09 3.48 8.72 3.48 8.72 3.48 8.72 2.02 8.97 2.02 8.97 2.02 8.97 2.02 8.97 2.02 8.97 1.21 9.1 0.62 9.8 0.62 10.62 0.62 10.62 0.62 12.47 0.62 12.47 0.62 13.29 1.21 13.98 2.02 14.12 2.02 14.12 2.02 14.12 2.02 14.12 2.02 14.12 3.51 14.37 3.51 14.37 3.51 14.37 3.57 14 3.57 14 3.57 14 3.22 14.11 3.22 14.11 3.38 14.63 3.59 15.13 3.85 15.61 3.85 15.61 4.18 15.43 4.18 15.43 4.18 15.43 3.87 15.21 3.87 15.21 3.87 15.21 3 16.42 3 16.42 3 16.42 3.01 16.41 3.01 16.41 2.8 16.7 2.69 17.05 2.7 17.38 2.69 17.82 2.86 18.25 3.19 18.57 3.19 18.57 3.19 18.57 3.19 18.57 3.19 18.57 4.49 19.87 4.49 19.87 4.81 20.19 5.23 20.37 5.68 20.37 6.02 20.37 6.36 20.26 6.65 20.05 6.65 20.05 6.64 20.05 6.64 20.05 6.64 20.05 7.88 19.18 7.88 19.18 7.88 19.18 7.66 18.87 7.66 18.87 7.66 18.87 7.48 19.2 7.48 19.2 7.95 19.45 8.44 19.64 8.93 19.8 8.93 19.8 9.05 19.44 9.05 19.44 9.05 19.44 8.68 19.5 8.68 19.5 8.68 19.5 8.92 20.98 8.92 20.98 9.06 21.79 9.75 22.38 10.57 22.37 10.57 22.37 10.57 22 10.57 22 10.57 22 10.57 22 10.57 22ZM 7.92 17.67C 7.92 17.67 7.74 18 7.74 18 8.33 18.34 8.97 18.6 9.63 18.77 9.63 18.77 9.63 18.77 9.63 18.77 9.63 18.77 9.63 18.78 9.63 18.78 9.71 18.8 9.77 18.86 9.79 18.95 9.79 18.95 9.79 18.95 9.79 18.95 9.79 18.95 10.09 20.79 10.09 20.79 10.09 20.79 10.09 20.79 10.09 20.79 10.12 21.03 10.35 21.21 10.58 21.2 10.58 21.2 12.42 21.2 12.42 21.2 12.65 21.2 12.87 21.03 12.91 20.79 12.91 20.79 12.54 20.73 12.54 20.73 12.54 20.73 12.91 20.79 12.91 20.79 12.91 20.79 13.22 18.94 13.22 18.94 13.22 18.94 13.22 18.94 13.22 18.94 13.23 18.87 13.29 18.79 13.37 18.78 13.37 18.78 13.38 18.77 13.38 18.77 13.38 18.77 13.38 18.77 13.38 18.77 14.06 18.6 14.71 18.33 15.31 17.97 15.31 17.97 15.31 17.97 15.31 17.97 15.31 17.97 15.43 17.94 15.43 17.94 15.43 17.94 15.55 17.98 15.55 17.98 15.55 17.98 15.55 17.98 15.55 17.98 15.55 17.98 17.07 19.06 17.07 19.06 17.07 19.06 17.07 19.07 17.07 19.07 17.14 19.11 17.24 19.16 17.35 19.15 17.43 19.16 17.6 19.12 17.7 19.01 17.7 19.01 19.01 17.7 19.01 17.7 19.01 17.7 18.75 17.44 18.75 17.44 18.75 17.44 19.01 17.71 19.01 17.71 19.11 17.6 19.15 17.47 19.15 17.36 19.15 17.26 19.13 17.16 19.07 17.07 19.07 17.07 19.06 17.07 19.06 17.07 19.06 17.07 17.98 15.54 17.98 15.54 17.98 15.54 17.98 15.55 17.98 15.55 17.98 15.55 17.94 15.42 17.94 15.42 17.94 15.42 17.97 15.31 17.97 15.31 17.97 15.31 17.97 15.31 17.97 15.31 17.97 15.31 17.97 15.31 17.97 15.31 18.33 14.7 18.6 14.05 18.77 13.37 18.8 13.29 18.86 13.23 18.95 13.21 18.95 13.21 18.97 13.21 18.97 13.21 18.97 13.21 20.79 12.91 20.79 12.91 20.79 12.91 20.79 12.91 20.79 12.91 21.03 12.87 21.2 12.65 21.2 12.42 21.2 12.42 20.82 12.42 20.82 12.42 20.82 12.42 20.82 12.8 20.82 12.8 20.82 12.8 20.83 12.8 20.83 12.8 20.83 12.8 21.2 12.8 21.2 12.8 21.2 12.8 21.2 10.58 21.2 10.58 21.21 10.34 21.03 10.13 20.79 10.09 20.79 10.09 20.79 10.09 20.79 10.09 20.79 10.09 18.95 9.78 18.95 9.78 18.95 9.78 18.95 9.78 18.95 9.78 18.87 9.77 18.8 9.71 18.78 9.62 18.78 9.62 18.78 9.62 18.78 9.62 18.6 8.94 18.34 8.29 17.98 7.69 17.98 7.69 17.98 7.69 17.98 7.69 17.98 7.69 17.94 7.57 17.94 7.57 17.94 7.57 17.98 7.45 17.98 7.45 17.98 7.45 17.98 7.45 17.98 7.45 17.98 7.45 19.07 5.92 19.07 5.92 19.07 5.92 19.08 5.91 19.08 5.91 19.13 5.83 19.16 5.74 19.16 5.64 19.16 5.52 19.11 5.39 19.02 5.3 19.02 5.3 19.01 5.3 19.01 5.3 19.01 5.3 17.71 3.99 17.71 3.99 17.58 3.87 17.44 3.84 17.36 3.84 17.23 3.85 17.15 3.89 17.1 3.92 17.1 3.92 17.09 3.93 17.09 3.93 17.09 3.93 15.56 5.02 15.56 5.02 15.56 5.02 15.56 5.02 15.56 5.02 15.56 5.02 15.44 5.06 15.44 5.06 15.44 5.06 15.32 5.03 15.32 5.03 15.32 5.03 15.32 5.03 15.32 5.03 15.32 5.03 15.32 5.03 15.32 5.03 14.71 4.67 14.04 4.4 13.34 4.22 13.34 4.22 13.34 4.22 13.34 4.22 13.34 4.22 13.34 4.22 13.34 4.22 13.26 4.2 13.2 4.13 13.18 4.04 13.18 4.04 12.88 2.21 12.88 2.21 12.88 2.21 12.51 2.28 12.51 2.28 12.51 2.28 12.88 2.22 12.88 2.22 12.84 1.98 12.62 1.8 12.39 1.81 12.39 1.81 10.55 1.81 10.55 1.81 10.31 1.8 10.1 1.98 10.06 2.22 10.06 2.22 10.43 2.28 10.43 2.28 10.43 2.28 10.06 2.21 10.06 2.21 10.06 2.21 9.75 4.07 9.75 4.07 9.75 4.07 9.75 4.07 9.75 4.07 9.73 4.15 9.67 4.22 9.58 4.24 9.58 4.24 9.68 4.61 9.68 4.61 9.68 4.61 9.59 4.24 9.59 4.24 8.91 4.42 8.26 4.7 7.66 5.06 7.66 5.06 7.66 5.05 7.66 5.05 7.66 5.05 7.54 5.09 7.54 5.09 7.54 5.09 7.41 5.04 7.41 5.04 7.41 5.04 7.42 5.05 7.42 5.05 7.42 5.05 5.9 3.97 5.9 3.97 5.9 3.97 5.69 4.27 5.69 4.27 5.69 4.27 5.91 3.97 5.91 3.97 5.84 3.92 5.73 3.87 5.62 3.88 5.55 3.87 5.38 3.91 5.27 4.02 5.27 4.02 3.96 5.33 3.96 5.33 3.96 5.33 3.96 5.33 3.96 5.33 3.86 5.43 3.82 5.56 3.82 5.68 3.82 5.77 3.85 5.87 3.91 5.95 3.91 5.95 3.91 5.95 3.91 5.95 3.91 5.95 5.01 7.5 5.01 7.5 5.01 7.5 5 7.5 5 7.5 5 7.5 5.04 7.62 5.04 7.62 5.04 7.62 5.01 7.73 5.01 7.73 5.01 7.73 5.02 7.73 5.02 7.73 4.66 8.34 4.4 8.99 4.22 9.67 4.22 9.67 4.22 9.67 4.22 9.67 4.22 9.67 4.22 9.67 4.22 9.67 4.21 9.75 4.14 9.81 4.05 9.83 4.05 9.83 4.05 9.83 4.05 9.83 4.05 9.83 2.22 10.14 2.22 10.14 2.22 10.14 2.22 10.14 2.22 10.14 1.98 10.17 1.81 10.39 1.81 10.62 1.81 10.62 1.81 12.47 1.81 12.47 1.81 12.7 1.98 12.91 2.22 12.95 2.22 12.95 2.28 12.58 2.28 12.58 2.28 12.58 2.22 12.95 2.22 12.95 2.22 12.95 4.07 13.27 4.07 13.27 4.07 13.27 4.07 13.27 4.07 13.27 4.15 13.28 4.23 13.34 4.25 13.43 4.25 13.43 4.61 13.33 4.61 13.33 4.61 13.33 4.25 13.42 4.25 13.42 4.42 14.11 4.7 14.76 5.06 15.36 5.06 15.36 5.06 15.36 5.06 15.36 5.06 15.36 5.06 15.36 5.06 15.36 5.06 15.36 5.09 15.47 5.09 15.47 5.09 15.47 5.05 15.6 5.05 15.6 5.05 15.6 5.05 15.6 5.05 15.6 5.05 15.6 3.97 17.12 3.97 17.12 3.97 17.12 3.96 17.13 3.96 17.13 3.91 17.21 3.88 17.3 3.88 17.4 3.88 17.52 3.93 17.65 4.02 17.74 4.02 17.74 4.03 17.74 4.03 17.74 4.03 17.74 5.33 19.05 5.33 19.05 5.33 19.05 5.33 19.05 5.33 19.05 5.46 19.17 5.61 19.2 5.68 19.19 5.81 19.19 5.88 19.15 5.94 19.12 5.94 19.12 5.95 19.11 5.95 19.11 5.95 19.11 7.5 18.01 7.5 18.01 7.5 18.01 7.51 18.01 7.51 18.01 7.51 18.01 7.62 17.97 7.62 17.97 7.62 17.97 7.74 18 7.74 18 7.74 18 7.74 18 7.74 18 7.74 18 7.74 18 7.74 18 7.74 18 7.92 17.67 7.92 17.67 7.92 17.67 8.11 17.35 8.11 17.35 7.96 17.26 7.79 17.22 7.62 17.22 7.43 17.22 7.23 17.28 7.06 17.4 7.06 17.4 7.28 17.71 7.28 17.71 7.28 17.71 7.06 17.4 7.06 17.4 7.06 17.4 5.53 18.49 5.53 18.49 5.53 18.49 5.75 18.8 5.75 18.8 5.75 18.8 5.56 18.47 5.56 18.47 5.56 18.47 5.68 18.68 5.68 18.68 5.68 18.68 5.68 18.44 5.68 18.44 5.68 18.44 5.56 18.47 5.56 18.47 5.56 18.47 5.68 18.68 5.68 18.68 5.68 18.68 5.68 18.44 5.68 18.44 5.68 18.44 5.68 18.7 5.68 18.7 5.68 18.7 5.86 18.52 5.86 18.52 5.8 18.46 5.72 18.44 5.68 18.44 5.68 18.44 5.68 18.7 5.68 18.7 5.68 18.7 5.86 18.52 5.86 18.52 5.86 18.52 5.86 18.52 5.86 18.52 5.86 18.52 4.56 17.21 4.56 17.21 4.56 17.21 4.56 17.21 4.56 17.21 4.56 17.21 4.37 17.4 4.37 17.4 4.37 17.4 4.63 17.4 4.63 17.4 4.63 17.33 4.61 17.26 4.56 17.21 4.56 17.21 4.37 17.4 4.37 17.4 4.37 17.4 4.63 17.4 4.63 17.4 4.63 17.4 4.38 17.4 4.38 17.4 4.38 17.4 4.59 17.53 4.59 17.53 4.59 17.53 4.63 17.4 4.63 17.4 4.63 17.4 4.38 17.4 4.38 17.4 4.38 17.4 4.59 17.53 4.59 17.53 4.59 17.53 4.28 17.33 4.28 17.33 4.28 17.33 4.58 17.55 4.58 17.55 4.58 17.55 5.66 16.03 5.66 16.03 5.66 16.03 5.66 16.03 5.66 16.03 5.78 15.86 5.84 15.67 5.84 15.47 5.84 15.3 5.8 15.13 5.71 14.97 5.71 14.97 5.7 14.97 5.7 14.97 5.7 14.97 5.7 14.97 5.7 14.97 5.38 14.43 5.13 13.85 4.97 13.24 4.97 13.24 4.97 13.23 4.97 13.23 4.97 13.23 4.97 13.23 4.97 13.23 4.87 12.87 4.58 12.59 4.2 12.53 4.2 12.53 4.2 12.53 4.2 12.53 4.2 12.53 2.34 12.21 2.34 12.21 2.34 12.21 2.34 12.21 2.34 12.21 2.34 12.21 2.3 12.47 2.3 12.47 2.3 12.47 2.56 12.47 2.56 12.47 2.56 12.35 2.47 12.23 2.34 12.21 2.34 12.21 2.3 12.47 2.3 12.47 2.3 12.47 2.56 12.47 2.56 12.47 2.56 12.47 2.56 10.62 2.56 10.62 2.56 10.62 2.3 10.62 2.3 10.62 2.3 10.62 2.34 10.88 2.34 10.88 2.47 10.86 2.56 10.74 2.56 10.62 2.56 10.62 2.3 10.62 2.3 10.62 2.3 10.62 2.34 10.88 2.34 10.88 2.34 10.88 2.34 10.88 2.34 10.88 2.34 10.88 4.17 10.57 4.17 10.57 4.17 10.57 4.17 10.57 4.17 10.57 4.55 10.5 4.86 10.23 4.95 9.85 4.95 9.85 4.95 9.85 4.95 9.85 4.95 9.85 4.95 9.85 4.95 9.85 5.11 9.24 5.34 8.65 5.66 8.11 5.66 8.11 5.66 8.11 5.66 8.11 5.66 8.11 5.66 8.11 5.66 8.11 5.75 7.96 5.79 7.79 5.79 7.62 5.79 7.42 5.73 7.22 5.61 7.06 5.61 7.06 5.61 7.06 5.61 7.06 5.61 7.06 4.52 5.52 4.52 5.52 4.52 5.52 4.22 5.74 4.22 5.74 4.22 5.74 4.52 5.53 4.52 5.53 4.52 5.53 4.31 5.68 4.31 5.68 4.31 5.68 4.57 5.68 4.57 5.68 4.57 5.68 4.52 5.53 4.52 5.53 4.52 5.53 4.31 5.68 4.31 5.68 4.31 5.68 4.57 5.68 4.57 5.68 4.57 5.68 4.31 5.68 4.31 5.68 4.31 5.68 4.5 5.86 4.5 5.86 4.55 5.8 4.57 5.73 4.57 5.68 4.57 5.68 4.31 5.68 4.31 5.68 4.31 5.68 4.5 5.86 4.5 5.86 4.5 5.86 4.49 5.86 4.49 5.86 4.49 5.86 5.8 4.55 5.8 4.55 5.8 4.55 5.62 4.37 5.62 4.37 5.62 4.37 5.62 4.63 5.62 4.63 5.65 4.63 5.76 4.6 5.8 4.55 5.8 4.55 5.62 4.37 5.62 4.37 5.62 4.37 5.62 4.63 5.62 4.63 5.62 4.63 5.62 4.36 5.62 4.36 5.62 4.36 5.46 4.57 5.46 4.57 5.46 4.57 5.62 4.63 5.62 4.63 5.62 4.63 5.62 4.36 5.62 4.36 5.62 4.36 5.46 4.57 5.46 4.57 5.46 4.57 5.46 4.57 5.46 4.57 5.46 4.57 6.98 5.66 6.98 5.66 6.98 5.66 6.98 5.66 6.98 5.66 7.15 5.78 7.35 5.84 7.54 5.84 7.71 5.84 7.89 5.79 8.04 5.7 8.04 5.7 8.04 5.7 8.04 5.7 8.04 5.7 8.04 5.7 8.04 5.7 8.58 5.38 9.17 5.13 9.78 4.97 9.78 4.97 9.78 4.97 9.78 4.97 9.78 4.97 9.78 4.97 9.78 4.97 10.14 4.87 10.42 4.57 10.49 4.2 10.49 4.2 10.49 4.2 10.49 4.2 10.49 4.2 10.8 2.34 10.8 2.34 10.8 2.34 10.8 2.34 10.8 2.34 10.8 2.34 10.55 2.29 10.55 2.29 10.55 2.29 10.55 2.56 10.55 2.56 10.66 2.56 10.79 2.46 10.8 2.34 10.8 2.34 10.55 2.29 10.55 2.29 10.55 2.29 10.55 2.56 10.55 2.56 10.55 2.56 12.39 2.56 12.39 2.56 12.39 2.56 12.39 2.29 12.39 2.29 12.39 2.29 12.14 2.33 12.14 2.33 12.15 2.46 12.28 2.56 12.39 2.56 12.39 2.56 12.39 2.29 12.39 2.29 12.39 2.29 12.14 2.33 12.14 2.33 12.14 2.33 12.14 2.33 12.14 2.33 12.14 2.33 12.44 4.17 12.44 4.17 12.51 4.55 12.79 4.85 13.16 4.95 13.16 4.95 13.16 4.95 13.16 4.95 13.79 5.11 14.39 5.35 14.94 5.68 14.94 5.68 14.94 5.68 14.94 5.68 14.94 5.68 14.95 5.68 14.95 5.68 15.1 5.77 15.27 5.81 15.44 5.81 15.63 5.81 15.83 5.75 16 5.64 16 5.64 16 5.64 16 5.64 16 5.64 17.51 4.55 17.51 4.55 17.51 4.55 17.29 4.24 17.29 4.24 17.29 4.24 17.49 4.56 17.49 4.56 17.49 4.56 17.36 4.35 17.36 4.35 17.36 4.35 17.36 4.59 17.36 4.59 17.36 4.59 17.49 4.56 17.49 4.56 17.49 4.56 17.36 4.35 17.36 4.35 17.36 4.35 17.36 4.59 17.36 4.59 17.36 4.59 17.36 4.34 17.36 4.34 17.36 4.34 17.18 4.52 17.18 4.52 17.24 4.58 17.32 4.6 17.36 4.59 17.36 4.59 17.36 4.34 17.36 4.34 17.36 4.34 17.18 4.52 17.18 4.52 17.18 4.52 18.48 5.83 18.48 5.83 18.48 5.83 18.48 5.83 18.48 5.83 18.48 5.83 18.67 5.64 18.67 5.64 18.67 5.64 18.41 5.64 18.41 5.64 18.41 5.71 18.43 5.77 18.48 5.83 18.48 5.83 18.67 5.64 18.67 5.64 18.67 5.64 18.41 5.64 18.41 5.64 18.41 5.64 18.66 5.64 18.66 5.64 18.66 5.64 18.45 5.51 18.45 5.51 18.45 5.51 18.41 5.64 18.41 5.64 18.41 5.64 18.66 5.64 18.66 5.64 18.66 5.64 18.45 5.51 18.45 5.51 18.45 5.51 18.76 5.71 18.76 5.71 18.76 5.71 18.46 5.49 18.46 5.49 18.46 5.49 17.37 7.02 17.37 7.02 17.37 7.02 17.38 7.01 17.38 7.01 17.25 7.18 17.19 7.38 17.19 7.57 17.19 7.74 17.24 7.92 17.33 8.07 17.33 8.07 17.33 8.07 17.33 8.07 17.65 8.61 17.89 9.2 18.05 9.81 18.05 9.81 18.05 9.81 18.05 9.81 18.15 10.18 18.45 10.46 18.83 10.52 18.83 10.52 18.89 10.15 18.89 10.15 18.89 10.15 18.83 10.52 18.83 10.52 18.83 10.52 20.67 10.83 20.67 10.83 20.67 10.83 20.67 10.83 20.67 10.83 20.67 10.83 20.71 10.58 20.71 10.58 20.71 10.58 20.45 10.58 20.45 10.58 20.45 10.69 20.54 10.81 20.67 10.83 20.67 10.83 20.71 10.58 20.71 10.58 20.71 10.58 20.45 10.58 20.45 10.58 20.45 10.58 20.45 12.42 20.45 12.42 20.45 12.42 20.83 12.42 20.83 12.42 20.83 12.42 20.83 12.05 20.83 12.05 20.83 12.05 20.82 12.05 20.82 12.05 20.82 12.05 20.45 12.05 20.45 12.05 20.45 12.05 20.45 12.42 20.45 12.42 20.45 12.42 20.71 12.42 20.71 12.42 20.71 12.42 20.67 12.17 20.67 12.17 20.54 12.18 20.44 12.31 20.45 12.42 20.45 12.42 20.71 12.42 20.71 12.42 20.71 12.42 20.67 12.17 20.67 12.17 20.67 12.17 20.67 12.17 20.67 12.17 20.67 12.17 18.82 12.47 18.82 12.47 18.82 12.47 18.82 12.47 18.82 12.47 18.44 12.54 18.14 12.82 18.05 13.19 17.89 13.8 17.65 14.38 17.33 14.92 17.33 14.92 17.33 14.92 17.33 14.92 17.33 14.92 17.32 14.93 17.32 14.93 17.24 15.08 17.19 15.25 17.19 15.42 17.19 15.61 17.25 15.81 17.37 15.98 17.37 15.98 17.37 15.98 17.37 15.98 17.37 15.98 18.45 17.51 18.45 17.51 18.45 17.51 18.45 17.5 18.45 17.5 18.45 17.5 18.66 17.36 18.66 17.36 18.66 17.36 18.4 17.36 18.4 17.36 18.4 17.36 18.45 17.5 18.45 17.5 18.45 17.5 18.66 17.36 18.66 17.36 18.66 17.36 18.4 17.36 18.4 17.36 18.4 17.36 18.67 17.36 18.67 17.36 18.67 17.36 18.48 17.17 18.48 17.17 18.42 17.23 18.4 17.3 18.4 17.36 18.4 17.36 18.67 17.36 18.67 17.36 18.67 17.36 18.48 17.17 18.48 17.17 18.48 17.17 18.48 17.17 18.48 17.17 18.48 17.17 17.17 18.48 17.17 18.48 17.17 18.48 17.35 18.66 17.35 18.66 17.35 18.66 17.35 18.4 17.35 18.4 17.33 18.4 17.22 18.43 17.17 18.48 17.17 18.48 17.35 18.66 17.35 18.66 17.35 18.66 17.35 18.4 17.35 18.4 17.35 18.4 17.35 18.66 17.35 18.66 17.35 18.66 17.5 18.45 17.5 18.45 17.5 18.45 17.35 18.4 17.35 18.4 17.35 18.4 17.35 18.66 17.35 18.66 17.35 18.66 17.5 18.45 17.5 18.45 17.5 18.45 17.51 18.45 17.51 18.45 17.51 18.45 15.98 17.37 15.98 17.37 15.98 17.37 15.99 17.37 15.99 17.37 15.82 17.25 15.62 17.19 15.43 17.19 15.25 17.19 15.08 17.24 14.93 17.33 14.93 17.33 14.93 17.33 14.93 17.33 14.39 17.65 13.8 17.89 13.19 18.05 13.19 18.05 13.19 18.05 13.19 18.05 12.82 18.14 12.54 18.45 12.48 18.83 12.48 18.83 12.85 18.89 12.85 18.89 12.85 18.89 12.48 18.82 12.48 18.82 12.48 18.82 12.17 20.67 12.17 20.67 12.17 20.67 12.17 20.67 12.17 20.67 12.17 20.67 12.42 20.71 12.42 20.71 12.42 20.71 12.42 20.45 12.42 20.45 12.31 20.44 12.19 20.54 12.17 20.67 12.17 20.67 12.42 20.71 12.42 20.71 12.42 20.71 12.42 20.45 12.42 20.45 12.42 20.45 10.58 20.45 10.58 20.45 10.58 20.45 10.58 20.71 10.58 20.71 10.58 20.71 10.83 20.67 10.83 20.67 10.82 20.54 10.69 20.44 10.58 20.45 10.58 20.45 10.58 20.71 10.58 20.71 10.58 20.71 10.83 20.67 10.83 20.67 10.83 20.67 10.83 20.67 10.83 20.67 10.83 20.67 10.53 18.82 10.53 18.82 10.53 18.82 10.53 18.82 10.53 18.82 10.46 18.44 10.18 18.14 9.81 18.05 9.81 18.05 9.81 18.05 9.81 18.05 9.81 18.05 9.82 18.05 9.82 18.05 9.22 17.89 8.65 17.66 8.11 17.35 8.11 17.35 8.11 17.35 8.11 17.35 8.11 17.35 8.11 17.35 8.11 17.35 8.11 17.35 7.92 17.67 7.92 17.67 7.92 17.67 7.92 17.67 7.92 17.67ZM 6.97 11.5C 6.97 11.5 7.35 11.5 7.35 11.5 7.35 9.2 9.21 7.35 11.5 7.34 13.8 7.35 15.65 9.2 15.66 11.5 15.65 13.79 13.8 15.65 11.5 15.65 9.21 15.65 7.35 13.79 7.35 11.5 7.35 11.5 6.97 11.5 6.97 11.5 6.97 11.5 6.6 11.5 6.6 11.5 6.6 14.21 8.79 16.4 11.5 16.4 14.21 16.4 16.41 14.21 16.41 11.5 16.41 8.79 14.21 6.59 11.5 6.59 8.79 6.59 6.6 8.79 6.6 11.5 6.6 11.5 6.97 11.5 6.97 11.5 6.97 11.5 6.97 11.5 6.97 11.5ZM 8.15 11.5C 8.15 11.5 7.78 11.5 7.78 11.5 7.78 13.55 9.45 15.22 11.5 15.22 13.56 15.22 15.22 13.55 15.22 11.5 15.22 9.44 13.56 7.78 11.5 7.78 9.45 7.78 7.78 9.44 7.78 11.5 7.78 11.5 8.15 11.5 8.15 11.5 8.15 11.5 8.53 11.5 8.53 11.5 8.53 9.86 9.86 8.53 11.5 8.53 13.14 8.53 14.47 9.86 14.47 11.5 14.47 13.14 13.14 14.47 11.5 14.47 9.86 14.47 8.53 13.14 8.53 11.5 8.53 11.5 8.15 11.5 8.15 11.5 8.15 11.5 8.15 11.5 8.15 11.5Z" fill="rgb(183,195,201)"/></svg>