<?xml version="1.0" encoding="utf-8"?>
<svg xmlns="http://www.w3.org/2000/svg"
	xmlns:xlink="http://www.w3.org/1999/xlink"
	width="22px" height="22px" viewBox="0 0 22 22">
<path fillRule="evenodd" d="M 11.01 22C 4.94 22 0.01 17.07 0.01 11 0.01 4.93 4.94 0.01 11.01 0.01 17.08 0.01 22 4.93 22 11 22 17.07 17.08 22 11.01 22ZM 11.01 1.46C 5.74 1.46 1.46 5.74 1.46 11 1.46 16.27 5.74 20.55 11.01 20.55 16.27 20.55 20.55 16.27 20.55 11 20.55 5.74 16.27 1.46 11.01 1.46ZM 12.55 16.69C 12.55 16.69 9.46 16.69 9.46 16.69 9.16 16.69 8.94 16.45 8.94 16.17 8.94 16.17 8.94 15.08 8.94 15.08 8.94 14.78 9.18 14.56 9.46 14.56 9.46 14.56 9.88 14.56 9.88 14.56 9.88 14.56 9.88 11.23 9.88 11.23 9.88 11.23 9.46 11.23 9.46 11.23 9.16 11.23 8.94 10.98 8.94 10.7 8.94 10.7 8.94 9.62 8.94 9.62 8.94 9.32 9.18 9.09 9.46 9.09 9.46 9.09 11.57 9.09 11.57 9.09 11.87 9.09 12.09 9.34 12.09 9.62 12.09 9.62 12.09 14.54 12.09 14.54 12.09 14.54 12.55 14.54 12.55 14.54 12.84 14.54 13.08 14.78 13.08 15.08 13.08 15.08 13.08 16.17 13.08 16.17 13.08 16.47 12.84 16.69 12.55 16.69ZM 12.19 7.14C 12.17 7.16 12.17 7.16 12.17 7.18 12.15 7.26 12.11 7.33 12.07 7.39 12.03 7.45 11.99 7.51 11.93 7.57 11.93 7.57 11.91 7.59 11.91 7.59 11.85 7.65 11.79 7.71 11.73 7.75 11.65 7.81 11.57 7.85 11.49 7.89 11.49 7.89 11.47 7.89 11.47 7.89 11.41 7.93 11.33 7.95 11.25 7.97 11.17 7.99 11.07 7.99 10.99 7.99 10.91 7.99 10.83 7.99 10.73 7.97 10.62 7.95 10.54 7.93 10.46 7.89 10.36 7.87 10.28 7.81 10.22 7.77 10.14 7.71 10.08 7.65 10.02 7.59 9.98 7.53 9.92 7.47 9.88 7.41 9.84 7.35 9.8 7.26 9.76 7.18 9.74 7.1 9.7 7.02 9.68 6.86 9.66 6.78 9.66 6.68 9.66 6.6 9.66 6.52 9.66 6.44 9.68 6.34 9.7 6.26 9.72 6.18 9.76 6.1 9.8 6.02 9.84 5.94 9.88 5.88 9.92 5.82 9.98 5.76 10.04 5.7 10.1 5.64 10.16 5.6 10.24 5.54 10.3 5.5 10.38 5.46 10.46 5.42 10.46 5.42 10.48 5.42 10.48 5.42 10.56 5.38 10.64 5.36 10.73 5.34 10.81 5.32 10.91 5.32 10.99 5.32 11.07 5.32 11.15 5.32 11.25 5.34 11.33 5.36 11.41 5.38 11.49 5.42 11.57 5.46 11.63 5.5 11.71 5.54 11.79 5.6 11.85 5.64 11.91 5.7 11.93 5.72 11.93 5.72 11.95 5.74 12.05 5.84 12.13 5.96 12.19 6.1 12.23 6.2 12.25 6.28 12.27 6.36 12.29 6.44 12.29 6.54 12.29 6.62 12.29 6.7 12.29 6.8 12.27 6.88 12.25 6.96 12.23 7.06 12.19 7.14Z" fill="rgb(143,161,175)"/></svg>