<svg
        xmlns="http://www.w3.org/2000/svg"
        xmlns:xlink="http://www.w3.org/1999/xlink"
        width="22.75px" height="24.75px">
    <path fill-rule="evenodd"  stroke="rgb(143, 161, 175)" stroke-width="0.5px" stroke-linecap="butt" stroke-linejoin="miter" fill="rgb(143, 161, 175)"
          d="M20.686,23.950 L4.070,23.950 C3.947,23.950 3.829,23.902 3.742,23.816 C3.655,23.729 3.606,23.613 3.606,23.491 L3.606,22.115 L2.725,22.115 C1.967,22.115 1.350,21.505 1.350,20.755 C1.350,20.392 1.493,20.051 1.753,19.794 C2.012,19.537 2.358,19.396 2.725,19.396 L3.606,19.396 L3.606,17.862 L2.725,17.862 C1.967,17.862 1.350,17.252 1.350,16.503 C1.350,16.140 1.493,15.798 1.753,15.541 C2.012,15.285 2.358,15.143 2.725,15.143 L3.606,15.143 L3.606,13.609 L2.725,13.609 C1.967,13.609 1.350,12.999 1.350,12.250 C1.350,11.887 1.493,11.545 1.753,11.289 C2.012,11.032 2.358,10.890 2.725,10.890 L3.606,10.890 L3.606,9.357 L2.725,9.357 C1.967,9.357 1.350,8.747 1.350,7.997 C1.350,7.634 1.493,7.292 1.753,7.036 C2.012,6.780 2.357,6.638 2.725,6.638 L3.606,6.638 L3.606,5.104 L2.725,5.104 C1.967,5.104 1.350,4.494 1.350,3.745 C1.350,3.382 1.493,3.040 1.753,2.784 C2.012,2.527 2.358,2.385 2.725,2.385 L3.606,2.385 L3.606,1.009 C3.606,0.887 3.655,0.770 3.742,0.684 C3.829,0.598 3.947,0.550 4.070,0.550 L20.686,0.550 C20.942,0.550 21.150,0.755 21.150,1.009 L21.150,23.491 C21.150,23.745 20.942,23.950 20.686,23.950 ZM2.725,20.313 C2.606,20.313 2.493,20.359 2.409,20.443 C2.325,20.526 2.278,20.637 2.278,20.755 C2.278,20.999 2.479,21.197 2.725,21.197 L4.071,21.197 C4.071,21.197 4.071,21.197 4.071,21.197 L5.416,21.197 C5.535,21.197 5.647,21.151 5.732,21.068 C5.816,20.984 5.863,20.873 5.863,20.755 C5.863,20.512 5.662,20.313 5.416,20.313 L4.071,20.313 L4.071,20.313 L2.725,20.313 ZM2.725,16.061 C2.606,16.061 2.493,16.107 2.409,16.190 C2.325,16.274 2.278,16.385 2.278,16.503 C2.278,16.746 2.479,16.944 2.725,16.944 L4.070,16.944 L4.070,16.944 L5.416,16.944 C5.535,16.944 5.647,16.898 5.731,16.815 C5.816,16.731 5.863,16.621 5.863,16.503 C5.863,16.259 5.662,16.061 5.416,16.061 L4.070,16.061 L2.725,16.061 ZM2.725,11.808 C2.606,11.808 2.493,11.854 2.409,11.938 C2.325,12.021 2.278,12.132 2.278,12.250 C2.278,12.494 2.479,12.692 2.725,12.692 L4.071,12.692 L5.416,12.692 C5.535,12.692 5.647,12.646 5.732,12.562 C5.816,12.479 5.863,12.368 5.863,12.250 C5.863,12.006 5.662,11.808 5.416,11.808 L2.725,11.808 ZM2.725,7.556 C2.605,7.556 2.493,7.602 2.410,7.685 C2.324,7.768 2.278,7.879 2.278,7.997 C2.278,8.241 2.479,8.439 2.725,8.439 L5.416,8.439 C5.535,8.439 5.647,8.393 5.732,8.310 C5.816,8.226 5.863,8.115 5.863,7.997 C5.863,7.754 5.662,7.556 5.416,7.556 L4.071,7.556 L4.071,7.556 L2.725,7.556 ZM2.725,3.303 C2.606,3.303 2.494,3.349 2.409,3.432 C2.325,3.516 2.278,3.627 2.278,3.745 C2.278,3.988 2.479,4.187 2.725,4.187 L4.070,4.187 L4.070,4.187 L5.416,4.187 C5.535,4.187 5.647,4.141 5.732,4.057 C5.816,3.974 5.863,3.863 5.863,3.745 C5.863,3.501 5.662,3.303 5.416,3.303 L2.725,3.303 ZM20.222,1.468 L4.534,1.468 L4.534,2.385 L5.416,2.385 C6.174,2.385 6.791,2.995 6.791,3.745 C6.791,4.108 6.648,4.449 6.388,4.706 C6.128,4.963 5.783,5.104 5.416,5.104 L4.534,5.104 L4.535,6.638 L5.416,6.638 C6.174,6.638 6.791,7.248 6.791,7.997 C6.791,8.360 6.648,8.702 6.388,8.958 C6.128,9.215 5.783,9.357 5.416,9.357 L4.534,9.357 L4.534,10.891 L5.416,10.891 C6.174,10.891 6.791,11.500 6.791,12.250 C6.791,12.613 6.648,12.955 6.388,13.211 C6.128,13.468 5.783,13.610 5.416,13.610 L4.535,13.610 L4.534,15.143 L5.416,15.143 C6.174,15.143 6.791,15.753 6.791,16.503 C6.791,16.866 6.648,17.208 6.388,17.464 C6.129,17.720 5.784,17.862 5.416,17.862 L4.534,17.862 L4.535,19.396 L5.416,19.396 C6.174,19.396 6.791,20.006 6.791,20.755 C6.791,21.118 6.648,21.460 6.388,21.717 C6.128,21.973 5.783,22.115 5.416,22.115 L4.534,22.115 L4.534,23.032 L20.222,23.032 L20.222,1.468 ZM12.935,5.865 C15.196,5.865 17.035,7.683 17.035,9.917 C17.035,12.152 15.196,13.971 12.935,13.971 C10.675,13.971 8.836,12.152 8.836,9.917 C8.836,7.683 10.675,5.865 12.935,5.865 ZM12.935,13.053 C14.684,13.053 16.106,11.646 16.106,9.917 C16.106,8.189 14.684,6.782 12.935,6.782 C11.186,6.782 9.764,8.189 9.764,9.917 C9.764,11.646 11.186,13.053 12.935,13.053 ZM9.300,15.630 L16.570,15.630 C16.827,15.630 17.035,15.836 17.035,16.089 C17.035,16.342 16.827,16.548 16.570,16.548 L9.300,16.548 C9.043,16.548 8.836,16.342 8.836,16.089 C8.836,15.836 9.043,15.630 9.300,15.630 ZM9.300,17.718 L16.570,17.718 C16.827,17.718 17.035,17.923 17.035,18.177 C17.035,18.430 16.827,18.635 16.570,18.635 L9.300,18.635 C9.043,18.635 8.836,18.430 8.836,18.177 C8.836,17.923 9.043,17.718 9.300,17.718 ZM13.630,2.844 C13.630,2.591 13.838,2.385 14.095,2.385 L17.501,2.385 C17.757,2.385 17.965,2.591 17.965,2.844 C17.965,3.097 17.757,3.303 17.501,3.303 L14.095,3.303 C13.838,3.303 13.630,3.098 13.630,2.844 ZM18.718,2.385 C19.316,2.385 19.315,3.303 18.718,3.303 C18.119,3.303 18.120,2.385 18.718,2.385 Z"/>
</svg>