<?xml version="1.0" encoding="UTF-8"?>
<svg width="57px" height="57px" viewBox="0 0 114 114" version="1.1" xmlns="http://www.w3.org/2000/svg" xmlns:xlink="http://www.w3.org/1999/xlink">
    <!-- Generator: Sketch 52.6 (67491) - http://www.bohemiancoding.com/sketch -->
    <title>choose a plan</title>
    <desc>Created with Sketch.</desc>
    <g id="Page-1" stroke="none" stroke-width="1" fill="none" fill-rule="evenodd">
        <g id="choose-a-plan" transform="translate(4.000000, 4.000000)">
            <g id="Layer0_0_FILL-link" transform="translate(8.590909, 7.135922)" fill="#ff8602" fill-rule="nonzero">
                <g id="Layer0_0_FILL">
                    <path d="M15.4159091,3.21116505 C15.4159091,2.3276699 15.1136364,1.5631068 14.5090909,0.917475728 C13.9363636,0.305825243 13.2363636,0 12.4090909,0 C11.5818182,0 10.8659091,0.305825243 10.2613636,0.917475728 C9.68863636,1.5631068 9.40227273,2.3276699 9.40227273,3.21116505 C9.40227273,4.09466019 9.68863636,4.84223301 10.2613636,5.4538835 C10.8659091,6.09951456 11.5818182,6.4223301 12.4090909,6.4223301 C13.2363636,6.4223301 13.9363636,6.09951456 14.5090909,5.4538835 C15.1136364,4.84223301 15.4159091,4.09466019 15.4159091,3.21116505 Z M5.25,5.4538835 C5.85454545,4.84223301 6.15681818,4.09466019 6.15681818,3.21116505 C6.15681818,2.3276699 5.85454545,1.5631068 5.25,0.917475728 C4.67727273,0.305825243 3.97727273,0 3.15,0 C2.32272727,0 1.60681818,0.305825243 1.00227273,0.917475728 C0.429545455,1.5631068 0.143181818,2.3276699 0.143181818,3.21116505 C0.143181818,4.09466019 0.429545455,4.84223301 1.00227273,5.4538835 C1.60681818,6.09951456 2.32272727,6.4223301 3.15,6.4223301 C3.97727273,6.4223301 4.67727273,6.09951456 5.25,5.4538835 Z M24.2454545,5.4538835 C24.85,4.84223301 25.1522727,4.09466019 25.1522727,3.21116505 C25.1522727,2.3276699 24.85,1.5631068 24.2454545,0.917475728 C23.6727273,0.305825243 22.9727273,0 22.1454545,0 C21.3181818,0 20.6022727,0.305825243 19.9977273,0.917475728 C19.425,1.5631068 19.1386364,2.3276699 19.1386364,3.21116505 C19.1386364,4.09466019 19.425,4.84223301 19.9977273,5.4538835 C20.6022727,6.09951456 21.3181818,6.4223301 22.1454545,6.4223301 C22.9727273,6.4223301 23.6727273,6.09951456 24.2454545,5.4538835 Z" id="Shape"></path>
                </g>
            </g>
            <g id="Layer0_0_1_STROKES-link" stroke="#ff8602" stroke-linecap="round" stroke-linejoin="round" stroke-width="7">
                <path d="M57.8454545,91.1868932 L10.0227273,91.1868932 C3.65909091,91.1868932 0.477272727,87.788835 0.477272727,80.9927184 L0.477272727,20.592233 L0.477272727,10.5 C0.477272727,3.7038835 3.65909091,0.305825243 10.0227273,0.305825243 L84.1431818,0.305825243 C90.5068182,0.305825243 93.6886364,3.7038835 93.6886364,10.5 L93.6886364,20.592233 L93.6886364,53.6723301 L57.8454545,91.1868932 Z M78.8931818,66.8737864 L91.9704545,66.8737864 C96.9977273,66.8737864 100.036364,68.9975728 101.086364,73.2451456 L91.7795455,82.7257282 L102.565909,94.2451456 C103.647727,95.4004854 104.188636,96.8106796 104.188636,98.4757282 C104.156818,100.106796 103.6,101.5 102.518182,102.65534 C101.404545,103.84466 100.084091,104.43932 98.5568182,104.43932 C97.0295455,104.43932 95.725,103.86165 94.6431818,102.706311 L83.6659091,90.9830097 L74.3113636,100.463592 C71.0022727,99.0703883 69.3477273,95.9271845 69.3477273,91.0339806 L69.3477273,77.0679612 C69.3477273,70.2718447 72.5295455,66.8737864 78.8931818,66.8737864 Z M17.8022727,42.4587379 L61.7590909,42.4587379 L17.8022727,42.4587379 Z M17.8022727,59.2791262 L57.8454545,59.2791262 L17.8022727,59.2791262 Z M0.477272727,20.592233 L93.6886364,20.592233 L0.477272727,20.592233 Z" id="Layer0_0_1_STROKES"></path>
            </g>
        </g>
    </g>
</svg>