<?xml version="1.0" encoding="utf-8"?>
<svg xmlns="http://www.w3.org/2000/svg"
	xmlns:xlink="http://www.w3.org/1999/xlink"
	 width="56px" height="56px" viewBox="0 0 56 56">
<g><path fillRule="evenodd" d="M 40.25 53C 40.25 53 1.75 53 1.75 53 0.78 53-0 52.23-0 51.27-0 51.27-0 1.73-0 1.73-0 0.77 0.78-0 1.75-0 1.75-0 26.25-0 26.25-0 26.7-0 27.15 0.18 27.49 0.51 27.49 0.51 41.49 14.33 41.49 14.33 41.82 14.66 42 15.11 42 15.55 42 15.55 42 51.27 42 51.27 42 52.23 41.22 53 40.25 53ZM 28 5.9C 28 5.9 28 13.83 28 13.83 28 13.83 36.02 13.83 36.02 13.83 35.17 12.99 28.85 6.74 28 5.9ZM 38.5 17.28C 38.5 17.28 26.25 17.28 26.25 17.28 25.28 17.28 24.5 16.51 24.5 15.55 24.5 15.55 24.5 3.46 24.5 3.46 24.5 3.46 3.5 3.46 3.5 3.46 3.5 3.46 3.5 49.54 3.5 49.54 3.5 49.54 38.5 49.54 38.5 49.54 38.5 49.54 38.5 17.28 38.5 17.28ZM 8.75 25.35C 9.72 25.35 10.5 26.12 10.5 27.08 10.5 28.03 9.72 28.8 8.75 28.8 7.78 28.8 7 28.03 7 27.08 7 26.12 7.78 25.35 8.75 25.35ZM 8.75 32.26C 9.72 32.26 10.5 33.03 10.5 33.99 10.5 34.94 9.72 35.72 8.75 35.72 7.78 35.72 7 34.94 7 33.99 7 33.03 7.78 32.26 8.75 32.26ZM 8.75 39.17C 9.72 39.17 10.5 39.95 10.5 40.9 10.5 41.86 9.72 42.63 8.75 42.63 7.78 42.63 7 41.86 7 40.9 7 39.95 7.78 39.17 8.75 39.17ZM 15.75 25.35C 15.75 25.35 33.25 25.35 33.25 25.35 34.22 25.35 35 26.12 35 27.08 35 28.03 34.22 28.8 33.25 28.8 33.25 28.8 15.75 28.8 15.75 28.8 14.78 28.8 14 28.03 14 27.08 14 26.12 14.78 25.35 15.75 25.35ZM 15.75 32.26C 15.75 32.26 33.25 32.26 33.25 32.26 34.22 32.26 35 33.03 35 33.99 35 34.94 34.22 35.72 33.25 35.72 33.25 35.72 15.75 35.72 15.75 35.72 14.78 35.72 14 34.94 14 33.99 14 33.03 14.78 32.26 15.75 32.26ZM 15.75 39.17C 15.75 39.17 33.25 39.17 33.25 39.17 34.22 39.17 35 39.95 35 40.9 35 41.86 34.22 42.63 33.25 42.63 33.25 42.63 15.75 42.63 15.75 42.63 14.78 42.63 14 41.86 14 40.9 14 39.95 14.78 39.17 15.75 39.17Z" fill="rgb(255,107,107)"/><path fillRule="evenodd" d="M 40.25 52.75C 41.08 52.75 41.75 52.09 41.75 51.27 41.75 51.27 41.75 15.55 41.75 15.55 41.75 15.17 41.59 14.79 41.31 14.51 41.31 14.51 27.31 0.68 27.31 0.68 27.03 0.41 26.64 0.25 26.25 0.25 26.25 0.25 1.75 0.25 1.75 0.25 0.92 0.25 0.25 0.91 0.25 1.73 0.25 1.73 0.25 51.27 0.25 51.27 0.25 52.09 0.92 52.75 1.75 52.75 1.75 52.75 40.25 52.75 40.25 52.75M 3.25 3.21C 3.25 3.21 3.5 3.21 3.5 3.21 3.5 3.21 24.5 3.21 24.5 3.21 24.5 3.21 24.75 3.21 24.75 3.21 24.75 3.21 24.75 3.46 24.75 3.46 24.75 3.46 24.75 15.55 24.75 15.55 24.75 16.37 25.42 17.03 26.25 17.03 26.25 17.03 38.5 17.03 38.5 17.03 38.5 17.03 38.75 17.03 38.75 17.03 38.75 17.03 38.75 17.28 38.75 17.28 38.75 17.28 38.75 49.54 38.75 49.54 38.75 49.54 38.75 49.79 38.75 49.79 38.75 49.79 38.5 49.79 38.5 49.79 38.5 49.79 3.5 49.79 3.5 49.79 3.5 49.79 3.25 49.79 3.25 49.79 3.25 49.79 3.25 49.54 3.25 49.54 3.25 49.54 3.25 3.46 3.25 3.46 3.25 3.46 3.25 3.21 3.25 3.21M 27.75 5.3C 27.75 5.3 28.18 5.72 28.18 5.72 28.18 5.72 36.2 13.65 36.2 13.65 36.2 13.65 36.63 14.08 36.63 14.08 36.63 14.08 36.02 14.08 36.02 14.08 36.02 14.08 28 14.08 28 14.08 28 14.08 27.75 14.08 27.75 14.08 27.75 14.08 27.75 13.83 27.75 13.83 27.75 13.83 27.75 5.9 27.75 5.9 27.75 5.9 27.75 5.3 27.75 5.3M 33.25 42.38C 34.08 42.38 34.75 41.72 34.75 40.9 34.75 40.09 34.08 39.42 33.25 39.42 33.25 39.42 15.75 39.42 15.75 39.42 14.92 39.42 14.25 40.09 14.25 40.9 14.25 41.72 14.92 42.38 15.75 42.38 15.75 42.38 33.25 42.38 33.25 42.38M 8.75 42.38C 9.58 42.38 10.25 41.72 10.25 40.9 10.25 40.09 9.58 39.42 8.75 39.42 7.92 39.42 7.25 40.09 7.25 40.9 7.25 41.72 7.92 42.38 8.75 42.38M 33.25 35.47C 34.08 35.47 34.75 34.8 34.75 33.99 34.75 33.17 34.08 32.51 33.25 32.51 33.25 32.51 15.75 32.51 15.75 32.51 14.92 32.51 14.25 33.17 14.25 33.99 14.25 34.8 14.92 35.47 15.75 35.47 15.75 35.47 33.25 35.47 33.25 35.47M 8.75 35.47C 9.58 35.47 10.25 34.8 10.25 33.99 10.25 33.17 9.58 32.51 8.75 32.51 7.92 32.51 7.25 33.17 7.25 33.99 7.25 34.8 7.92 35.47 8.75 35.47M 33.25 28.55C 34.08 28.55 34.75 27.89 34.75 27.08 34.75 26.26 34.08 25.6 33.25 25.6 33.25 25.6 15.75 25.6 15.75 25.6 14.92 25.6 14.25 26.26 14.25 27.08 14.25 27.89 14.92 28.55 15.75 28.55 15.75 28.55 33.25 28.55 33.25 28.55M 8.75 28.55C 9.58 28.55 10.25 27.89 10.25 27.08 10.25 26.26 9.58 25.6 8.75 25.6 7.92 25.6 7.25 26.26 7.25 27.08 7.25 27.89 7.92 28.55 8.75 28.55M 40.25 53C 40.25 53 1.75 53 1.75 53 0.78 53-0 52.23-0 51.27-0 51.27-0 1.73-0 1.73-0 0.77 0.78-0 1.75-0 1.75-0 26.25-0 26.25-0 26.7-0 27.15 0.18 27.49 0.51 27.49 0.51 41.49 14.33 41.49 14.33 41.82 14.66 42 15.11 42 15.55 42 15.55 42 51.27 42 51.27 42 52.23 41.22 53 40.25 53 40.25 53 40.25 53 40.25 53ZM 3.5 3.46C 3.5 3.46 3.5 49.54 3.5 49.54 3.5 49.54 38.5 49.54 38.5 49.54 38.5 49.54 38.5 17.28 38.5 17.28 38.5 17.28 26.25 17.28 26.25 17.28 25.28 17.28 24.5 16.51 24.5 15.55 24.5 15.55 24.5 3.46 24.5 3.46 24.5 3.46 3.5 3.46 3.5 3.46 3.5 3.46 3.5 3.46 3.5 3.46ZM 28 5.9C 28 5.9 28 13.83 28 13.83 28 13.83 36.02 13.83 36.02 13.83 35.17 12.99 28.85 6.74 28 5.9 28 5.9 28 5.9 28 5.9ZM 33.25 42.63C 33.25 42.63 15.75 42.63 15.75 42.63 14.78 42.63 14 41.86 14 40.9 14 39.95 14.78 39.17 15.75 39.17 15.75 39.17 33.25 39.17 33.25 39.17 34.22 39.17 35 39.95 35 40.9 35 41.86 34.22 42.63 33.25 42.63 33.25 42.63 33.25 42.63 33.25 42.63ZM 8.75 42.63C 7.78 42.63 7 41.86 7 40.9 7 39.95 7.78 39.17 8.75 39.17 9.72 39.17 10.5 39.95 10.5 40.9 10.5 41.86 9.72 42.63 8.75 42.63 8.75 42.63 8.75 42.63 8.75 42.63ZM 33.25 35.72C 33.25 35.72 15.75 35.72 15.75 35.72 14.78 35.72 14 34.94 14 33.99 14 33.03 14.78 32.26 15.75 32.26 15.75 32.26 33.25 32.26 33.25 32.26 34.22 32.26 35 33.03 35 33.99 35 34.94 34.22 35.72 33.25 35.72 33.25 35.72 33.25 35.72 33.25 35.72ZM 8.75 35.72C 7.78 35.72 7 34.94 7 33.99 7 33.03 7.78 32.26 8.75 32.26 9.72 32.26 10.5 33.03 10.5 33.99 10.5 34.94 9.72 35.72 8.75 35.72 8.75 35.72 8.75 35.72 8.75 35.72ZM 33.25 28.8C 33.25 28.8 15.75 28.8 15.75 28.8 14.78 28.8 14 28.03 14 27.08 14 26.12 14.78 25.35 15.75 25.35 15.75 25.35 33.25 25.35 33.25 25.35 34.22 25.35 35 26.12 35 27.08 35 28.03 34.22 28.8 33.25 28.8 33.25 28.8 33.25 28.8 33.25 28.8ZM 8.75 28.8C 7.78 28.8 7 28.03 7 27.08 7 26.12 7.78 25.35 8.75 25.35 9.72 25.35 10.5 26.12 10.5 27.08 10.5 28.03 9.72 28.8 8.75 28.8 8.75 28.8 8.75 28.8 8.75 28.8Z" fill="rgb(255,255,255)"/></g></svg>