<?xml version="1.0" encoding="UTF-8"?>
<svg width="55px" height="55px" viewBox="0 0 112 112" version="1.1" xmlns="http://www.w3.org/2000/svg" xmlns:xlink="http://www.w3.org/1999/xlink">
    <!-- Generator: Sketch 52.6 (67491) - http://www.bohemiancoding.com/sketch -->
    <title>payment</title>
    <desc>Created with Sketch.</desc>
    <g id="Page-1" stroke="none" stroke-width="1" fill="none" fill-rule="evenodd">
        <g id="payment" transform="translate(3.000000, 4.000000)">
            <g id="Layer0_0_FILL-link" transform="translate(9.545455, 8.166667)" fill="#667dff" fill-rule="nonzero">
                <g id="Layer0_0_FILL">
                    <path d="M17.1287879,3.675 C17.1287879,2.66388889 16.7929293,1.78888889 16.1212121,1.05 C15.4848485,0.35 14.7070707,0 13.7878788,0 C12.8686869,0 12.0732323,0.35 11.4015152,1.05 C10.7651515,1.78888889 10.4469697,2.66388889 10.4469697,3.675 C10.4469697,4.68611111 10.7651515,5.54166667 11.4015152,6.24166667 C12.0732323,6.98055556 12.8686869,7.35 13.7878788,7.35 C14.7070707,7.35 15.4848485,6.98055556 16.1212121,6.24166667 C16.7929293,5.54166667 17.1287879,4.68611111 17.1287879,3.675 Z M5.83333333,6.24166667 C6.50505051,5.54166667 6.84090909,4.68611111 6.84090909,3.675 C6.84090909,2.66388889 6.50505051,1.78888889 5.83333333,1.05 C5.1969697,0.35 4.41919192,0 3.5,0 C2.58080808,0 1.78535354,0.35 1.11363636,1.05 C0.477272727,1.78888889 0.159090909,2.66388889 0.159090909,3.675 C0.159090909,4.68611111 0.477272727,5.54166667 1.11363636,6.24166667 C1.78535354,6.98055556 2.58080808,7.35 3.5,7.35 C4.41919192,7.35 5.1969697,6.98055556 5.83333333,6.24166667 Z M26.9393939,6.24166667 C27.6111111,5.54166667 27.9469697,4.68611111 27.9469697,3.675 C27.9469697,2.66388889 27.6111111,1.78888889 26.9393939,1.05 C26.3030303,0.35 25.5252525,0 24.6060606,0 C23.6868687,0 22.8914141,0.35 22.219697,1.05 C21.5833333,1.78888889 21.2651515,2.66388889 21.2651515,3.675 C21.2651515,4.68611111 21.5833333,5.54166667 22.219697,6.24166667 C22.8914141,6.98055556 23.6868687,7.35 24.6060606,7.35 C25.5252525,7.35 26.3030303,6.98055556 26.9393939,6.24166667 Z" id="Shape"></path>
                </g>
            </g>
            <g id="Layer0_0_1_STROKES-link" stroke="#667dff" stroke-linecap="round" stroke-linejoin="round" stroke-width="7">
                <path d="M0.53030303,23.5666667 L0.53030303,12.0166667 C0.53030303,4.23888889 4.06565657,0.35 11.1363636,0.35 L93.4924242,0.35 C100.563131,0.35 104.098485,4.23888889 104.098485,12.0166667 L104.098485,23.5666667 L104.098485,92.6916667 C104.098485,100.469444 100.563131,104.358333 93.4924242,104.358333 L11.1363636,104.358333 C4.06565657,104.358333 0.53030303,100.469444 0.53030303,92.6916667 L0.53030303,23.5666667 L104.098485,23.5666667 M24.9772727,34.1833333 L24.9772727,41.3 C25.5429293,41.3 26.1262626,41.3583333 26.7272727,41.475 C27.1868687,41.5527778 27.6111111,41.6694444 28,41.825 C28.3181818,41.9416667 28.6186869,42.0777778 28.9015152,42.2333333 C30.0328283,42.7777778 31.0757576,43.5555556 32.030303,44.5666667 C32.9494949,45.6166667 33.6742424,46.7638889 34.2045455,48.0083333 M14.9545455,77.35 C15.3434343,79.3333333 16.2626263,81.1027778 17.7121212,82.6583333 C18.3484848,83.3972222 19.0555556,84 19.8333333,84.4666667 C20.2575758,84.7388889 20.6994949,84.9916667 21.1590909,85.225 C22.290404,85.6916667 23.5277778,85.925 24.8712121,85.925 C24.9065657,85.925 24.9419192,85.925 24.9772727,85.925 L24.9772727,63.6416667 L24.7121212,63.6416667 C23.4393939,63.6027778 22.2550505,63.35 21.1590909,62.8833333 C20.6994949,62.6888889 20.2575758,62.4555556 19.8333333,62.1833333 C19.0555556,61.7166667 18.3484848,61.0944444 17.7121212,60.3166667 C15.6969697,58.1388889 14.6893939,55.5138889 14.6893939,52.4416667 C14.6893939,49.4083333 15.6969697,46.7833333 17.7121212,44.5666667 C18.3484848,43.8277778 19.0555556,43.225 19.8333333,42.7583333 C20.2575758,42.4861111 20.6994949,42.2527778 21.1590909,42.0583333 C22.290404,41.5527778 23.5277778,41.3 24.8712121,41.3 C24.9065657,41.3 24.9419192,41.3 24.9772727,41.3 L24.9772727,63.6416667 C25.5782828,63.6416667 26.1616162,63.7 26.7272727,63.8166667 C27.1868687,63.8944444 27.6111111,64.0111111 28,64.1666667 C28.3181818,64.2444444 28.6186869,64.3611111 28.9015152,64.5166667 C30.0328283,65.0611111 31.0757576,65.8388889 32.030303,66.85 C33.9747475,69.0666667 34.9469697,71.6916667 34.9469697,74.725 C34.9469697,77.8361111 33.9747475,80.4805556 32.030303,82.6583333 C31.0757576,83.6694444 30.0328283,84.4472222 28.9015152,84.9916667 C28.6186869,85.1472222 28.3181818,85.2833333 28,85.4 C27.6111111,85.5555556 27.1868687,85.6722222 26.7272727,85.75 C26.1262626,85.8666667 25.5429293,85.925 24.9772727,85.925 L24.9772727,94.3833333 M52.8181818,48.4166667 L85.3787879,48.4166667 M52.8181818,64.2833333 L85.3787879,64.2833333 M52.8181818,79.5083333 L66.6590909,79.5083333" id="Layer0_0_1_STROKES"></path>
            </g>
        </g>
    </g>
</svg>