<?xml version="1.0" encoding="utf-8"?>
<svg xmlns="http://www.w3.org/2000/svg"
	xmlns:xlink="http://www.w3.org/1999/xlink"
	 width="56px" height="56px" viewBox="0 0 56 56">
<path fillRule="evenodd" d="M 46.73 46.91C 46.73 46.91 6.27 46.91 6.27 46.91 3.33 46.91 0.95 44.52 0.95 41.59 0.95 41.59 0.95 5.41 0.95 5.41 0.95 2.47 3.33 0.08 6.27 0.08 6.27 0.08 46.73 0.08 46.73 0.08 49.67 0.08 52.05 2.47 52.05 5.41 52.05 5.41 52.05 41.59 52.05 41.59 52.05 44.52 49.67 46.91 46.73 46.91ZM 49.92 5.41C 49.92 3.65 48.49 2.21 46.73 2.21 46.73 2.21 6.27 2.21 6.27 2.21 4.51 2.21 3.08 3.65 3.08 5.41 3.08 5.41 3.08 8.6 3.08 8.6 3.08 8.6 49.92 8.6 49.92 8.6 49.92 8.6 49.92 5.41 49.92 5.41ZM 49.92 41.59C 49.92 41.59 49.92 10.73 49.92 10.73 49.92 10.73 3.08 10.73 3.08 10.73 3.08 10.73 3.08 41.59 3.08 41.59 3.08 43.35 4.51 44.78 6.27 44.78 6.27 44.78 46.73 44.78 46.73 44.78 48.49 44.78 49.92 43.35 49.92 41.59 49.92 41.59 49.92 41.59 49.92 41.59ZM 46.73 32.01C 46.73 32.01 31.82 32.01 31.82 32.01 31.24 32.01 30.76 31.53 30.76 30.95 30.76 30.36 31.24 29.88 31.82 29.88 31.82 29.88 46.73 29.88 46.73 29.88 47.32 29.88 47.79 30.36 47.79 30.95 47.79 31.53 47.32 32.01 46.73 32.01ZM 46.73 25.63C 46.73 25.63 31.82 25.63 31.82 25.63 31.24 25.63 30.76 25.15 30.76 24.56 30.76 23.97 31.24 23.5 31.82 23.5 31.82 23.5 46.73 23.5 46.73 23.5 47.32 23.5 47.79 23.97 47.79 24.56 47.79 25.15 47.32 25.63 46.73 25.63ZM 46.73 19.24C 46.73 19.24 31.82 19.24 31.82 19.24 31.24 19.24 30.76 18.76 30.76 18.18 30.76 17.59 31.24 17.11 31.82 17.11 31.82 17.11 46.73 17.11 46.73 17.11 47.32 17.11 47.79 17.59 47.79 18.18 47.79 18.76 47.32 19.24 46.73 19.24ZM 27.56 38.39C 27.56 38.39 6.27 38.4 6.27 38.4 5.99 38.4 5.72 38.28 5.52 38.08 5.32 37.89 5.21 37.61 5.21 37.33 5.21 34.66 7.02 32.35 9.6 31.7 9.6 31.7 12.8 30.9 12.8 30.9 12.8 30.9 12.95 30.28 12.95 30.28 12.18 29.38 11.62 28.26 11.38 27.1 10.73 26.82 10.29 26.24 10.2 25.55 10.2 25.55 9.97 23.7 9.97 23.7 9.9 23.13 10.08 22.56 10.45 22.13 10.58 21.99 10.73 21.87 10.88 21.77 10.82 21.22 10.76 20.56 10.76 20.21 10.76 18.43 11.27 16.07 15.66 15.91 17.14 14.98 18.67 14.98 19.35 14.98 21.66 14.98 22.81 16 23.37 16.85 24.54 18.65 23.8 19.9 23.25 20.48 23.25 20.48 23.05 20.67 23.05 20.67 23.05 20.67 23 21.8 23 21.8 23.14 21.9 23.27 22.01 23.39 22.14 23.76 22.57 23.93 23.13 23.86 23.7 23.86 23.7 23.63 25.55 23.63 25.55 23.55 26.22 23.14 26.78 22.57 27.07 22.32 28.28 21.73 29.45 20.91 30.37 20.91 30.37 21.04 30.9 21.04 30.9 21.04 30.9 24.24 31.7 24.24 31.7 26.82 32.35 28.63 34.66 28.63 37.33 28.63 37.92 28.15 38.39 27.56 38.39ZM 23.72 33.76C 23.72 33.76 19.9 32.81 19.9 32.81 19.52 32.72 19.22 32.42 19.12 32.04 19.12 32.04 18.69 30.3 18.69 30.3 18.59 29.91 18.72 29.51 19.01 29.25 19.87 28.48 20.46 27.29 20.55 26.14 20.6 25.59 21.06 25.16 21.61 25.16 21.61 25.16 21.75 23.43 21.75 23.43 21.46 23.43 21.25 23.39 21.05 23.18 20.85 22.97 20.82 22.76 20.83 22.48 20.83 22.48 20.95 20.16 20.95 20.16 20.96 19.9 21.07 19.65 21.26 19.46 21.26 19.46 21.72 19 21.72 19 21.84 18.87 22.02 18.68 21.58 18.02 21.18 17.41 20.45 17.11 19.35 17.11 18.79 17.11 17.63 17.11 16.61 17.84 16.43 17.97 16.22 18.03 16 18.04 12.89 18.07 12.89 19.11 12.89 20.21 12.89 20.59 13.02 21.75 13.1 22.39 13.14 22.69 13.05 23 12.84 23.23 12.64 23.46 12.35 23.59 12.05 23.59 12.05 23.59 12.32 25.28 12.32 25.28 12.88 25.28 13.35 25.59 13.39 26.14 13.48 27.27 14.03 28.41 14.86 29.18 15.14 29.45 15.26 29.84 15.17 30.22 15.17 30.22 14.71 32.03 14.71 32.03 14.62 32.41 14.32 32.71 13.94 32.81 13.94 32.81 10.12 33.76 10.12 33.76 8.84 34.09 7.86 35.05 7.49 36.27 7.49 36.27 26.34 36.27 26.34 36.27 25.98 35.05 25 34.09 23.72 33.76ZM 31.82 36.27C 31.82 36.27 40.34 36.27 40.34 36.27 40.93 36.27 41.41 36.74 41.41 37.33 41.41 37.92 40.93 38.4 40.34 38.4 40.34 38.4 31.82 38.4 31.82 38.4 31.24 38.4 30.76 37.92 30.76 37.33 30.76 36.74 31.24 36.27 31.82 36.27ZM 6.27 4.34C 6.86 4.34 7.34 4.82 7.34 5.41 7.34 5.99 6.86 6.47 6.27 6.47 5.68 6.47 5.21 5.99 5.21 5.41 5.21 4.82 5.68 4.34 6.27 4.34ZM 10.53 4.34C 11.12 4.34 11.59 4.82 11.59 5.41 11.59 5.99 11.12 6.47 10.53 6.47 9.94 6.47 9.46 5.99 9.46 5.41 9.46 4.82 9.94 4.34 10.53 4.34ZM 14.79 4.34C 15.38 4.34 15.85 4.82 15.85 5.41 15.85 5.99 15.38 6.47 14.79 6.47 14.2 6.47 13.72 5.99 13.72 5.41 13.72 4.82 14.2 4.34 14.79 4.34Z" fill="rgb(255,83,224)"/></svg>