<?xml version="1.0" encoding="utf-8"?>
<svg xmlns="http://www.w3.org/2000/svg"
	xmlns:xlink="http://www.w3.org/1999/xlink"
	width="16px" height="16px" viewBox="0 0 16 16">
<path fillRule="evenodd" d="M 15.17 9.68C 15.17 9.68 14.05 9.87 14.05 9.87 13.94 10.24 13.78 10.61 13.6 10.96 13.6 10.96 14.26 11.89 14.26 11.89 14.54 12.28 14.5 12.82 14.16 13.16 14.16 13.16 13.16 14.15 13.16 14.15 12.97 14.34 12.72 14.45 12.46 14.45 12.25 14.45 12.05 14.38 11.89 14.26 11.89 14.26 10.96 13.6 10.96 13.6 10.61 13.78 10.25 13.93 9.87 14.05 9.87 14.05 9.68 15.17 9.68 15.17 9.6 15.65 9.19 16 8.7 16 8.7 16 7.29 16 7.29 16 6.81 16 6.4 15.65 6.32 15.17 6.32 15.17 6.13 14.05 6.13 14.05 5.77 13.94 5.41 13.79 5.07 13.62 5.07 13.62 4.13 14.29 4.13 14.29 3.97 14.41 3.77 14.47 3.56 14.47 3.3 14.47 3.05 14.37 2.86 14.18 2.86 14.18 1.87 13.18 1.87 13.18 1.52 12.84 1.48 12.3 1.76 11.91 1.76 11.91 2.42 10.99 2.42 10.99 2.23 10.65 2.08 10.28 1.96 9.91 1.96 9.91 0.83 9.71 0.83 9.71 0.35 9.63-0 9.22-0 8.74-0 8.74-0 7.33-0 7.33-0 6.85 0.35 6.43 0.83 6.35 0.83 6.35 1.94 6.17 1.94 6.17 2.05 5.79 2.2 5.42 2.38 5.07 2.38 5.07 1.71 4.13 1.71 4.13 1.43 3.74 1.48 3.2 1.82 2.86 1.82 2.86 2.82 1.86 2.82 1.86 3 1.68 3.25 1.57 3.52 1.57 3.72 1.57 3.92 1.64 4.09 1.76 4.09 1.76 5.01 2.42 5.01 2.42 5.36 2.23 5.72 2.08 6.1 1.96 6.1 1.96 6.29 0.83 6.29 0.83 6.37 0.35 6.78-0 7.27-0 7.27-0 8.67-0 8.67-0 9.16-0 9.57 0.35 9.65 0.83 9.65 0.83 9.84 1.94 9.84 1.94 10.23 2.05 10.61 2.21 10.97 2.4 10.97 2.4 11.9 1.74 11.9 1.74 12.06 1.62 12.26 1.55 12.47 1.55 12.73 1.55 12.98 1.66 13.17 1.84 13.17 1.84 14.16 2.84 14.16 2.84 14.51 3.18 14.55 3.72 14.27 4.11 14.27 4.11 13.61 5.04 13.61 5.04 13.79 5.39 13.94 5.75 14.06 6.13 14.06 6.13 15.18 6.32 15.18 6.32 15.66 6.4 16.01 6.81 16 7.3 16 7.3 16 8.7 16 8.7 16 9.19 15.65 9.6 15.17 9.68ZM 15.11 7.3C 15.11 7.25 15.08 7.22 15.03 7.21 15.03 7.21 13.63 6.97 13.63 6.97 13.46 6.95 13.31 6.82 13.27 6.64 13.14 6.15 12.95 5.68 12.69 5.24 12.6 5.09 12.6 4.89 12.71 4.75 12.71 4.75 13.53 3.59 13.53 3.59 13.56 3.55 13.55 3.51 13.52 3.48 13.52 3.48 12.53 2.48 12.53 2.48 12.5 2.46 12.48 2.45 12.46 2.45 12.45 2.45 12.43 2.46 12.41 2.47 12.41 2.47 11.26 3.3 11.26 3.3 11.11 3.4 10.92 3.41 10.77 3.32 10.32 3.05 9.84 2.86 9.34 2.73 9.16 2.69 9.03 2.54 9 2.37 9 2.37 8.77 0.97 8.77 0.97 8.76 0.93 8.72 0.9 8.68 0.9 8.68 0.9 7.27 0.9 7.27 0.9 7.23 0.9 7.19 0.93 7.19 0.97 7.19 0.97 6.95 2.39 6.95 2.39 6.92 2.56 6.79 2.7 6.61 2.75 6.12 2.87 5.65 3.07 5.22 3.34 5.06 3.43 4.87 3.42 4.72 3.32 4.72 3.32 3.57 2.49 3.57 2.49 3.56 2.48 3.54 2.48 3.52 2.48 3.5 2.48 3.48 2.48 3.46 2.5 3.46 2.5 2.46 3.5 2.46 3.5 2.43 3.53 2.43 3.58 2.45 3.61 2.45 3.61 3.28 4.78 3.28 4.78 3.39 4.93 3.4 5.12 3.31 5.27 3.05 5.71 2.86 6.18 2.73 6.67 2.69 6.85 2.55 6.98 2.37 7.01 2.37 7.01 0.98 7.24 0.98 7.24 0.93 7.25 0.9 7.29 0.9 7.33 0.9 7.33 0.9 8.74 0.9 8.74 0.9 8.78 0.93 8.82 0.98 8.82 0.98 8.82 2.39 9.06 2.39 9.06 2.56 9.09 2.7 9.22 2.75 9.4 2.88 9.89 3.08 10.36 3.34 10.79 3.43 10.95 3.42 11.14 3.32 11.29 3.32 11.29 2.5 12.44 2.5 12.44 2.47 12.48 2.48 12.52 2.51 12.55 2.51 12.55 3.5 13.55 3.5 13.55 3.53 13.57 3.55 13.58 3.57 13.58 3.58 13.58 3.6 13.57 3.62 13.56 3.62 13.56 4.79 12.73 4.79 12.73 4.86 12.67 4.96 12.64 5.05 12.64 5.12 12.64 5.2 12.66 5.27 12.7 5.71 12.95 6.17 13.14 6.64 13.27 6.82 13.31 6.95 13.45 6.98 13.63 6.98 13.63 7.21 15.03 7.21 15.03 7.22 15.07 7.25 15.1 7.3 15.1 7.3 15.1 8.7 15.1 8.7 15.1 8.75 15.1 8.78 15.07 8.79 15.03 8.79 15.03 9.03 13.63 9.03 13.63 9.05 13.45 9.18 13.31 9.36 13.27 9.85 13.14 10.32 12.94 10.76 12.68 10.91 12.59 11.11 12.6 11.25 12.7 11.25 12.7 12.41 13.53 12.41 13.53 12.42 13.54 12.44 13.55 12.46 13.55 12.48 13.55 12.5 13.54 12.52 13.52 12.52 13.52 13.52 12.52 13.52 12.52 13.55 12.49 13.55 12.44 13.53 12.41 13.53 12.41 12.7 11.25 12.7 11.25 12.6 11.1 12.59 10.91 12.68 10.76 12.95 10.32 13.14 9.85 13.27 9.36 13.31 9.18 13.45 9.05 13.63 9.02 13.63 9.02 15.03 8.79 15.03 8.79 15.07 8.78 15.1 8.75 15.1 8.7 15.1 8.7 15.11 8.7 15.11 8.7 15.11 8.7 15.11 7.3 15.11 7.3ZM 8 11.45C 6.1 11.45 4.55 9.9 4.55 8 4.55 6.09 6.1 4.55 8 4.55 9.91 4.55 11.45 6.09 11.45 8 11.45 9.9 9.91 11.45 8 11.45ZM 8 5.45C 6.59 5.45 5.45 6.59 5.45 8 5.45 9.41 6.59 10.55 8 10.55 9.41 10.55 10.55 9.41 10.55 8 10.55 6.59 9.41 5.45 8 5.45Z" fill="rgb(255,255,255)"/></svg>