<?xml version="1.0" encoding="utf-8"?>
<svg xmlns="http://www.w3.org/2000/svg"
	xmlns:xlink="http://www.w3.org/1999/xlink"
	width="56px" height="56px" viewBox="0 0 56 56">
<g><path fillRule="evenodd" d="M 28 0.93C 13.07 0.93 0.93 13.07 0.93 28 0.93 42.93 13.07 55.07 28 55.07 42.93 55.07 55.07 42.93 55.07 28 55.07 13.07 42.93 0.93 28 0.93ZM 28 52.82C 22.62 52.82 17.65 51.08 13.58 48.16 13.58 48.16 19.41 46.21 19.41 46.21 22.94 44.74 24.11 39.44 24.11 38.15 24.11 37.81 23.96 37.5 23.7 37.28 22.44 36.24 21.11 34.44 21.11 33.14 21.11 31.62 20.48 30.76 19.88 30.34 19.6 29.56 19.14 28.14 19.1 27.24 19.67 27.18 20.1 26.7 20.1 26.12 20.1 26.12 20.1 20.1 20.1 20.1 20.1 16.88 23.18 12.21 28 12.21 32.53 12.21 33.72 14.16 33.87 14.93 33.83 15.07 33.82 15.21 33.83 15.34 33.9 15.95 34.36 16.24 34.6 16.4 34.99 16.65 35.9 17.22 35.9 20.1 35.9 20.1 35.9 26.12 35.9 26.12 35.9 26.75 36.2 27.18 36.82 27.18 36.84 27.2 36.87 27.25 36.89 27.3 36.84 28.2 36.4 29.56 36.12 30.34 35.52 30.76 34.89 31.62 34.89 33.14 34.89 34.44 33.56 36.24 32.3 37.28 32.03 37.5 31.88 37.82 31.88 38.15 31.88 39.44 33.06 44.74 36.67 46.24 36.67 46.24 42.42 48.16 42.42 48.16 38.35 51.08 33.38 52.82 28 52.82ZM 44.1 46.85C 44 46.51 43.76 46.23 43.4 46.11 43.4 46.11 37.46 44.13 37.46 44.13 35.39 43.27 34.43 39.95 34.2 38.62 35.74 37.19 37.15 35.06 37.15 33.14 37.15 32.49 37.34 32.23 37.3 32.23 37.66 32.14 37.94 31.89 38.08 31.55 38.19 31.28 39.16 28.8 39.16 27.12 39.16 27.03 39.15 26.94 39.13 26.85 38.98 26.29 38.65 25.71 38.16 25.36 38.16 25.36 38.16 20.11 38.16 20.11 38.16 16.86 37.17 15.5 36.12 14.71 35.89 13.1 34.16 9.95 28 9.95 21.71 9.95 17.85 15.87 17.85 20.11 17.85 20.11 17.85 25.36 17.85 25.36 17.36 25.71 17.02 26.29 16.88 26.85 16.86 26.94 16.85 27.03 16.85 27.12 16.85 28.8 17.82 31.28 17.93 31.55 18.07 31.89 18.24 32.1 18.6 32.19 18.67 32.23 18.85 32.48 18.85 33.14 18.85 35.06 20.27 37.19 21.81 38.62 21.58 39.95 20.63 43.26 18.62 44.1 18.62 44.1 12.6 46.11 12.6 46.11 12.25 46.23 12.01 46.51 11.9 46.85 6.58 42.29 3.18 35.54 3.18 28 3.18 14.32 14.32 3.18 28 3.18 41.68 3.18 52.82 14.32 52.82 28 52.82 35.54 49.43 42.29 44.1 46.85Z" fill="rgb(0,209,211)"/><path fillRule="evenodd" d="M 28 0.93C 28 0.93 28 0.68 28 0.68 12.93 0.68 0.68 12.93 0.68 28 0.68 43.07 12.93 55.32 28 55.32 43.07 55.32 55.32 43.07 55.32 28 55.32 12.93 43.07 0.68 28 0.68 28 0.68 28 0.93 28 0.93 28 0.93 28 1.18 28 1.18 42.79 1.2 54.8 13.21 54.82 28 54.8 42.79 42.79 54.8 28 54.82 13.21 54.8 1.2 42.79 1.18 28 1.2 13.21 13.21 1.2 28 1.18 28 1.18 28 0.93 28 0.93 28 0.93 28 0.93 28 0.93ZM 28 52.82C 28 52.82 28 52.57 28 52.57 22.68 52.57 17.76 50.84 13.73 47.95 13.73 47.95 13.58 48.16 13.58 48.16 13.58 48.16 13.66 48.39 13.66 48.39 13.66 48.39 19.5 46.45 19.5 46.45 19.5 46.45 19.51 46.44 19.51 46.44 23.21 44.86 24.35 39.53 24.36 38.15 24.37 37.74 24.18 37.35 23.86 37.09 22.64 36.09 21.34 34.28 21.36 33.14 21.36 31.55 20.69 30.6 20.02 30.13 20.02 30.13 19.88 30.34 19.88 30.34 19.88 30.34 20.12 30.25 20.12 30.25 19.84 29.49 19.39 28.06 19.35 27.23 19.35 27.23 19.1 27.24 19.1 27.24 19.1 27.24 19.13 27.49 19.13 27.49 19.82 27.41 20.35 26.83 20.35 26.12 20.35 26.12 20.35 20.1 20.35 20.1 20.36 17.02 23.36 12.46 28 12.46 32.46 12.46 33.51 14.36 33.63 14.98 33.63 14.98 33.87 14.93 33.87 14.93 33.87 14.93 33.63 14.86 33.63 14.86 33.6 14.99 33.58 15.12 33.58 15.25 33.58 15.25 33.58 15.37 33.58 15.37 33.58 15.37 33.58 15.37 33.58 15.37 33.58 15.37 33.58 15.37 33.58 15.37 33.66 16.11 34.22 16.46 34.47 16.61 34.81 16.85 35.62 17.26 35.65 20.1 35.65 20.1 35.65 26.12 35.65 26.12 35.65 26.82 36.06 27.43 36.82 27.43 36.82 27.43 36.82 27.18 36.82 27.18 36.82 27.18 36.64 27.35 36.64 27.35 36.64 27.35 36.67 27.41 36.67 27.41 36.67 27.41 36.89 27.3 36.89 27.3 36.89 27.3 36.64 27.28 36.64 27.28 36.6 28.13 36.16 29.49 35.88 30.25 35.88 30.25 36.12 30.34 36.12 30.34 36.12 30.34 35.98 30.13 35.98 30.13 35.31 30.6 34.64 31.55 34.64 33.14 34.66 34.28 33.36 36.09 32.14 37.09 31.82 37.35 31.63 37.74 31.63 38.15 31.65 39.53 32.8 44.86 36.57 46.47 36.57 46.47 36.58 46.47 36.58 46.47 36.58 46.47 42.34 48.39 42.34 48.39 42.34 48.39 42.42 48.16 42.42 48.16 42.42 48.16 42.27 47.95 42.27 47.95 38.24 50.84 33.32 52.57 28 52.57 28 52.57 28 52.82 28 52.82 28 52.82 28 53.07 28 53.07 33.43 53.07 38.46 51.31 42.56 48.36 42.56 48.36 42.96 48.07 42.96 48.07 42.96 48.07 36.75 46 36.75 46 36.75 46 36.67 46.24 36.67 46.24 36.67 46.24 36.76 46.01 36.76 46.01 33.33 44.62 32.12 39.36 32.13 38.15 32.13 37.89 32.25 37.64 32.45 37.47 33.75 36.39 35.12 34.6 35.14 33.14 35.15 31.69 35.73 30.92 36.26 30.54 36.26 30.54 36.33 30.5 36.33 30.5 36.33 30.5 36.35 30.42 36.35 30.42 36.64 29.63 37.08 28.27 37.14 27.31 37.14 27.31 37.15 27.25 37.15 27.25 37.15 27.25 37.12 27.19 37.12 27.19 37.08 27.13 37.07 27.08 37 27 37 27 36.92 26.93 36.92 26.93 36.92 26.93 36.82 26.93 36.82 26.93 36.34 26.91 36.17 26.67 36.15 26.12 36.15 26.12 36.15 20.1 36.15 20.1 36.17 17.19 35.17 16.44 34.73 16.19 34.49 16.03 34.13 15.8 34.08 15.31 34.08 15.31 34.08 15.31 34.08 15.31 34.08 15.31 34.08 15.31 34.08 15.31 34.08 15.31 34.08 15.25 34.08 15.25 34.08 15.17 34.09 15.09 34.12 15 34.12 15 34.13 14.94 34.13 14.94 34.13 14.94 34.12 14.88 34.12 14.88 33.94 13.96 32.6 11.95 28 11.96 23 11.98 19.86 16.75 19.85 20.1 19.85 20.1 19.85 26.12 19.85 26.12 19.85 26.57 19.51 26.94 19.08 26.99 19.08 26.99 18.84 27.02 18.84 27.02 18.84 27.02 18.85 27.25 18.85 27.25 18.9 28.21 19.36 29.63 19.65 30.42 19.65 30.42 19.67 30.5 19.67 30.5 19.67 30.5 19.74 30.54 19.74 30.54 20.27 30.92 20.85 31.69 20.86 33.14 20.88 34.6 22.25 36.39 23.55 37.47 23.75 37.64 23.86 37.89 23.86 38.15 23.88 39.36 22.67 44.62 19.31 45.98 19.31 45.98 19.41 46.21 19.41 46.21 19.41 46.21 19.33 45.98 19.33 45.98 19.33 45.98 13.04 48.08 13.04 48.08 13.04 48.08 13.44 48.36 13.44 48.36 17.55 51.31 22.57 53.07 28 53.07 28 53.07 28 52.82 28 52.82 28 52.82 28 52.82 28 52.82ZM 44.1 46.85C 44.1 46.85 44.34 46.77 44.34 46.77 44.22 46.38 43.92 46.02 43.48 45.87 43.48 45.87 37.54 43.89 37.54 43.89 37.54 43.89 37.46 44.13 37.46 44.13 37.46 44.13 37.56 43.9 37.56 43.9 35.66 43.14 34.65 39.87 34.45 38.57 34.45 38.57 34.2 38.62 34.2 38.62 34.2 38.62 34.37 38.8 34.37 38.8 35.93 37.34 37.4 35.18 37.4 33.14 37.41 32.54 37.52 32.48 37.56 32.24 37.57 32.19 37.5 32 37.35 31.98 37.35 31.98 37.3 32.23 37.3 32.23 37.3 32.23 37.36 32.47 37.36 32.47 37.79 32.36 38.14 32.06 38.31 31.65 38.42 31.35 39.41 28.88 39.41 27.12 39.41 27.01 39.4 26.9 39.37 26.79 39.21 26.18 38.86 25.56 38.3 25.15 38.3 25.15 38.16 25.36 38.16 25.36 38.16 25.36 38.41 25.36 38.41 25.36 38.41 25.36 38.41 20.11 38.41 20.11 38.42 16.81 37.38 15.34 36.27 14.51 36.27 14.51 36.12 14.71 36.12 14.71 36.12 14.71 36.37 14.68 36.37 14.68 36.13 12.94 34.25 9.69 28 9.7 21.54 9.72 17.61 15.74 17.6 20.11 17.6 20.11 17.6 25.36 17.6 25.36 17.6 25.36 17.85 25.36 17.85 25.36 17.85 25.36 17.71 25.15 17.71 25.15 17.15 25.56 16.8 26.18 16.64 26.79 16.61 26.9 16.6 27.01 16.6 27.12 16.6 28.88 17.59 31.35 17.7 31.65 17.84 32.02 18.1 32.33 18.54 32.43 18.54 32.43 18.6 32.19 18.6 32.19 18.6 32.19 18.47 32.41 18.47 32.41 18.48 32.41 18.62 32.54 18.6 33.14 18.61 35.18 20.07 37.34 21.64 38.8 21.64 38.8 21.81 38.62 21.81 38.62 21.81 38.62 21.56 38.57 21.56 38.57 21.36 39.87 20.36 43.14 18.53 43.87 18.53 43.87 18.62 44.1 18.62 44.1 18.62 44.1 18.54 43.86 18.54 43.86 18.54 43.86 12.53 45.87 12.53 45.87 12.08 46.02 11.79 46.38 11.66 46.78 11.66 46.78 11.9 46.85 11.9 46.85 11.9 46.85 12.07 46.66 12.07 46.66 6.79 42.15 3.43 35.47 3.43 28 3.46 14.46 14.46 3.46 28 3.43 41.54 3.46 52.54 14.46 52.57 28 52.57 35.46 49.21 42.14 43.94 46.66 43.94 46.66 44.1 46.85 44.1 46.85 44.1 46.85 44.34 46.77 44.34 46.77 44.34 46.77 44.1 46.85 44.1 46.85 44.1 46.85 44.26 47.04 44.26 47.04 49.64 42.43 53.07 35.61 53.07 28 53.07 14.18 41.82 2.93 28 2.93 14.18 2.93 2.93 14.18 2.93 28 2.93 35.62 6.36 42.44 11.74 47.04 11.74 47.04 12.03 47.29 12.03 47.29 12.03 47.29 12.14 46.92 12.14 46.92 12.23 46.65 12.41 46.44 12.68 46.34 12.68 46.34 18.71 44.34 18.71 44.34 18.71 44.34 18.72 44.33 18.72 44.33 20.9 43.38 21.81 40.02 22.06 38.66 22.06 38.66 22.08 38.53 22.08 38.53 22.08 38.53 21.98 38.43 21.98 38.43 20.47 37.04 19.09 34.94 19.1 33.14 19.09 32.43 18.94 32.13 18.72 31.98 18.72 31.98 18.69 31.96 18.69 31.96 18.69 31.96 18.66 31.95 18.66 31.95 18.39 31.87 18.3 31.76 18.16 31.46 18.06 31.2 17.09 28.71 17.1 27.12 17.1 27.12 17.12 26.91 17.12 26.91 17.25 26.4 17.56 25.87 18 25.56 18 25.56 18.1 25.49 18.1 25.49 18.1 25.49 18.1 20.11 18.1 20.11 18.11 16 21.89 10.21 28 10.2 34.07 10.22 35.64 13.26 35.87 14.75 35.87 14.75 35.89 14.85 35.89 14.85 35.89 14.85 35.97 14.91 35.97 14.91 36.95 15.66 37.9 16.9 37.91 20.11 37.91 20.11 37.91 25.49 37.91 25.49 37.91 25.49 38.01 25.56 38.01 25.56 38.45 25.87 38.76 26.4 38.88 26.91 38.88 26.91 38.91 27.12 38.91 27.12 38.92 28.71 37.95 31.2 37.85 31.46 37.74 31.72 37.52 31.92 37.24 31.99 37.24 31.99 36.12 32.27 36.12 32.27 36.12 32.27 37.26 32.47 37.26 32.47 37.26 32.47 37.3 32.24 37.3 32.24 37.3 32.24 37.06 32.24 37.06 32.24 37.05 32.27 37.11 32.46 37.26 32.47 37.26 32.47 37.3 32.24 37.3 32.24 37.3 32.24 37.06 32.24 37.06 32.24 37.09 32.24 36.9 32.55 36.9 33.14 36.91 34.94 35.54 37.04 34.03 38.43 34.03 38.43 33.93 38.53 33.93 38.53 33.93 38.53 33.95 38.66 33.95 38.66 34.2 40.02 35.12 43.39 37.37 44.36 37.37 44.36 37.38 44.37 37.38 44.37 37.38 44.37 43.32 46.34 43.32 46.34 43.59 46.44 43.78 46.65 43.86 46.92 43.86 46.92 43.98 47.28 43.98 47.28 43.98 47.28 44.26 47.04 44.26 47.04 44.26 47.04 44.1 46.85 44.1 46.85 44.1 46.85 44.1 46.85 44.1 46.85Z" fill="rgb(0,209,211)"/></g></svg>