<svg
        xmlns="http://www.w3.org/2000/svg"
        xmlns:xlink="http://www.w3.org/1999/xlink"
        width="55.25px" height="55.25px">


    <path fill-rule="evenodd" fill="rgb(31, 222, 22)"
          d="M29.000,3.000 C40.046,3.000 49.000,11.954 49.000,23.000 C49.000,34.046 40.046,43.000 29.000,43.000 C17.954,43.000 9.000,34.046 9.000,23.000 C9.000,11.954 17.954,3.000 29.000,3.000 Z"/>

    <path fill-rule="evenodd" stroke="rgb(255, 255, 255)" stroke-width="0.5px" stroke-linecap="butt" stroke-linejoin="miter" fill="rgb(255, 255, 255)"
          d="M35.457,22.452 L29.547,22.452 L29.547,16.543 C29.547,16.241 29.302,15.996 29.000,15.996 C28.698,15.996 28.453,16.241 28.453,16.543 L28.453,22.452 L22.543,22.452 C22.241,22.452 21.996,22.697 21.996,23.000 C21.996,23.302 22.241,23.547 22.543,23.547 L28.453,23.547 L28.453,29.457 C28.453,29.759 28.698,30.004 29.000,30.004 C29.302,30.004 29.547,29.759 29.547,29.457 L29.547,23.547 L35.457,23.547 C35.759,23.547 36.004,23.302 36.004,23.000 C36.004,22.697 35.759,22.452 35.457,22.452 Z"/>
</svg>