<svg
        xmlns="http://www.w3.org/2000/svg"
        xmlns:xlink="http://www.w3.org/1999/xlink"
        width="22px" height="23px">
    <path fill-rule="evenodd"  opacity="0.702" fill="rgb(169, 175, 181)"
          d="M18.639,14.078 L18.639,9.696 C18.624,6.315 16.304,3.085 12.833,2.263 C12.833,2.263 12.719,0.559 11.015,0.559 C9.284,0.559 9.198,2.215 9.198,2.215 C5.728,3.033 3.437,6.315 3.417,9.696 L3.417,13.939 C3.417,16.013 2.053,16.369 0.437,18.059 L21.595,18.059 C19.979,16.369 18.639,16.153 18.639,14.078 ZM11.015,22.284 C12.874,22.284 14.428,20.801 14.847,18.904 L7.184,18.904 C7.603,20.801 9.158,22.284 11.015,22.284 Z"/>
</svg>