<svg
        xmlns="http://www.w3.org/2000/svg"
        xmlns:xlink="http://www.w3.org/1999/xlink"
        width="55px" height="55px">
    <path fill-rule="evenodd"  fill="rgb(240, 239, 255)"
          d="M27.500,-0.000 C42.688,-0.000 55.000,12.312 55.000,27.500 C55.000,42.688 42.688,55.000 27.500,55.000 C12.312,55.000 -0.000,42.688 -0.000,27.500 C-0.000,12.312 12.312,-0.000 27.500,-0.000 Z"/>
    <path fill-rule="evenodd"  fill="rgb(107, 99, 255)"
          d="M20.193,23.429 L21.600,23.429 L21.600,24.835 L20.193,24.835 L20.193,23.429 ZM21.600,27.226 L20.193,27.226 L20.193,25.820 L21.600,25.820 L21.600,27.226 ZM22.233,23.429 L23.640,23.429 L23.640,24.835 L22.233,24.835 L22.233,23.429 ZM23.640,27.226 L22.233,27.226 L22.233,25.820 L23.640,25.820 L23.640,27.226 ZM39.056,32.480 L39.056,33.439 C39.056,37.058 36.112,40.003 32.492,40.003 L23.311,40.003 C19.692,40.003 16.747,37.058 16.747,33.439 L16.747,32.480 L15.997,32.480 L15.997,28.365 L18.154,28.365 L18.154,18.740 C18.154,17.227 19.384,15.997 20.897,15.997 C22.409,15.997 23.640,17.227 23.640,18.740 L23.640,18.825 C24.581,19.124 25.265,20.006 25.265,21.045 L25.265,22.624 L20.608,22.624 L20.608,21.045 C20.608,20.006 21.292,19.124 22.233,18.825 L22.233,18.740 C22.233,18.003 21.634,17.404 20.897,17.404 C20.160,17.404 19.560,18.003 19.560,18.740 L19.560,28.365 L40.003,28.365 L40.003,32.480 L39.056,32.480 ZM22.014,21.045 L22.014,21.217 L23.858,21.217 L23.858,21.045 C23.858,20.537 23.445,20.123 22.936,20.123 C22.428,20.123 22.014,20.537 22.014,21.045 ZM18.154,33.439 C18.154,36.283 20.467,38.596 23.311,38.596 L32.492,38.596 C35.336,38.596 37.650,36.283 37.650,33.439 L37.650,32.480 L18.154,32.480 L18.154,33.439 ZM38.596,29.772 L17.404,29.772 L17.404,31.073 L38.596,31.073 L38.596,29.772 ZM24.296,25.820 L25.702,25.820 L25.702,27.226 L24.296,27.226 L24.296,25.820 ZM24.296,23.429 L25.702,23.429 L25.702,24.835 L24.296,24.835 L24.296,23.429 Z"/>
</svg>