
<svg xmlns="http://www.w3.org/2000/svg" version="1.1" xmlns:xlink="http://www.w3.org/1999/xlink" preserveAspectRatio="none" x="0px" y="0px" width="300px" height="300px" viewBox="0 0 300 300">
<defs>
<path id="Layer0_0_1_STROKES" stroke="#57A1FC" stroke-width="7" stroke-linejoin="round" stroke-linecap="round" fill="none" d="
M 132.7 175.5
L 131.25 130.25
Q 124.1 118.3 124.1 103.1 124.1 102.5 124.1 101.9 124.5 81.85 137.5 67.55 137.55 67.55 137.55 67.5 146.5 57.75 157.9 54.45 170 72.2 179.75 101.25
L 196.2 94.7
Q 195.8 93.85 195.55 92.95 195.3 91.95 195.3 90.8 195.3 87.25 197.8 84.7 200.35 82.2 203.9 82.2 207.45 82.2 209.95 84.7 212.5 87.25 212.5 90.8 212.5 94.35 209.95 96.85 207.45 99.4 203.9 99.4 200.35 99.4 197.8 96.85 196.8 95.85 196.2 94.7
L 196.55 94.55
M 216.1 65.1
Q 235.95 76.5 228.4 97
M 179.75 101.25
Q 186.1 120.1 191.45 143.7 189.85 148.8 188.55 149.45 180.1 153.45 170.15 153.45 151.05 153.45 137.55 138.7 133.9 134.7 131.25 130.25
M 228.4 40
Q 266.5 61.9 252 101.25
M 82.25 176.75
L 94.5 176.75 94.5 146.1 46.65 146.1 46.65 110.5 108 110.5 108 146.1 108 176.75 192.7 176.75 192.7 211.15 82.25 211.15 82.25 176.75 Z
M 108 146.1
L 94.5 146.1
M 94.5 176.75
L 108 176.75
M 93.25 186.6
L 126.4 186.6 126.4 201.3 93.25 201.3 93.25 186.6 Z
M 157.9 54.45
Q 152.4 84.5 160.75 108.85
L 179.75 101.25
M 174.35 239.35
Q 174.35 244.45 170.75 248.05 167.15 251.65 162.05 251.65 156.95 251.65 153.35 248.05 149.75 244.45 149.75 239.35 149.75 234.25 153.35 230.65 156.95 227.05 162.05 227.05 167.15 227.05 170.75 230.65 174.35 234.25 174.35 239.35 Z
M 136.3 239.35
Q 136.3 244.45 132.7 248.05 129.1 251.65 124 251.65 118.9 251.65 115.3 248.05 111.7 244.45 111.7 239.35 111.7 234.25 115.3 230.65 118.9 227.05 124 227.05 129.1 227.05 132.7 230.65 136.3 234.25 136.3 239.35 Z
M 97 239.35
Q 97 244.45 93.4 248.05 89.8 251.65 84.7 251.65 79.6 251.65 76 248.05 72.4 244.45 72.4 239.35 72.4 234.25 76 230.65 79.6 227.05 84.7 227.05 89.8 227.05 93.4 230.65 97 234.25 97 239.35 Z
M 82.7 213.6
L 203.25 213.6
Q 213.6 213.6 220.9 220.9 228.25 228.25 228.25 238.6
L 228.25 238.9
Q 228.25 249.25 220.9 256.55 213.6 263.9 203.25 263.9
L 82.7 263.9
Q 72.35 263.9 65 256.55 57.7 249.25 57.7 238.9
L 57.7 238.6
Q 57.7 228.25 65 220.9 72.35 213.6 82.7 213.6 Z
M 213.15 239.35
Q 213.15 244.45 209.55 248.05 205.95 251.65 200.85 251.65 195.75 251.65 192.15 248.05 188.55 244.45 188.55 239.35 188.55 234.25 192.15 230.65 195.75 227.05 200.85 227.05 205.95 227.05 209.55 230.65 213.15 234.25 213.15 239.35 Z
M 160.75 108.85
Q 168.55 131.7 188.55 149.45"/>
</defs>

<g transform="matrix( 1, 0, 0, 1, 0,0) ">
<use xlink:href="#Layer0_0_1_STROKES"/>
</g>
</svg>
