<svg
        xmlns="http://www.w3.org/2000/svg"
        xmlns:xlink="http://www.w3.org/1999/xlink"
        width="23px" height="18px">
    <path fill-rule="evenodd"  opacity="0.702" fill="rgb(169, 175, 181)"
          d="M22.403,17.102 C22.008,17.495 21.533,17.691 20.978,17.691 L2.417,17.691 C1.863,17.691 1.388,17.495 0.992,17.102 C0.597,16.709 0.400,16.237 0.400,15.686 L0.400,5.736 C0.770,6.145 1.194,6.509 1.674,6.826 C4.716,8.882 6.805,10.323 7.940,11.149 C8.419,11.500 8.808,11.774 9.106,11.970 C9.405,12.167 9.802,12.367 10.298,12.572 C10.794,12.777 11.256,12.879 11.685,12.879 L11.698,12.879 L11.710,12.879 C12.139,12.879 12.601,12.777 13.097,12.572 C13.593,12.367 13.990,12.167 14.289,11.970 C14.587,11.774 14.976,11.500 15.455,11.149 C16.884,10.122 18.977,8.681 21.734,6.826 C22.213,6.500 22.634,6.137 22.995,5.736 L22.995,15.686 C22.995,16.237 22.798,16.709 22.403,17.102 ZM20.839,5.485 C17.679,7.666 15.711,9.023 14.938,9.558 C14.854,9.617 14.675,9.744 14.402,9.940 C14.129,10.137 13.902,10.295 13.721,10.417 C13.541,10.538 13.322,10.673 13.066,10.824 C12.810,10.974 12.568,11.087 12.341,11.162 C12.114,11.237 11.904,11.274 11.710,11.274 L11.698,11.274 L11.685,11.274 C11.492,11.274 11.282,11.237 11.054,11.162 C10.828,11.087 10.586,10.974 10.329,10.824 C10.073,10.674 9.854,10.538 9.674,10.417 C9.493,10.295 9.266,10.137 8.993,9.940 C8.720,9.744 8.541,9.617 8.457,9.558 C7.692,9.023 6.591,8.261 5.153,7.271 C3.716,6.281 2.854,5.686 2.569,5.486 C2.048,5.135 1.556,4.652 1.093,4.038 C0.631,3.424 0.400,2.854 0.400,2.328 C0.400,1.676 0.574,1.133 0.923,0.698 C1.272,0.264 1.770,0.047 2.417,0.047 L20.978,0.047 C21.524,0.047 21.997,0.243 22.396,0.636 C22.796,1.029 22.995,1.501 22.995,2.052 C22.995,2.712 22.789,3.343 22.377,3.944 C21.965,4.545 21.453,5.060 20.839,5.485 Z"/>
</svg>