<?xml version="1.0" encoding="utf-8"?>
<svg xmlns="http://www.w3.org/2000/svg"
	xmlns:xlink="http://www.w3.org/1999/xlink"
	width="599px" height="310px" viewBox="0 0 599 310">
<clipPath id="clip0"><path fillRule="evenodd" d="M-15.25 102.69C-15.25 102.69-15.25-15.69-15.25-15.69-15.25-15.69 170.25-15.69 170.25-15.69 170.25-15.69 170.25 102.69 170.25 102.69 170.25 102.69-15.25 102.69-15.25 102.69ZM 138.25 24.31C 138.25 19.89 134.67 16.31 130.25 16.31 130.25 16.31 24.75 16.31 24.75 16.31 20.33 16.31 16.75 19.89 16.75 24.31 16.75 24.31 16.75 62.69 16.75 62.69 16.75 67.11 20.33 70.69 24.75 70.69 24.75 70.69 130.25 70.69 130.25 70.69 134.67 70.69 138.25 67.11 138.25 62.69 138.25 62.69 138.25 24.31 138.25 24.31Z"/></clipPath><clipPath id="clip1"><path fillRule="evenodd" d="M-15.53 101C-15.53 101-15.53-15-15.53-15-15.53-15 170.53-15 170.53-15 170.53-15 170.53 101 170.53 101 170.53 101-15.53 101-15.53 101ZM 138.54 24.99C 138.54 20.57 134.96 16.99 130.54 16.99 130.54 16.99 24.46 16.99 24.46 16.99 20.04 16.99 16.46 20.57 16.46 24.99 16.46 24.99 16.46 61.01 16.46 61.01 16.46 65.43 20.04 69.01 24.46 69.01 24.46 69.01 130.54 69.01 130.54 69.01 134.96 69.01 138.54 65.43 138.54 61.01 138.54 61.01 138.54 24.99 138.54 24.99Z"/></clipPath><defs>
<symbol id="symbol0"><rect x="400" y="109" width="121" height="55" rx="8"/></symbol><symbol id="symbol1"><rect x="106" y="201" width="123" height="52" rx="8"/></symbol></defs>
<path fillRule="evenodd" d="M 24 305C 24.27 217.47 73.21 145.85 140.46 119.69 224.22 87.09 339.07 123.07 358.91 195.94 369.05 233.17 352.55 273.38 328 306 226.67 305.67 125.33 305.33 24 305Z" fill="rgb(227,217,255)"/><path fillRule="evenodd" d="M 365 304.37C 365.17 249.66 395.72 204.89 437.71 188.54 490 168.17 561.7 190.65 574.09 236.2 580.42 259.47 570.12 284.61 554.79 305 491.53 304.79 428.26 304.58 365 304.37Z" fill="rgb(217,247,255)"/><g><path fillRule="evenodd" d="M 147.39 75.64C 147.39 75.64 449.61 75.64 449.61 75.64 454.03 75.64 457.61 79.22 457.61 83.64 457.61 83.64 457.61 296.36 457.61 296.36 457.61 296.36 139.39 296.36 139.39 296.36 139.39 296.36 139.39 83.64 139.39 83.64 139.39 79.22 142.97 75.64 147.39 75.64Z" fill="rgb(255,255,255)"/><path fillRule="evenodd" d="M 457.61 296.36C 457.61 296.36 457.61 83.64 457.61 83.64 457.61 79.22 454.03 75.64 449.61 75.64 449.61 75.64 147.39 75.64 147.39 75.64 142.97 75.64 139.39 79.22 139.39 83.64 139.39 83.64 139.39 296.36 139.39 296.36 139.39 296.36 457.61 296.36 457.61 296.36M 457.61 304.36C 457.61 304.36 139.39 304.36 139.39 304.36 134.97 304.36 131.39 300.78 131.39 296.36 131.39 296.36 131.39 83.64 131.39 83.64 131.39 74.82 138.56 67.64 147.39 67.64 147.39 67.64 449.61 67.64 449.61 67.64 458.44 67.64 465.61 74.82 465.61 83.64 465.61 83.64 465.61 296.36 465.61 296.36 465.61 300.78 462.03 304.36 457.61 304.36 457.61 304.36 457.61 304.36 457.61 304.36Z" fill="rgb(73,73,75)"/></g><g><rect x="221" y="134" width="54" height="25" rx="5" fill="rgb(239,242,253)"/><path fillRule="evenodd" d="M 269.79 159C 272.55 159 274.79 156.76 274.79 154 274.79 154 274.79 139 274.79 139 274.79 136.24 272.55 134 269.79 134 269.79 134 226.21 134 226.21 134 223.45 134 221.21 136.24 221.21 139 221.21 139 221.21 154 221.21 154 221.21 156.76 223.45 159 226.21 159 226.21 159 269.79 159 269.79 159M 269.79 167C 269.79 167 226.21 167 226.21 167 219.04 167 213.21 161.17 213.21 154 213.21 154 213.21 139 213.21 139 213.21 131.83 219.04 126 226.21 126 226.21 126 269.79 126 269.79 126 276.96 126 282.79 131.83 282.79 139 282.79 139 282.79 154 282.79 154 282.79 161.17 276.96 167 269.79 167 269.79 167 269.79 167 269.79 167Z" fill="rgb(219,227,237)"/></g><g><rect x="308" y="134" width="54" height="25" rx="5" fill="rgb(255,235,229)"/><path fillRule="evenodd" d="M 356.79 159C 359.55 159 361.79 156.76 361.79 154 361.79 154 361.79 139 361.79 139 361.79 136.24 359.55 134 356.79 134 356.79 134 313.21 134 313.21 134 310.45 134 308.21 136.24 308.21 139 308.21 139 308.21 154 308.21 154 308.21 156.76 310.45 159 313.21 159 313.21 159 356.79 159 356.79 159M 356.79 167C 356.79 167 313.21 167 313.21 167 306.04 167 300.21 161.17 300.21 154 300.21 154 300.21 139 300.21 139 300.21 131.83 306.04 126 313.21 126 313.21 126 356.79 126 356.79 126 363.96 126 369.79 131.83 369.79 139 369.79 139 369.79 154 369.79 154 369.79 161.17 363.96 167 356.79 167 356.79 167 356.79 167 356.79 167Z" fill="rgb(202,213,226)"/></g><path fillRule="evenodd" d="M 227 192C 227 192 418 192 418 192 420.21 192 422 193.79 422 196 422 198.21 420.21 200 418 200 418 200 227 200 227 200 224.79 200 223 198.21 223 196 223 193.79 224.79 192 227 192 227 192 227 192 227 192Z" fill="rgb(219,227,237)"/><path fillRule="evenodd" d="M 225.55 212C 225.55 212 347.45 212 347.45 212 349.66 212 351.45 213.79 351.45 216 351.45 218.21 349.66 220 347.45 220 347.45 220 225.55 220 225.55 220 223.34 220 221.55 218.21 221.55 216 221.55 213.79 223.34 212 225.55 212 225.55 212 225.55 212 225.55 212Z" fill="rgb(219,227,237)"/><g><path fillRule="evenodd" d="M 180 111.57C 180 111.57 180 280.43 180 280.43" fill="rgb(255,255,255)"/><path fillRule="evenodd" d="M 188 111.57C 188 111.57 188 280.43 188 280.43 188 282.64 186.21 284.43 184 284.43 181.79 284.43 180 282.64 180 280.43 180 280.43 180 111.57 180 111.57 180 109.36 181.79 107.57 184 107.57 186.21 107.57 188 109.36 188 111.57 188 111.57 188 111.57 188 111.57Z" fill="rgb(219,226,236)"/></g><g><path fillRule="evenodd" d="M 420.78 106C 420.78 106 167.22 106 167.22 106" fill="rgb(255,255,255)"/><path fillRule="evenodd" d="M 420.78 114C 420.78 114 167.22 114 167.22 114 165.01 114 163.22 112.21 163.22 110 163.22 107.79 165.01 106 167.22 106 167.22 106 420.78 106 420.78 106 422.99 106 424.78 107.79 424.78 110 424.78 112.21 422.99 114 420.78 114 420.78 114 420.78 114 420.78 114Z" fill="rgb(219,226,236)"/></g><g><path fillRule="evenodd" d="M 156.29 96C 156.29 96 183.71 96 183.71 96" fill="rgb(255,255,255)"/><path fillRule="evenodd" d="M 156.29 88C 156.29 88 183.71 88 183.71 88 185.92 88 187.71 89.79 187.71 92 187.71 94.21 185.92 96 183.71 96 183.71 96 156.29 96 156.29 96 154.08 96 152.29 94.21 152.29 92 152.29 89.79 154.08 88 156.29 88 156.29 88 156.29 88 156.29 88Z" fill="rgb(247,201,231)"/></g><g><path fillRule="evenodd" d="M 156.13 134C 156.13 134 163.87 134 163.87 134" fill="rgb(255,255,255)"/><path fillRule="evenodd" d="M 156.13 126C 156.13 126 163.87 126 163.87 126 166.08 126 167.87 127.79 167.87 130 167.87 132.21 166.08 134 163.87 134 163.87 134 156.13 134 156.13 134 153.92 134 152.13 132.21 152.13 130 152.13 127.79 153.92 126 156.13 126 156.13 126 156.13 126 156.13 126Z" fill="rgb(180,204,233)"/></g><g><path fillRule="evenodd" d="M 156.13 151C 156.13 151 163.87 151 163.87 151" fill="rgb(255,255,255)"/><path fillRule="evenodd" d="M 156.13 143C 156.13 143 163.87 143 163.87 143 166.08 143 167.87 144.79 167.87 147 167.87 149.21 166.08 151 163.87 151 163.87 151 156.13 151 156.13 151 153.92 151 152.13 149.21 152.13 147 152.13 144.79 153.92 143 156.13 143 156.13 143 156.13 143 156.13 143Z" fill="rgb(180,204,233)"/></g><g><path fillRule="evenodd" d="M 156.13 169C 156.13 169 163.87 169 163.87 169" fill="rgb(255,255,255)"/><path fillRule="evenodd" d="M 156.13 161C 156.13 161 163.87 161 163.87 161 166.08 161 167.87 162.79 167.87 165 167.87 167.21 166.08 169 163.87 169 163.87 169 156.13 169 156.13 169 153.92 169 152.13 167.21 152.13 165 152.13 162.79 153.92 161 156.13 161 156.13 161 156.13 161 156.13 161Z" fill="rgb(180,204,233)"/></g><g><path fillRule="evenodd" d="M 208 96C 208 96 220 96 220 96" fill="rgb(255,255,255)"/><path fillRule="evenodd" d="M 208 88C 208 88 220 88 220 88 222.21 88 224 89.79 224 92 224 94.21 222.21 96 220 96 220 96 208 96 208 96 205.79 96 204 94.21 204 92 204 89.79 205.79 88 208 88 208 88 208 88 208 88Z" fill="rgb(182,182,182)"/></g><g><path fillRule="evenodd" d="M 238 96C 238 96 250 96 250 96" fill="rgb(255,255,255)"/><path fillRule="evenodd" d="M 238 88C 238 88 250 88 250 88 252.21 88 254 89.79 254 92 254 94.21 252.21 96 250 96 250 96 238 96 238 96 235.79 96 234 94.21 234 92 234 89.79 235.79 88 238 88 238 88 238 88 238 88Z" fill="rgb(182,182,182)"/></g><g><path fillRule="evenodd" d="M 268 96C 268 96 280 96 280 96" fill="rgb(255,255,255)"/><path fillRule="evenodd" d="M 268 88C 268 88 280 88 280 88 282.21 88 284 89.79 284 92 284 94.21 282.21 96 280 96 280 96 268 96 268 96 265.79 96 264 94.21 264 92 264 89.79 265.79 88 268 88 268 88 268 88 268 88Z" fill="rgb(182,182,182)"/></g><g><use xlink:href="#symbol0" x="383" y="93" width="155" height="87" fill="rgb(255,255,255)"/><use xlink:href="#symbol0" x="383" y="93" width="155" height="87" fill="none" stroke="rgb(255,255,255)" stroke-width="8.00px" clip-path="url(#clip0)"/><path fillRule="evenodd" d="M 513.25 163.69C 517.67 163.69 521.25 160.11 521.25 155.69 521.25 155.69 521.25 117.31 521.25 117.31 521.25 112.89 517.67 109.31 513.25 109.31 513.25 109.31 407.75 109.31 407.75 109.31 403.33 109.31 399.75 112.89 399.75 117.31 399.75 117.31 399.75 155.69 399.75 155.69 399.75 160.11 403.33 163.69 407.75 163.69 407.75 163.69 513.25 163.69 513.25 163.69M 513.25 171.69C 513.25 171.69 407.75 171.69 407.75 171.69 398.92 171.69 391.75 164.51 391.75 155.69 391.75 155.69 391.75 117.31 391.75 117.31 391.75 108.49 398.92 101.31 407.75 101.31 407.75 101.31 513.25 101.31 513.25 101.31 522.08 101.31 529.25 108.49 529.25 117.31 529.25 117.31 529.25 155.69 529.25 155.69 529.25 164.51 522.08 171.69 513.25 171.69 513.25 171.69 513.25 171.69 513.25 171.69Z" fill="rgb(171,139,255)"/></g><g><path fillRule="evenodd" d="M 462.94 133C 462.94 133 487.06 133 487.06 133" fill="rgb(255,255,255)"/><path fillRule="evenodd" d="M 462.94 125C 462.94 125 487.06 125 487.06 125 489.27 125 491.06 126.79 491.06 129 491.06 131.21 489.27 133 487.06 133 487.06 133 462.94 133 462.94 133 460.73 133 458.94 131.21 458.94 129 458.94 126.79 460.73 125 462.94 125 462.94 125 462.94 125 462.94 125Z" fill="rgb(228,217,255)"/></g><g><path fillRule="evenodd" d="M 462.62 149C 462.62 149 499.38 149 499.38 149" fill="rgb(255,255,255)"/><path fillRule="evenodd" d="M 462.62 141C 462.62 141 499.38 141 499.38 141 501.58 141 503.38 142.79 503.38 145 503.38 147.21 501.58 149 499.38 149 499.38 149 462.62 149 462.62 149 460.42 149 458.62 147.21 458.62 145 458.62 142.79 460.42 141 462.62 141 462.62 141 462.62 141 462.62 141Z" fill="rgb(228,217,255)"/></g><g><circle cx="430.00" cy="137.00" r="8.00" fill="rgb(227,217,255)"/><path fillRule="evenodd" d="M 430 145C 434.42 145 438 141.42 438 137 438 132.58 434.42 129 430 129 425.58 129 422 132.58 422 137 422 141.42 425.58 145 430 145M 430 153C 421.18 153 414 145.82 414 137 414 128.18 421.18 121 430 121 438.82 121 446 128.18 446 137 446 145.82 438.82 153 430 153 430 153 430 153 430 153Z" fill="rgb(227,217,255)"/></g><g><use xlink:href="#symbol1" x="90" y="184" width="155" height="86" fill="rgb(255,255,255)"/><use xlink:href="#symbol1" x="90" y="184" width="155" height="86" fill="none" stroke="rgb(255,255,255)" stroke-width="8.00px" clip-path="url(#clip1)"/><path fillRule="evenodd" d="M 220.54 253.01C 224.96 253.01 228.54 249.43 228.54 245.01 228.54 245.01 228.54 208.99 228.54 208.99 228.54 204.57 224.96 200.99 220.54 200.99 220.54 200.99 114.46 200.99 114.46 200.99 110.04 200.99 106.46 204.57 106.46 208.99 106.46 208.99 106.46 245.01 106.46 245.01 106.46 249.43 110.04 253.01 114.46 253.01 114.46 253.01 220.54 253.01 220.54 253.01M 220.54 261.01C 220.54 261.01 114.46 261.01 114.46 261.01 105.64 261.01 98.46 253.83 98.46 245.01 98.46 245.01 98.46 208.99 98.46 208.99 98.46 200.17 105.64 192.99 114.46 192.99 114.46 192.99 220.54 192.99 220.54 192.99 229.36 192.99 236.54 200.17 236.54 208.99 236.54 208.99 236.54 245.01 236.54 245.01 236.54 253.83 229.36 261.01 220.54 261.01 220.54 261.01 220.54 261.01 220.54 261.01Z" fill="rgb(85,161,207)"/></g><path fillRule="evenodd" d="M 119.94 214C 119.94 214 144.06 214 144.06 214 146.27 214 148.06 215.79 148.06 218 148.06 220.21 146.27 222 144.06 222 144.06 222 119.94 222 119.94 222 117.73 222 115.94 220.21 115.94 218 115.94 215.79 117.73 214 119.94 214 119.94 214 119.94 214 119.94 214Z" fill="rgb(213,237,251)"/><path fillRule="evenodd" d="M 119 231C 119 231 211 231 211 231 213.21 231 215 232.79 215 235 215 237.21 213.21 239 211 239 211 239 119 239 119 239 116.79 239 115 237.21 115 235 115 232.79 116.79 231 119 231 119 231 119 231 119 231Z" fill="rgb(213,237,251)"/><path fillRule="evenodd" d="M 55.59 82.79C 55.59 82.79 62.16 89.33 62.16 89.33 62.16 89.33 56.52 95 56.52 95 56.52 95 49.95 88.47 49.95 88.47 48.38 86.91 48.38 84.38 49.93 82.81 51.49 81.24 54.02 81.23 55.59 82.79 55.59 82.79 55.59 82.79 55.59 82.79ZM 50.88 89.33C 50.88 89.33 62.38 77.89 62.38 77.89 63.95 76.33 66.48 76.34 68.04 77.91 69.6 79.47 69.59 82.01 68.02 83.56 68.02 83.56 56.52 95 56.52 95 56.52 95 50.88 89.33 50.88 89.33 50.88 89.33 50.88 89.33 50.88 89.33ZM 56.52 95C 56.52 95 50.88 89.33 50.88 89.33 50.88 89.33 56.52 95 56.52 95 56.52 95 56.52 95 56.52 95 56.52 95 56.52 95 56.52 95ZM 56.52 95C 56.52 95 62.16 89.33 62.16 89.33 62.16 89.33 56.52 95 56.52 95 56.52 95 56.52 95 56.52 95Z" fill="rgb(166,214,177)"/><path fillRule="evenodd" d="M 79 84C 79 84 118 84 118 84 120.21 84 122 85.79 122 88 122 90.21 120.21 92 118 92 118 92 79 92 79 92 76.79 92 75 90.21 75 88 75 85.79 76.79 84 79 84 79 84 79 84 79 84Z" fill="rgb(213,237,251)"/><path fillRule="evenodd" d="M 79 106C 79 106 118 106 118 106 120.21 106 122 107.79 122 110 122 112.21 120.21 114 118 114 118 114 79 114 79 114 76.79 114 75 112.21 75 110 75 107.79 76.79 106 79 106 79 106 79 106 79 106Z" fill="rgb(213,237,251)"/><path fillRule="evenodd" d="M 56.17 106C 56.17 106 57.83 106 57.83 106 60.04 106 61.83 107.79 61.83 110 61.83 112.21 60.04 114 57.83 114 57.83 114 56.17 114 56.17 114 53.96 114 52.17 112.21 52.17 110 52.17 107.79 53.96 106 56.17 106 56.17 106 56.17 106 56.17 106Z" fill="rgb(255,181,205)"/><g><path fillRule="evenodd" d="M 496.3 225.95C 496.3 225.95 496.3 297.65 496.3 297.65 496.3 297.65 554.7 297.65 554.7 297.65 554.7 297.65 554.7 235.14 554.7 235.14 554.7 235.14 538.27 221.35 538.27 221.35 538.27 221.35 499.95 221.35 499.95 221.35 499.95 221.35 496.3 225.95 496.3 225.95Z" fill="rgb(255,255,255)"/><path fillRule="evenodd" d="M 554.7 297.65C 554.7 297.65 554.7 235.14 554.7 235.14 554.7 235.14 538.27 221.35 538.27 221.35 538.27 221.35 499.95 221.35 499.95 221.35 499.95 221.35 496.3 225.95 496.3 225.95 496.3 225.95 496.3 297.65 496.3 297.65 496.3 297.65 554.7 297.65 554.7 297.65M 554.7 305.65C 554.7 305.65 496.3 305.65 496.3 305.65 491.88 305.65 488.3 302.06 488.3 297.65 488.3 297.65 488.3 225.95 488.3 225.95 488.3 224.14 488.91 222.39 490.04 220.97 490.04 220.97 493.69 216.38 493.69 216.38 495.2 214.47 497.51 213.35 499.95 213.35 499.95 213.35 538.27 213.35 538.27 213.35 540.16 213.35 541.98 214.02 543.42 215.23 543.42 215.23 559.84 229.01 559.84 229.01 561.65 230.53 562.7 232.78 562.7 235.14 562.7 235.14 562.7 297.65 562.7 297.65 562.7 302.06 559.12 305.65 554.7 305.65 554.7 305.65 554.7 305.65 554.7 305.65Z" fill="rgb(249,172,128)"/></g><g><path fillRule="evenodd" d="M 580 188C 580 188 580 205 580 205" fill="rgb(255,255,255)"/><path fillRule="evenodd" d="M 588 188C 588 188 588 205 588 205 588 207.21 586.21 209 584 209 581.79 209 580 207.21 580 205 580 205 580 188 580 188 580 185.79 581.79 184 584 184 586.21 184 588 185.79 588 188 588 188 588 188 588 188Z" fill="rgb(249,172,128)"/></g><g><path fillRule="evenodd" d="M 575 201C 575 201 592 201 592 201" fill="rgb(255,255,255)"/><path fillRule="evenodd" d="M 575 193C 575 193 592 193 592 193 594.21 193 596 194.79 596 197 596 199.21 594.21 201 592 201 592 201 575 201 575 201 572.79 201 571 199.21 571 197 571 194.79 572.79 193 575 193 575 193 575 193 575 193Z" fill="rgb(249,172,128)"/></g><g><rect x="467" y="20" width="0" height="0" fill="rgb(255,255,255)"/><path fillRule="evenodd" d="M 467 20.33C 467.18 20.33 467.33 20.18 467.33 20 467.33 19.82 467.18 19.67 467 19.67 466.82 19.67 466.67 19.82 466.67 20 466.67 20.18 466.82 20.33 467 20.33M 467 28.33C 462.41 28.33 458.67 24.6 458.67 20 458.67 15.4 462.41 11.67 467 11.67 471.59 11.67 475.33 15.4 475.33 20 475.33 24.6 471.59 28.33 467 28.33 467 28.33 467 28.33 467 28.33Z" fill="rgb(210,246,223)"/></g><g><path fillRule="evenodd" d="M 277 4C 277 4 277 21 277 21" fill="rgb(255,255,255)"/><path fillRule="evenodd" d="M 285 4C 285 4 285 21 285 21 285 23.21 283.21 25 281 25 278.79 25 277 23.21 277 21 277 21 277 4 277 4 277 1.79 278.79 0 281 0 283.21 0 285 1.79 285 4 285 4 285 4 285 4Z" fill="rgb(235,235,235)"/></g><g><path fillRule="evenodd" d="M 272 17C 272 17 289 17 289 17" fill="rgb(255,255,255)"/><path fillRule="evenodd" d="M 272 9C 272 9 289 9 289 9 291.21 9 293 10.79 293 13 293 15.21 291.21 17 289 17 289 17 272 17 272 17 269.79 17 268 15.21 268 13 268 10.79 269.79 9 272 9 272 9 272 9 272 9Z" fill="rgb(235,235,235)"/></g><g><path fillRule="evenodd" d="M 28 234C 28 234 45 234 45 234" fill="rgb(255,255,255)"/><path fillRule="evenodd" d="M 28 226C 28 226 45 226 45 226 47.21 226 49 227.79 49 230 49 232.21 47.21 234 45 234 45 234 28 234 28 234 25.79 234 24 232.21 24 230 24 227.79 25.79 226 28 226 28 226 28 226 28 226Z" fill="rgb(252,181,214)"/></g><path fillRule="evenodd" d="M 508 240C 508 240 523 240 523 240 525.21 240 527 241.79 527 244 527 246.21 525.21 248 523 248 523 248 508 248 508 248 505.79 248 504 246.21 504 244 504 241.79 505.79 240 508 240 508 240 508 240 508 240Z" fill="rgb(255,222,203)"/><path fillRule="evenodd" d="M 508.57 256C 508.57 256 529.43 256 529.43 256 531.64 256 533.43 257.79 533.43 260 533.43 262.21 531.64 264 529.43 264 529.43 264 508.57 264 508.57 264 506.36 264 504.57 262.21 504.57 260 504.57 257.79 506.36 256 508.57 256 508.57 256 508.57 256 508.57 256Z" fill="rgb(255,222,203)"/><path fillRule="evenodd" d="M 508.57 271C 508.57 271 529.43 271 529.43 271 531.64 271 533.43 272.79 533.43 275 533.43 277.21 531.64 279 529.43 279 529.43 279 508.57 279 508.57 279 506.36 279 504.57 277.21 504.57 275 504.57 272.79 506.36 271 508.57 271 508.57 271 508.57 271 508.57 271Z" fill="rgb(255,222,203)"/><path fillRule="evenodd" d="M 3 310C 1.62 310 0.5 308.88 0.5 307.5 0.5 306.12 1.62 305 3 305 3 305 596 305 596 305 597.38 305 598.5 306.12 598.5 307.5 598.5 308.88 597.38 310 596 310 596 310 3 310 3 310" fill="rgb(235,235,235)"/></svg>