<svg
    xmlns="http://www.w3.org/2000/svg"
    xmlns:xlink="http://www.w3.org/1999/xlink"
    width="59px" height="15.5px">
    <path fill-rule="evenodd"  fill="rgb(212, 222, 232)"
          d="M12.000,5.500 C13.105,5.500 14.000,6.395 14.000,7.500 C14.000,8.604 13.105,9.500 12.000,9.500 C10.895,9.500 10.000,8.604 10.000,7.500 C10.000,6.395 10.895,5.500 12.000,5.500 Z"/>
    <path fill-rule="evenodd"  fill="rgb(212, 222, 232)"
          d="M2.000,5.500 C3.104,5.500 4.000,6.395 4.000,7.500 C4.000,8.604 3.104,9.500 2.000,9.500 C0.895,9.500 -0.000,8.604 -0.000,7.500 C-0.000,6.395 0.895,5.500 2.000,5.500 Z"/>
    <path fill-rule="evenodd"  fill="rgb(212, 222, 232)"
          d="M23.000,5.500 C24.105,5.500 25.000,6.395 25.000,7.500 C25.000,8.604 24.105,9.500 23.000,9.500 C21.895,9.500 21.000,8.604 21.000,7.500 C21.000,6.395 21.895,5.500 23.000,5.500 Z"/>
    <path fill-rule="evenodd"  fill="rgb(212, 222, 232)"
          d="M33.000,5.500 C34.104,5.500 35.000,6.395 35.000,7.500 C35.000,8.604 34.104,9.500 33.000,9.500 C31.895,9.500 31.000,8.604 31.000,7.500 C31.000,6.395 31.895,5.500 33.000,5.500 Z"/>
    <path fill-rule="evenodd"  fill="rgb(212, 222, 232)"
          d="M43.000,5.500 C44.105,5.500 45.000,6.395 45.000,7.500 C45.000,8.604 44.105,9.500 43.000,9.500 C41.895,9.500 41.000,8.604 41.000,7.500 C41.000,6.395 41.895,5.500 43.000,5.500 Z"/>
    <path fill-rule="evenodd"  stroke="rgb(212, 222, 232)" stroke-width="1px" stroke-linecap="butt" stroke-linejoin="miter" fill="rgb(212, 222, 232)"
          d="M51.676,13.376 C51.599,13.459 51.502,13.500 51.396,13.500 C51.289,13.500 51.193,13.459 51.116,13.376 C50.961,13.210 50.961,12.941 51.116,12.776 L56.043,7.500 L51.116,2.224 C50.961,2.058 50.961,1.789 51.116,1.624 C51.270,1.458 51.521,1.458 51.676,1.624 L56.884,7.200 C57.038,7.365 57.038,7.634 56.884,7.800 L51.676,13.376 Z"/>
</svg>
