<svg xmlns="http://www.w3.org/2000/svg" xmlns:xlink="http://www.w3.org/1999/xlink" viewBox="0 0 40 36" width="40px" height="36px">
<path fill-rule="evenodd" d="M36.911,35.991 L9.587,35.991 C7.883,35.991 6.497,34.610 6.497,32.911 L6.497,14.755 C6.497,13.056 7.883,11.675 9.587,11.675 L36.911,11.675 C38.615,11.675 40.001,13.056 40.001,14.755 L40.001,32.911 C40.001,34.610 38.615,35.991 36.911,35.991 ZM37.724,14.755 C37.724,14.308 37.360,13.944 36.911,13.944 L9.587,13.944 C9.139,13.944 8.774,14.308 8.774,14.755 L8.774,32.911 C8.774,33.358 9.139,33.722 9.587,33.722 L36.911,33.722 C37.360,33.722 37.724,33.358 37.724,32.911 L37.724,14.755 ZM34.309,32.101 L18.695,32.101 C18.067,32.101 17.557,31.592 17.557,30.966 C17.557,30.340 18.067,29.831 18.695,29.831 L34.309,29.831 C34.936,29.831 35.447,30.340 35.447,30.966 C35.447,31.592 34.936,32.101 34.309,32.101 ZM34.309,28.858 L25.201,28.858 C24.573,28.858 24.062,28.349 24.062,27.724 C24.062,27.098 24.573,26.589 25.201,26.589 L34.309,26.589 C34.936,26.589 35.447,27.098 35.447,27.724 C35.447,28.349 34.936,28.858 34.309,28.858 ZM14.792,21.077 L12.189,21.077 C10.844,21.077 9.750,19.986 9.750,18.646 L9.750,17.349 C9.750,16.008 10.844,14.917 12.189,14.917 L14.792,14.917 C16.137,14.917 17.231,16.008 17.231,17.349 L17.231,18.646 C17.231,19.986 16.137,21.077 14.792,21.077 ZM14.954,17.349 C14.954,17.259 14.881,17.186 14.792,17.186 L12.189,17.186 C12.100,17.186 12.027,17.259 12.027,17.349 L12.027,18.646 C12.027,18.735 12.100,18.808 12.189,18.808 L14.792,18.808 C14.881,18.808 14.954,18.735 14.954,18.646 L14.954,17.349 ZM32.357,11.026 C31.785,11.026 31.309,10.603 31.230,10.054 L2.268,10.054 L2.268,21.239 C2.268,21.686 2.633,22.050 3.081,22.050 L5.033,22.050 C5.661,22.050 6.172,22.559 6.172,23.185 C6.172,23.810 5.661,24.319 5.033,24.319 L3.081,24.319 C1.378,24.319 -0.009,22.938 -0.009,21.239 L-0.009,3.083 C-0.009,1.384 1.378,0.003 3.081,0.003 L30.405,0.003 C32.109,0.003 33.496,1.384 33.496,3.083 L33.496,9.891 C33.496,10.517 32.985,11.026 32.357,11.026 ZM31.219,3.083 C31.219,2.636 30.854,2.272 30.405,2.272 L3.081,2.272 C2.633,2.272 2.268,2.636 2.268,3.083 L2.268,4.542 L31.219,4.542 L31.219,3.083 Z"/>
</svg>