<svg xmlns="http://www.w3.org/2000/svg" xmlns:xlink="http://www.w3.org/1999/xlink" viewBox="0 0 36 36" width="36px" height="36px">
<path fill-rule="evenodd" d="M8.563,21.135 C8.642,22.086 8.543,23.042 8.269,23.957 C7.996,24.850 8.509,25.793 9.416,26.062 C9.838,26.187 10.293,26.148 10.686,25.951 C12.389,25.124 14.647,23.649 16.027,21.389 L17.149,21.389 C23.142,21.389 28.001,16.600 28.001,10.692 C28.001,4.784 23.142,-0.005 17.149,-0.005 L17.149,-0.005 L10.840,-0.005 C4.851,-0.002 -0.002,4.786 0.000,10.689 C0.003,15.725 3.569,20.076 8.563,21.135 ZM10.840,1.826 L17.160,1.826 C22.138,1.826 26.173,5.804 26.173,10.710 C26.173,15.617 22.138,19.594 17.160,19.594 L17.160,19.594 L15.501,19.594 C15.166,19.588 14.855,19.762 14.688,20.048 C13.621,22.049 11.657,23.398 10.104,24.207 C10.450,22.905 10.518,21.547 10.303,20.218 C10.242,19.824 9.927,19.514 9.527,19.457 C4.621,18.648 1.310,14.072 2.131,9.237 C2.846,5.022 6.506,1.908 10.840,1.826 ZM35.001,23.511 C34.983,27.220 32.404,30.440 28.748,31.318 C28.719,31.921 28.793,32.524 28.968,33.102 C29.206,33.882 28.757,34.705 27.965,34.940 C27.597,35.049 27.200,35.014 26.857,34.842 C25.617,34.222 23.980,33.163 22.932,31.535 L22.255,31.535 C19.010,31.538 16.074,29.642 14.780,26.709 C14.577,26.249 14.790,25.714 15.256,25.514 C15.723,25.314 16.265,25.524 16.468,25.984 C17.468,28.256 19.742,29.727 22.255,29.726 L23.461,29.726 C23.801,29.724 24.113,29.907 24.274,30.201 C24.929,31.316 25.879,32.235 27.022,32.859 C26.877,32.050 26.868,31.223 26.997,30.411 C27.057,30.017 27.372,29.707 27.773,29.650 C31.218,29.153 33.603,25.997 33.100,22.601 C32.773,20.399 31.277,18.537 29.178,17.720 C28.743,17.461 28.603,16.904 28.865,16.475 C29.070,16.141 29.468,15.973 29.855,16.059 C32.966,17.258 35.010,20.218 35.001,23.511 ZM9.306,10.301 C9.559,9.867 10.121,9.718 10.561,9.967 C11.361,10.420 12.075,11.010 12.668,11.708 C14.008,10.035 15.593,8.569 17.370,7.356 C17.787,7.070 18.361,7.171 18.652,7.583 C18.942,7.994 18.839,8.560 18.422,8.846 C16.465,10.183 14.765,11.853 13.404,13.778 C13.232,14.021 12.951,14.166 12.650,14.166 L12.609,14.166 C12.295,14.153 12.009,13.982 11.852,13.713 C11.323,12.809 10.562,12.058 9.645,11.537 C9.205,11.287 9.054,10.734 9.306,10.301 Z"/>
</svg>