<svg xmlns="http://www.w3.org/2000/svg" xmlns:xlink="http://www.w3.org/1999/xlink" viewBox="0 0 36 36" width="36px" height="36px">
<path fill-rule="evenodd" d="M36.129,19.455 C36.063,19.529 35.993,19.599 35.919,19.663 L35.220,20.276 C34.451,20.942 34.198,22.020 34.592,22.954 L34.951,23.803 C35.456,25.002 34.884,26.379 33.674,26.879 C33.583,26.916 33.490,26.949 33.394,26.975 L32.497,27.222 C31.512,27.492 30.813,28.356 30.760,29.366 L30.760,30.284 C30.692,31.581 29.575,32.578 28.266,32.510 C28.169,32.505 28.072,32.494 27.977,32.478 L27.059,32.320 C26.057,32.145 25.054,32.622 24.565,33.505 L24.116,34.316 C23.483,35.453 22.039,35.867 20.891,35.241 C20.805,35.194 20.723,35.143 20.644,35.086 L19.886,34.543 C19.057,33.953 17.941,33.953 17.112,34.543 L16.354,35.076 C15.288,35.833 13.805,35.592 13.040,34.537 C12.982,34.456 12.929,34.373 12.882,34.286 L12.433,33.476 C11.947,32.588 10.943,32.107 9.939,32.280 L9.021,32.438 C7.734,32.690 6.485,31.861 6.231,30.587 C6.206,30.461 6.192,30.334 6.187,30.205 L6.187,29.287 C6.141,28.278 5.451,27.412 4.471,27.133 L3.574,26.876 C2.309,26.531 1.566,25.237 1.914,23.985 C1.939,23.893 1.971,23.803 2.007,23.714 L2.376,22.864 C2.775,21.935 2.530,20.858 1.768,20.187 L1.069,19.575 C0.086,18.715 -0.008,17.230 0.859,16.256 C0.925,16.182 0.995,16.112 1.069,16.047 L1.768,15.435 C2.537,14.769 2.790,13.691 2.396,12.757 L2.037,11.858 C1.532,10.660 2.104,9.283 3.314,8.783 C3.405,8.745 3.498,8.713 3.593,8.687 L4.491,8.440 C5.443,8.161 6.120,7.326 6.187,6.345 L6.187,5.426 C6.256,4.130 7.373,3.133 8.682,3.201 C8.779,3.205 8.876,3.216 8.971,3.233 L9.889,3.391 C10.891,3.566 11.894,3.089 12.383,2.205 L12.832,1.395 C13.465,0.258 14.909,-0.157 16.057,0.470 C16.143,0.516 16.225,0.568 16.304,0.625 L17.062,1.168 C17.891,1.758 19.007,1.758 19.836,1.168 L20.594,0.635 C21.660,-0.123 23.143,0.119 23.908,1.174 C23.966,1.255 24.019,1.338 24.066,1.425 L24.515,2.235 C25.001,3.122 26.005,3.604 27.009,3.431 L27.927,3.272 C29.220,3.053 30.447,3.912 30.669,5.192 C30.686,5.286 30.696,5.380 30.701,5.476 L30.701,6.395 C30.748,7.405 31.443,8.273 32.427,8.548 L33.325,8.805 C34.586,9.160 35.318,10.461 34.960,11.710 C34.933,11.804 34.900,11.897 34.861,11.987 L34.622,12.846 C34.223,13.776 34.468,14.853 35.230,15.524 L35.919,16.136 C36.902,16.995 36.996,18.481 36.129,19.455 ZM30.906,17.845 C30.906,17.848 30.906,17.849 30.906,17.851 C30.909,11.062 25.356,5.555 18.500,5.549 C11.643,5.542 6.078,11.043 6.072,17.834 C6.065,24.626 11.620,30.136 18.478,30.142 C18.481,30.142 18.485,30.142 18.489,30.142 C25.345,30.142 30.903,24.640 30.906,17.851 C30.906,17.853 30.906,17.855 30.906,17.857 L30.906,17.845 ZM16.763,23.319 L14.169,20.750 L11.695,18.280 L14.279,15.731 L16.753,18.201 L22.699,12.382 L25.273,14.941 L19.347,20.750 L16.763,23.319 Z"/>
</svg>