<svg xmlns="http://www.w3.org/2000/svg" xmlns:xlink="http://www.w3.org/1999/xlink" viewBox="0 0 36 36" width="36px" height="36px">
<path fill-rule="evenodd" d="M32.330,36.715 C31.932,36.904 31.507,37.000 31.068,37.000 C30.189,37.000 29.356,36.605 28.804,35.948 C28.443,36.125 28.046,36.217 27.636,36.217 L18.562,36.217 C17.105,36.192 15.941,34.997 15.967,33.554 L16.200,17.205 C16.229,15.909 17.174,14.864 18.420,14.666 C18.601,13.567 19.509,12.706 20.632,12.584 C20.519,12.443 20.345,12.351 20.150,12.349 L13.538,12.349 C12.609,12.347 11.735,11.987 11.078,11.334 C10.420,10.680 10.059,9.814 10.060,8.893 L10.060,3.315 C10.060,2.665 9.526,2.136 8.870,2.136 C8.214,2.136 7.681,2.665 7.681,3.315 L7.681,26.125 L8.178,26.125 C9.403,26.125 10.599,26.845 11.635,28.208 C12.387,29.198 13.028,30.519 13.308,31.655 C13.328,31.738 13.339,31.823 13.339,31.908 C13.339,32.193 13.227,32.461 13.023,32.663 C12.819,32.865 12.549,32.976 12.261,32.976 L1.078,32.976 C0.996,32.977 0.907,32.967 0.820,32.946 C0.542,32.878 0.306,32.707 0.157,32.464 C0.007,32.220 -0.037,31.934 0.031,31.658 C0.311,30.519 0.952,29.198 1.704,28.209 C2.740,26.845 3.935,26.125 5.160,26.125 L5.525,26.125 L5.525,3.315 C5.525,1.487 7.026,-0.000 8.870,-0.000 C10.715,-0.000 12.216,1.487 12.216,3.315 L12.216,8.909 C12.220,9.626 12.814,10.212 13.541,10.212 L13.550,10.212 L20.158,10.212 C21.546,10.222 22.698,11.248 22.893,12.570 L23.077,12.570 C23.746,12.564 24.377,12.820 24.857,13.292 C25.333,13.760 25.596,14.384 25.599,15.049 L25.599,15.441 C28.451,16.805 30.280,19.674 30.283,22.830 L30.283,30.176 L31.102,30.176 C31.882,30.181 32.612,30.486 33.159,31.035 L33.159,31.035 C33.706,31.583 34.005,32.310 34.000,33.081 L34.000,34.077 C34.007,35.195 33.351,36.232 32.330,36.715 ZM5.160,28.261 C4.694,28.261 4.122,28.643 3.581,29.292 L9.757,29.292 C9.217,28.643 8.644,28.261 8.178,28.261 L5.160,28.261 ZM28.127,22.832 C28.120,19.489 25.371,16.769 21.997,16.769 L18.842,16.769 C18.576,16.769 18.362,16.977 18.356,17.242 L18.122,33.602 C18.122,33.726 18.173,33.848 18.265,33.939 C18.357,34.030 18.479,34.081 18.609,34.081 L27.636,34.081 C27.905,34.080 28.125,33.862 28.127,33.595 L28.127,22.832 ZM31.617,32.527 C31.474,32.389 31.289,32.313 31.095,32.313 C31.091,32.313 31.086,32.313 31.082,32.313 L31.075,32.313 L30.283,32.313 L30.283,32.976 L31.839,32.976 C31.820,32.806 31.742,32.649 31.617,32.527 ZM26.562,33.013 C26.556,33.013 26.550,33.013 26.544,33.013 L19.634,33.013 C19.172,33.013 18.796,32.658 18.796,32.221 L18.796,25.843 C18.815,25.402 19.193,25.049 19.638,25.056 L24.218,25.056 C25.952,25.065 27.355,26.469 27.346,28.185 L27.346,32.216 C27.346,32.230 27.346,32.245 27.346,32.260 C27.333,32.680 26.984,33.013 26.562,33.013 ZM25.710,28.167 C25.710,27.769 25.553,27.395 25.268,27.113 C24.984,26.832 24.606,26.677 24.205,26.677 C24.204,26.677 24.204,26.677 24.203,26.677 L20.432,26.677 L20.432,31.392 L25.710,31.392 L25.710,28.167 Z"/>
</svg>