<svg xmlns="http://www.w3.org/2000/svg" xmlns:xlink="http://www.w3.org/1999/xlink" viewBox="0 0 36 36" width="36px" height="36px">
<path fill-rule="evenodd" d="M17.500,35.000 C7.835,35.000 -0.000,27.165 -0.000,17.500 C-0.000,7.835 7.835,-0.000 17.500,-0.000 C27.165,-0.000 35.000,7.835 35.000,17.500 C35.000,27.165 27.165,35.000 17.500,35.000 ZM17.500,2.916 C9.446,2.916 2.917,9.446 2.917,17.500 C2.917,25.554 9.446,32.083 17.500,32.083 C25.554,32.083 32.083,25.554 32.083,17.500 C32.083,9.446 25.554,2.916 17.500,2.916 ZM20.752,22.896 L16.479,18.610 C16.178,18.314 16.018,17.903 16.041,17.481 L16.041,10.208 C16.041,9.403 16.694,8.750 17.500,8.750 C18.305,8.750 18.958,9.403 18.958,10.208 L18.958,16.816 L22.896,20.753 C23.487,21.345 23.487,22.305 22.895,22.896 C22.303,23.488 21.344,23.488 20.752,22.896 L20.752,22.896 Z"/>
</svg>