<svg xmlns="http://www.w3.org/2000/svg" xmlns:xlink="http://www.w3.org/1999/xlink" viewBox="0 0 36 36" width="36px" height="36px">
<path fill="currentcolor" fill-rule="evenodd" d="M31.883,17.411 C31.801,17.667 31.801,17.949 31.882,18.205 L32.854,21.248 C33.241,22.462 32.820,23.782 31.807,24.532 L29.266,26.413 C29.052,26.571 28.890,26.799 28.809,27.055 L27.838,30.098 C27.451,31.312 26.350,32.128 25.097,32.128 L21.956,32.128 C21.692,32.128 21.428,32.215 21.215,32.373 L18.674,34.254 C18.167,34.629 17.574,34.816 16.980,34.816 C16.386,34.816 15.792,34.629 15.285,34.254 L12.745,32.373 C12.528,32.213 12.272,32.128 12.004,32.128 L8.863,32.128 C7.610,32.128 6.509,31.312 6.122,30.098 L5.151,27.055 C5.068,26.795 4.910,26.573 4.694,26.413 L2.152,24.532 C1.138,23.782 0.717,22.462 1.105,21.248 L2.075,18.205 C2.157,17.949 2.157,17.667 2.076,17.412 L1.105,14.368 C0.718,13.154 1.139,11.835 2.152,11.084 L4.693,9.203 C4.909,9.043 5.068,8.821 5.150,8.561 L6.121,5.517 C6.508,4.304 7.609,3.488 8.862,3.488 L12.003,3.488 C12.271,3.488 12.527,3.403 12.744,3.243 L15.285,1.362 C16.298,0.613 17.660,0.612 18.673,1.362 L21.214,3.243 C21.428,3.401 21.691,3.488 21.955,3.488 L25.096,3.488 C26.348,3.488 27.450,4.304 27.837,5.518 L28.808,8.561 C28.891,8.821 29.049,9.043 29.265,9.203 L31.806,11.084 C32.820,11.834 33.240,13.154 32.853,14.368 L31.883,17.411 ZM30.341,16.900 L31.311,13.857 C31.480,13.326 31.296,12.749 30.853,12.421 L28.312,10.540 C27.817,10.174 27.455,9.666 27.266,9.072 L26.295,6.028 C26.126,5.497 25.644,5.141 25.096,5.141 L21.955,5.141 C21.342,5.141 20.756,4.946 20.260,4.580 L17.720,2.699 C17.277,2.371 16.681,2.371 16.238,2.699 L13.697,4.580 C13.201,4.946 12.615,5.141 12.003,5.141 L8.862,5.141 C8.314,5.141 7.832,5.497 7.663,6.028 L6.693,9.072 C6.503,9.665 6.141,10.173 5.645,10.540 L3.105,12.421 C2.662,12.749 2.478,13.326 2.647,13.857 L3.618,16.900 C3.807,17.494 3.807,18.122 3.618,18.716 L2.647,21.759 C2.478,22.290 2.661,22.867 3.105,23.196 L5.646,25.076 C6.141,25.442 6.503,25.950 6.693,26.544 L7.664,29.588 C7.833,30.119 8.315,30.476 8.863,30.476 L12.004,30.476 C12.616,30.476 13.202,30.670 13.698,31.036 L16.239,32.917 C16.682,33.245 17.277,33.245 17.721,32.917 L20.262,31.036 C20.757,30.670 21.343,30.476 21.956,30.476 L25.097,30.476 C25.645,30.476 26.126,30.119 26.295,29.588 L27.266,26.544 C27.456,25.950 27.818,25.442 28.313,25.076 L30.854,23.196 C31.297,22.867 31.481,22.290 31.311,21.759 L30.340,18.716 C30.151,18.122 30.151,17.494 30.341,16.900 ZM20.803,23.248 C19.200,23.248 17.900,21.923 17.900,20.290 C17.900,18.656 19.200,17.332 20.803,17.332 C22.406,17.332 23.706,18.656 23.706,20.290 C23.706,21.923 22.406,23.248 20.803,23.248 ZM20.803,19.063 C20.138,19.063 19.599,19.612 19.599,20.290 C19.599,20.967 20.138,21.516 20.803,21.516 C21.468,21.516 22.007,20.967 22.007,20.290 C22.007,19.612 21.467,19.063 20.803,19.063 ZM13.713,22.941 C13.463,23.247 13.017,23.289 12.716,23.035 C12.415,22.780 12.374,22.326 12.624,22.019 L20.237,12.675 C20.486,12.369 20.933,12.327 21.233,12.581 C21.534,12.836 21.576,13.290 21.326,13.597 L13.713,22.941 ZM13.156,18.269 C11.553,18.269 10.253,16.945 10.253,15.311 C10.253,13.678 11.552,12.354 13.156,12.354 C14.759,12.354 16.059,13.678 16.059,15.311 C16.059,16.945 14.759,18.269 13.156,18.269 ZM13.156,14.085 C12.491,14.085 11.952,14.634 11.952,15.311 C11.952,15.989 12.491,16.538 13.156,16.538 C13.820,16.538 14.360,15.989 14.360,15.311 C14.360,14.634 13.821,14.085 13.156,14.085 Z"/>
</svg>