<svg xmlns="http://www.w3.org/2000/svg" xmlns:xlink="http://www.w3.org/1999/xlink" viewBox="0 0 36 36" width="36px" height="36px">
<path fill-rule="evenodd" d="M32.014,20.834 C32.010,21.820 31.554,30.577 16.974,34.939 C16.844,34.980 16.710,35.000 16.574,35.000 C16.540,35.000 16.506,34.999 16.472,34.996 C16.240,34.998 16.088,34.970 15.929,34.910 C0.943,30.414 0.972,21.203 0.981,20.813 L0.979,7.165 C0.979,6.389 1.610,5.757 2.387,5.757 C5.649,5.619 7.852,5.265 9.739,4.575 C11.941,3.770 13.713,2.476 15.313,0.503 C15.546,0.213 15.882,0.030 16.257,-0.010 C16.622,-0.052 17.001,0.059 17.292,0.295 L17.424,0.418 C19.845,2.720 21.385,3.837 23.112,4.544 C24.806,5.239 26.786,5.574 30.172,5.738 L31.550,5.798 L31.537,6.108 C31.839,6.372 32.014,6.755 32.014,7.165 L32.014,20.834 ZM29.198,8.502 C25.991,8.305 23.902,7.907 22.045,7.147 C19.839,6.242 18.075,4.828 16.505,3.403 C14.831,5.154 12.929,6.404 10.703,7.217 C8.808,7.910 6.667,8.308 3.795,8.498 L3.795,20.834 C3.794,20.916 3.816,28.217 16.480,32.138 C16.492,32.138 16.503,32.138 16.515,32.138 C28.417,28.453 29.154,21.878 29.198,20.976 L29.198,8.502 ZM7.695,19.665 L9.734,17.726 L12.778,20.930 L23.300,10.412 L25.291,12.403 L12.730,24.962 L7.695,19.665 Z"/>
</svg>