<?xml version="1.0" encoding="utf-8"?>
<svg xmlns="http://www.w3.org/2000/svg"
	xmlns:xlink="http://www.w3.org/1999/xlink"
	width="31px" height="44px" viewBox="0 0 31 44">
<g><path fillRule="evenodd" d="M 28.45 23.37C 28.45 23.37 16.79 42.94 16.79 42.94 16.56 43.32 16.16 43.55 15.72 43.56 15.72 43.56 15.71 43.56 15.71 43.56 15.27 43.56 14.87 43.33 14.64 42.96 14.64 42.96 2.67 23.57 2.67 23.57 1.2 21.18 0.42 18.42 0.42 15.6 0.42 7.24 7.18 0.44 15.5 0.44 23.82 0.44 30.58 7.24 30.58 15.6 30.58 18.34 29.85 21.03 28.45 23.37ZM 15.5 2.95C 8.57 2.95 2.92 8.63 2.92 15.6 2.92 17.95 3.58 20.25 4.81 22.24 4.81 22.24 15.69 39.87 15.69 39.87 15.69 39.87 26.3 22.07 26.3 22.07 27.45 20.12 28.08 17.88 28.08 15.6 28.08 8.63 22.43 2.95 15.5 2.95ZM 15.5 23.18C 11.29 23.18 7.96 19.75 7.96 15.6 7.96 11.42 11.34 8.02 15.5 8.02 19.66 8.02 23.04 11.42 23.04 15.6 23.04 19.71 19.76 23.18 15.5 23.18ZM 15.5 10.53C 12.73 10.53 10.46 12.81 10.46 15.6 10.46 18.39 12.71 20.67 15.5 20.67 18.33 20.67 20.54 18.35 20.54 15.6 20.54 12.81 18.27 10.53 15.5 10.53Z" fill="rgb(31,181,255)"/><path fillRule="evenodd" d="M 15.71 43.56C 15.71 43.56 15.71 43.43 15.71 43.43 15.32 43.43 14.95 43.23 14.75 42.89 14.75 42.89 2.78 23.5 2.78 23.5 1.32 21.13 0.54 18.4 0.54 15.6 0.56 7.31 7.25 0.58 15.5 0.57 23.75 0.58 30.44 7.31 30.46 15.6 30.46 18.32 29.73 20.98 28.35 23.3 28.35 23.3 16.68 42.88 16.68 42.88 16.48 43.22 16.11 43.43 15.72 43.43 15.72 43.43 15.71 43.43 15.71 43.43 15.71 43.43 15.71 43.56 15.71 43.56 15.71 43.56 15.71 43.68 15.71 43.68 15.71 43.68 15.72 43.68 15.72 43.68 16.2 43.68 16.65 43.42 16.89 43.01 16.89 43.01 28.56 23.43 28.56 23.43 29.96 21.07 30.71 18.36 30.71 15.6 30.71 7.17 23.89 0.32 15.5 0.32 7.11 0.32 0.29 7.17 0.29 15.6 0.29 18.45 1.08 21.23 2.56 23.64 2.56 23.64 14.53 43.03 14.53 43.03 14.79 43.43 15.23 43.68 15.71 43.68 15.71 43.68 15.71 43.56 15.71 43.56 15.71 43.56 15.71 43.56 15.71 43.56ZM 2.92 15.6C 2.92 15.6 2.79 15.6 2.79 15.6 2.79 17.98 3.46 20.3 4.7 22.3 4.7 22.3 15.69 40.11 15.69 40.11 15.69 40.11 26.4 22.13 26.4 22.13 27.57 20.17 28.2 17.91 28.2 15.6 28.2 8.57 22.5 2.83 15.5 2.83 8.5 2.83 2.79 8.57 2.79 15.6 2.79 15.6 2.92 15.6 2.92 15.6 2.92 15.6 3.04 15.6 3.04 15.6 3.05 8.7 8.64 3.09 15.5 3.08 22.36 3.09 27.94 8.7 27.95 15.6 27.95 17.86 27.34 20.08 26.19 22.01 26.19 22.01 15.69 39.63 15.69 39.63 15.69 39.63 4.91 22.17 4.91 22.17 3.7 20.2 3.04 17.93 3.04 15.6 3.04 15.6 2.92 15.6 2.92 15.6 2.92 15.6 2.92 15.6 2.92 15.6ZM 7.96 15.6C 7.96 15.6 8.08 15.6 8.08 15.6 8.09 11.49 11.41 8.15 15.5 8.15 19.59 8.15 22.91 11.49 22.92 15.6 22.92 19.64 19.69 23.05 15.5 23.05 11.36 23.05 8.08 19.68 8.08 15.6 8.08 15.6 7.96 15.6 7.96 15.6 7.96 15.6 7.83 15.6 7.83 15.6 7.84 19.82 11.22 23.3 15.5 23.3 19.84 23.3 23.16 19.77 23.17 15.6 23.17 11.35 19.73 7.9 15.5 7.9 11.27 7.9 7.83 11.35 7.83 15.6 7.83 15.6 7.96 15.6 7.96 15.6 7.96 15.6 7.96 15.6 7.96 15.6ZM 10.46 15.6C 10.46 15.6 10.33 15.6 10.33 15.6 10.33 18.46 12.64 20.79 15.5 20.79 18.4 20.79 20.65 18.42 20.66 15.6 20.66 12.74 18.34 10.41 15.5 10.41 12.66 10.41 10.33 12.74 10.33 15.6 10.33 15.6 10.46 15.6 10.46 15.6 10.46 15.6 10.58 15.6 10.58 15.6 10.59 12.88 12.8 10.66 15.5 10.66 18.2 10.66 20.41 12.88 20.41 15.6 20.41 18.28 18.26 20.54 15.5 20.54 12.78 20.54 10.59 18.32 10.58 15.6 10.58 15.6 10.46 15.6 10.46 15.6 10.46 15.6 10.46 15.6 10.46 15.6Z" fill="rgb(31,181,255)"/></g></svg>