<?xml version="1.0" encoding="utf-8"?>
<svg xmlns="http://www.w3.org/2000/svg"
	xmlns:xlink="http://www.w3.org/1999/xlink"
	width="30px" height="40px" viewBox="0 0 30 40">
<path fillRule="evenodd" d="M 27.5 40C 27.5 40 2.5 40 2.5 40 1.12 40-0 38.88-0 37.5-0 37.5-0 7.5-0 7.5-0 6.12 1.12 5 2.5 5 2.5 5 7.5 5 7.5 5 7.5 5 7.5 3.75 7.5 3.75 7.5 3.06 8.06 2.5 8.75 2.5 8.75 2.5 11.46 2.5 11.46 2.5 11.98 1.04 13.37-0 15-0 16.63-0 18.02 1.04 18.54 2.5 18.54 2.5 21.25 2.5 21.25 2.5 21.94 2.5 22.5 3.06 22.5 3.75 22.5 3.75 22.5 5 22.5 5 22.5 5 27.5 5 27.5 5 28.88 5 30 6.12 30 7.5 30 7.5 30 37.5 30 37.5 30 38.88 28.88 40 27.5 40ZM 20 5C 20 5 17.5 5 17.5 5 16.81 5 16.25 4.44 16.25 3.75 16.25 3.06 15.69 2.5 15 2.5 14.31 2.5 13.75 3.06 13.75 3.75 13.75 4.44 13.19 5 12.5 5 12.5 5 10 5 10 5 10 5 10 7.5 10 7.5 10 7.5 20 7.5 20 7.5 20 7.5 20 5 20 5ZM 27.5 7.5C 27.5 7.5 22.5 7.5 22.5 7.5 22.5 7.5 22.5 8.75 22.5 8.75 22.5 9.44 21.94 10 21.25 10 21.25 10 8.75 10 8.75 10 8.06 10 7.5 9.44 7.5 8.75 7.5 8.75 7.5 7.5 7.5 7.5 7.5 7.5 2.5 7.5 2.5 7.5 2.5 7.5 2.5 37.5 2.5 37.5 2.5 37.5 27.5 37.5 27.5 37.5 27.5 37.5 27.5 7.5 27.5 7.5ZM 7.13 17.86C 7.13 17.86 8.75 19.48 8.75 19.48 8.75 19.48 12.86 15.36 12.86 15.36 13.35 14.88 14.15 14.88 14.63 15.37 15.12 15.85 15.12 16.65 14.63 17.13 14.63 17.13 9.63 22.13 9.63 22.13 9.39 22.38 9.07 22.5 8.75 22.5 8.43 22.5 8.11 22.38 7.87 22.13 7.87 22.13 5.37 19.63 5.37 19.63 4.88 19.14 4.88 18.35 5.37 17.86 5.85 17.38 6.65 17.38 7.13 17.86ZM 7.13 27.87C 7.13 27.87 8.75 29.48 8.75 29.48 8.75 29.48 12.86 25.36 12.86 25.36 13.35 24.88 14.15 24.88 14.63 25.37 15.12 25.85 15.12 26.65 14.63 27.13 14.63 27.13 9.63 32.13 9.63 32.13 9.39 32.38 9.07 32.5 8.75 32.5 8.43 32.5 8.11 32.38 7.87 32.13 7.87 32.13 5.37 29.63 5.37 29.63 4.88 29.15 4.88 28.35 5.37 27.87 5.85 27.38 6.65 27.38 7.13 27.87ZM 18.75 17.5C 18.75 17.5 23.75 17.5 23.75 17.5 24.44 17.5 25 18.06 25 18.75 25 19.44 24.44 20 23.75 20 23.75 20 18.75 20 18.75 20 18.06 20 17.5 19.44 17.5 18.75 17.5 18.06 18.06 17.5 18.75 17.5ZM 18.75 27.5C 18.75 27.5 23.75 27.5 23.75 27.5 24.44 27.5 25 28.06 25 28.75 25 29.44 24.44 30 23.75 30 23.75 30 18.75 30 18.75 30 18.06 30 17.5 29.44 17.5 28.75 17.5 28.06 18.06 27.5 18.75 27.5Z" fill="rgb(9,189,227)"/></svg>