<?xml version="1.0" encoding="utf-8"?>
<svg xmlns="http://www.w3.org/2000/svg"
	xmlns:xlink="http://www.w3.org/1999/xlink"
	width="40px" height="40px" viewBox="0 0 40 40">
<circle cx="20.00" cy="20.00" r="20.00" fill="rgb(252,239,231)"/><g><path fillRule="evenodd" d="M 25.14 31.05C 25.14 31.05 14.86 31.05 14.86 31.05 12.54 31.05 10.65 29.13 10.65 26.77 10.65 25 11.01 23.25 11.73 21.57 12.3 20.24 13.09 18.95 14.08 17.74 15.26 16.3 16.44 15.33 17.05 14.86 17.05 14.86 14.56 11.05 14.56 11.05 14.42 10.83 14.45 10.54 14.63 10.36 15.47 9.47 16.34 9.06 17.35 9.06 18.15 9.06 18.98 9.31 20.06 9.71 20.14 9.74 20.22 9.75 20.32 9.75 20.63 9.75 21.01 9.59 21.42 9.42 21.94 9.2 22.53 8.95 23.18 8.95 23.88 8.95 24.52 9.24 25.11 9.83 25.29 10 25.33 10.27 25.21 10.48 25.21 10.48 22.91 14.83 22.91 14.83 23.52 15.29 24.72 16.27 25.92 17.74 26.92 18.95 27.7 20.24 28.27 21.57 28.99 23.25 29.35 25 29.35 26.77 29.35 29.13 27.46 31.05 25.14 31.05ZM 24.05 10.35C 23.67 10.08 23.38 10.04 23.17 10.04 22.74 10.04 22.3 10.23 21.83 10.43 21.35 10.64 20.84 10.85 20.31 10.85 20.09 10.85 19.88 10.81 19.68 10.74 18.72 10.37 18 10.15 17.35 10.15 16.75 10.15 16.25 10.36 15.72 10.82 15.72 10.82 18.09 14.44 18.09 14.44 18.09 14.44 21.87 14.44 21.87 14.44 21.87 14.44 24.05 10.35 24.05 10.35ZM 25.1 18.47C 23.78 16.85 22.44 15.84 22.03 15.55 22.03 15.55 17.96 15.55 17.96 15.55 17.56 15.84 16.21 16.85 14.89 18.47 12.8 21.03 11.74 23.83 11.74 26.77 11.74 28.52 13.14 29.95 14.86 29.95 14.86 29.95 25.14 29.95 25.14 29.95 26.86 29.95 28.26 28.52 28.25 26.77 28.25 23.82 27.2 21.03 25.1 18.47ZM 19.49 22.82C 19.49 22.82 20.73 22.82 20.73 22.82 21.78 22.82 22.64 23.69 22.64 24.76 22.64 25.81 21.8 26.68 20.76 26.69 20.76 26.69 20.75 26.69 20.75 26.69 20.75 26.69 20.66 26.69 20.66 26.69 20.66 26.69 20.66 27.48 20.66 27.48 20.66 27.78 20.41 28.03 20.11 28.03 19.81 28.03 19.57 27.78 19.57 27.48 19.57 27.48 19.57 26.69 19.57 26.69 19.57 26.69 18.5 26.69 18.5 26.69 18.2 26.69 17.96 26.44 17.96 26.14 17.96 25.84 18.2 25.59 18.5 25.59 18.5 25.59 20.73 25.59 20.73 25.59 21.19 25.59 21.55 25.21 21.55 24.76 21.55 24.3 21.19 23.92 20.73 23.92 20.73 23.92 19.49 23.92 19.49 23.92 18.44 23.92 17.58 23.06 17.58 21.99 17.58 20.92 18.44 20.05 19.49 20.05 19.49 20.05 19.57 20.05 19.57 20.05 19.57 20.05 19.57 19.29 19.57 19.29 19.57 18.98 19.81 18.74 20.11 18.74 20.41 18.74 20.65 18.98 20.65 19.29 20.65 19.29 20.65 20.05 20.65 20.05 20.65 20.05 21.68 20.05 21.68 20.05 21.98 20.05 22.22 20.3 22.22 20.61 22.22 20.91 21.98 21.16 21.68 21.16 21.68 21.16 19.49 21.16 19.49 21.16 19.04 21.16 18.67 21.53 18.67 21.99 18.67 22.45 19.04 22.82 19.49 22.82Z" fill="rgb(249,173,129)"/><path fillRule="evenodd" d="M 14.86 31.05C 14.86 31.05 14.86 30.8 14.86 30.8 12.68 30.8 10.9 28.99 10.9 26.77 10.9 25.03 11.25 23.32 11.96 21.67 12.52 20.36 13.3 19.09 14.27 17.9 15.44 16.48 16.6 15.52 17.2 15.06 17.2 15.06 17.39 14.92 17.39 14.92 17.39 14.92 14.77 10.91 14.77 10.91 14.77 10.91 14.72 10.74 14.72 10.74 14.72 10.66 14.75 10.59 14.81 10.53 15.63 9.68 16.41 9.31 17.35 9.31 18.1 9.31 18.9 9.54 19.97 9.94 19.97 9.94 20.06 9.71 20.06 9.71 20.06 9.71 19.97 9.94 19.97 9.94 20.08 9.99 20.2 10 20.32 10 20.71 10 21.11 9.82 21.52 9.65 22.03 9.43 22.59 9.2 23.18 9.2 23.81 9.2 24.37 9.45 24.94 10.01 24.94 10.01 24.94 10.01 24.94 10.01 25 10.07 25.03 10.14 25.03 10.22 25.03 10.22 24.99 10.37 24.99 10.37 24.99 10.37 24.99 10.37 24.99 10.37 24.99 10.37 22.58 14.9 22.58 14.9 22.58 14.9 22.76 15.03 22.76 15.03 23.35 15.48 24.54 16.45 25.73 17.9 26.71 19.09 27.48 20.36 28.04 21.67 28.74 23.32 29.1 25.03 29.1 26.77 29.1 28.99 27.32 30.8 25.14 30.8 25.14 30.8 14.86 30.8 14.86 30.8 14.86 30.8 14.86 31.05 14.86 31.05 14.86 31.05 14.86 31.3 14.86 31.3 14.86 31.3 25.14 31.3 25.14 31.3 27.6 31.3 29.6 29.26 29.6 26.77 29.6 24.96 29.23 23.18 28.5 21.47 27.92 20.12 27.12 18.81 26.11 17.58 24.89 16.09 23.68 15.1 23.05 14.63 23.05 14.63 22.91 14.83 22.91 14.83 22.91 14.83 23.13 14.95 23.13 14.95 23.13 14.95 25.43 10.6 25.43 10.6 25.43 10.6 25.43 10.6 25.43 10.6 25.5 10.48 25.53 10.35 25.53 10.22 25.53 10.01 25.45 9.81 25.29 9.65 25.29 9.65 25.11 9.83 25.11 9.83 25.11 9.83 25.29 9.65 25.29 9.65 24.66 9.03 23.95 8.7 23.18 8.7 22.46 8.7 21.84 8.97 21.32 9.19 20.92 9.36 20.54 9.51 20.32 9.5 20.32 9.5 20.15 9.48 20.15 9.48 20.15 9.48 20.15 9.47 20.15 9.47 20.15 9.47 20.15 9.47 20.15 9.47 19.06 9.07 18.21 8.81 17.35 8.81 16.27 8.81 15.32 9.27 14.45 10.18 14.3 10.34 14.22 10.54 14.22 10.74 14.22 10.89 14.27 11.05 14.35 11.18 14.35 11.18 16.84 15 16.84 15 16.84 15 17.05 14.86 17.05 14.86 17.05 14.86 16.9 14.66 16.9 14.66 16.28 15.14 15.08 16.12 13.89 17.58 12.88 18.81 12.08 20.12 11.5 21.47 10.77 23.18 10.4 24.96 10.4 26.77 10.4 29.26 12.4 31.3 14.86 31.3 14.86 31.3 14.86 31.05 14.86 31.05 14.86 31.05 14.86 31.05 14.86 31.05ZM 14.89 18.47C 14.89 18.47 14.7 18.31 14.7 18.31 12.58 20.91 11.48 23.77 11.49 26.77 11.49 28.66 13 30.2 14.86 30.2 14.86 30.2 25.14 30.2 25.14 30.2 27 30.2 28.5 28.67 28.5 26.79 28.5 26.79 28.5 26.78 28.5 26.78 28.5 26.78 28.5 26.78 28.5 26.78 28.5 26.78 28.5 26.77 28.5 26.77 28.51 23.76 27.42 20.91 25.29 18.31 23.95 16.67 22.6 15.64 22.17 15.34 22.17 15.34 22.11 15.3 22.11 15.3 22.11 15.3 17.88 15.3 17.88 15.3 17.88 15.3 17.82 15.35 17.82 15.35 17.4 15.65 16.04 16.67 14.7 18.31 14.7 18.31 14.89 18.47 14.89 18.47 14.89 18.47 15.08 18.63 15.08 18.63 16.39 17.03 17.71 16.04 18.11 15.75 18.11 15.75 17.96 15.55 17.96 15.55 17.96 15.55 17.96 15.8 17.96 15.8 17.96 15.8 22.03 15.8 22.03 15.8 22.03 15.8 22.03 15.55 22.03 15.55 22.03 15.55 21.88 15.75 21.88 15.75 22.28 16.03 23.61 17.03 24.91 18.63 26.97 21.16 28 23.88 28 26.77 28 26.77 28.25 26.77 28.25 26.77 28.25 26.77 28 26.76 28 26.76 28 26.76 28 26.79 28 26.79 28 28.4 26.71 29.69 25.14 29.7 25.14 29.7 14.86 29.7 14.86 29.7 13.28 29.69 11.99 28.39 11.99 26.77 11.99 23.89 13.02 21.16 15.08 18.63 15.08 18.63 14.89 18.47 14.89 18.47 14.89 18.47 14.89 18.47 14.89 18.47ZM 15.72 10.81C 15.72 10.81 15.51 10.95 15.51 10.95 15.51 10.95 17.95 14.69 17.95 14.69 17.95 14.69 22.02 14.69 22.02 14.69 22.02 14.69 24.37 10.27 24.37 10.27 24.37 10.27 24.19 10.14 24.19 10.14 23.78 9.85 23.41 9.79 23.17 9.79 22.67 9.8 22.2 10 21.73 10.2 21.25 10.41 20.77 10.6 20.31 10.6 20.12 10.6 19.94 10.57 19.77 10.5 18.8 10.14 18.05 9.9 17.35 9.9 16.69 9.9 16.11 10.14 15.56 10.63 15.56 10.63 15.39 10.77 15.39 10.77 15.39 10.77 15.51 10.95 15.51 10.95 15.51 10.95 15.72 10.81 15.72 10.81 15.72 10.81 15.89 11 15.89 11 16.38 10.57 16.81 10.41 17.35 10.4 17.94 10.4 18.64 10.61 19.59 10.97 19.82 11.06 20.07 11.1 20.31 11.1 20.91 11.1 21.45 10.86 21.93 10.66 22.4 10.46 22.82 10.29 23.17 10.29 23.35 10.3 23.57 10.32 23.9 10.55 23.9 10.55 24.05 10.35 24.05 10.35 24.05 10.35 23.82 10.23 23.82 10.23 23.82 10.23 21.72 14.19 21.72 14.19 21.72 14.19 18.23 14.19 18.23 14.19 18.23 14.19 15.93 10.68 15.93 10.68 15.93 10.68 15.72 10.81 15.72 10.81 15.72 10.81 15.89 11 15.89 11 15.89 11 15.72 10.81 15.72 10.81 15.72 10.81 15.72 10.81 15.72 10.81ZM 19.57 27.47C 19.57 27.47 19.82 27.47 19.82 27.47 19.82 27.47 19.82 26.69 19.82 26.69 19.82 26.69 19.82 26.44 19.82 26.44 19.82 26.44 18.5 26.44 18.5 26.44 18.35 26.44 18.21 26.31 18.21 26.14 18.21 25.97 18.35 25.84 18.5 25.84 18.5 25.84 20.73 25.84 20.73 25.84 21.33 25.84 21.8 25.35 21.8 24.76 21.8 24.16 21.33 23.67 20.73 23.67 20.73 23.67 19.49 23.67 19.49 23.67 18.58 23.67 17.83 22.92 17.83 21.99 17.83 21.06 18.58 20.31 19.49 20.31 19.49 20.31 19.57 20.31 19.57 20.31 19.57 20.31 19.82 20.31 19.82 20.31 19.82 20.31 19.82 19.29 19.82 19.29 19.82 19.12 19.95 18.99 20.11 18.99 20.27 18.99 20.4 19.12 20.4 19.29 20.4 19.29 20.4 20.06 20.4 20.06 20.4 20.06 20.4 20.31 20.4 20.31 20.4 20.31 21.68 20.31 21.68 20.31 21.84 20.31 21.97 20.44 21.97 20.61 21.97 20.77 21.84 20.91 21.68 20.91 21.68 20.91 19.49 20.91 19.49 20.91 18.89 20.91 18.42 21.39 18.42 21.99 18.42 22.58 18.89 23.07 19.49 23.07 19.49 23.07 20.73 23.07 20.73 23.07 21.64 23.07 22.39 23.83 22.39 24.76 22.39 25.68 21.66 26.43 20.76 26.44 20.76 26.44 20.75 26.44 20.75 26.44 20.75 26.44 20.66 26.44 20.66 26.44 20.66 26.44 20.41 26.44 20.41 26.44 20.41 26.44 20.41 27.47 20.41 27.47 20.41 27.64 20.27 27.78 20.11 27.78 19.96 27.78 19.82 27.64 19.82 27.47 19.82 27.47 19.57 27.47 19.57 27.47 19.57 27.47 19.32 27.47 19.32 27.47 19.32 27.91 19.67 28.28 20.11 28.28 20.55 28.28 20.91 27.91 20.91 27.47 20.91 27.47 20.91 26.69 20.91 26.69 20.91 26.69 20.66 26.69 20.66 26.69 20.66 26.69 20.66 26.94 20.66 26.94 20.66 26.94 20.75 26.94 20.75 26.94 20.75 26.94 20.76 26.94 20.76 26.94 21.94 26.92 22.89 25.95 22.89 24.76 22.89 23.55 21.92 22.57 20.73 22.57 20.73 22.57 19.49 22.57 19.49 22.57 19.18 22.57 18.92 22.31 18.92 21.99 18.92 21.66 19.18 21.41 19.49 21.41 19.49 21.41 21.68 21.41 21.68 21.41 22.12 21.41 22.47 21.05 22.47 20.61 22.47 20.17 22.12 19.81 21.68 19.81 21.68 19.81 20.9 19.81 20.9 19.81 20.9 19.81 20.9 19.29 20.9 19.29 20.9 18.85 20.55 18.49 20.11 18.49 19.67 18.49 19.32 18.85 19.32 19.29 19.32 19.29 19.32 20.06 19.32 20.06 19.32 20.06 19.57 20.06 19.57 20.06 19.57 20.06 19.57 19.81 19.57 19.81 19.57 19.81 19.49 19.81 19.49 19.81 18.3 19.81 17.33 20.79 17.33 21.99 17.33 23.19 18.3 24.17 19.49 24.17 19.49 24.17 20.73 24.17 20.73 24.17 21.04 24.17 21.3 24.43 21.3 24.76 21.3 25.08 21.04 25.34 20.73 25.34 20.73 25.34 18.5 25.34 18.5 25.34 18.06 25.34 17.71 25.7 17.71 26.14 17.71 26.58 18.06 26.94 18.5 26.94 18.5 26.94 19.32 26.94 19.32 26.94 19.32 26.94 19.32 27.47 19.32 27.47 19.32 27.47 19.57 27.47 19.57 27.47 19.57 27.47 19.57 27.47 19.57 27.47Z" fill="rgb(249,173,129)"/></g></svg>