<?xml version="1.0" encoding="utf-8"?>
<svg xmlns="http://www.w3.org/2000/svg"
	xmlns:xlink="http://www.w3.org/1999/xlink"
	width="47px" height="47px" viewBox="0 0 47 47">
<path fillRule="evenodd" d="M 45.73 22.16C 45.73 22.16 22.86 45.04 22.86 45.04 22.86 45.04 33.28 45.04 33.28 45.04 33.82 45.04 34.25 45.48 34.25 46.02 34.25 46.56 33.82 47 33.28 47 33.28 47 19.14 47 19.14 47 19.14 47 19.14 47 19.14 47 19.14 47 19.13 47 19.13 47 19.13 47 13.7 47 13.7 47 13.16 47 12.72 46.56 12.72 46.02 12.72 45.48 13.16 45.04 13.7 45.04 13.7 45.04 15.41 45.04 15.41 45.04 15.41 45.04 3.08 32.71 3.08 32.71 3.08 32.71 3.08 32.71 3.08 32.71 3.08 32.71 3.08 32.71 3.08 32.71 3.08 32.71 1.25 30.87 1.25 30.87 0.44 30.07 0 29 0 27.85 0 26.71 0.44 25.64 1.25 24.84 1.25 24.84 24.82 1.25 24.82 1.25 25.63 0.44 26.7-0 27.84-0 28.98-0 30.05 0.44 30.86 1.25 30.86 1.25 45.73 16.13 45.73 16.13 47.39 17.79 47.39 20.5 45.73 22.16ZM 44.35 17.51C 44.35 17.51 36.15 9.31 36.15 9.31 36.15 9.31 13.51 31.97 13.51 31.97 13.31 32.16 13.06 32.26 12.81 32.26 12.56 32.26 12.31 32.16 12.12 31.97 11.74 31.59 11.74 30.97 12.12 30.58 12.12 30.58 34.77 7.93 34.77 7.93 34.77 7.93 29.47 2.63 29.47 2.63 29.04 2.2 28.46 1.96 27.84 1.96 27.22 1.96 26.64 2.2 26.21 2.63 26.21 2.63 2.63 26.22 2.63 26.22 2.2 26.66 1.96 27.23 1.96 27.85 1.96 28.47 2.2 29.05 2.63 29.49 2.63 29.49 3.77 30.63 3.77 30.63 3.77 30.63 26.42 7.97 26.42 7.97 26.8 7.59 27.42 7.59 27.8 7.97 28.18 8.36 28.18 8.98 27.8 9.36 27.8 9.36 5.16 32.01 5.16 32.01 5.16 32.01 17.51 44.37 17.51 44.37 17.94 44.8 18.52 45.04 19.13 45.04 19.13 45.04 19.14 45.04 19.14 45.04 19.76 45.04 20.34 44.8 20.77 44.37 20.77 44.37 44.35 20.78 44.35 20.78 45.25 19.88 45.25 18.41 44.35 17.51ZM 35.97 23.34C 35.78 23.53 35.53 23.63 35.27 23.63 35.02 23.63 34.77 23.54 34.58 23.34 34.58 23.34 31.81 20.57 31.81 20.57 31.63 20.39 31.53 20.14 31.53 19.88 31.53 19.62 31.63 19.37 31.81 19.19 31.81 19.19 35.97 15.04 35.97 15.04 36.15 14.85 36.4 14.75 36.66 14.75 36.92 14.75 37.17 14.85 37.35 15.04 37.35 15.04 40.12 17.8 40.12 17.8 40.5 18.19 40.5 18.81 40.12 19.19 40.12 19.19 35.97 23.34 35.97 23.34ZM 36.66 17.11C 36.66 17.11 33.89 19.88 33.89 19.88 33.89 19.88 35.27 21.27 35.27 21.27 35.27 21.27 38.04 18.5 38.04 18.5 38.04 18.5 36.66 17.11 36.66 17.11ZM 24.83 34.49C 24.64 34.68 24.39 34.77 24.14 34.77 23.89 34.77 23.64 34.68 23.45 34.49 23.06 34.1 23.06 33.48 23.45 33.1 23.45 33.1 23.86 32.69 23.86 32.69 24.24 32.3 24.86 32.3 25.25 32.69 25.63 33.07 25.63 33.69 25.25 34.07 25.25 34.07 24.83 34.49 24.83 34.49ZM 16.41 37.37C 16.22 37.56 15.97 37.66 15.72 37.66 15.47 37.66 15.22 37.56 15.03 37.37 14.65 36.99 14.65 36.37 15.03 35.98 15.03 35.98 22.73 28.28 22.73 28.28 23.11 27.9 23.73 27.9 24.11 28.28 24.5 28.66 24.5 29.28 24.11 29.66 24.11 29.66 16.41 37.37 16.41 37.37ZM 20.95 35.59C 21.34 35.21 21.96 35.21 22.34 35.59 22.72 35.98 22.72 36.6 22.34 36.98 22.34 36.98 19.18 40.14 19.18 40.14 18.99 40.33 18.74 40.43 18.49 40.43 18.24 40.43 17.99 40.33 17.8 40.14 17.41 39.76 17.41 39.14 17.8 38.75 17.8 38.75 20.95 35.59 20.95 35.59ZM 10.81 34.67C 10.62 34.86 10.36 34.96 10.11 34.96 9.86 34.96 9.61 34.86 9.42 34.67 9.04 34.29 9.04 33.67 9.42 33.28 9.42 33.28 9.84 32.87 9.84 32.87 10.22 32.49 10.84 32.49 11.22 32.87 11.6 33.25 11.6 33.87 11.22 34.25 11.22 34.25 10.81 34.67 10.81 34.67ZM 29.12 5.27C 29.5 4.89 30.12 4.89 30.5 5.27 30.88 5.66 30.88 6.28 30.5 6.66 30.5 6.66 30.08 7.07 30.08 7.07 29.89 7.26 29.64 7.36 29.39 7.36 29.14 7.36 28.89 7.26 28.7 7.07 28.32 6.69 28.32 6.07 28.7 5.69 28.7 5.69 29.12 5.27 29.12 5.27Z" fill="rgb(255,107,107)"/></svg>