<?xml version="1.0" encoding="utf-8"?>
<svg xmlns="http://www.w3.org/2000/svg"
	xmlns:xlink="http://www.w3.org/1999/xlink"
	width="51px" height="33px" viewBox="0 0 51 33">
<path fillRule="evenodd" d="M 51 15.47C 51 15.47 51 15.47 51 15.47 51 15.47 51 27.84 51 27.84 51 30.69 48.62 33 45.69 33 45.69 33 5.31 33 5.31 33 2.38 33-0 30.69-0 27.84-0 27.84-0 5.16-0 5.16-0 2.31 2.38-0 5.31-0 5.31-0 45.69-0 45.69-0 48.62-0 51 2.31 51 5.16 51 5.16 51 15.47 51 15.47 51 15.47 51 15.47 51 15.47ZM 31.87 30.94C 31.87 30.94 45.69 30.94 45.69 30.94 47.44 30.94 48.87 29.55 48.87 27.84 48.87 27.84 48.87 27.84 48.87 27.84 48.87 27.84 48.87 16.5 48.87 16.5 48.87 16.5 33.37 16.5 33.37 16.5 33.37 16.5 37.94 20.93 37.94 20.93 38.35 21.33 38.35 21.98 37.94 22.39 37.73 22.59 37.46 22.69 37.19 22.69 36.92 22.69 36.64 22.59 36.43 22.39 36.43 22.39 31.87 17.96 31.87 17.96 31.87 17.96 31.87 30.94 31.87 30.94ZM 39.98 7.81C 40.1 7.42 39.92 7.11 39.81 6.96 39.61 6.69 39.29 6.53 38.98 6.53 38.89 6.53 38.8 6.55 38.71 6.57 35.05 7.63 32.39 10.75 31.94 14.37 35.68 13.93 38.89 11.36 39.98 7.81ZM 29.68 14.37C 29.23 10.75 26.57 7.63 22.92 6.57 22.83 6.55 22.74 6.53 22.65 6.53 22.33 6.53 22.02 6.69 21.81 6.96 21.7 7.11 21.52 7.42 21.64 7.81 22.73 11.36 25.95 13.93 29.68 14.37ZM 5.31 30.94C 5.31 30.94 29.75 30.94 29.75 30.94 29.75 30.94 29.75 17.96 29.75 17.96 29.75 17.96 25.19 22.39 25.19 22.39 24.98 22.59 24.71 22.69 24.44 22.69 24.17 22.69 23.89 22.59 23.68 22.39 23.27 21.98 23.27 21.33 23.68 20.93 23.68 20.93 28.25 16.5 28.25 16.5 28.25 16.5 2.12 16.5 2.12 16.5 2.12 16.5 2.12 27.84 2.12 27.84 2.12 29.55 3.55 30.94 5.31 30.94ZM 29.75 2.06C 29.75 2.06 5.31 2.06 5.31 2.06 3.55 2.06 2.12 3.45 2.12 5.16 2.12 5.16 2.12 14.44 2.12 14.44 2.12 14.44 24.14 14.44 24.14 14.44 22.02 13 20.38 10.9 19.61 8.39 19.33 7.48 19.51 6.51 20.11 5.73 20.89 4.7 22.28 4.23 23.52 4.59 26.11 5.34 28.27 6.94 29.75 9.01 29.75 9.01 29.75 2.06 29.75 2.06ZM 45.69 2.06C 45.69 2.06 31.87 2.06 31.87 2.06 31.87 2.06 31.87 9.01 31.87 9.01 33.35 6.94 35.52 5.34 38.1 4.59 39.34 4.23 40.73 4.7 41.51 5.73 42.11 6.51 42.3 7.48 42.02 8.39 41.25 10.9 39.61 13 37.49 14.44 37.49 14.44 48.87 14.44 48.87 14.44 48.87 14.44 48.87 5.16 48.87 5.16 48.87 3.45 47.44 2.06 45.69 2.06ZM 7.44 20.62C 7.44 20.62 15.94 20.62 15.94 20.62 16.52 20.62 17 21.09 17 21.66 17 22.23 16.52 22.69 15.94 22.69 15.94 22.69 7.44 22.69 7.44 22.69 6.85 22.69 6.37 22.23 6.37 21.66 6.37 21.09 6.85 20.62 7.44 20.62ZM 7.44 24.75C 7.44 24.75 22.31 24.75 22.31 24.75 22.9 24.75 23.37 25.21 23.37 25.78 23.37 26.35 22.9 26.81 22.31 26.81 22.31 26.81 7.44 26.81 7.44 26.81 6.85 26.81 6.37 26.35 6.37 25.78 6.37 25.21 6.85 24.75 7.44 24.75Z" fill="rgb(243,103,223)"/></svg>