<?xml version="1.0" encoding="utf-8"?>
<svg xmlns="http://www.w3.org/2000/svg"
	xmlns:xlink="http://www.w3.org/1999/xlink"
	width="40px" height="40px" viewBox="0 0 40 40">
<circle cx="20.00" cy="20.00" r="20.00" fill="rgb(202,250,241)"/><g><path fillRule="evenodd" d="M 30.88 19.57C 30.88 19.57 30.88 19.58 30.88 19.58 30.88 19.58 30.88 24.67 30.88 24.67 30.88 25.85 29.86 26.8 28.61 26.8 28.61 26.8 11.39 26.8 11.39 26.8 10.14 26.8 9.12 25.85 9.12 24.67 9.12 24.67 9.12 15.32 9.12 15.32 9.12 14.15 10.14 13.2 11.39 13.2 11.39 13.2 28.61 13.2 28.61 13.2 29.86 13.2 30.88 14.15 30.88 15.32 30.88 15.32 30.88 19.57 30.88 19.57 30.88 19.57 30.88 19.57 30.88 19.57ZM 22.72 25.95C 22.72 25.95 28.61 25.95 28.61 25.95 29.36 25.95 29.97 25.38 29.97 24.67 29.97 24.67 29.97 20 29.97 20 29.97 20 23.36 20 23.36 20 23.36 20 25.31 21.82 25.31 21.82 25.48 21.99 25.48 22.26 25.31 22.43 25.22 22.51 25.1 22.55 24.99 22.55 24.87 22.55 24.75 22.51 24.67 22.43 24.67 22.43 22.72 20.6 22.72 20.6 22.72 20.6 22.72 25.95 22.72 25.95ZM 26.18 16.42C 26.23 16.26 26.15 16.13 26.11 16.07 26.02 15.96 25.88 15.89 25.75 15.89 25.71 15.89 25.67 15.9 25.63 15.91 24.07 16.34 22.94 17.63 22.75 19.12 24.34 18.94 25.71 17.88 26.18 16.42ZM 21.78 19.12C 21.59 17.63 20.46 16.34 18.9 15.91 18.86 15.9 18.82 15.89 18.78 15.89 18.65 15.89 18.51 15.96 18.43 16.07 18.38 16.13 18.3 16.26 18.35 16.42 18.82 17.88 20.19 18.94 21.78 19.12ZM 11.39 25.95C 11.39 25.95 21.81 25.95 21.81 25.95 21.81 25.95 21.81 20.6 21.81 20.6 21.81 20.6 19.87 22.43 19.87 22.43 19.78 22.51 19.66 22.55 19.55 22.55 19.43 22.55 19.31 22.51 19.23 22.43 19.05 22.26 19.05 21.99 19.23 21.82 19.23 21.82 21.17 20 21.17 20 21.17 20 10.03 20 10.03 20 10.03 20 10.03 24.67 10.03 24.67 10.03 25.38 10.64 25.95 11.39 25.95ZM 21.81 14.05C 21.81 14.05 11.39 14.05 11.39 14.05 10.64 14.05 10.03 14.62 10.03 15.32 10.03 15.32 10.03 19.15 10.03 19.15 10.03 19.15 19.44 19.15 19.44 19.15 18.52 18.56 17.82 17.7 17.49 16.66 17.37 16.28 17.44 15.88 17.7 15.56 18.03 15.14 18.63 14.94 19.16 15.09 20.27 15.4 21.18 16.08 21.81 16.94 21.81 16.94 21.81 14.05 21.81 14.05ZM 28.61 14.05C 28.61 14.05 22.72 14.05 22.72 14.05 22.72 14.05 22.72 16.94 22.72 16.94 23.35 16.08 24.26 15.4 25.38 15.09 25.91 14.94 26.5 15.14 26.83 15.56 27.09 15.88 27.17 16.28 27.05 16.66 26.72 17.7 26.01 18.56 25.09 19.15 25.09 19.15 29.97 19.15 29.97 19.15 29.97 19.15 29.97 15.32 29.97 15.32 29.97 14.62 29.36 14.05 28.61 14.05ZM 12.29 21.7C 12.29 21.7 15.92 21.7 15.92 21.7 16.17 21.7 16.37 21.89 16.37 22.12 16.37 22.36 16.17 22.55 15.92 22.55 15.92 22.55 12.29 22.55 12.29 22.55 12.04 22.55 11.84 22.36 11.84 22.12 11.84 21.89 12.04 21.7 12.29 21.7ZM 12.29 23.4C 12.29 23.4 18.64 23.4 18.64 23.4 18.89 23.4 19.09 23.59 19.09 23.82 19.09 24.06 18.89 24.25 18.64 24.25 18.64 24.25 12.29 24.25 12.29 24.25 12.04 24.25 11.84 24.06 11.84 23.82 11.84 23.59 12.04 23.4 12.29 23.4Z" fill="rgb(33,195,163)"/><path fillRule="evenodd" d="M 22.27 26.8C 22.27 26.8 22.27 26.67 22.27 26.67 22.27 26.67 11.39 26.67 11.39 26.67 10.2 26.67 9.25 25.77 9.24 24.67 9.24 24.67 9.24 15.32 9.24 15.32 9.25 14.23 10.2 13.33 11.39 13.32 11.39 13.32 28.61 13.32 28.61 13.32 29.8 13.33 30.75 14.23 30.75 15.32 30.75 15.32 30.75 19.57 30.75 19.57 30.75 19.57 30.75 24.67 30.75 24.67 30.75 25.77 29.8 26.67 28.61 26.67 28.61 26.67 22.27 26.67 22.27 26.67 22.27 26.67 22.27 26.8 22.27 26.8 22.27 26.8 22.27 26.92 22.27 26.92 22.27 26.92 28.61 26.92 28.61 26.92 29.93 26.92 31 25.92 31 24.67 31 24.67 31 19.57 31 19.57 31 19.57 31 15.32 31 15.32 31 14.08 29.93 13.08 28.61 13.07 28.61 13.07 11.39 13.07 11.39 13.07 10.07 13.08 9 14.08 8.99 15.32 8.99 15.32 8.99 24.67 8.99 24.67 9 25.92 10.07 26.92 11.39 26.92 11.39 26.92 22.27 26.92 22.27 26.92 22.27 26.92 22.27 26.8 22.27 26.8 22.27 26.8 22.27 26.8 22.27 26.8ZM 28.61 25.95C 28.61 25.95 28.61 26.08 28.61 26.08 29.43 26.07 30.1 25.45 30.1 24.67 30.1 24.67 30.1 19.87 30.1 19.87 30.1 19.87 23.04 19.87 23.04 19.87 23.04 19.87 25.22 21.92 25.22 21.92 25.28 21.98 25.31 22.05 25.31 22.13 25.31 22.2 25.28 22.28 25.22 22.33 25.16 22.39 25.07 22.42 24.99 22.42 24.9 22.42 24.81 22.39 24.75 22.33 24.75 22.33 22.59 20.31 22.59 20.31 22.59 20.31 22.59 26.08 22.59 26.08 22.59 26.08 28.61 26.08 28.61 26.08 28.61 26.08 28.61 25.95 28.61 25.95 28.61 25.95 28.61 25.83 28.61 25.83 28.61 25.83 22.84 25.83 22.84 25.83 22.84 25.83 22.84 20.89 22.84 20.89 22.84 20.89 24.58 22.52 24.58 22.52 24.69 22.62 24.84 22.68 24.99 22.67 25.13 22.67 25.28 22.62 25.39 22.52 25.51 22.41 25.56 22.27 25.56 22.13 25.56 21.98 25.51 21.84 25.39 21.73 25.39 21.73 23.68 20.12 23.68 20.12 23.68 20.12 29.85 20.12 29.85 20.12 29.85 20.12 29.85 24.67 29.85 24.67 29.85 25.3 29.3 25.82 28.61 25.83 28.61 25.83 28.61 25.95 28.61 25.95 28.61 25.95 28.61 25.95 28.61 25.95ZM 10.03 24.67C 10.03 24.67 9.9 24.67 9.9 24.67 9.9 25.45 10.57 26.07 11.39 26.08 11.39 26.08 21.94 26.08 21.94 26.08 21.94 26.08 21.94 20.31 21.94 20.31 21.94 20.31 19.78 22.33 19.78 22.33 19.72 22.39 19.63 22.42 19.55 22.42 19.46 22.42 19.37 22.39 19.31 22.33 19.25 22.27 19.22 22.2 19.22 22.13 19.22 22.05 19.25 21.98 19.31 21.92 19.31 21.92 21.49 19.87 21.49 19.87 21.49 19.87 9.9 19.87 9.9 19.87 9.9 19.87 9.9 24.67 9.9 24.67 9.9 24.67 10.03 24.67 10.03 24.67 10.03 24.67 10.15 24.67 10.15 24.67 10.15 24.67 10.15 20.12 10.15 20.12 10.15 20.12 20.86 20.12 20.86 20.12 20.86 20.12 19.14 21.73 19.14 21.73 19.03 21.84 18.97 21.98 18.97 22.13 18.97 22.27 19.03 22.41 19.14 22.52 19.25 22.62 19.4 22.68 19.55 22.67 19.69 22.67 19.84 22.62 19.95 22.52 19.95 22.52 21.69 20.89 21.69 20.89 21.69 20.89 21.69 25.83 21.69 25.83 21.69 25.83 11.39 25.83 11.39 25.83 10.7 25.82 10.15 25.3 10.15 24.67 10.15 24.67 10.03 24.67 10.03 24.67 10.03 24.67 10.03 24.67 10.03 24.67ZM 29.97 19.15C 29.97 19.15 30.1 19.15 30.1 19.15 30.1 19.15 30.1 15.32 30.1 15.32 30.1 14.55 29.43 13.93 28.61 13.92 28.61 13.92 22.59 13.92 22.59 13.92 22.59 13.92 22.59 17.27 22.59 17.27 22.59 17.27 22.82 16.97 22.82 16.97 23.44 16.15 24.34 15.51 25.41 15.21 25.52 15.18 25.63 15.17 25.74 15.17 26.12 15.17 26.5 15.34 26.73 15.64 26.89 15.84 26.98 16.07 26.98 16.31 26.98 16.41 26.96 16.52 26.93 16.62 26.61 17.62 25.93 18.47 25.05 19.05 25.05 19.05 24.7 19.27 24.7 19.27 24.7 19.27 30.1 19.27 30.1 19.27 30.1 19.27 30.1 19.15 30.1 19.15 30.1 19.15 29.97 19.15 29.97 19.15 29.97 19.15 29.97 19.02 29.97 19.02 29.97 19.02 25.12 19.02 25.12 19.02 25.12 19.02 25.12 19.15 25.12 19.15 25.12 19.15 25.19 19.25 25.19 19.25 26.11 18.65 26.83 17.76 27.17 16.7 27.21 16.57 27.23 16.44 27.23 16.31 27.23 16.01 27.12 15.73 26.93 15.48 26.64 15.12 26.2 14.92 25.74 14.92 25.61 14.92 25.47 14.94 25.34 14.97 24.22 15.29 23.27 15.95 22.62 16.82 22.62 16.82 22.72 16.9 22.72 16.9 22.72 16.9 22.84 16.9 22.84 16.9 22.84 16.9 22.84 14.17 22.84 14.17 22.84 14.17 28.61 14.17 28.61 14.17 29.3 14.17 29.85 14.7 29.85 15.32 29.85 15.32 29.85 19.15 29.85 19.15 29.85 19.15 29.97 19.15 29.97 19.15 29.97 19.15 29.97 19.02 29.97 19.02 29.97 19.02 29.97 19.15 29.97 19.15 29.97 19.15 29.97 19.15 29.97 19.15ZM 19.41 19.15C 19.41 19.15 19.48 19.05 19.48 19.05 18.6 18.47 17.92 17.62 17.61 16.62 17.57 16.52 17.56 16.41 17.56 16.31 17.56 16.07 17.64 15.84 17.8 15.64 18.03 15.34 18.41 15.17 18.79 15.17 18.9 15.17 19.01 15.18 19.12 15.21 20.2 15.51 21.1 16.15 21.71 16.97 21.71 16.97 21.94 17.27 21.94 17.27 21.94 17.27 21.94 13.92 21.94 13.92 21.94 13.92 11.39 13.92 11.39 13.92 10.57 13.93 9.9 14.55 9.9 15.32 9.9 15.32 9.9 19.27 9.9 19.27 9.9 19.27 19.83 19.27 19.83 19.27 19.83 19.27 19.48 19.05 19.48 19.05 19.48 19.05 19.41 19.15 19.41 19.15 19.41 19.15 19.41 19.02 19.41 19.02 19.41 19.02 10.15 19.02 10.15 19.02 10.15 19.02 10.15 15.32 10.15 15.32 10.15 14.7 10.7 14.17 11.39 14.17 11.39 14.17 21.69 14.17 21.69 14.17 21.69 14.17 21.69 16.9 21.69 16.9 21.69 16.9 21.81 16.9 21.81 16.9 21.81 16.9 21.91 16.82 21.91 16.82 21.26 15.95 20.32 15.29 19.19 14.97 19.06 14.94 18.92 14.92 18.79 14.92 18.33 14.92 17.89 15.12 17.6 15.48 17.41 15.73 17.31 16.01 17.31 16.31 17.31 16.44 17.33 16.57 17.37 16.7 17.7 17.76 18.42 18.65 19.34 19.25 19.34 19.25 19.41 19.15 19.41 19.15 19.41 19.15 19.41 19.02 19.41 19.02 19.41 19.02 19.41 19.15 19.41 19.15 19.41 19.15 19.41 19.15 19.41 19.15ZM 25.63 15.91C 25.63 15.91 25.6 15.79 25.6 15.79 23.99 16.24 22.82 17.56 22.62 19.11 22.62 19.11 22.6 19.26 22.6 19.26 22.6 19.26 22.76 19.25 22.76 19.25 24.4 19.06 25.82 17.97 26.3 16.46 26.3 16.46 26.32 16.31 26.32 16.31 26.32 16.16 26.25 16.05 26.2 15.99 26.09 15.85 25.93 15.77 25.75 15.77 25.75 15.77 25.6 15.79 25.6 15.79 25.6 15.79 25.63 15.91 25.63 15.91 25.63 15.91 25.66 16.03 25.66 16.03 25.66 16.03 25.75 16.02 25.75 16.02 25.84 16.02 25.94 16.07 26.01 16.15 26.01 16.15 26.07 16.31 26.07 16.31 26.07 16.31 26.06 16.38 26.06 16.38 25.61 17.79 24.28 18.82 22.73 19 22.73 19 22.75 19.12 22.75 19.12 22.75 19.12 22.87 19.14 22.87 19.14 23.06 17.7 24.15 16.45 25.67 16.03 25.67 16.03 25.63 15.91 25.63 15.91 25.63 15.91 25.63 15.91 25.63 15.91ZM 18.43 16.07C 18.43 16.07 18.33 15.99 18.33 15.99 18.28 16.05 18.21 16.16 18.21 16.31 18.21 16.31 18.24 16.46 18.24 16.46 18.72 17.97 20.13 19.06 21.77 19.25 21.77 19.25 21.93 19.27 21.93 19.27 21.93 19.27 21.91 19.11 21.91 19.11 21.71 17.56 20.54 16.24 18.93 15.79 18.93 15.79 18.78 15.77 18.78 15.77 18.61 15.77 18.44 15.85 18.33 15.99 18.33 15.99 18.43 16.07 18.43 16.07 18.43 16.07 18.52 16.15 18.52 16.15 18.59 16.06 18.69 16.02 18.78 16.02 18.78 16.02 18.87 16.03 18.87 16.03 20.38 16.45 21.47 17.7 21.66 19.14 21.66 19.14 21.78 19.12 21.78 19.12 21.78 19.12 21.8 19 21.8 19 20.25 18.82 18.92 17.79 18.47 16.38 18.47 16.38 18.46 16.31 18.46 16.31 18.46 16.31 18.52 16.15 18.52 16.15 18.52 16.15 18.43 16.07 18.43 16.07 18.43 16.07 18.43 16.07 18.43 16.07ZM 12.29 24.25C 12.29 24.25 12.29 24.13 12.29 24.13 12.11 24.12 11.96 23.98 11.96 23.83 11.96 23.67 12.11 23.53 12.29 23.52 12.29 23.52 18.64 23.52 18.64 23.52 18.83 23.53 18.97 23.67 18.97 23.83 18.97 23.98 18.83 24.12 18.64 24.13 18.64 24.13 12.29 24.13 12.29 24.13 12.29 24.13 12.29 24.25 12.29 24.25 12.29 24.25 12.29 24.38 12.29 24.38 12.29 24.38 18.64 24.38 18.64 24.38 18.95 24.37 19.22 24.14 19.22 23.83 19.22 23.51 18.95 23.28 18.64 23.27 18.64 23.27 12.29 23.27 12.29 23.27 11.98 23.28 11.72 23.51 11.71 23.83 11.72 24.14 11.98 24.37 12.29 24.38 12.29 24.38 12.29 24.25 12.29 24.25 12.29 24.25 12.29 24.25 12.29 24.25ZM 12.29 22.55C 12.29 22.55 12.29 22.42 12.29 22.42 12.11 22.42 11.96 22.28 11.96 22.13 11.96 21.97 12.11 21.82 12.29 21.82 12.29 21.82 15.92 21.82 15.92 21.82 16.11 21.82 16.25 21.97 16.25 22.13 16.25 22.28 16.11 22.42 15.92 22.42 15.92 22.42 12.29 22.42 12.29 22.42 12.29 22.42 12.29 22.55 12.29 22.55 12.29 22.55 12.29 22.67 12.29 22.67 12.29 22.67 15.92 22.67 15.92 22.67 16.23 22.67 16.5 22.43 16.5 22.13 16.5 21.81 16.23 21.58 15.92 21.57 15.92 21.57 12.29 21.57 12.29 21.57 11.98 21.58 11.72 21.81 11.71 22.13 11.72 22.43 11.98 22.67 12.29 22.67 12.29 22.67 12.29 22.55 12.29 22.55 12.29 22.55 12.29 22.55 12.29 22.55Z" fill="rgb(33,195,163)"/></g></svg>