<?xml version="1.0" encoding="utf-8"?>
<svg xmlns="http://www.w3.org/2000/svg"
	xmlns:xlink="http://www.w3.org/1999/xlink"
	width="17px" height="23px" viewBox="0 0 17 23">
<path fillRule="evenodd" d="M 8.5 22.28C 4 22.28 0.33 18.68 0.33 14.26 0.33 11.6 1.68 9.11 3.93 7.62 4.39 7.31 5.01 7.43 5.32 7.88 5.63 8.33 5.51 8.94 5.05 9.24 3.35 10.37 2.33 12.25 2.33 14.26 2.33 17.6 5.1 20.32 8.5 20.32 11.9 20.32 14.67 17.6 14.67 14.26 14.67 12.24 13.65 10.36 11.94 9.23 11.48 8.93 11.36 8.32 11.67 7.87 11.97 7.42 12.59 7.3 13.05 7.61 15.32 9.1 16.67 11.59 16.67 14.26 16.67 18.68 13 22.28 8.5 22.28ZM 10.79 5.33C 10.79 5.33 9.5 4.06 9.5 4.06 9.5 4.06 9.5 15.42 9.5 15.42 9.5 15.96 9.05 16.4 8.5 16.4 7.95 16.4 7.5 15.96 7.5 15.42 7.5 15.42 7.5 4.06 7.5 4.06 7.5 4.06 6.21 5.33 6.21 5.33 5.82 5.71 5.19 5.71 4.8 5.33 4.6 5.14 4.51 4.89 4.51 4.64 4.51 4.39 4.6 4.14 4.8 3.95 4.8 3.95 7.79 1.01 7.79 1.01 7.82 0.98 7.84 0.96 7.87 0.94 7.87 0.94 7.88 0.93 7.89 0.93 7.9 0.91 7.92 0.9 7.94 0.88 7.95 0.88 7.96 0.88 7.96 0.87 7.98 0.86 8.01 0.85 8.03 0.83 8.03 0.83 8.04 0.83 8.04 0.83 8.07 0.82 8.09 0.8 8.12 0.79 8.12 0.79 8.12 0.79 8.13 0.79 8.15 0.78 8.18 0.77 8.21 0.76 8.21 0.76 8.22 0.76 8.22 0.76 8.25 0.75 8.27 0.74 8.3 0.74 8.31 0.74 8.32 0.74 8.33 0.73 8.35 0.73 8.38 0.73 8.4 0.72 8.43 0.72 8.47 0.72 8.5 0.72 8.53 0.72 8.57 0.72 8.6 0.72 8.62 0.73 8.65 0.73 8.67 0.73 8.68 0.74 8.69 0.74 8.7 0.74 8.72 0.74 8.75 0.75 8.78 0.76 8.78 0.76 8.79 0.76 8.79 0.76 8.82 0.77 8.85 0.78 8.87 0.79 8.88 0.79 8.88 0.79 8.88 0.79 8.91 0.8 8.93 0.82 8.96 0.83 8.96 0.83 8.97 0.83 8.97 0.83 8.99 0.85 9.02 0.86 9.04 0.87 9.04 0.88 9.05 0.88 9.06 0.88 9.08 0.9 9.1 0.91 9.11 0.93 9.12 0.93 9.13 0.94 9.13 0.94 9.16 0.96 9.18 0.98 9.21 1.01 9.21 1.01 12.2 3.95 12.2 3.95 12.59 4.33 12.59 4.95 12.2 5.33 11.81 5.71 11.18 5.71 10.79 5.33Z" fill="rgb(143,161,175)"/></svg>