<?xml version="1.0" encoding="utf-8"?>
<svg xmlns="http://www.w3.org/2000/svg"
	xmlns:xlink="http://www.w3.org/1999/xlink"
	width="40px" height="40px" viewBox="0 0 40 40">
<circle cx="20.00" cy="20.00" r="20.00" fill="rgb(217,247,255)"/><g><path fillRule="evenodd" d="M 28.17 29.71C 28.17 29.71 12.83 29.71 12.83 29.71 11.98 29.71 11.29 29.02 11.29 28.17 11.29 28.17 11.29 14.55 11.29 14.55 11.29 13.71 11.98 13.02 12.83 13.02 12.83 13.02 15.32 13.02 15.32 13.02 15.32 13.02 15.32 11.87 15.32 11.87 15.32 11.55 15.58 11.29 15.9 11.29 16.21 11.29 16.47 11.55 16.47 11.87 16.47 11.87 16.47 13.02 16.47 13.02 16.47 13.02 19.92 13.02 19.92 13.02 19.92 13.02 19.92 11.87 19.92 11.87 19.92 11.55 20.18 11.29 20.5 11.29 20.82 11.29 21.07 11.55 21.07 11.87 21.07 11.87 21.07 13.02 21.07 13.02 21.07 13.02 24.53 13.02 24.53 13.02 24.53 13.02 24.53 11.87 24.53 11.87 24.53 11.55 24.78 11.29 25.1 11.29 25.42 11.29 25.68 11.55 25.68 11.87 25.68 11.87 25.68 13.02 25.68 13.02 25.68 13.02 28.17 13.02 28.17 13.02 29.02 13.02 29.71 13.71 29.71 14.55 29.71 14.55 29.71 28.17 29.71 28.17 29.71 29.02 29.02 29.71 28.17 29.71ZM 28.55 14.55C 28.55 14.34 28.38 14.17 28.17 14.17 28.17 14.17 25.68 14.17 25.68 14.17 25.68 14.17 25.68 15.32 25.68 15.32 25.68 15.64 25.42 15.9 25.1 15.9 24.78 15.9 24.53 15.64 24.53 15.32 24.53 15.32 24.53 14.17 24.53 14.17 24.53 14.17 21.07 14.17 21.07 14.17 21.07 14.17 21.07 15.32 21.07 15.32 21.07 15.64 20.82 15.9 20.5 15.9 20.18 15.9 19.92 15.64 19.92 15.32 19.92 15.32 19.92 14.17 19.92 14.17 19.92 14.17 16.47 14.17 16.47 14.17 16.47 14.17 16.47 15.32 16.47 15.32 16.47 15.64 16.21 15.9 15.9 15.9 15.58 15.9 15.32 15.64 15.32 15.32 15.32 15.32 15.32 14.17 15.32 14.17 15.32 14.17 12.83 14.17 12.83 14.17 12.62 14.17 12.44 14.34 12.44 14.55 12.44 14.55 12.44 28.17 12.44 28.17 12.44 28.38 12.62 28.55 12.83 28.55 12.83 28.55 28.17 28.55 28.17 28.55 28.38 28.55 28.55 28.38 28.55 28.17 28.55 28.17 28.55 14.55 28.55 14.55ZM 23.38 23.95C 23.38 23.95 25.68 23.95 25.68 23.95 25.68 23.95 25.68 25.68 25.68 25.68 25.68 25.68 23.38 25.68 23.38 25.68 23.38 25.68 23.38 23.95 23.38 23.95ZM 23.38 21.08C 23.38 21.08 25.68 21.08 25.68 21.08 25.68 21.08 25.68 22.8 25.68 22.8 25.68 22.8 23.38 22.8 23.38 22.8 23.38 22.8 23.38 21.08 23.38 21.08ZM 23.38 18.2C 23.38 18.2 25.68 18.2 25.68 18.2 25.68 18.2 25.68 19.92 25.68 19.92 25.68 19.92 23.38 19.92 23.38 19.92 23.38 19.92 23.38 18.2 23.38 18.2ZM 19.35 23.95C 19.35 23.95 21.65 23.95 21.65 23.95 21.65 23.95 21.65 25.68 21.65 25.68 21.65 25.68 19.35 25.68 19.35 25.68 19.35 25.68 19.35 23.95 19.35 23.95ZM 19.35 21.08C 19.35 21.08 21.65 21.08 21.65 21.08 21.65 21.08 21.65 22.8 21.65 22.8 21.65 22.8 19.35 22.8 19.35 22.8 19.35 22.8 19.35 21.08 19.35 21.08ZM 19.35 18.2C 19.35 18.2 21.65 18.2 21.65 18.2 21.65 18.2 21.65 19.92 21.65 19.92 21.65 19.92 19.35 19.92 19.35 19.92 19.35 19.92 19.35 18.2 19.35 18.2ZM 15.32 23.95C 15.32 23.95 17.62 23.95 17.62 23.95 17.62 23.95 17.62 25.68 17.62 25.68 17.62 25.68 15.32 25.68 15.32 25.68 15.32 25.68 15.32 23.95 15.32 23.95ZM 15.32 21.08C 15.32 21.08 17.62 21.08 17.62 21.08 17.62 21.08 17.62 22.8 17.62 22.8 17.62 22.8 15.32 22.8 15.32 22.8 15.32 22.8 15.32 21.08 15.32 21.08ZM 15.32 18.2C 15.32 18.2 17.62 18.2 17.62 18.2 17.62 18.2 17.62 19.92 17.62 19.92 17.62 19.92 15.32 19.92 15.32 19.92 15.32 19.92 15.32 18.2 15.32 18.2Z" fill="rgb(31,181,255)"/><path fillRule="evenodd" d="" fill="rgb(31,181,255)"/></g></svg>