<?xml version="1.0" encoding="utf-8"?>
<svg xmlns="http://www.w3.org/2000/svg"
	xmlns:xlink="http://www.w3.org/1999/xlink"
	width="48px" height="39px" viewBox="0 0 48 39">
<g><path fillRule="evenodd" d="M 46.21 38C 46.21 38 1.79 38 1.79 38 1.36 38 1 37.64 1 37.2 1 37.2 1 1.8 1 1.8 1 1.36 1.36 1 1.79 1 1.79 1 46.21 1 46.21 1 46.64 1 47 1.36 47 1.8 47 1.8 47 37.2 47 37.2 47 37.64 46.64 38 46.21 38ZM 45.41 2.61C 45.41 2.61 2.59 2.61 2.59 2.61 2.59 2.61 2.59 36.39 2.59 36.39 2.59 36.39 45.41 36.39 45.41 36.39 45.41 36.39 45.41 2.61 45.41 2.61ZM 19.52 19.71C 19.84 19.43 20.31 19.45 20.61 19.75 20.61 19.75 24.37 23.56 24.37 23.56 24.37 23.56 32.14 14.94 32.14 14.94 32.28 14.78 32.48 14.68 32.69 14.67 32.9 14.67 33.1 14.74 33.26 14.89 33.26 14.89 42.78 23.73 42.78 23.73 43.1 24.03 43.12 24.54 42.83 24.87 42.53 25.2 42.03 25.22 41.71 24.92 41.71 24.92 32.77 16.62 32.77 16.62 32.77 16.62 25.49 24.7 25.49 24.7 25.49 24.7 29.3 28.57 29.3 28.57 29.62 28.88 29.62 29.39 29.3 29.71 28.99 30.02 28.49 30.02 28.18 29.71 28.18 29.71 20.01 21.42 20.01 21.42 20.01 21.42 7.08 32.97 7.08 32.97 6.92 33.11 6.74 33.17 6.55 33.17 6.33 33.17 6.11 33.08 5.96 32.9 5.67 32.57 5.7 32.06 6.03 31.77 6.03 31.77 19.52 19.71 19.52 19.71ZM 13.69 18.81C 11.25 18.81 9.27 16.8 9.27 14.33 9.27 11.86 11.25 9.85 13.69 9.85 16.13 9.85 18.11 11.86 18.11 14.33 18.11 16.8 16.13 18.81 13.69 18.81ZM 13.69 11.46C 12.13 11.46 10.86 12.75 10.86 14.33 10.86 15.91 12.13 17.2 13.69 17.2 15.25 17.2 16.52 15.91 16.52 14.33 16.52 12.75 15.25 11.46 13.69 11.46Z" fill="rgb(246,166,119)"/><path fillRule="evenodd" d="M 1.79 38C 1.79 38 1.79 37.75 1.79 37.75 1.5 37.75 1.25 37.5 1.25 37.2 1.25 37.2 1.25 1.8 1.25 1.8 1.25 1.5 1.5 1.25 1.79 1.25 1.79 1.25 46.21 1.25 46.21 1.25 46.5 1.25 46.75 1.5 46.75 1.8 46.75 1.8 46.75 37.2 46.75 37.2 46.75 37.5 46.5 37.75 46.21 37.75 46.21 37.75 1.79 37.75 1.79 37.75 1.79 37.75 1.79 38 1.79 38 1.79 38 1.79 38.25 1.79 38.25 1.79 38.25 46.21 38.25 46.21 38.25 46.79 38.25 47.25 37.78 47.25 37.2 47.25 37.2 47.25 1.8 47.25 1.8 47.25 1.22 46.78 0.75 46.21 0.75 46.21 0.75 1.79 0.75 1.79 0.75 1.22 0.75 0.75 1.22 0.75 1.8 0.75 1.8 0.75 37.2 0.75 37.2 0.75 37.78 1.21 38.25 1.79 38.25 1.79 38.25 1.79 38 1.79 38 1.79 38 1.79 38 1.79 38ZM 2.59 36.39C 2.59 36.39 2.59 36.64 2.59 36.64 2.59 36.64 45.66 36.64 45.66 36.64 45.66 36.64 45.66 2.36 45.66 2.36 45.66 2.36 2.34 2.36 2.34 2.36 2.34 2.36 2.34 36.64 2.34 36.64 2.34 36.64 2.59 36.64 2.59 36.64 2.59 36.64 2.59 36.39 2.59 36.39 2.59 36.39 2.84 36.39 2.84 36.39 2.84 36.39 2.84 2.86 2.84 2.86 2.84 2.86 45.16 2.86 45.16 2.86 45.16 2.86 45.16 36.14 45.16 36.14 45.16 36.14 2.59 36.14 2.59 36.14 2.59 36.14 2.59 36.39 2.59 36.39 2.59 36.39 2.84 36.39 2.84 36.39 2.84 36.39 2.59 36.39 2.59 36.39 2.59 36.39 2.59 36.39 2.59 36.39ZM 5.96 32.9C 5.96 32.9 6.14 32.74 6.14 32.74 6.05 32.63 6.01 32.5 6.01 32.37 6.01 32.21 6.07 32.06 6.19 31.95 6.19 31.95 19.69 19.9 19.69 19.9 19.79 19.81 19.92 19.76 20.05 19.76 20.19 19.76 20.32 19.82 20.43 19.92 20.43 19.92 24.38 23.93 24.38 23.93 24.38 23.93 32.32 15.1 32.32 15.1 32.42 15 32.56 14.93 32.7 14.92 32.7 14.92 32.71 14.92 32.71 14.92 32.85 14.92 32.99 14.98 33.09 15.07 33.09 15.07 42.61 23.92 42.61 23.92 42.72 24.03 42.78 24.17 42.78 24.33 42.78 24.46 42.74 24.6 42.64 24.7 42.53 24.82 42.39 24.88 42.24 24.88 42.11 24.88 41.98 24.83 41.88 24.74 41.88 24.74 32.76 16.26 32.76 16.26 32.76 16.26 25.15 24.71 25.15 24.71 25.15 24.71 29.13 28.75 29.13 28.75 29.23 28.85 29.29 28.99 29.29 29.14 29.29 29.28 29.23 29.42 29.13 29.53 29.02 29.64 28.88 29.69 28.74 29.69 28.61 29.69 28.47 29.64 28.36 29.53 28.36 29.53 20.02 21.08 20.02 21.08 20.02 21.08 6.91 32.79 6.91 32.79 6.81 32.88 6.68 32.92 6.55 32.92 6.4 32.92 6.25 32.86 6.15 32.74 6.15 32.74 5.96 32.9 5.96 32.9 5.96 32.9 5.77 33.06 5.77 33.06 5.97 33.3 6.26 33.42 6.55 33.42 6.8 33.42 7.04 33.34 7.24 33.16 7.24 33.16 20 21.77 20 21.77 20 21.77 28.01 29.88 28.01 29.88 28.21 30.09 28.48 30.19 28.74 30.19 29.01 30.19 29.28 30.09 29.48 29.88 29.69 29.68 29.79 29.41 29.79 29.14 29.79 28.87 29.69 28.6 29.48 28.39 29.48 28.39 25.84 24.7 25.84 24.7 25.84 24.7 32.79 16.97 32.79 16.97 32.79 16.97 41.54 25.1 41.54 25.1 41.73 25.29 41.99 25.38 42.24 25.38 42.52 25.38 42.81 25.26 43.01 25.04 43.19 24.84 43.28 24.58 43.28 24.33 43.28 24.04 43.17 23.76 42.95 23.55 42.95 23.55 33.43 14.7 33.43 14.7 33.23 14.52 32.97 14.42 32.71 14.42 32.71 14.42 32.68 14.42 32.68 14.42 32.4 14.44 32.14 14.56 31.95 14.77 31.95 14.77 24.36 23.2 24.36 23.2 24.36 23.2 20.79 19.57 20.79 19.57 20.58 19.37 20.32 19.26 20.05 19.26 19.8 19.26 19.55 19.35 19.36 19.53 19.36 19.53 5.86 31.58 5.86 31.58 5.63 31.79 5.51 32.08 5.51 32.37 5.51 32.62 5.59 32.87 5.77 33.06 5.77 33.06 5.96 32.9 5.96 32.9 5.96 32.9 5.96 32.9 5.96 32.9ZM 9.27 14.33C 9.27 14.33 9.52 14.33 9.52 14.33 9.53 11.99 11.4 10.1 13.69 10.1 15.98 10.1 17.85 11.99 17.86 14.33 17.85 16.66 15.98 18.55 13.69 18.56 11.4 18.55 9.53 16.66 9.52 14.33 9.52 14.33 9.27 14.33 9.27 14.33 9.27 14.33 9.02 14.33 9.02 14.33 9.02 16.93 11.11 19.06 13.69 19.06 16.27 19.06 18.36 16.93 18.36 14.33 18.36 11.72 16.27 9.6 13.69 9.6 11.11 9.6 9.02 11.72 9.02 14.33 9.02 14.33 9.27 14.33 9.27 14.33 9.27 14.33 9.27 14.33 9.27 14.33ZM 10.86 14.33C 10.86 14.33 10.61 14.33 10.61 14.33 10.61 16.05 11.99 17.45 13.69 17.45 15.39 17.45 16.77 16.05 16.77 14.33 16.77 12.61 15.39 11.21 13.69 11.21 11.99 11.21 10.61 12.61 10.61 14.33 10.61 14.33 10.86 14.33 10.86 14.33 10.86 14.33 11.11 14.33 11.11 14.33 11.11 12.88 12.27 11.71 13.69 11.71 15.11 11.71 16.27 12.88 16.27 14.33 16.27 15.77 15.11 16.94 13.69 16.95 12.27 16.94 11.11 15.77 11.11 14.33 11.11 14.33 10.86 14.33 10.86 14.33 10.86 14.33 10.86 14.33 10.86 14.33Z" fill="rgb(247,165,119)"/></g></svg>