<?xml version="1.0" encoding="utf-8"?>
<svg xmlns="http://www.w3.org/2000/svg"
	xmlns:xlink="http://www.w3.org/1999/xlink"
	width="40px" height="40px" viewBox="0 0 40 40">
<circle cx="20.00" cy="20.00" r="20.00" fill="rgb(233,225,253)"/><g><path fillRule="evenodd" d="M 31.98 25.66C 31.98 25.66 25.71 25.66 25.71 25.66 25.71 25.66 25.71 26.79 25.71 26.79 25.71 27.01 25.54 27.2 25.32 27.2 25.32 27.2 15.68 27.2 15.68 27.2 15.46 27.2 15.29 27.01 15.29 26.79 15.29 26.79 15.29 25.66 15.29 25.66 15.29 25.66 9.02 25.66 9.02 25.66 8.8 25.66 8.62 25.47 8.62 25.25 8.62 25.25 8.62 23.09 8.62 23.09 8.63 20.99 10.27 19.28 12.3 19.28 12.3 19.28 15.36 19.28 15.36 19.28 15.99 19.27 16.61 19.44 17.16 19.77 17.63 20.04 18.03 20.42 18.34 20.87 18.55 20.84 18.76 20.82 18.98 20.82 18.98 20.82 22.03 20.82 22.03 20.82 22.25 20.82 22.46 20.84 22.67 20.87 22.98 20.42 23.38 20.04 23.85 19.77 24.4 19.44 25.02 19.27 25.65 19.28 25.65 19.28 28.71 19.28 28.71 19.28 30.74 19.29 32.37 20.99 32.38 23.09 32.38 23.09 32.38 25.25 32.38 25.25 32.38 25.47 32.2 25.66 31.98 25.66ZM 16.77 20.48C 16.34 20.23 15.85 20.1 15.36 20.1 15.36 20.1 12.3 20.1 12.3 20.1 10.71 20.1 9.42 21.44 9.41 23.09 9.41 23.09 9.41 24.84 9.41 24.84 9.41 24.84 15.33 24.84 15.33 24.84 15.33 24.84 15.33 24.64 15.33 24.64 15.33 24.64 15.33 24.47 15.33 24.47 15.33 24.43 15.33 24.4 15.33 24.36 15.33 24.36 15.33 24.27 15.33 24.27 15.46 22.88 16.3 21.68 17.53 21.13 17.32 20.87 17.06 20.65 16.77 20.48ZM 22.03 21.64C 22.03 21.64 18.98 21.64 18.98 21.64 18.98 21.64 18.9 21.69 18.9 21.69 17.65 21.69 16.54 22.53 16.15 23.76 16.15 23.76 16.13 23.83 16.13 23.83 16.13 23.83 16.1 23.93 16.1 23.93 16.1 23.93 16.09 23.99 16.09 23.99 16.09 23.99 16.09 24.06 16.09 24.06 16.09 24.06 16.09 24.09 16.09 24.09 16.09 24.09 16.09 24.12 16.09 24.12 16.09 24.12 16.09 24.21 16.09 24.21 16.09 24.24 16.09 24.26 16.09 24.29 16.09 24.29 16.09 24.37 16.09 24.37 16.09 24.41 16.09 24.46 16.09 24.51 16.09 24.54 16.09 24.57 16.09 24.61 16.09 24.61 16.09 26.38 16.09 26.38 16.09 26.38 24.92 26.38 24.92 26.38 24.92 26.38 24.92 24.64 24.92 24.64 24.92 24.57 24.92 24.51 24.92 24.44 24.9 24.38 24.9 24.32 24.9 24.26 24.71 22.76 23.49 21.65 22.03 21.64ZM 31.6 23.09C 31.59 21.44 30.3 20.1 28.71 20.1 28.71 20.1 25.65 20.1 25.65 20.1 25.16 20.1 24.67 20.23 24.24 20.48 24.01 20.67 23.81 20.9 23.65 21.15 24.57 21.56 25.3 22.35 25.65 23.33 25.65 23.33 25.69 23.44 25.69 23.44 25.69 23.44 25.69 23.48 25.69 23.48 25.69 23.48 25.69 23.51 25.69 23.51 25.69 23.51 25.69 23.53 25.69 23.53 25.69 23.53 25.69 23.55 25.69 23.55 25.69 23.55 25.69 23.58 25.69 23.58 25.69 23.58 25.71 23.65 25.71 23.65 25.71 23.65 25.71 23.69 25.71 23.69 25.71 23.69 25.71 23.72 25.71 23.72 25.71 23.72 25.71 23.75 25.71 23.75 25.71 23.75 25.71 23.81 25.71 23.81 25.71 23.81 25.71 23.84 25.71 23.84 25.71 23.84 25.71 23.86 25.71 23.86 25.71 23.86 25.71 23.89 25.71 23.89 25.71 23.89 25.71 23.91 25.71 23.91 25.71 23.91 25.71 23.95 25.71 23.95 25.71 23.95 25.71 23.99 25.71 23.99 25.71 23.99 25.71 24.01 25.71 24.01 25.71 24.01 25.71 24.04 25.71 24.04 25.71 24.04 25.71 24.07 25.71 24.07 25.71 24.07 25.71 24.09 25.71 24.09 25.71 24.09 25.71 24.17 25.71 24.17 25.71 24.17 25.71 24.22 25.71 24.22 25.71 24.22 25.71 24.26 25.71 24.26 25.71 24.31 25.71 24.36 25.71 24.4 25.71 24.43 25.71 24.47 25.71 24.5 25.71 24.53 25.71 24.56 25.71 24.59 25.71 24.59 25.71 24.84 25.71 24.84 25.71 24.84 31.6 24.84 31.6 24.84 31.6 24.84 31.6 23.09 31.6 23.09ZM 27.18 18.58C 26.44 18.58 25.73 18.27 25.21 17.73 24.69 17.19 24.4 16.45 24.4 15.69 24.4 14.09 25.65 12.8 27.19 12.8 28.72 12.8 29.97 14.1 29.97 15.69 29.96 17.29 28.72 18.58 27.18 18.58ZM 28.59 14.23C 27.81 13.42 26.55 13.42 25.77 14.23 25.4 14.62 25.19 15.14 25.19 15.69 25.19 16.24 25.4 16.76 25.77 17.15 26.55 17.96 27.81 17.96 28.59 17.15 29.37 16.34 29.37 15.03 28.59 14.23ZM 18.54 19.27C 17.46 18.15 17.45 16.32 18.54 15.19 19.06 14.65 19.77 14.34 20.51 14.34 21.24 14.34 21.95 14.65 22.47 15.19 23.56 16.31 23.56 18.14 22.48 19.27 21.39 20.4 19.63 20.4 18.54 19.27ZM 21.91 15.77C 21.54 15.38 21.03 15.17 20.51 15.17 19.41 15.17 18.51 16.09 18.51 17.23 18.51 18.38 19.4 19.3 20.5 19.3 21.61 19.3 22.5 18.38 22.5 17.24 22.5 16.69 22.29 16.16 21.91 15.77ZM 13.82 18.58C 12.29 18.58 11.04 17.29 11.04 15.69 11.04 14.1 12.29 12.8 13.83 12.8 14.57 12.8 15.27 13.11 15.8 13.65 16.32 14.2 16.61 14.93 16.61 15.7 16.61 17.29 15.36 18.58 13.82 18.58ZM 15.24 14.23C 14.46 13.42 13.2 13.42 12.42 14.23 11.64 15.04 11.64 16.35 12.42 17.15 13.2 17.96 14.46 17.96 15.24 17.15 15.61 16.77 15.82 16.24 15.82 15.69 15.82 15.14 15.61 14.62 15.24 14.23Z" fill="rgb(143,121,251)"/><path fillRule="evenodd" d="" fill="rgb(143,121,251)"/></g></svg>