<svg id="Layer_1" data-name="Layer 1" xmlns="http://www.w3.org/2000/svg" viewBox="0 0 64 64"><defs><style>.cls-1,.cls-3{fill:none;}.cls-1{stroke:#5380c1;stroke-linecap:round;stroke-linejoin:round;stroke-width:2px;}.cls-2{fill:#5380c1;}</style></defs><title>Review_redirect</title><rect class="cls-1" x="30" y="27" width="29" height="23" rx="2"/><line class="cls-1" x1="30" y1="33" x2="59" y2="33"/><path class="cls-2" d="M49,29a1,1,0,1,0,1,1,1,1,0,0,0-1-1Z"/><path class="cls-2" d="M52,29a1,1,0,1,0,1,1,1,1,0,0,0-1-1Z"/><path class="cls-2" d="M55,29a1,1,0,1,0,1,1,1,1,0,0,0-1-1Z"/><path class="cls-1" d="M34,16V27H32a2,2,0,0,0-2,2v8H7a2,2,0,0,1-2-2V16a2,2,0,0,1,2-2H32A2,2,0,0,1,34,16Z"/><line class="cls-1" x1="6" y1="20" x2="33" y2="20"/><path class="cls-2" d="M24,16a1,1,0,1,0,1,1,1,1,0,0,0-1-1Z"/><path class="cls-2" d="M27,16a1,1,0,1,0,1,1,1,1,0,0,0-1-1Z"/><path class="cls-2" d="M30,16a1,1,0,1,0,1,1,1,1,0,0,0-1-1Z"/><line class="cls-1" x1="43" y1="37" x2="55" y2="37"/><line class="cls-1" x1="8" y1="24" x2="20" y2="24"/><line class="cls-1" x1="8" y1="27" x2="19" y2="27"/><path class="cls-1" d="M23,43l3,3H19a4,4,0,0,1-4-4V40"/><line class="cls-1" x1="23" y1="49" x2="26" y2="46"/><rect class="cls-1" x="45" y="41" width="10" height="5"/><rect class="cls-3" width="64" height="64"/></svg>