<svg id="Layer_1" data-name="Layer 1" xmlns="http://www.w3.org/2000/svg" viewBox="0 0 64 64"><defs><style>.cls-1,.cls-2{fill:none;}.cls-1{stroke:#41b649;stroke-linecap:round;stroke-linejoin:round;stroke-width:2px;}</style></defs><title>Shift Clock App</title><path class="cls-1" d="M53,47.64a24.26,24.26,0,0,1-7.34,8.1"/><path class="cls-1" d="M55.54,40.68A22.79,22.79,0,0,1,55,43.05"/><path class="cls-1" d="M48,36A16,16,0,1,1,30.45,20.07C31,20,31.47,20,32,20s1.11,0,1.65.08A16,16,0,0,1,48,36Z"/><path class="cls-1" d="M52,36A20,20,0,1,1,30.06,16.09C30.7,16,31.34,16,32,16s1.39,0,2.06.1A20,20,0,0,1,52,36Z"/><polyline class="cls-1" points="32 12 26 12 26 8 38 8 38 12 32 12"/><line class="cls-1" x1="34" y1="12" x2="34" y2="16"/><line class="cls-1" x1="30" y1="12" x2="30" y2="16"/><polygon class="cls-1" points="42.19 33.09 39.36 30.26 31.59 38.04 26.64 33.09 23.81 35.91 31.59 43.69 42.19 33.09"/><line class="cls-1" x1="48" y1="36" x2="45" y2="36"/><line class="cls-1" x1="16" y1="36" x2="19" y2="36"/><line class="cls-1" x1="32" y1="20" x2="32" y2="23"/><line class="cls-1" x1="32" y1="52" x2="32" y2="49"/><rect class="cls-2" width="64" height="64"/></svg>