<svg id="Layer_1" data-name="Layer 1" xmlns="http://www.w3.org/2000/svg" viewBox="0 0 64 64"><defs><style>.cls-1,.cls-2{fill:none;}.cls-1{stroke:#ef5182;stroke-linecap:round;stroke-linejoin:round;stroke-width:2px;}</style></defs><title>Gift_card</title><path class="cls-1" d="M19,15V25.28A1.88,1.88,0,0,0,18,25H16a1.88,1.88,0,0,0-1,.28V15Z"/><polygon class="cls-1" points="19 39.85 19 49 15 49 15 39.85 15.25 40.19 16.75 31 17.25 31 18.75 40.19 19 39.85"/><rect class="cls-1" x="3" y="26" width="3" height="4"/><rect class="cls-1" x="28" y="26" width="33" height="4"/><path class="cls-1" d="M15,15V25.28a1.91,1.91,0,0,0-.72.72,1.49,1.49,0,0,0-.17.36L14,26.29,13.59,26l-3.8-2.64A2.62,2.62,0,0,0,6,25.7V26H3V19a4,4,0,0,1,4-4Z"/><path class="cls-1" d="M15,39.85V49H7a4,4,0,0,1-4-4V30H6v.32a2.62,2.62,0,0,0,3.79,2.35L13.62,30l.23-.16-.06.16-3.37,8.9,2.94-1.28Z"/><path class="cls-1" d="M61,19v7H28v-.3a2.62,2.62,0,0,0-3.79-2.34L20.41,26l-.41.29-.11.07a1.49,1.49,0,0,0-.17-.36,1.91,1.91,0,0,0-.72-.72V15H57A4,4,0,0,1,61,19Z"/><path class="cls-1" d="M61,30V45a4,4,0,0,1-4,4H19V39.85l1.64-2.23,2.94,1.28L20.21,30l-.06-.16.23.16,3.83,2.67A2.62,2.62,0,0,0,28,30.32V30Z"/><line class="cls-1" x1="39" y1="44" x2="55" y2="44"/><line class="cls-1" x1="30" y1="44" x2="35" y2="44"/><path class="cls-1" d="M14.08,29.53a.61.61,0,0,0,0,.13l-.11.08-.15.1-.23.16L9.79,32.67A2.62,2.62,0,0,1,6,30.32V25.7a2.62,2.62,0,0,1,3.79-2.34L13.59,26l.41.29.11.07A2,2,0,0,0,14,27v2A1.89,1.89,0,0,0,14.08,29.53Z"/><path class="cls-1" d="M28,25.7v4.62a2.62,2.62,0,0,1-3.79,2.35L20.38,30l-.23-.16-.15-.1-.11-.08a.61.61,0,0,0,0-.13A1.89,1.89,0,0,0,20,29V27a2,2,0,0,0-.11-.64l.11-.07.41-.29,3.8-2.64A2.62,2.62,0,0,1,28,25.7Z"/><path class="cls-1" d="M16.75,31l-1.5,9.19L15,39.85l-1.64-2.23L10.42,38.9,13.79,30l.06-.16.15-.1.11-.08a1.54,1.54,0,0,0,.17.34,1.85,1.85,0,0,0,.72.72A1.91,1.91,0,0,0,16,31Z"/><path class="cls-1" d="M20,27v2a1.89,1.89,0,0,1-.08.53.61.61,0,0,1,0,.13,1.54,1.54,0,0,1-.17.34,1.85,1.85,0,0,1-.72.72A1.91,1.91,0,0,1,18,31H16a1.91,1.91,0,0,1-1-.28,1.85,1.85,0,0,1-.72-.72,1.54,1.54,0,0,1-.17-.34.61.61,0,0,1,0-.13A1.89,1.89,0,0,1,14,29V27a2,2,0,0,1,.11-.64,1.49,1.49,0,0,1,.17-.36,1.91,1.91,0,0,1,.72-.72A1.88,1.88,0,0,1,16,25h2a1.88,1.88,0,0,1,1,.28,1.91,1.91,0,0,1,.72.72,1.49,1.49,0,0,1,.17.36A2,2,0,0,1,20,27Z"/><path class="cls-1" d="M23.58,38.9l-2.94-1.28L19,39.85l-.25.34L17.25,31H18a1.91,1.91,0,0,0,1-.28,1.85,1.85,0,0,0,.72-.72,1.54,1.54,0,0,0,.17-.34l.11.08.15.1.06.16Z"/><rect class="cls-1" x="49" y="19" width="6" height="3"/><rect class="cls-2" width="64" height="64"/></svg>