<svg id="Layer_1" data-name="Layer 1" xmlns="http://www.w3.org/2000/svg" viewBox="0 0 64 64"><defs><style>.cls-1,.cls-2{fill:none;}.cls-1{stroke:#f89836;stroke-linecap:round;stroke-linejoin:round;stroke-width:2px;}</style></defs><title>Reward Campaign</title><circle class="cls-1" cx="32" cy="21" r="12"/><circle class="cls-1" cx="32" cy="21" r="12"/><polygon class="cls-1" points="32 12.74 34.36 17.52 39.64 18.29 35.82 22.01 36.72 27.26 32 24.78 27.28 27.26 28.18 22.01 24.36 18.29 29.64 17.52 32 12.74"/><path class="cls-1" d="M49.19,57.26l-6.12-3.53-3.53,6.12-6-22.54c.8-.66,1.55-1.59,2.38-1.82,1.37-.36,3.43.93,4.62.23,1-.58,1.12-2.35,1.69-3.5l.27-.07Z"/><line class="cls-1" x1="40.34" y1="35.82" x2="42.67" y2="44.52"/><line class="cls-1" x1="43.45" y1="47.41" x2="43.97" y2="49.35"/><path class="cls-1" d="M46.49,24.88C46.85,23.56,49,22.43,49,21s-2.15-2.56-2.51-3.88.93-3.43.23-4.62-3.13-1.12-4.11-2.11S41.72,7,40.5,6.28s-3.25.59-4.62.23S33.43,4,32,4s-2.56,2.15-3.88,2.51-3.43-.93-4.62-.23-1.12,3.13-2.11,4.11-3.41.89-4.11,2.11.59,3.25.23,4.62S15,19.57,15,21s2.15,2.56,2.51,3.88-.93,3.43-.23,4.62,3.13,1.12,4.11,2.11a2.27,2.27,0,0,1,.42.61c.57,1.15.68,2.92,1.69,3.5,1.19.7,3.25-.59,4.62-.23.83.23,1.58,1.16,2.38,1.82A2.44,2.44,0,0,0,32,38a2.44,2.44,0,0,0,1.5-.69c.8-.66,1.55-1.59,2.38-1.82,1.37-.36,3.43.93,4.62.23,1-.58,1.12-2.35,1.69-3.5a2.27,2.27,0,0,1,.42-.61c1-1,3.41-.89,4.11-2.11S46.13,26.25,46.49,24.88ZM32,33A12,12,0,1,1,44,21,12,12,0,0,1,32,33Z"/><path class="cls-1" d="M30.5,37.31l-6,22.54-3.53-6.12-6.12,3.53,6.73-25.11.27.07c.57,1.15.68,2.92,1.69,3.5,1.19.7,3.25-.59,4.62-.23C29,35.72,29.7,36.65,30.5,37.31Z"/><line class="cls-1" x1="27.52" y1="36.86" x2="25.19" y2="45.55"/><line class="cls-1" x1="24.41" y1="48.45" x2="23.9" y2="50.38"/><rect class="cls-2" width="64" height="64"/></svg>