<?xml version="1.0" encoding="utf-8"?>
<svg xmlns="http://www.w3.org/2000/svg"
     xmlns:xlink="http://www.w3.org/1999/xlink"
     width="34px" height="29px" viewBox="0 0 34 29">
    <style type="text/css"><![CDATA[
.style0 {
  font-size: 10px;
  font-family: "Poppins-SemiBold";
  fill: rgb(255,255,255);
}
]]></style>
    <path fillRule="evenodd"
          d="M 22.4 28.1C 22.01 28.49 21.53 28.69 20.98 28.69 20.98 28.69 2.42 28.69 2.42 28.69 1.86 28.69 1.39 28.49 0.99 28.1 0.6 27.71 0.4 27.24 0.4 26.69 0.4 26.69 0.4 16.74 0.4 16.74 0.77 17.15 1.19 17.51 1.67 17.83 4.72 19.88 6.81 21.32 7.94 22.15 8.42 22.5 8.81 22.77 9.11 22.97 9.4 23.17 9.8 23.37 10.3 23.57 10.79 23.78 11.26 23.88 11.68 23.88 11.68 23.88 11.7 23.88 11.7 23.88 11.7 23.88 11.71 23.88 11.71 23.88 12.14 23.88 12.6 23.78 13.1 23.57 13.59 23.37 13.99 23.17 14.29 22.97 14.59 22.77 14.98 22.5 15.46 22.15 16.88 21.12 18.98 19.68 21.73 17.83 22.21 17.5 22.63 17.14 23 16.74 23 16.74 23 26.69 23 26.69 23 27.24 22.8 27.71 22.4 28.1ZM 20.84 16.49C 17.68 18.67 15.71 20.02 14.94 20.56 14.85 20.62 14.68 20.74 14.4 20.94 14.13 21.14 13.9 21.3 13.72 21.42 13.54 21.54 13.32 21.67 13.07 21.82 12.81 21.97 12.57 22.09 12.34 22.16 12.11 22.24 11.9 22.27 11.71 22.27 11.71 22.27 11.7 22.27 11.7 22.27 11.7 22.27 11.68 22.27 11.68 22.27 11.49 22.27 11.28 22.24 11.05 22.16 10.83 22.09 10.59 21.97 10.33 21.82 10.07 21.67 9.85 21.54 9.67 21.42 9.49 21.3 9.27 21.14 8.99 20.94 8.72 20.74 8.54 20.62 8.46 20.56 7.69 20.02 6.59 19.26 5.15 18.27 3.72 17.28 2.85 16.69 2.57 16.49 2.05 16.13 1.56 15.65 1.09 15.04 0.63 14.42 0.4 13.85 0.4 13.33 0.4 12.68 0.57 12.13 0.92 11.7 1.27 11.26 1.77 11.05 2.42 11.05 2.42 11.05 20.98 11.05 20.98 11.05 21.52 11.05 22 11.24 22.4 11.64 22.8 12.03 23 12.5 23 13.05 23 13.71 22.79 14.34 22.38 14.94 21.97 15.55 21.45 16.06 20.84 16.49Z"
          fill="rgb(169,175,181)" opacity="0.70"/>
</svg>
