<?xml version="1.0" encoding="utf-8"?>
<svg xmlns="http://www.w3.org/2000/svg"
     xmlns:xlink="http://www.w3.org/1999/xlink"
     width="30px" height="32px" viewBox="0 0 30 32">
    <style type="text/css"><![CDATA[
.style0 {
  font-size: 10px;
  font-family: "Poppins-SemiBold";
  fill: rgb(255,255,255);
}
]]></style>
    <path fillRule="evenodd"
          d="M 18.64 23.08C 18.64 23.08 18.64 18.7 18.64 18.7 18.62 15.32 16.3 12.09 12.83 11.26 12.83 11.26 12.72 9.56 11.01 9.56 9.28 9.56 9.2 11.21 9.2 11.21 5.73 12.03 3.44 15.32 3.42 18.7 3.42 18.7 3.42 22.94 3.42 22.94 3.42 25.01 2.05 25.37 0.44 27.06 0.44 27.06 21.6 27.06 21.6 27.06 19.98 25.37 18.64 25.15 18.64 23.08ZM 11.01 31.28C 12.87 31.28 14.43 29.8 14.85 27.9 14.85 27.9 7.18 27.9 7.18 27.9 7.6 29.8 9.16 31.28 11.01 31.28Z"
          fill="rgb(168,175,180)" opacity="0.70"/>

</svg>
