<?xml version="1.0" encoding="utf-8"?>
<svg xmlns="http://www.w3.org/2000/svg"
	xmlns:xlink="http://www.w3.org/1999/xlink"
	width="20px" height="28px" viewBox="0 0 20 28">
<g><path fillRule="evenodd" d="M 17.73 14.81C 17.73 14.81 10.77 26.44 10.77 26.44 10.63 26.66 10.39 26.8 10.13 26.8 10.13 26.8 10.13 26.8 10.12 26.8 9.87 26.8 9.62 26.67 9.49 26.45 9.49 26.45 2.34 14.93 2.34 14.93 1.46 13.51 1 11.88 1 10.2 1 5.24 5.04 1.2 10 1.2 14.96 1.2 19 5.24 19 10.2 19 11.83 18.56 13.42 17.73 14.81ZM 10 2.69C 5.86 2.69 2.49 6.06 2.49 10.2 2.49 11.6 2.89 12.96 3.62 14.14 3.62 14.14 10.11 24.61 10.11 24.61 10.11 24.61 16.44 14.04 16.44 14.04 17.13 12.88 17.5 11.56 17.5 10.2 17.5 6.06 14.14 2.69 10 2.69ZM 10 14.7C 7.49 14.7 5.5 12.67 5.5 10.2 5.5 7.72 7.52 5.7 10 5.7 12.48 5.7 14.5 7.72 14.5 10.2 14.5 12.64 12.55 14.7 10 14.7ZM 10 7.19C 8.35 7.19 6.99 8.55 6.99 10.2 6.99 11.86 8.34 13.21 10 13.21 11.69 13.21 13 11.83 13 10.2 13 8.55 11.65 7.19 10 7.19Z" fill="rgb(31,181,255)"/><path fillRule="evenodd" d="M 10.12 26.8C 10.12 26.8 10.12 26.55 10.12 26.55 9.95 26.55 9.79 26.46 9.7 26.31 9.7 26.31 2.56 14.8 2.56 14.8 1.7 13.42 1.25 11.83 1.25 10.2 1.26 5.38 5.18 1.46 10 1.45 14.82 1.46 18.74 5.38 18.75 10.2 18.75 11.78 18.32 13.33 17.52 14.68 17.52 14.68 10.55 26.31 10.55 26.31 10.46 26.46 10.3 26.55 10.13 26.55 10.13 26.55 10.13 26.55 10.13 26.55 10.13 26.55 10.12 26.55 10.12 26.55 10.12 26.55 10.12 26.8 10.12 26.8 10.12 26.8 10.12 27.05 10.12 27.05 10.12 27.05 10.13 27.05 10.13 27.05 10.13 27.05 10.13 27.05 10.13 27.05 10.13 27.05 10.13 27.05 10.13 27.05 10.48 27.05 10.8 26.86 10.98 26.56 10.98 26.56 17.94 14.94 17.94 14.94 18.8 13.51 19.25 11.87 19.25 10.2 19.25 5.1 15.1 0.95 10 0.95 4.9 0.95 0.75 5.1 0.75 10.2 0.75 11.92 1.23 13.6 2.13 15.06 2.13 15.06 9.27 26.58 9.27 26.58 9.46 26.87 9.78 27.05 10.12 27.05 10.12 27.05 10.12 26.8 10.12 26.8 10.12 26.8 10.12 26.8 10.12 26.8ZM 2.49 10.2C 2.49 10.2 2.24 10.2 2.24 10.2 2.24 11.65 2.65 13.05 3.41 14.27 3.41 14.27 10.12 25.09 10.12 25.09 10.12 25.09 16.66 14.17 16.66 14.17 17.37 12.97 17.76 11.6 17.76 10.2 17.75 5.93 14.27 2.44 10 2.44 5.73 2.44 2.24 5.93 2.24 10.2 2.24 10.2 2.49 10.2 2.49 10.2 2.49 10.2 2.74 10.2 2.74 10.2 2.75 6.2 6 2.95 10 2.94 14 2.95 17.25 6.2 17.26 10.2 17.26 11.51 16.9 12.79 16.23 13.91 16.23 13.91 10.11 24.13 10.11 24.13 10.11 24.13 3.83 14.01 3.83 14.01 3.12 12.87 2.74 11.55 2.74 10.2 2.74 10.2 2.49 10.2 2.49 10.2 2.49 10.2 2.49 10.2 2.49 10.2ZM 5.5 10.2C 5.5 10.2 5.75 10.2 5.75 10.2 5.75 7.86 7.66 5.95 10 5.95 12.34 5.95 14.25 7.86 14.25 10.2 14.25 12.5 12.41 14.45 10 14.45 7.62 14.45 5.75 12.53 5.75 10.2 5.75 10.2 5.5 10.2 5.5 10.2 5.5 10.2 5.25 10.2 5.25 10.2 5.26 12.8 7.35 14.95 10 14.95 12.69 14.95 14.75 12.77 14.75 10.2 14.75 7.58 12.62 5.45 10 5.45 7.38 5.45 5.25 7.58 5.25 10.2 5.25 10.2 5.5 10.2 5.5 10.2 5.5 10.2 5.5 10.2 5.5 10.2ZM 6.99 10.2C 6.99 10.2 6.74 10.2 6.74 10.2 6.74 12 8.2 13.46 10 13.46 11.83 13.46 13.25 11.97 13.25 10.2 13.25 8.41 11.79 6.94 10 6.94 8.21 6.94 6.74 8.41 6.74 10.2 6.74 10.2 6.99 10.2 6.99 10.2 6.99 10.2 7.24 10.2 7.24 10.2 7.24 8.69 8.49 7.44 10 7.44 11.51 7.44 12.75 8.68 12.75 10.2 12.75 11.7 11.55 12.96 10 12.96 8.48 12.96 7.24 11.72 7.24 10.2 7.24 10.2 6.99 10.2 6.99 10.2 6.99 10.2 6.99 10.2 6.99 10.2Z" fill="rgb(31,181,255)"/></g></svg>