<?xml version="1.0" encoding="utf-8"?>
<svg xmlns="http://www.w3.org/2000/svg"
	xmlns:xlink="http://www.w3.org/1999/xlink"
	width="25px" height="27px" viewBox="0 0 25 27">
<path fillRule="evenodd" d="M 24.78 21.2C 24.78 21.2 23.43 21.2 23.43 21.2 23.43 21.2 23.43 17.95 23.43 17.95 23.43 17.95 21.81 16.33 21.81 16.33 21.81 16.33 21.81 12.25 21.81 12.25 21.81 8.03 18.96 4.35 14.93 3.27 14.93 3.27 14.93 2.83 14.93 2.83 14.93 1.49 13.84 0.4 12.5 0.4 11.16 0.4 10.07 1.49 10.07 2.83 10.07 2.83 10.07 3.27 10.07 3.27 6.04 4.35 3.18 8.03 3.18 12.25 3.18 12.25 3.18 16.33 3.18 16.33 3.18 16.33 1.56 17.95 1.56 17.95 1.56 17.95 1.56 21.2 1.56 21.2 1.56 21.2 0.21 21.2 0.21 21.2 0.21 21.2 0.21 22.82 0.21 22.82 0.21 22.82 7.98 22.82 7.98 22.82 8.37 24.96 10.25 26.59 12.5 26.59 14.75 26.59 16.63 24.96 17.02 22.82 17.02 22.82 24.78 22.82 24.78 22.82 24.78 22.82 24.78 21.2 24.78 21.2 24.78 21.2 24.78 21.2 24.78 21.2ZM 3.18 18.62C 3.18 18.62 4.8 17 4.8 17 4.8 17 4.8 12.25 4.8 12.25 4.8 8.58 7.42 5.4 11.03 4.71 11.03 4.71 11.69 4.58 11.69 4.58 11.69 4.58 11.69 2.83 11.69 2.83 11.69 2.39 12.05 2.02 12.5 2.02 12.95 2.02 13.31 2.39 13.31 2.83 13.31 2.83 13.31 4.58 13.31 4.58 13.31 4.58 13.97 4.71 13.97 4.71 17.58 5.4 20.19 8.58 20.19 12.25 20.19 12.25 20.19 17 20.19 17 20.19 17 21.81 18.62 21.81 18.62 21.81 18.62 21.81 21.2 21.81 21.2 21.81 21.2 3.18 21.2 3.18 21.2 3.18 21.2 3.18 18.62 3.18 18.62ZM 12.5 24.98C 11.14 24.98 10 24.06 9.64 22.82 9.64 22.82 15.36 22.82 15.36 22.82 15 24.06 13.86 24.98 12.5 24.98Z" fill="rgb(31,181,255)"/></svg>