<?xml version="1.0" encoding="utf-8"?>
<svg xmlns="http://www.w3.org/2000/svg"
	xmlns:xlink="http://www.w3.org/1999/xlink"
	width="53px" height="53px" viewBox="0 0 53 53">
<filter filterUnits="objectBoundingBox" x="-11.11" y="-11.11" width="122.22" height="124.44" id="filter0">
<feGaussianBlur in="SourceAlpha" stdDeviation="2.50" result="dsBlurOut1"/>
<feFlood flood-color="rgb(55,201,53)" flood-opacity="0.15" result="dsFloodOut1"/>
<feComposite in="dsFloodOut1" in2="dsBlurOut1" operator="in" result="dsShadow1"/>
<feOffset in="dsShadow1" dx="-0.00" dy="2.00" result="dsOffset1"/>
<feComposite in="dsOffset1" in2="SourceAlpha" operator="out" result="dropShadow1"/>
<feBlend in="dropShadow1" in2="SourceGraphic" mode="normal" result="sourceGraphic"/>
</filter>
<circle cx="26.50" cy="24.50" r="22.50" fill="rgb(101,125,255)" filter="url(#filter0)"/><path fillRule="evenodd" d="M 33.69 33.62C 33.69 33.62 19.31 33.62 19.31 33.62 18.52 33.62 17.88 32.98 17.88 32.19 17.88 32.19 17.88 19.43 17.88 19.43 17.88 18.64 18.52 17.99 19.31 17.99 19.31 17.99 21.65 17.99 21.65 17.99 21.65 17.99 21.65 16.91 21.65 16.91 21.65 16.62 21.89 16.38 22.19 16.38 22.49 16.38 22.73 16.62 22.73 16.91 22.73 16.91 22.73 17.99 22.73 17.99 22.73 17.99 25.96 17.99 25.96 17.99 25.96 17.99 25.96 16.91 25.96 16.91 25.96 16.62 26.2 16.38 26.5 16.38 26.8 16.38 27.04 16.62 27.04 16.91 27.04 16.91 27.04 17.99 27.04 17.99 27.04 17.99 30.27 17.99 30.27 17.99 30.27 17.99 30.27 16.91 30.27 16.91 30.27 16.62 30.51 16.38 30.81 16.38 31.11 16.38 31.35 16.62 31.35 16.91 31.35 16.91 31.35 17.99 31.35 17.99 31.35 17.99 33.69 17.99 33.69 17.99 34.48 17.99 35.12 18.64 35.12 19.43 35.12 19.43 35.12 32.19 35.12 32.19 35.12 32.98 34.48 33.62 33.69 33.62ZM 34.05 19.43C 34.05 19.23 33.88 19.07 33.69 19.07 33.69 19.07 31.35 19.07 31.35 19.07 31.35 19.07 31.35 20.15 31.35 20.15 31.35 20.45 31.11 20.69 30.81 20.69 30.51 20.69 30.27 20.45 30.27 20.15 30.27 20.15 30.27 19.07 30.27 19.07 30.27 19.07 27.04 19.07 27.04 19.07 27.04 19.07 27.04 20.15 27.04 20.15 27.04 20.45 26.8 20.69 26.5 20.69 26.2 20.69 25.96 20.45 25.96 20.15 25.96 20.15 25.96 19.07 25.96 19.07 25.96 19.07 22.73 19.07 22.73 19.07 22.73 19.07 22.73 20.15 22.73 20.15 22.73 20.45 22.49 20.69 22.19 20.69 21.89 20.69 21.65 20.45 21.65 20.15 21.65 20.15 21.65 19.07 21.65 19.07 21.65 19.07 19.31 19.07 19.31 19.07 19.11 19.07 18.95 19.23 18.95 19.43 18.95 19.43 18.95 32.19 18.95 32.19 18.95 32.38 19.11 32.55 19.31 32.55 19.31 32.55 33.69 32.55 33.69 32.55 33.88 32.55 34.05 32.38 34.05 32.19 34.05 32.19 34.05 19.43 34.05 19.43ZM 29.19 28.23C 29.19 28.23 31.35 28.23 31.35 28.23 31.35 28.23 31.35 29.85 31.35 29.85 31.35 29.85 29.19 29.85 29.19 29.85 29.19 29.85 29.19 28.23 29.19 28.23ZM 29.19 25.54C 29.19 25.54 31.35 25.54 31.35 25.54 31.35 25.54 31.35 27.16 31.35 27.16 31.35 27.16 29.19 27.16 29.19 27.16 29.19 27.16 29.19 25.54 29.19 25.54ZM 29.19 22.84C 29.19 22.84 31.35 22.84 31.35 22.84 31.35 22.84 31.35 24.46 31.35 24.46 31.35 24.46 29.19 24.46 29.19 24.46 29.19 24.46 29.19 22.84 29.19 22.84ZM 25.42 28.23C 25.42 28.23 27.58 28.23 27.58 28.23 27.58 28.23 27.58 29.85 27.58 29.85 27.58 29.85 25.42 29.85 25.42 29.85 25.42 29.85 25.42 28.23 25.42 28.23ZM 25.42 25.54C 25.42 25.54 27.58 25.54 27.58 25.54 27.58 25.54 27.58 27.16 27.58 27.16 27.58 27.16 25.42 27.16 25.42 27.16 25.42 27.16 25.42 25.54 25.42 25.54ZM 25.42 22.84C 25.42 22.84 27.58 22.84 27.58 22.84 27.58 22.84 27.58 24.46 27.58 24.46 27.58 24.46 25.42 24.46 25.42 24.46 25.42 24.46 25.42 22.84 25.42 22.84ZM 21.65 28.23C 21.65 28.23 23.8 28.23 23.8 28.23 23.8 28.23 23.8 29.85 23.8 29.85 23.8 29.85 21.65 29.85 21.65 29.85 21.65 29.85 21.65 28.23 21.65 28.23ZM 21.65 25.54C 21.65 25.54 23.8 25.54 23.8 25.54 23.8 25.54 23.8 27.16 23.8 27.16 23.8 27.16 21.65 27.16 21.65 27.16 21.65 27.16 21.65 25.54 21.65 25.54ZM 21.65 22.84C 21.65 22.84 23.8 22.84 23.8 22.84 23.8 22.84 23.8 24.46 23.8 24.46 23.8 24.46 21.65 24.46 21.65 24.46 21.65 24.46 21.65 22.84 21.65 22.84Z" fill="rgb(255,255,255)"/></svg>