<?xml version="1.0" encoding="utf-8"?>
<svg xmlns="http://www.w3.org/2000/svg"
	xmlns:xlink="http://www.w3.org/1999/xlink"
	width="25px" height="26px" viewBox="0 0 25 26">
<path fillRule="evenodd" d="M 22.77 25.32C 22.77 25.32 2.23 25.32 2.23 25.32 1.1 25.32 0.18 24.4 0.18 23.27 0.18 23.27 0.18 5.04 0.18 5.04 0.18 3.91 1.1 2.99 2.23 2.99 2.23 2.99 5.57 2.99 5.57 2.99 5.57 2.99 5.57 1.45 5.57 1.45 5.57 1.02 5.91 0.68 6.34 0.68 6.76 0.68 7.11 1.02 7.11 1.45 7.11 1.45 7.11 2.99 7.11 2.99 7.11 2.99 11.73 2.99 11.73 2.99 11.73 2.99 11.73 1.45 11.73 1.45 11.73 1.02 12.07 0.68 12.5 0.68 12.92 0.68 13.27 1.02 13.27 1.45 13.27 1.45 13.27 2.99 13.27 2.99 13.27 2.99 17.89 2.99 17.89 2.99 17.89 2.99 17.89 1.45 17.89 1.45 17.89 1.02 18.23 0.68 18.66 0.68 19.09 0.68 19.43 1.02 19.43 1.45 19.43 1.45 19.43 2.99 19.43 2.99 19.43 2.99 22.77 2.99 22.77 2.99 23.9 2.99 24.82 3.91 24.82 5.04 24.82 5.04 24.82 23.27 24.82 23.27 24.82 24.4 23.9 25.32 22.77 25.32ZM 23.28 5.04C 23.28 4.76 23.05 4.53 22.77 4.53 22.77 4.53 19.43 4.53 19.43 4.53 19.43 4.53 19.43 6.07 19.43 6.07 19.43 6.5 19.09 6.84 18.66 6.84 18.23 6.84 17.89 6.5 17.89 6.07 17.89 6.07 17.89 4.53 17.89 4.53 17.89 4.53 13.27 4.53 13.27 4.53 13.27 4.53 13.27 6.07 13.27 6.07 13.27 6.5 12.92 6.84 12.5 6.84 12.07 6.84 11.73 6.5 11.73 6.07 11.73 6.07 11.73 4.53 11.73 4.53 11.73 4.53 7.11 4.53 7.11 4.53 7.11 4.53 7.11 6.07 7.11 6.07 7.11 6.5 6.76 6.84 6.34 6.84 5.91 6.84 5.57 6.5 5.57 6.07 5.57 6.07 5.57 4.53 5.57 4.53 5.57 4.53 2.23 4.53 2.23 4.53 1.95 4.53 1.72 4.76 1.72 5.04 1.72 5.04 1.72 23.27 1.72 23.27 1.72 23.55 1.95 23.78 2.23 23.78 2.23 23.78 22.77 23.78 22.77 23.78 23.05 23.78 23.28 23.55 23.28 23.27 23.28 23.27 23.28 5.04 23.28 5.04ZM 16.35 17.62C 16.35 17.62 19.43 17.62 19.43 17.62 19.43 17.62 19.43 19.93 19.43 19.93 19.43 19.93 16.35 19.93 16.35 19.93 16.35 19.93 16.35 17.62 16.35 17.62ZM 16.35 13.77C 16.35 13.77 19.43 13.77 19.43 13.77 19.43 13.77 19.43 16.08 19.43 16.08 19.43 16.08 16.35 16.08 16.35 16.08 16.35 16.08 16.35 13.77 16.35 13.77ZM 16.35 9.92C 16.35 9.92 19.43 9.92 19.43 9.92 19.43 9.92 19.43 12.23 19.43 12.23 19.43 12.23 16.35 12.23 16.35 12.23 16.35 12.23 16.35 9.92 16.35 9.92ZM 10.96 17.62C 10.96 17.62 14.04 17.62 14.04 17.62 14.04 17.62 14.04 19.93 14.04 19.93 14.04 19.93 10.96 19.93 10.96 19.93 10.96 19.93 10.96 17.62 10.96 17.62ZM 10.96 13.77C 10.96 13.77 14.04 13.77 14.04 13.77 14.04 13.77 14.04 16.08 14.04 16.08 14.04 16.08 10.96 16.08 10.96 16.08 10.96 16.08 10.96 13.77 10.96 13.77ZM 10.96 9.92C 10.96 9.92 14.04 9.92 14.04 9.92 14.04 9.92 14.04 12.23 14.04 12.23 14.04 12.23 10.96 12.23 10.96 12.23 10.96 12.23 10.96 9.92 10.96 9.92ZM 5.57 17.62C 5.57 17.62 8.65 17.62 8.65 17.62 8.65 17.62 8.65 19.93 8.65 19.93 8.65 19.93 5.57 19.93 5.57 19.93 5.57 19.93 5.57 17.62 5.57 17.62ZM 5.57 13.77C 5.57 13.77 8.65 13.77 8.65 13.77 8.65 13.77 8.65 16.08 8.65 16.08 8.65 16.08 5.57 16.08 5.57 16.08 5.57 16.08 5.57 13.77 5.57 13.77ZM 5.57 9.92C 5.57 9.92 8.65 9.92 8.65 9.92 8.65 9.92 8.65 12.23 8.65 12.23 8.65 12.23 5.57 12.23 5.57 12.23 5.57 12.23 5.57 9.92 5.57 9.92Z" fill="rgb(31,181,255)"/></svg>