<?xml version="1.0" encoding="utf-8"?>
<svg xmlns="http://www.w3.org/2000/svg"
	xmlns:xlink="http://www.w3.org/1999/xlink"
	width="53px" height="53px" viewBox="0 0 53 53">
<filter filterUnits="objectBoundingBox" x="-11.11" y="-11.11" width="122.22" height="124.44" id="filter0">
<feGaussianBlur in="SourceAlpha" stdDeviation="2.50" result="dsBlurOut1"/>
<feFlood flood-color="rgb(55,201,53)" flood-opacity="0.15" result="dsFloodOut1"/>
<feComposite in="dsFloodOut1" in2="dsBlurOut1" operator="in" result="dsShadow1"/>
<feOffset in="dsShadow1" dx="-0.00" dy="2.00" result="dsOffset1"/>
<feComposite in="dsOffset1" in2="SourceAlpha" operator="out" result="dropShadow1"/>
<feBlend in="dropShadow1" in2="SourceGraphic" mode="normal" result="sourceGraphic"/>
</filter>
<circle cx="26.50" cy="24.50" r="22.50" fill="rgb(121,229,59)" filter="url(#filter0)"/><path fillRule="evenodd" d="M 33.49 29.74C 33.49 29.74 32.98 29.74 32.98 29.74 32.98 29.74 32.98 33.45 32.98 33.45 32.98 34.26 32.32 34.91 31.51 34.91 31.51 34.91 22.43 34.91 22.43 34.91 21.63 34.91 20.97 34.26 20.97 33.45 20.97 33.45 20.97 29.74 20.97 29.74 20.97 29.74 20.51 29.74 20.51 29.74 18.9 29.74 17.58 28.42 17.58 26.81 17.58 26.81 17.58 22.08 17.58 22.08 17.58 20.46 18.9 19.15 20.51 19.15 20.51 19.15 20.97 19.15 20.97 19.15 20.97 19.15 20.97 18.02 20.97 18.02 20.97 16.4 22.29 15.09 23.9 15.09 23.9 15.09 30.05 15.09 30.05 15.09 31.67 15.09 32.98 16.4 32.98 18.02 32.98 18.02 32.98 19.15 32.98 19.15 32.98 19.15 33.49 19.15 33.49 19.15 35.1 19.15 36.42 20.46 36.42 22.08 36.42 22.08 36.42 26.81 36.42 26.81 36.42 28.42 35.1 29.74 33.49 29.74ZM 22.08 33.46C 22.08 33.65 22.24 33.81 22.43 33.81 22.43 33.81 31.51 33.81 31.51 33.81 31.71 33.81 31.87 33.65 31.87 33.46 31.87 33.46 31.87 27.33 31.87 27.33 31.87 27.33 22.08 27.33 22.08 27.33 22.08 27.33 22.08 33.46 22.08 33.46ZM 31.86 18.02C 31.86 17.01 31.05 16.2 30.04 16.2 30.04 16.2 23.9 16.2 23.9 16.2 22.9 16.2 22.08 17.01 22.08 18.02 22.08 18.02 22.08 19.15 22.08 19.15 22.08 19.15 31.86 19.15 31.86 19.15 31.86 19.15 31.86 18.02 31.86 18.02ZM 35.31 22.08C 35.31 21.08 34.49 20.26 33.49 20.26 33.49 20.26 20.51 20.26 20.51 20.26 19.51 20.26 18.69 21.08 18.69 22.08 18.69 22.08 18.69 26.81 18.69 26.81 18.69 27.81 19.51 28.63 20.51 28.63 20.51 28.63 20.97 28.63 20.97 28.63 20.97 28.63 20.97 27.33 20.97 27.33 20.97 27.33 20.16 27.33 20.16 27.33 19.85 27.33 19.6 27.09 19.6 26.78 19.6 26.47 19.85 26.22 20.16 26.22 20.16 26.22 33.71 26.22 33.71 26.22 34.02 26.22 34.27 26.47 34.27 26.78 34.27 27.09 34.02 27.33 33.71 27.33 33.71 27.33 32.98 27.33 32.98 27.33 32.98 27.33 32.98 28.63 32.98 28.63 32.98 28.63 33.49 28.63 33.49 28.63 34.49 28.63 35.31 27.81 35.31 26.81 35.31 26.81 35.31 22.08 35.31 22.08ZM 33.48 22.44C 33.48 22.44 32.35 22.44 32.35 22.44 32.04 22.44 31.8 22.19 31.8 21.88 31.8 21.57 32.04 21.33 32.35 21.33 32.35 21.33 33.48 21.33 33.48 21.33 33.79 21.33 34.03 21.57 34.03 21.88 34.03 22.19 33.79 22.44 33.48 22.44ZM 30.52 32.33C 30.52 32.33 23.46 32.33 23.46 32.33 23.16 32.33 22.91 32.08 22.91 31.77 22.91 31.47 23.16 31.22 23.46 31.22 23.46 31.22 30.53 31.22 30.53 31.22 30.83 31.22 31.08 31.47 31.08 31.77 31.08 32.08 30.83 32.33 30.52 32.33ZM 30.48 30.06C 30.48 30.06 23.42 30.06 23.42 30.06 23.12 30.06 22.87 29.81 22.87 29.51 22.87 29.2 23.11 28.95 23.42 28.95 23.42 28.95 30.48 28.95 30.48 28.95 30.79 28.95 31.04 29.2 31.04 29.51 31.04 29.81 30.79 30.06 30.48 30.06Z" fill="rgb(255,255,255)"/></svg>