<?xml version="1.0" encoding="utf-8"?>
<svg xmlns="http://www.w3.org/2000/svg"
	xmlns:xlink="http://www.w3.org/1999/xlink"
	width="53px" height="53px" viewBox="0 0 53 53">
<filter filterUnits="objectBoundingBox" x="-11.11" y="-11.11" width="122.22" height="124.44" id="filter0">
<feGaussianBlur in="SourceAlpha" stdDeviation="2.50" result="dsBlurOut1"/>
<feFlood flood-color="rgb(39,169,247)" flood-opacity="0.15" result="dsFloodOut1"/>
<feComposite in="dsFloodOut1" in2="dsBlurOut1" operator="in" result="dsShadow1"/>
<feOffset in="dsShadow1" dx="-0.00" dy="2.00" result="dsOffset1"/>
<feComposite in="dsOffset1" in2="SourceAlpha" operator="out" result="dropShadow1"/>
<feBlend in="dropShadow1" in2="SourceGraphic" mode="normal" result="sourceGraphic"/>
</filter>
<circle cx="26.50" cy="24.50" r="22.50" fill="rgb(39,169,247)" filter="url(#filter0)"/><g><path fillRule="evenodd" d="M 34.07 26.7C 34.07 26.7 32.94 26.88 32.94 26.88 32.82 27.26 32.67 27.63 32.48 27.99 32.48 27.99 33.15 28.92 33.15 28.92 33.43 29.32 33.38 29.87 33.04 30.21 33.04 30.21 32.04 31.22 32.04 31.22 31.85 31.4 31.6 31.51 31.33 31.51 31.12 31.51 30.92 31.44 30.75 31.32 30.75 31.32 29.82 30.65 29.82 30.65 29.46 30.84 29.1 30.99 28.72 31.11 28.72 31.11 28.52 32.24 28.52 32.24 28.44 32.73 28.03 33.08 27.54 33.08 27.54 33.08 26.11 33.08 26.11 33.08 25.63 33.08 25.21 32.73 25.13 32.24 25.13 32.24 24.94 31.11 24.94 31.11 24.57 31 24.22 30.85 23.87 30.67 23.87 30.67 22.93 31.35 22.93 31.35 22.76 31.47 22.56 31.53 22.35 31.53 22.08 31.53 21.83 31.43 21.64 31.24 21.64 31.24 20.64 30.23 20.64 30.23 20.29 29.89 20.25 29.35 20.53 28.95 20.53 28.95 21.2 28.02 21.2 28.02 21.01 27.67 20.85 27.3 20.73 26.93 20.73 26.93 19.59 26.73 19.59 26.73 19.1 26.65 18.75 26.23 18.75 25.74 18.75 25.74 18.75 24.32 18.75 24.32 18.75 23.83 19.1 23.42 19.59 23.34 19.59 23.34 20.71 23.15 20.71 23.15 20.82 22.77 20.97 22.4 21.16 22.04 21.16 22.04 20.48 21.1 20.48 21.1 20.2 20.7 20.24 20.15 20.59 19.81 20.59 19.81 21.6 18.8 21.6 18.8 21.78 18.62 22.04 18.51 22.3 18.51 22.51 18.51 22.71 18.58 22.88 18.7 22.88 18.7 23.81 19.36 23.81 19.36 24.16 19.18 24.53 19.02 24.91 18.9 24.91 18.9 25.1 17.76 25.1 17.76 25.18 17.27 25.6 16.92 26.09 16.92 26.09 16.92 27.51 16.92 27.51 16.92 28 16.92 28.41 17.27 28.49 17.76 28.49 17.76 28.68 18.88 28.68 18.88 29.08 18.99 29.46 19.15 29.82 19.34 29.82 19.34 30.76 18.68 30.76 18.68 30.93 18.56 31.13 18.49 31.34 18.49 31.6 18.49 31.85 18.6 32.04 18.78 32.04 18.78 33.05 19.79 33.05 19.79 33.4 20.13 33.44 20.68 33.16 21.08 33.16 21.08 32.49 22.01 32.49 22.01 32.67 22.36 32.82 22.73 32.94 23.11 32.94 23.11 34.08 23.3 34.08 23.3 34.56 23.38 34.91 23.8 34.9 24.29 34.9 24.29 34.9 25.71 34.9 25.71 34.9 26.2 34.55 26.61 34.07 26.7ZM 34 24.29C 34 24.25 33.97 24.21 33.93 24.2 33.93 24.2 32.51 23.96 32.51 23.96 32.34 23.93 32.19 23.8 32.15 23.63 32.02 23.13 31.82 22.66 31.56 22.21 31.47 22.06 31.48 21.86 31.58 21.72 31.58 21.72 32.41 20.55 32.41 20.55 32.44 20.51 32.43 20.46 32.4 20.43 32.4 20.43 31.4 19.43 31.4 19.43 31.37 19.4 31.35 19.4 31.33 19.4 31.32 19.4 31.3 19.41 31.28 19.42 31.28 19.42 30.12 20.25 30.12 20.25 29.97 20.36 29.78 20.36 29.62 20.27 29.17 20.01 28.69 19.81 28.18 19.68 28 19.64 27.87 19.49 27.84 19.31 27.84 19.31 27.6 17.9 27.6 17.9 27.6 17.86 27.56 17.83 27.51 17.83 27.51 17.83 26.09 17.83 26.09 17.83 26.05 17.83 26.01 17.86 26.01 17.9 26.01 17.9 25.76 19.33 25.76 19.33 25.73 19.51 25.6 19.65 25.43 19.7 24.93 19.82 24.46 20.03 24.02 20.29 23.86 20.38 23.67 20.37 23.52 20.27 23.52 20.27 22.36 19.44 22.36 19.44 22.34 19.43 22.33 19.42 22.31 19.42 22.29 19.42 22.27 19.43 22.24 19.45 22.24 19.45 21.24 20.46 21.24 20.46 21.21 20.49 21.2 20.54 21.23 20.57 21.23 20.57 22.07 21.75 22.07 21.75 22.17 21.9 22.18 22.09 22.09 22.24 21.83 22.69 21.64 23.17 21.51 23.66 21.47 23.84 21.32 23.97 21.14 24 21.14 24 19.74 24.24 19.74 24.24 19.69 24.24 19.66 24.28 19.66 24.32 19.66 24.32 19.66 25.74 19.66 25.74 19.66 25.79 19.69 25.83 19.74 25.83 19.74 25.83 21.17 26.07 21.17 26.07 21.34 26.11 21.48 26.24 21.53 26.41 21.66 26.91 21.86 27.38 22.12 27.82 22.21 27.97 22.21 28.17 22.1 28.32 22.1 28.32 21.27 29.48 21.27 29.48 21.25 29.52 21.25 29.57 21.28 29.6 21.28 29.6 22.29 30.6 22.29 30.6 22.31 30.63 22.34 30.63 22.35 30.63 22.37 30.63 22.39 30.62 22.4 30.61 22.4 30.61 23.58 29.77 23.58 29.77 23.66 29.72 23.76 29.69 23.85 29.69 23.92 29.69 24.01 29.71 24.08 29.75 24.51 30 24.98 30.19 25.46 30.32 25.63 30.36 25.76 30.5 25.79 30.68 25.79 30.68 26.03 32.1 26.03 32.1 26.04 32.14 26.07 32.17 26.12 32.17 26.12 32.17 27.54 32.17 27.54 32.17 27.58 32.17 27.62 32.14 27.63 32.1 27.63 32.1 27.87 30.68 27.87 30.68 27.89 30.51 28.02 30.36 28.2 30.32 28.7 30.19 29.17 29.99 29.61 29.73 29.77 29.64 29.96 29.65 30.11 29.75 30.11 29.75 31.28 30.58 31.28 30.58 31.29 30.59 31.31 30.6 31.33 30.6 31.35 30.6 31.37 30.6 31.39 30.57 31.39 30.57 32.4 29.57 32.4 29.57 32.43 29.54 32.43 29.49 32.41 29.45 32.41 29.45 31.58 28.28 31.58 28.28 31.47 28.13 31.47 27.94 31.56 27.78 31.82 27.34 32.02 26.86 32.14 26.37 32.19 26.2 32.33 26.06 32.51 26.03 32.51 26.03 33.92 25.8 33.92 25.8 33.97 25.79 34 25.75 34 25.71 34 25.71 34 25.71 34 25.71 34 25.71 34 24.29 34 24.29ZM 26.83 28.48C 24.91 28.48 23.34 26.92 23.34 25 23.34 23.07 24.91 21.51 26.83 21.51 28.75 21.51 30.31 23.07 30.31 25 30.31 26.92 28.75 28.48 26.83 28.48ZM 26.83 22.42C 25.41 22.42 24.26 23.58 24.26 25 24.26 26.42 25.41 27.57 26.83 27.57 28.25 27.57 29.4 26.42 29.4 25 29.4 23.58 28.25 22.42 26.83 22.42Z" fill="rgb(255,255,255)"/><path fillRule="evenodd" d="M 26.11 33.08C 26.11 33.08 26.11 32.83 26.11 32.83 25.75 32.83 25.44 32.57 25.38 32.2 25.38 32.2 25.19 31.07 25.19 31.07 25.19 31.07 25.16 30.92 25.16 30.92 25.16 30.92 25.01 30.87 25.01 30.87 24.66 30.76 24.32 30.62 23.99 30.45 23.99 30.45 23.85 30.38 23.85 30.38 23.85 30.38 22.78 31.14 22.78 31.14 22.65 31.24 22.51 31.28 22.35 31.28 22.15 31.28 21.96 31.21 21.82 31.06 21.82 31.06 20.82 30.06 20.82 30.06 20.67 29.91 20.6 29.72 20.59 29.53 20.59 29.38 20.64 29.22 20.73 29.09 20.73 29.09 21.49 28.04 21.49 28.04 21.49 28.04 21.42 27.9 21.42 27.9 21.23 27.57 21.09 27.21 20.97 26.85 20.97 26.85 20.93 26.7 20.93 26.7 20.93 26.7 19.63 26.48 19.63 26.48 19.27 26.42 19 26.11 19 25.74 19 25.74 19 24.32 19 24.32 19 23.96 19.27 23.64 19.63 23.58 19.63 23.58 20.75 23.39 20.75 23.39 20.75 23.39 20.9 23.37 20.9 23.37 20.9 23.37 20.95 23.22 20.95 23.22 21.06 22.85 21.2 22.5 21.38 22.16 21.38 22.16 21.45 22.02 21.45 22.02 21.45 22.02 20.68 20.95 20.68 20.95 20.59 20.82 20.55 20.67 20.55 20.52 20.55 20.32 20.62 20.13 20.76 19.99 20.76 19.99 21.77 18.98 21.77 18.98 21.91 18.84 22.1 18.76 22.3 18.76 22.46 18.76 22.61 18.81 22.74 18.9 22.74 18.9 23.79 19.66 23.79 19.66 23.79 19.66 23.93 19.59 23.93 19.59 24.27 19.4 24.62 19.25 24.98 19.14 24.98 19.14 25.13 19.1 25.13 19.1 25.13 19.1 25.35 17.8 25.35 17.8 25.41 17.43 25.72 17.17 26.09 17.17 26.09 17.17 27.51 17.17 27.51 17.17 27.88 17.17 28.18 17.43 28.25 17.8 28.25 17.8 28.44 18.92 28.44 18.92 28.44 18.92 28.46 19.07 28.46 19.07 28.46 19.07 28.61 19.12 28.61 19.12 28.99 19.23 29.35 19.38 29.71 19.57 29.71 19.57 29.84 19.64 29.84 19.64 29.84 19.64 30.9 18.88 30.9 18.88 31.03 18.79 31.18 18.74 31.34 18.74 31.54 18.74 31.72 18.82 31.86 18.96 31.86 18.96 32.87 19.97 32.87 19.97 33.02 20.11 33.09 20.3 33.09 20.5 33.09 20.65 33.05 20.8 32.95 20.93 32.95 20.93 32.19 21.99 32.19 21.99 32.19 21.99 32.27 22.13 32.27 22.13 32.44 22.47 32.59 22.82 32.7 23.19 32.7 23.19 32.75 23.33 32.75 23.33 32.75 23.33 34.03 23.55 34.03 23.55 34.39 23.61 34.65 23.91 34.65 24.28 34.65 24.28 34.65 24.3 34.65 24.3 34.65 24.3 34.9 24.29 34.9 24.29 34.9 24.29 34.65 24.29 34.65 24.29 34.65 24.29 34.65 25.71 34.65 25.71 34.65 26.08 34.39 26.39 34.03 26.45 34.03 26.45 32.89 26.64 32.89 26.64 32.89 26.64 32.74 26.66 32.74 26.66 32.74 26.66 32.7 26.81 32.7 26.81 32.59 27.17 32.44 27.53 32.26 27.87 32.26 27.87 32.19 28 32.19 28 32.19 28 32.94 29.07 32.94 29.07 33.04 29.2 33.08 29.35 33.08 29.5 33.08 29.7 33.01 29.89 32.86 30.03 32.86 30.03 31.86 31.04 31.86 31.04 31.71 31.18 31.53 31.26 31.33 31.26 31.17 31.26 31.02 31.21 30.9 31.12 30.9 31.12 29.84 30.36 29.84 30.36 29.84 30.36 29.7 30.43 29.7 30.43 29.36 30.61 29.01 30.76 28.64 30.87 28.64 30.87 28.49 30.92 28.49 30.92 28.49 30.92 28.28 32.2 28.28 32.2 28.22 32.57 27.91 32.83 27.54 32.83 27.54 32.83 26.11 32.83 26.11 32.83 26.11 32.83 26.11 33.08 26.11 33.08 26.11 33.08 26.11 33.33 26.11 33.33 26.11 33.33 27.54 33.33 27.54 33.33 28.15 33.33 28.67 32.89 28.77 32.29 28.77 32.29 28.96 31.15 28.96 31.15 28.96 31.15 28.72 31.11 28.72 31.11 28.72 31.11 28.79 31.35 28.79 31.35 29.18 31.23 29.57 31.07 29.93 30.88 29.93 30.88 29.82 30.65 29.82 30.65 29.82 30.65 29.67 30.86 29.67 30.86 29.67 30.86 30.6 31.53 30.6 31.53 30.82 31.68 31.07 31.76 31.33 31.76 31.66 31.76 31.98 31.63 32.21 31.39 32.21 31.39 33.22 30.39 33.22 30.39 33.46 30.14 33.58 29.82 33.58 29.5 33.58 29.25 33.51 29 33.35 28.78 33.35 28.78 32.68 27.84 32.68 27.84 32.68 27.84 32.48 27.98 32.48 27.98 32.48 27.98 32.7 28.1 32.7 28.1 32.89 27.73 33.06 27.35 33.18 26.96 33.18 26.96 32.94 26.88 32.94 26.88 32.94 26.88 32.98 27.13 32.98 27.13 32.98 27.13 34.11 26.94 34.11 26.94 34.71 26.84 35.15 26.32 35.15 25.71 35.15 25.71 35.15 24.28 35.15 24.28 35.15 24.28 35.15 24.28 35.15 24.28 35.15 24.28 35.15 24.28 35.15 24.28 35.15 23.67 34.71 23.16 34.12 23.06 34.12 23.06 32.98 22.86 32.98 22.86 32.98 22.86 32.94 23.11 32.94 23.11 32.94 23.11 33.18 23.04 33.18 23.04 33.06 22.64 32.9 22.26 32.71 21.89 32.71 21.89 32.49 22.01 32.49 22.01 32.49 22.01 32.69 22.16 32.69 22.16 32.69 22.16 33.36 21.22 33.36 21.22 33.51 21 33.59 20.75 33.59 20.5 33.59 20.17 33.47 19.85 33.22 19.61 33.22 19.61 32.22 18.61 32.22 18.61 31.99 18.37 31.67 18.24 31.34 18.24 31.08 18.24 30.82 18.32 30.61 18.47 30.61 18.47 29.68 19.14 29.68 19.14 29.68 19.14 29.82 19.34 29.82 19.34 29.82 19.34 29.94 19.12 29.94 19.12 29.56 18.92 29.16 18.76 28.75 18.64 28.75 18.64 28.68 18.88 28.68 18.88 28.68 18.88 28.93 18.83 28.93 18.83 28.93 18.83 28.74 17.71 28.74 17.71 28.64 17.11 28.12 16.67 27.51 16.67 27.51 16.67 26.09 16.67 26.09 16.67 25.48 16.67 24.96 17.11 24.86 17.71 24.86 17.71 24.66 18.86 24.66 18.86 24.66 18.86 24.91 18.9 24.91 18.9 24.91 18.9 24.83 18.66 24.83 18.66 24.44 18.79 24.06 18.95 23.69 19.15 23.69 19.15 23.81 19.37 23.81 19.37 23.81 19.37 23.96 19.16 23.96 19.16 23.96 19.16 23.03 18.49 23.03 18.49 22.82 18.34 22.56 18.26 22.3 18.26 21.97 18.26 21.65 18.39 21.42 18.63 21.42 18.63 20.41 19.63 20.41 19.63 20.17 19.88 20.05 20.2 20.05 20.52 20.05 20.77 20.12 21.02 20.28 21.24 20.28 21.24 20.95 22.19 20.95 22.19 20.95 22.19 21.16 22.04 21.16 22.04 21.16 22.04 20.93 21.93 20.93 21.93 20.74 22.3 20.59 22.68 20.47 23.08 20.47 23.08 20.71 23.15 20.71 23.15 20.71 23.15 20.67 22.9 20.67 22.9 20.67 22.9 19.54 23.09 19.54 23.09 18.94 23.19 18.5 23.71 18.5 24.32 18.5 24.32 18.5 25.74 18.5 25.74 18.5 26.35 18.94 26.88 19.54 26.98 19.54 26.98 20.69 27.17 20.69 27.17 20.69 27.17 20.73 26.93 20.73 26.93 20.73 26.93 20.49 27 20.49 27 20.62 27.39 20.78 27.78 20.98 28.14 20.98 28.14 21.2 28.02 21.2 28.02 21.2 28.02 20.99 27.88 20.99 27.88 20.99 27.88 20.33 28.8 20.33 28.8 20.17 29.02 20.09 29.28 20.09 29.53 20.09 29.85 20.22 30.17 20.46 30.41 20.46 30.41 21.47 31.42 21.47 31.42 21.7 31.65 22.02 31.78 22.35 31.78 22.61 31.78 22.86 31.7 23.07 31.55 23.07 31.55 24.02 30.88 24.02 30.88 24.02 30.88 23.87 30.67 23.87 30.67 23.87 30.67 23.76 30.89 23.76 30.89 24.11 31.08 24.48 31.23 24.87 31.35 24.87 31.35 24.94 31.11 24.94 31.11 24.94 31.11 24.69 31.15 24.69 31.15 24.69 31.15 24.88 32.29 24.88 32.29 24.98 32.89 25.5 33.33 26.11 33.33 26.11 33.33 26.11 33.08 26.11 33.08 26.11 33.08 26.11 33.08 26.11 33.08ZM 24.08 29.75C 24.08 29.75 23.95 29.97 23.95 29.97 24.41 30.23 24.89 30.43 25.4 30.56 25.47 30.58 25.53 30.64 25.55 30.72 25.55 30.72 25.78 32.14 25.78 32.14 25.78 32.14 26.03 32.1 26.03 32.1 26.03 32.1 25.78 32.14 25.78 32.14 25.81 32.31 25.96 32.43 26.12 32.42 26.12 32.42 27.54 32.42 27.54 32.42 27.69 32.43 27.85 32.31 27.87 32.14 27.87 32.14 28.11 30.72 28.11 30.72 28.11 30.72 28.11 30.72 28.11 30.72 28.12 30.64 28.18 30.58 28.26 30.56 28.78 30.43 29.28 30.22 29.74 29.94 29.74 29.95 29.85 29.92 29.85 29.92 29.85 29.92 29.96 29.95 29.96 29.95 29.96 29.95 31.14 30.79 31.14 30.79 31.17 30.82 31.25 30.85 31.33 30.85 31.38 30.85 31.5 30.83 31.57 30.75 31.57 30.75 32.58 29.74 32.58 29.74 32.65 29.68 32.67 29.59 32.68 29.5 32.67 29.44 32.66 29.37 32.61 29.31 32.61 29.31 31.78 28.13 31.78 28.13 31.78 28.14 31.74 28.02 31.74 28.02 31.74 28.02 31.77 27.91 31.77 27.91 32.05 27.45 32.25 26.95 32.39 26.43 32.41 26.35 32.47 26.3 32.55 26.28 32.55 26.28 33.97 26.04 33.97 26.04 33.97 26.04 33.93 25.8 33.93 25.8 33.93 25.8 33.96 26.05 33.96 26.05 34.13 26.02 34.25 25.87 34.25 25.71 34.25 25.71 34 25.71 34 25.71 34 25.71 34 25.96 34 25.96 34 25.96 34 25.96 34 25.96 34 25.96 34.25 25.96 34.25 25.96 34.25 25.96 34.25 24.29 34.25 24.29 34.26 24.13 34.13 23.98 33.96 23.95 33.96 23.95 33.93 24.2 33.93 24.2 33.93 24.2 33.97 23.96 33.97 23.96 33.97 23.96 32.55 23.72 32.55 23.72 32.47 23.7 32.41 23.64 32.39 23.57 32.26 23.05 32.05 22.55 31.77 22.09 31.78 22.09 31.75 21.98 31.75 21.98 31.75 21.98 31.78 21.86 31.78 21.86 31.78 21.86 32.62 20.69 32.62 20.69 32.62 20.69 32.62 20.68 32.62 20.68 32.62 20.68 32.68 20.49 32.68 20.49 32.68 20.41 32.65 20.32 32.58 20.25 32.58 20.25 31.57 19.25 31.57 19.25 31.49 19.16 31.39 19.15 31.33 19.15 31.33 19.15 31.16 19.2 31.16 19.2 31.16 19.2 31.15 19.21 31.15 19.21 31.15 19.21 29.97 20.05 29.97 20.05 29.98 20.05 29.86 20.09 29.86 20.09 29.86 20.09 29.75 20.06 29.75 20.06 29.28 19.78 28.77 19.57 28.24 19.44 28.16 19.42 28.1 19.35 28.08 19.27 28.08 19.27 27.85 17.86 27.85 17.86 27.82 17.7 27.68 17.58 27.51 17.58 27.51 17.58 26.09 17.58 26.09 17.58 25.93 17.58 25.78 17.7 25.76 17.87 25.76 17.87 26.01 17.9 26.01 17.9 26.01 17.9 25.76 17.86 25.76 17.86 25.76 17.86 25.52 19.29 25.52 19.29 25.5 19.37 25.44 19.43 25.36 19.45 24.85 19.59 24.35 19.8 23.89 20.08 23.89 20.07 23.78 20.1 23.78 20.1 23.78 20.1 23.66 20.07 23.66 20.07 23.66 20.07 22.5 19.24 22.5 19.24 22.46 19.2 22.38 19.17 22.31 19.17 22.25 19.17 22.14 19.19 22.06 19.27 22.06 19.27 21.06 20.28 21.06 20.28 20.99 20.35 20.96 20.44 20.96 20.52 20.96 20.58 20.98 20.65 21.02 20.71 21.02 20.71 21.86 21.9 21.86 21.9 21.86 21.9 21.9 22.02 21.9 22.02 21.9 22.02 21.87 22.12 21.87 22.12 21.6 22.58 21.4 23.08 21.27 23.6 21.25 23.68 21.19 23.74 21.1 23.75 21.1 23.75 19.7 23.99 19.7 23.99 19.53 24.01 19.41 24.16 19.41 24.32 19.41 24.32 19.41 25.74 19.41 25.74 19.41 25.9 19.53 26.05 19.7 26.08 19.7 26.08 21.12 26.32 21.12 26.32 21.2 26.33 21.27 26.4 21.29 26.47 21.42 26.99 21.63 27.49 21.91 27.95 21.91 27.95 21.94 28.05 21.94 28.05 21.94 28.05 21.9 28.18 21.9 28.18 21.9 28.18 21.07 29.34 21.07 29.34 21.07 29.34 21.06 29.35 21.06 29.35 21.06 29.35 21.01 29.54 21.01 29.54 21.01 29.62 21.04 29.71 21.11 29.78 21.11 29.78 22.11 30.78 22.11 30.78 22.11 30.78 22.11 30.78 22.11 30.78 22.2 30.87 22.3 30.88 22.35 30.88 22.35 30.88 22.53 30.83 22.53 30.83 22.53 30.83 22.54 30.83 22.54 30.83 22.54 30.83 23.73 29.98 23.73 29.98 23.73 29.97 23.85 29.94 23.85 29.94 23.85 29.94 23.95 29.97 23.95 29.97 23.95 29.97 24.08 29.75 24.08 29.75 24.08 29.75 24.2 29.53 24.2 29.53 24.09 29.47 23.97 29.44 23.85 29.44 23.71 29.44 23.56 29.48 23.43 29.57 23.43 29.57 22.26 30.41 22.26 30.41 22.26 30.41 22.4 30.61 22.4 30.61 22.4 30.61 22.28 30.4 22.28 30.4 22.28 30.4 22.35 30.53 22.35 30.53 22.35 30.53 22.35 30.38 22.35 30.38 22.35 30.38 22.28 30.4 22.28 30.4 22.28 30.4 22.35 30.53 22.35 30.53 22.35 30.53 22.35 30.38 22.35 30.38 22.35 30.38 22.35 30.54 22.35 30.54 22.35 30.54 22.46 30.42 22.46 30.42 22.46 30.42 22.35 30.38 22.35 30.38 22.35 30.38 22.35 30.54 22.35 30.54 22.35 30.54 22.46 30.42 22.46 30.42 22.46 30.42 21.46 29.42 21.46 29.42 21.46 29.42 21.35 29.54 21.35 29.54 21.35 29.54 21.51 29.54 21.51 29.54 21.51 29.54 21.46 29.42 21.46 29.42 21.46 29.42 21.35 29.54 21.35 29.54 21.35 29.54 21.51 29.54 21.51 29.54 21.51 29.54 21.35 29.54 21.35 29.54 21.35 29.54 21.48 29.62 21.48 29.62 21.48 29.62 21.51 29.54 21.51 29.54 21.51 29.54 21.35 29.54 21.35 29.54 21.35 29.54 21.48 29.62 21.48 29.62 21.48 29.62 21.27 29.48 21.27 29.48 21.27 29.48 21.48 29.63 21.48 29.63 21.48 29.63 22.31 28.46 22.31 28.46 22.39 28.34 22.44 28.2 22.44 28.05 22.44 27.93 22.4 27.8 22.34 27.69 22.09 27.27 21.89 26.82 21.77 26.35 21.7 26.08 21.48 25.88 21.21 25.83 21.21 25.83 19.78 25.59 19.78 25.59 19.78 25.59 19.75 25.74 19.75 25.74 19.75 25.74 19.91 25.74 19.91 25.74 19.92 25.67 19.85 25.6 19.78 25.59 19.78 25.59 19.75 25.74 19.75 25.74 19.75 25.74 19.91 25.74 19.91 25.74 19.91 25.74 19.91 24.32 19.91 24.32 19.91 24.32 19.75 24.32 19.75 24.32 19.75 24.32 19.78 24.48 19.78 24.48 19.85 24.47 19.92 24.4 19.91 24.32 19.91 24.32 19.75 24.32 19.75 24.32 19.75 24.32 19.78 24.48 19.78 24.48 19.78 24.48 21.19 24.25 21.19 24.25 21.46 24.2 21.69 24 21.76 23.72 21.87 23.25 22.06 22.79 22.3 22.37 22.37 22.26 22.4 22.14 22.4 22.02 22.4 21.87 22.36 21.73 22.27 21.6 22.27 21.6 21.43 20.42 21.43 20.42 21.43 20.42 21.3 20.52 21.3 20.52 21.3 20.52 21.46 20.52 21.46 20.52 21.46 20.52 21.43 20.43 21.43 20.43 21.43 20.43 21.3 20.52 21.3 20.52 21.3 20.52 21.46 20.52 21.46 20.52 21.46 20.52 21.3 20.52 21.3 20.52 21.3 20.52 21.41 20.63 21.41 20.63 21.41 20.63 21.46 20.52 21.46 20.52 21.46 20.52 21.3 20.52 21.3 20.52 21.3 20.52 21.41 20.63 21.41 20.63 21.41 20.63 22.42 19.63 22.42 19.63 22.42 19.63 22.31 19.51 22.31 19.51 22.31 19.51 22.31 19.67 22.31 19.67 22.31 19.67 22.42 19.63 22.42 19.63 22.42 19.63 22.31 19.51 22.31 19.51 22.31 19.51 22.31 19.67 22.31 19.67 22.31 19.67 22.31 19.51 22.31 19.51 22.31 19.51 22.21 19.64 22.21 19.64 22.21 19.64 22.31 19.67 22.31 19.67 22.31 19.67 22.31 19.51 22.31 19.51 22.31 19.51 22.21 19.64 22.21 19.64 22.21 19.64 23.37 20.47 23.37 20.47 23.5 20.56 23.64 20.6 23.78 20.6 23.91 20.6 24.03 20.57 24.15 20.51 24.57 20.25 25.02 20.06 25.49 19.94 25.76 19.86 25.96 19.65 26.01 19.37 26.01 19.37 26.25 17.94 26.25 17.94 26.25 17.94 26.25 17.94 26.25 17.94 26.25 17.94 26.09 17.92 26.09 17.92 26.09 17.92 26.09 18.08 26.09 18.08 26.17 18.08 26.24 18.02 26.25 17.94 26.25 17.94 26.09 17.92 26.09 17.92 26.09 17.92 26.09 18.08 26.09 18.08 26.09 18.08 27.51 18.08 27.51 18.08 27.51 18.08 27.51 17.92 27.51 17.92 27.51 17.92 27.36 17.94 27.36 17.94 27.37 18.02 27.44 18.08 27.51 18.08 27.51 18.08 27.51 17.92 27.51 17.92 27.51 17.92 27.36 17.94 27.36 17.94 27.36 17.94 27.59 19.35 27.59 19.35 27.64 19.63 27.84 19.85 28.12 19.92 28.6 20.04 29.06 20.23 29.5 20.49 29.61 20.55 29.73 20.59 29.86 20.59 30 20.59 30.14 20.54 30.26 20.46 30.26 20.46 31.43 19.62 31.43 19.62 31.43 19.62 31.28 19.42 31.28 19.42 31.28 19.42 31.41 19.63 31.41 19.63 31.41 19.63 31.33 19.5 31.33 19.5 31.33 19.5 31.33 19.65 31.33 19.65 31.33 19.65 31.41 19.63 31.41 19.63 31.41 19.63 31.33 19.5 31.33 19.5 31.33 19.5 31.33 19.65 31.33 19.65 31.33 19.65 31.33 19.49 31.33 19.49 31.33 19.49 31.22 19.6 31.22 19.6 31.22 19.6 31.33 19.65 31.33 19.65 31.33 19.65 31.33 19.49 31.33 19.49 31.33 19.49 31.22 19.6 31.22 19.6 31.22 19.6 32.23 20.61 32.23 20.61 32.23 20.61 32.34 20.49 32.34 20.49 32.34 20.49 32.18 20.49 32.18 20.49 32.18 20.49 32.23 20.61 32.23 20.61 32.23 20.61 32.34 20.49 32.34 20.49 32.34 20.49 32.18 20.49 32.18 20.49 32.18 20.49 32.33 20.49 32.33 20.49 32.33 20.49 32.2 20.41 32.2 20.41 32.2 20.41 32.18 20.49 32.18 20.49 32.18 20.49 32.33 20.49 32.33 20.49 32.33 20.49 32.2 20.41 32.2 20.41 32.2 20.41 32.41 20.55 32.41 20.55 32.41 20.55 32.21 20.4 32.21 20.4 32.21 20.4 31.38 21.57 31.38 21.57 31.29 21.69 31.25 21.84 31.25 21.98 31.25 22.1 31.28 22.23 31.34 22.34 31.6 22.76 31.78 23.22 31.9 23.69 31.97 23.96 32.2 24.17 32.47 24.21 32.47 24.21 33.89 24.45 33.89 24.45 33.89 24.45 33.89 24.45 33.89 24.45 33.89 24.45 33.92 24.29 33.92 24.29 33.92 24.29 33.75 24.29 33.75 24.29 33.75 24.36 33.81 24.44 33.89 24.45 33.89 24.45 33.92 24.29 33.92 24.29 33.92 24.29 33.75 24.29 33.75 24.29 33.75 24.29 33.75 25.71 33.75 25.71 33.75 25.71 34 25.71 34 25.71 34 25.71 34 25.46 34 25.46 34 25.46 34 25.46 34 25.46 34 25.46 33.75 25.46 33.75 25.46 33.75 25.46 33.75 25.71 33.75 25.71 33.75 25.71 33.91 25.71 33.91 25.71 33.91 25.71 33.89 25.55 33.89 25.55 33.81 25.56 33.75 25.64 33.75 25.71 33.75 25.71 33.91 25.71 33.91 25.71 33.91 25.71 33.89 25.55 33.89 25.55 33.89 25.55 33.88 25.55 33.88 25.55 33.88 25.55 32.47 25.79 32.47 25.79 32.19 25.83 31.97 26.04 31.9 26.31 31.78 26.78 31.59 27.23 31.34 27.65 31.28 27.77 31.24 27.89 31.24 28.02 31.24 28.16 31.29 28.3 31.37 28.42 31.37 28.42 32.21 29.6 32.21 29.6 32.21 29.6 32.34 29.5 32.34 29.5 32.34 29.5 32.18 29.5 32.18 29.5 32.18 29.5 32.21 29.6 32.21 29.6 32.21 29.6 32.34 29.5 32.34 29.5 32.34 29.5 32.18 29.5 32.18 29.5 32.18 29.5 32.34 29.5 32.34 29.5 32.34 29.5 32.22 29.39 32.22 29.39 32.22 29.39 32.18 29.5 32.18 29.5 32.18 29.5 32.34 29.5 32.34 29.5 32.34 29.5 32.22 29.39 32.22 29.39 32.22 29.39 31.22 30.4 31.22 30.4 31.22 30.4 31.33 30.51 31.33 30.51 31.33 30.51 31.33 30.35 31.33 30.35 31.33 30.35 31.22 30.4 31.22 30.4 31.22 30.4 31.33 30.51 31.33 30.51 31.33 30.51 31.33 30.35 31.33 30.35 31.33 30.35 31.33 30.52 31.33 30.52 31.33 30.52 31.43 30.38 31.43 30.38 31.43 30.38 31.33 30.35 31.33 30.35 31.33 30.35 31.33 30.52 31.33 30.52 31.33 30.52 31.43 30.38 31.43 30.38 31.43 30.38 30.25 29.55 30.25 29.55 30.13 29.46 29.99 29.42 29.85 29.42 29.72 29.42 29.6 29.45 29.49 29.51 29.06 29.77 28.61 29.95 28.14 30.08 27.86 30.14 27.66 30.37 27.62 30.64 27.62 30.64 27.87 30.68 27.87 30.68 27.87 30.68 27.62 30.64 27.62 30.64 27.62 30.64 27.38 32.06 27.38 32.06 27.38 32.06 27.54 32.09 27.54 32.09 27.54 32.09 27.54 31.92 27.54 31.92 27.47 31.92 27.39 31.98 27.38 32.06 27.38 32.06 27.54 32.09 27.54 32.09 27.54 32.09 27.54 31.92 27.54 31.92 27.54 31.92 26.12 31.92 26.12 31.92 26.12 31.92 26.12 32.09 26.12 32.09 26.12 32.09 26.28 32.06 26.28 32.06 26.27 31.98 26.19 31.92 26.12 31.92 26.12 31.92 26.12 32.09 26.12 32.09 26.12 32.09 26.28 32.06 26.28 32.06 26.28 32.06 26.28 32.06 26.28 32.06 26.28 32.06 26.04 30.64 26.04 30.64 25.99 30.36 25.79 30.14 25.52 30.08 25.06 29.96 24.62 29.77 24.2 29.53 24.2 29.53 24.08 29.75 24.08 29.75 24.08 29.75 24.08 29.75 24.08 29.75ZM 23.34 25C 23.34 25 23.59 25 23.59 25 23.6 23.21 25.05 21.77 26.83 21.76 28.61 21.77 30.06 23.21 30.06 25 30.06 26.78 28.61 28.23 26.83 28.23 25.05 28.23 23.6 26.78 23.59 25 23.59 25 23.34 25 23.34 25 23.34 25 23.09 25 23.09 25 23.09 27.06 24.77 28.73 26.83 28.73 28.89 28.73 30.56 27.06 30.56 25 30.56 22.94 28.89 21.26 26.83 21.26 24.77 21.26 23.09 22.94 23.09 25 23.09 25 23.34 25 23.34 25 23.34 25 23.34 25 23.34 25ZM 24.26 25C 24.26 25 24.01 25 24.01 25 24.01 26.56 25.27 27.82 26.83 27.82 28.39 27.82 29.65 26.56 29.65 25 29.65 23.44 28.39 22.17 26.83 22.17 25.27 22.17 24.01 23.44 24.01 25 24.01 25 24.26 25 24.26 25 24.26 25 24.51 25 24.51 25 24.51 23.72 25.55 22.67 26.83 22.67 28.11 22.67 29.15 23.72 29.15 25 29.15 26.28 28.11 27.32 26.83 27.32 25.55 27.32 24.51 26.28 24.51 25 24.51 25 24.26 25 24.26 25 24.26 25 24.26 25 24.26 25Z" fill="rgb(255,255,255)"/></g></svg>