<?xml version="1.0" encoding="utf-8"?>
<svg xmlns="http://www.w3.org/2000/svg"
	xmlns:xlink="http://www.w3.org/1999/xlink"
	width="26px" height="27px" viewBox="0 0 26 27">
<g><path fillRule="evenodd" d="M 23.48 11.73C 22.77 11.73 22.16 12.15 21.88 12.74 21.88 12.74 17.56 12.74 17.56 12.74 17.56 12.74 14.54 20.78 14.54 20.78 14.54 20.78 7.45 1.92 7.45 1.92 7.45 1.92 3.38 12.74 3.38 12.74 3.38 12.74 0.76 12.74 0.76 12.74 0.76 12.74 0.76 14.26 0.76 14.26 0.76 14.26 4.43 14.26 4.43 14.26 4.43 14.26 7.45 6.22 7.45 6.22 7.45 6.22 14.54 25.08 14.54 25.08 14.54 25.08 18.61 14.26 18.61 14.26 18.61 14.26 21.88 14.26 21.88 14.26 22.16 14.85 22.77 15.27 23.48 15.27 24.45 15.27 25.24 14.47 25.24 13.5 25.24 12.53 24.45 11.73 23.48 11.73Z" fill="rgb(31,181,255)"/><path fillRule="evenodd" d="M 23.48 11.73C 23.48 11.73 23.48 11.23 23.48 11.23 22.57 11.24 21.79 11.76 21.43 12.53 21.43 12.53 21.88 12.74 21.88 12.74 21.88 12.74 21.88 12.24 21.88 12.24 21.88 12.24 17.22 12.24 17.22 12.24 17.22 12.24 14.54 19.36 14.54 19.36 14.54 19.36 7.45 0.5 7.45 0.5 7.45 0.5 3.03 12.24 3.03 12.24 3.03 12.24 0.26 12.24 0.26 12.24 0.26 12.24 0.26 14.76 0.26 14.76 0.26 14.76 4.77 14.76 4.77 14.76 4.77 14.76 7.45 7.64 7.45 7.64 7.45 7.64 14.54 26.5 14.54 26.5 14.54 26.5 18.96 14.76 18.96 14.76 18.96 14.76 21.88 14.76 21.88 14.76 21.88 14.76 21.88 14.26 21.88 14.26 21.88 14.26 21.43 14.47 21.43 14.47 21.79 15.24 22.57 15.76 23.48 15.77 24.73 15.76 25.74 14.75 25.74 13.5 25.74 12.25 24.73 11.24 23.48 11.23 23.48 11.23 23.48 11.73 23.48 11.73 23.48 11.73 23.48 12.23 23.48 12.23 24.17 12.24 24.74 12.8 24.74 13.5 24.74 14.2 24.17 14.76 23.48 14.77 22.97 14.77 22.54 14.47 22.33 14.04 22.33 14.04 22.2 13.76 22.2 13.76 22.2 13.76 18.26 13.76 18.26 13.76 18.26 13.76 14.54 23.66 14.54 23.66 14.54 23.66 7.45 4.8 7.45 4.8 7.45 4.8 4.08 13.76 4.08 13.76 4.08 13.76 1.26 13.76 1.26 13.76 1.26 13.76 1.26 13.24 1.26 13.24 1.26 13.24 3.73 13.24 3.73 13.24 3.73 13.24 7.45 3.34 7.45 3.34 7.45 3.34 14.54 22.2 14.54 22.2 14.54 22.2 17.91 13.24 17.91 13.24 17.91 13.24 22.2 13.24 22.2 13.24 22.2 13.24 22.33 12.96 22.33 12.96 22.54 12.53 22.97 12.23 23.48 12.23 23.48 12.23 23.48 11.73 23.48 11.73 23.48 11.73 23.48 11.73 23.48 11.73Z" fill="rgb(31,181,255)"/></g></svg>