<?xml version="1.0" encoding="utf-8"?>
<svg xmlns="http://www.w3.org/2000/svg"
	xmlns:xlink="http://www.w3.org/1999/xlink"
	width="39px" height="34px" viewBox="0 0 39 34">
<path fillRule="evenodd" d="M 33.58 26.98C 33.58 26.98 32.14 26.98 32.14 26.98 32.14 26.98 32.14 33.19 32.14 33.19 32.14 33.5 31.96 33.79 31.68 33.92 31.58 33.98 31.46 34 31.35 34 31.17 34 30.98 33.93 30.84 33.81 30.84 33.81 22.93 26.98 22.93 26.98 22.93 26.98 5.42 26.98 5.42 26.98 2.43 26.98-0 24.48-0 21.42-0 21.42-0 5.56-0 5.56-0 2.49 2.43-0 5.42-0 5.42-0 33.58-0 33.58-0 36.57-0 39 2.49 39 5.56 39 5.56 39 21.42 39 21.42 39 24.48 36.57 26.98 33.58 26.98ZM 37.42 5.56C 37.42 3.39 35.69 1.62 33.58 1.62 33.58 1.62 5.42 1.62 5.42 1.62 3.3 1.62 1.58 3.39 1.58 5.56 1.58 5.56 1.58 21.42 1.58 21.42 1.58 23.59 3.3 25.35 5.42 25.35 5.42 25.35 23.22 25.35 23.22 25.35 23.41 25.35 23.59 25.42 23.73 25.55 23.73 25.55 30.56 31.44 30.56 31.44 30.56 31.44 30.56 26.17 30.56 26.17 30.56 25.72 30.91 25.35 31.35 25.35 31.35 25.35 33.58 25.35 33.58 25.35 35.69 25.35 37.42 23.59 37.42 21.42 37.42 21.42 37.42 5.56 37.42 5.56ZM 32.25 19.48C 32.25 19.48 6.75 19.48 6.75 19.48 6.31 19.48 5.96 19.11 5.96 18.67 5.96 18.22 6.31 17.85 6.75 17.85 6.75 17.85 32.25 17.85 32.25 17.85 32.68 17.85 33.04 18.22 33.04 18.67 33.04 19.11 32.69 19.48 32.25 19.48ZM 32.25 14.28C 32.25 14.28 6.75 14.28 6.75 14.28 6.31 14.28 5.96 13.92 5.96 13.47 5.96 13.02 6.31 12.66 6.75 12.66 6.75 12.66 32.25 12.66 32.25 12.66 32.68 12.66 33.04 13.02 33.04 13.47 33.04 13.92 32.69 14.28 32.25 14.28ZM 32.25 9.09C 32.25 9.09 6.75 9.09 6.75 9.09 6.31 9.09 5.96 8.72 5.96 8.27 5.96 7.83 6.31 7.46 6.75 7.46 6.75 7.46 32.25 7.46 32.25 7.46 32.68 7.46 33.04 7.83 33.04 8.27 33.04 8.72 32.69 9.09 32.25 9.09Z" fill="rgb(0,163,163)"/></svg>