<?xml version="1.0" encoding="utf-8"?>
<svg xmlns="http://www.w3.org/2000/svg"
	xmlns:xlink="http://www.w3.org/1999/xlink"
	width="33px" height="44px" viewBox="0 0 33 44">
<path fillRule="evenodd" d="M 29.33 44C 29.33 44 3.67 44 3.67 44 1.65 44-0 42.36-0 40.33-0 40.33-0 3.67-0 3.67-0 1.64 1.65-0 3.67-0 3.67-0 22.92-0 22.92-0 23.16-0 23.39 0.1 23.56 0.27 23.56 0.27 32.73 9.44 32.73 9.44 32.9 9.61 33 9.84 33 10.08 33 10.08 33 40.33 33 40.33 33 42.36 31.35 44 29.33 44ZM 23.83 3.13C 23.83 3.13 23.83 7.33 23.83 7.33 23.83 8.34 24.65 9.17 25.67 9.17 25.67 9.17 29.87 9.17 29.87 9.17 29.87 9.17 23.83 3.13 23.83 3.13ZM 31.17 11C 31.17 11 25.67 11 25.67 11 23.65 11 22 9.36 22 7.33 22 7.33 22 1.83 22 1.83 22 1.83 3.67 1.83 3.67 1.83 2.66 1.83 1.83 2.66 1.83 3.67 1.83 3.67 1.83 40.33 1.83 40.33 1.83 41.34 2.66 42.17 3.67 42.17 3.67 42.17 29.33 42.17 29.33 42.17 30.34 42.17 31.17 41.34 31.17 40.33 31.17 40.33 31.17 11 31.17 11ZM 26.58 33C 26.58 33 6.42 33 6.42 33 5.91 33 5.5 32.59 5.5 32.08 5.5 31.58 5.91 31.17 6.42 31.17 6.42 31.17 26.58 31.17 26.58 31.17 27.09 31.17 27.5 31.58 27.5 32.08 27.5 32.59 27.09 33 26.58 33ZM 26.58 27.5C 26.58 27.5 6.42 27.5 6.42 27.5 5.91 27.5 5.5 27.09 5.5 26.58 5.5 26.08 5.91 25.67 6.42 25.67 6.42 25.67 26.58 25.67 26.58 25.67 27.09 25.67 27.5 26.08 27.5 26.58 27.5 27.09 27.09 27.5 26.58 27.5ZM 26.58 22C 26.58 22 6.42 22 6.42 22 5.91 22 5.5 21.59 5.5 21.08 5.5 20.58 5.91 20.17 6.42 20.17 6.42 20.17 26.58 20.17 26.58 20.17 27.09 20.17 27.5 20.58 27.5 21.08 27.5 21.59 27.09 22 26.58 22ZM 26.58 16.5C 26.58 16.5 15.58 16.5 15.58 16.5 15.08 16.5 14.67 16.09 14.67 15.58 14.67 15.08 15.08 14.67 15.58 14.67 15.58 14.67 26.58 14.67 26.58 14.67 27.09 14.67 27.5 15.08 27.5 15.58 27.5 16.09 27.09 16.5 26.58 16.5ZM 8.25 11C 9.77 11 11 12.23 11 13.75 11 14.94 10.23 15.95 9.17 16.33 9.17 16.33 9.17 16.5 9.17 16.5 9.17 17.01 8.76 17.42 8.25 17.42 7.74 17.42 7.33 17.01 7.33 16.5 7.33 16.5 6.42 16.5 6.42 16.5 5.91 16.5 5.5 16.09 5.5 15.58 5.5 15.08 5.91 14.67 6.42 14.67 6.42 14.67 8.25 14.67 8.25 14.67 8.75 14.67 9.17 14.26 9.17 13.75 9.17 13.24 8.75 12.83 8.25 12.83 6.73 12.83 5.5 11.6 5.5 10.08 5.5 8.89 6.27 7.88 7.33 7.5 7.33 7.5 7.33 7.33 7.33 7.33 7.33 6.83 7.74 6.42 8.25 6.42 8.76 6.42 9.17 6.83 9.17 7.33 9.17 7.33 10.08 7.33 10.08 7.33 10.59 7.33 11 7.74 11 8.25 11 8.76 10.59 9.17 10.08 9.17 10.08 9.17 8.25 9.17 8.25 9.17 7.75 9.17 7.33 9.58 7.33 10.08 7.33 10.59 7.75 11 8.25 11ZM 6.42 36.67C 6.42 36.67 17.42 36.67 17.42 36.67 17.92 36.67 18.33 37.08 18.33 37.58 18.33 38.09 17.92 38.5 17.42 38.5 17.42 38.5 6.42 38.5 6.42 38.5 5.91 38.5 5.5 38.09 5.5 37.58 5.5 37.08 5.91 36.67 6.42 36.67Z" fill="rgb(95,39,205)"/></svg>