<svg
        xmlns="http://www.w3.org/2000/svg"
        xmlns:xlink="http://www.w3.org/1999/xlink"
        width="31.375px" height="39.375px">
    <path fill-rule="evenodd"  stroke="rgb(255, 255, 255)" stroke-width="0.25px" stroke-linecap="butt" stroke-linejoin="miter" fill="rgb(255, 107, 107)"
          d="M29.833,39.125 L1.417,39.125 C0.703,39.125 0.125,38.555 0.125,37.853 L0.125,1.397 C0.125,0.694 0.703,0.125 1.417,0.125 L19.500,0.125 C19.836,0.125 20.168,0.256 20.413,0.497 L30.746,10.671 C30.993,10.914 31.125,11.245 31.125,11.571 L31.125,37.853 C31.125,38.556 30.546,39.125 29.833,39.125 ZM20.792,4.467 L20.792,10.299 L26.715,10.299 C26.087,9.681 21.419,5.085 20.792,4.467 ZM28.541,12.842 L19.500,12.842 C18.786,12.842 18.208,12.273 18.208,11.571 L18.208,2.668 L2.708,2.668 L2.708,36.581 L28.541,36.581 L28.541,12.842 ZM6.583,18.777 C7.297,18.777 7.875,19.346 7.875,20.049 C7.875,20.751 7.297,21.320 6.583,21.320 C5.870,21.320 5.291,20.751 5.291,20.049 C5.291,19.346 5.870,18.777 6.583,18.777 ZM6.583,23.864 C7.297,23.864 7.875,24.433 7.875,25.136 C7.875,25.838 7.297,26.407 6.583,26.407 C5.870,26.407 5.291,25.838 5.291,25.136 C5.291,24.433 5.870,23.864 6.583,23.864 ZM6.583,28.951 C7.297,28.951 7.875,29.520 7.875,30.223 C7.875,30.925 7.297,31.494 6.583,31.494 C5.870,31.494 5.291,30.925 5.291,30.223 C5.291,29.520 5.870,28.951 6.583,28.951 ZM11.750,18.777 L24.666,18.777 C25.380,18.777 25.958,19.346 25.958,20.049 C25.958,20.751 25.380,21.321 24.666,21.321 L11.750,21.321 C11.036,21.321 10.458,20.751 10.458,20.049 C10.458,19.346 11.037,18.777 11.750,18.777 ZM11.750,23.864 L24.666,23.864 C25.380,23.864 25.958,24.433 25.958,25.136 C25.958,25.838 25.380,26.407 24.666,26.407 L11.750,26.407 C11.036,26.407 10.458,25.838 10.458,25.136 C10.458,24.433 11.037,23.864 11.750,23.864 ZM11.750,28.951 L24.666,28.951 C25.380,28.951 25.958,29.520 25.958,30.223 C25.958,30.925 25.380,31.494 24.666,31.494 L11.750,31.494 C11.036,31.494 10.458,30.925 10.458,30.223 C10.458,29.520 11.037,28.951 11.750,28.951 Z"/>
</svg>