<?xml version="1.0" encoding="utf-8"?>
<svg xmlns="http://www.w3.org/2000/svg"
	xmlns:xlink="http://www.w3.org/1999/xlink"
	width="45px" height="45px" viewBox="0 0 45 45">
<path fillRule="evenodd" d="M 22.5 45C 7.73 45-0 41.79-0 38.62-0 35.8 5.52 33.19 13.41 32.26 13.82 32.2 14.2 32.5 14.24 32.91 14.29 33.32 14 33.7 13.59 33.74 5.7 34.67 1.5 37.18 1.5 38.62 1.5 40.66 9.49 43.5 22.5 43.5 35.51 43.5 43.5 40.66 43.5 38.62 43.5 37.18 39.3 34.67 31.41 33.74 31 33.7 30.71 33.32 30.76 32.91 30.8 32.5 31.18 32.2 31.59 32.26 39.48 33.19 45 35.8 45 38.62 45 41.79 37.27 45 22.5 45ZM 22.37 41.07C 22.37 41.07 10.84 24.43 10.84 24.43 6.55 18.7 7.17 9.24 12.2 4.21 14.91 1.5 18.53-0 22.37-0 26.21-0 29.82 1.5 32.54 4.21 37.56 9.24 38.19 18.7 33.87 24.45 33.87 24.45 22.37 41.07 22.37 41.07ZM 31.48 5.27C 29.04 2.84 25.81 1.5 22.37 1.5 18.93 1.5 15.69 2.84 13.26 5.27 8.72 9.81 8.16 18.35 12.06 23.55 12.06 23.55 22.37 38.43 22.37 38.43 22.37 38.43 32.66 23.57 32.66 23.57 36.57 18.35 36.01 9.81 31.48 5.27ZM 22.5 19.5C 19.6 19.5 17.25 17.14 17.25 14.25 17.25 11.36 19.6 9 22.5 9 25.39 9 27.75 11.36 27.75 14.25 27.75 17.14 25.39 19.5 22.5 19.5ZM 22.5 10.5C 20.43 10.5 18.75 12.18 18.75 14.25 18.75 16.32 20.43 18 22.5 18 24.57 18 26.25 16.32 26.25 14.25 26.25 12.18 24.57 10.5 22.5 10.5Z" fill="rgb(27,209,161)"/></svg>