<?xml version="1.0" encoding="UTF-8"?>
<svg width="182px" height="174px" viewBox="0 0 182 174" version="1.1" xmlns="http://www.w3.org/2000/svg" xmlns:xlink="http://www.w3.org/1999/xlink">
    <!-- Generator: Sketch 52.6 (67491) - http://www.bohemiancoding.com/sketch -->
    <title>business settings</title>
    <desc>Created with Sketch.</desc>
    <g id="Page-1" stroke="none" stroke-width="1" fill="none" fill-rule="evenodd">
        <g id="business-settings" transform="translate(4.000000, 4.000000)">
            <g id="Layer0_0_FILL-link" transform="translate(113.294798, 107.000000)" fill="#56A1FC" fill-rule="nonzero">
                <g id="Layer0_0_FILL">
                    <path d="M19.1690751,6.65 C18.8656069,6.68333333 18.5789981,6.73333333 18.3092486,6.8 C16.4210019,7.2 14.6844894,7.95 13.099711,9.05 L8.39595376,4.4 L3.69219653,9.05 L8.44653179,13.7 C7.772158,14.7 7.23265896,15.75 6.82803468,16.85 C6.55828516,17.5166667 6.35597303,18.2 6.22109827,18.9 L0.455202312,18.9 L0.404624277,25.45 L6.17052023,25.45 C6.50770713,27.35 7.16522158,29.0833333 8.14306358,30.65 L3.69219653,35.05 L8.39595376,39.65 L12.6950867,35.45 C14.617052,36.85 16.7750482,37.75 19.1690751,38.15 L19.1690751,43.8 L25.7947977,43.8 L25.7947977,38 C28.0202312,37.5 30.0602119,36.55 31.9147399,35.15 C31.9484586,35.1166667 31.9990366,35.0666667 32.066474,35 L36.8208092,39.7 L41.4739884,35.1 L36.3656069,30 C37.1411368,28.6 37.6806358,27.0833333 37.984104,25.45 L44.0534682,25.45 L44.0534682,18.9 L37.882948,18.9 C37.5457611,17.2666667 36.955684,15.75 36.1127168,14.35 L41.4739884,9 L36.8208092,4.4 L31.6618497,9.5 C31.0549133,9.03333333 30.4311175,8.63333333 29.7904624,8.3 C28.5091522,7.6 27.177264,7.1 25.7947977,6.8 L25.7947977,0.3 L19.1690751,0.3 L19.1690751,6.65 Z M24.8843931,15.75 C25.7439562,16.0664062 26.5194861,16.5664062 27.2109827,17.25 C28.2899807,18.3166667 28.9474952,19.5833333 29.183526,21.05 C29.183526,21.35 29.183526,21.6833333 29.183526,22.05 C29.183526,23.9166667 28.5260116,25.5 27.2109827,26.8 C26.7726397,27.2666667 26.300578,27.65 25.7947977,27.95 C24.783237,28.5166667 23.6368015,28.8 22.3554913,28.8 C21.1753372,28.8 20.1131985,28.55 19.1690751,28.05 C18.5958574,27.7166667 18.0563584,27.3 17.550578,26.8 C16.2018304,25.5 15.5274566,23.9166667 15.5274566,22.05 C15.5274566,21.6833333 15.544316,21.35 15.5780347,21.05 C15.6506089,20.5242188 15.7854837,20.0242188 15.982659,19.55 C16.3140505,18.7010417 16.8366901,17.934375 17.550578,17.25 C18.8656069,15.95 20.4672447,15.3 22.3554913,15.3 C23.2666862,15.3 24.1096535,15.45 24.8843931,15.75 Z" id="Shape"></path>
                </g>
            </g>
            <g id="Layer0_0_1_STROKES-link" stroke="#57A1FC" stroke-linecap="round" stroke-linejoin="round" stroke-width="7">
                <path d="M97.0845376,126.55 L0.354046243,126.55 L0.354046243,58.85 L0.354046243,28.35 L27.5650289,28.35 L27.5650289,0.15 L109.501445,0.15 L109.501445,28.35 L138.179191,28.35 L138.179191,64.95 L138.179191,89.775 M27.5650289,28.35 L39.9566474,28.35 L39.9566474,12.4 L97.0592486,12.4 L97.0592486,28.35 L109.501445,28.35 M138.179191,64.95 L81.0765896,81.8 L81.0765896,95.85 L57.4566474,95.85 L57.4566474,81.175 L0.354046243,58.85 M57.4566474,81.175 L57.4566474,73.75 L81.0765896,73.75 L81.0765896,81.8 M39.9566474,28.35 L97.0592486,28.35" id="Layer0_0_1_STROKES"></path>
            </g>
            <g id="Layer0_0_2_STROKES-link" transform="translate(96.098266, 89.000000)" stroke="#56A1FC" stroke-linecap="round" stroke-linejoin="round" stroke-width="7">
                <path d="M42.0809249,0.775 C51.577346,1.34622396 59.7709876,5.03789062 66.6618497,11.85 C74.1811175,19.2833333 77.9407514,28.25 77.9407514,38.75 C77.9407514,49.25 74.1811175,58.2166667 66.6618497,65.65 C59.1425819,73.0833333 50.0722543,76.8 39.4508671,76.8 C28.8294798,76.8 19.7591522,73.0833333 12.2398844,65.65 C4.72061657,58.2166667 0.960982659,49.25 0.960982659,38.75 C0.960982659,38.3479167 0.969412331,37.9479167 0.986271676,37.55 C1.25733833,27.5653646 5.00854257,18.9986979 12.2398844,11.85 C19.7591522,4.41666667 28.8294798,0.7 39.4508671,0.7 C40.3384852,0.7 41.2151712,0.725 42.0809249,0.775 Z" id="Layer0_0_2_STROKES"></path>
            </g>
        </g>
    </g>
</svg>