<?xml version="1.0" encoding="utf-8"?>
<svg xmlns="http://www.w3.org/2000/svg"
	xmlns:xlink="http://www.w3.org/1999/xlink"
	width="39px" height="28px" viewBox="0 0 39 28">
<path fillRule="evenodd" d="M 38.11 28C 38.11 28 0.89 28 0.89 28 0.4 28-0 27.61-0 27.12-0 27.12-0 0.87-0 0.87-0 0.39 0.4-0 0.89-0 0.89-0 38.11-0 38.11-0 38.6-0 39 0.39 39 0.87 39 0.87 39 27.12 39 27.12 39 27.61 38.6 28 38.11 28ZM 36.86 26.25C 36.86 26.25 24.99 14.53 24.99 14.53 24.99 14.53 20.13 19.34 20.13 19.34 19.78 19.68 19.22 19.68 18.87 19.34 18.87 19.34 14.01 14.53 14.01 14.53 14.01 14.53 2.14 26.25 2.14 26.25 2.14 26.25 36.86 26.25 36.86 26.25ZM 1.77 24.13C 1.77 24.13 12.75 13.3 12.75 13.3 12.75 13.3 1.77 2.46 1.77 2.46 1.77 2.46 1.77 24.13 1.77 24.13ZM 3.56 1.75C 3.56 1.75 19.5 17.48 19.5 17.48 19.5 17.48 35.44 1.75 35.44 1.75 35.44 1.75 3.56 1.75 3.56 1.75ZM 37.23 2.46C 37.23 2.46 26.25 13.3 26.25 13.3 26.25 13.3 37.23 24.13 37.23 24.13 37.23 24.13 37.23 2.46 37.23 2.46Z" fill="rgb(45,133,221)"/></svg>