<?xml version="1.0" encoding="utf-8"?>
<svg xmlns="http://www.w3.org/2000/svg"
	xmlns:xlink="http://www.w3.org/1999/xlink"
	width="42px" height="42px" viewBox="0 0 42 42">
<path fillRule="evenodd" d="M 28.25 39C 28.25 39 28.25 13.91 28.25 13.91 28.25 13.91 3 13.91 3 13.91 3 13.91 3 39 3 39 3 39 28.25 39 28.25 39M 31.25 42C 31.25 42-0 42-0 42-0 42-0 10.91-0 10.91-0 10.91 31.25 10.91 31.25 10.91 31.25 10.91 31.25 42 31.25 42 31.25 42 31.25 42 31.25 42Z" fill="rgb(255,159,243)"/><path fillRule="evenodd" d="M 39 28.09C 39 28.09 39 3 39 3 39 3 13.75 3 13.75 3 13.75 3 13.75 28.09 13.75 28.09 13.75 28.09 39 28.09 39 28.09M 42 31.09C 42 31.09 10.75 31.09 10.75 31.09 10.75 31.09 10.75-0 10.75-0 10.75-0 42-0 42-0 42-0 42 31.09 42 31.09 42 31.09 42 31.09 42 31.09Z" fill="rgb(255,159,243)"/></svg>