<?xml version="1.0" encoding="utf-8"?>
<svg xmlns="http://www.w3.org/2000/svg"
	xmlns:xlink="http://www.w3.org/1999/xlink"
	width="32px" height="42px" viewBox="0 0 32 42">
<path fillRule="evenodd" d="M 16.61 41.73C 16.59 41.75 16.57 41.77 16.55 41.79 16.21 42.09 15.69 42.06 15.39 41.73 14.76 41.03-0 24.47-0 15.92 0 7.13 7.17 0.01 16-0 24.84 0.01 32 7.13 32 15.92 32 24.47 17.24 41.02 16.61 41.73ZM 16 1.64C 8.07 1.64 1.65 8.03 1.65 15.91 1.65 22.91 13.19 36.66 16 39.93 18.82 36.68 30.36 22.91 30.36 15.91 30.36 8.03 23.93 1.64 16 1.64ZM 16.31 25.23C 11.52 25.23 7.63 21.38 7.63 16.61 7.62 11.85 11.5 7.99 16.29 7.98 21.08 7.99 24.96 11.84 24.97 16.61 24.97 21.36 21.1 25.22 16.31 25.23ZM 16.29 9.63C 12.41 9.63 9.27 12.76 9.27 16.61 9.27 20.47 12.41 23.6 16.29 23.6 20.17 23.59 23.31 20.47 23.32 16.61 23.32 12.76 20.17 9.63 16.29 9.63Z" fill="rgb(243,103,223)"/></svg>