<?xml version="1.0" encoding="utf-8"?>
<svg xmlns="http://www.w3.org/2000/svg"
	xmlns:xlink="http://www.w3.org/1999/xlink"
	width="27px" height="45px" viewBox="0 0 27 45">
<path fillRule="evenodd" d="M 23.06 45C 23.06 45 3.94 45 3.94 45 1.77 45 0 43.23-0 41.06-0 41.06-0 3.94-0 3.94 0 1.77 1.77 0 3.94-0 3.94-0 23.06-0 23.06-0 25.23 0 27 1.77 27 3.94 27 3.94 27 41.06 27 41.06 27 43.23 25.23 45 23.06 45ZM 25.5 3.94C 25.5 2.59 24.41 1.5 23.06 1.5 23.06 1.5 3.94 1.5 3.94 1.5 2.59 1.5 1.5 2.59 1.5 3.94 1.5 3.94 1.5 6.75 1.5 6.75 1.5 6.75 25.5 6.75 25.5 6.75 25.5 6.75 25.5 3.94 25.5 3.94ZM 25.5 8.25C 25.5 8.25 1.5 8.25 1.5 8.25 1.5 8.25 1.5 37.5 1.5 37.5 1.5 37.5 25.5 37.5 25.5 37.5 25.5 37.5 25.5 8.25 25.5 8.25ZM 25.5 39C 25.5 39 1.5 39 1.5 39 1.5 39 1.5 41.06 1.5 41.06 1.5 42.41 2.59 43.5 3.94 43.5 3.94 43.5 23.06 43.5 23.06 43.5 24.41 43.5 25.5 42.41 25.5 41.06 25.5 41.06 25.5 39 25.5 39ZM 12 40.5C 12 40.5 15 40.5 15 40.5 15 40.5 15 42 15 42 15 42 12 42 12 42 12 42 12 40.5 12 40.5ZM 13.5 20.25C 13.5 20.25 3 20.25 3 20.25 3 20.25 3 11.25 3 11.25 3 11.25 13.5 11.25 13.5 11.25 13.5 11.25 13.5 20.25 13.5 20.25ZM 12 12.75C 12 12.75 4.5 12.75 4.5 12.75 4.5 12.75 4.5 18.75 4.5 18.75 4.5 18.75 12 18.75 12 18.75 12 18.75 12 12.75 12 12.75ZM 13.5 30.75C 13.5 30.75 3 30.75 3 30.75 3 30.75 3 21.75 3 21.75 3 21.75 13.5 21.75 13.5 21.75 13.5 21.75 13.5 30.75 13.5 30.75ZM 12 23.25C 12 23.25 4.5 23.25 4.5 23.25 4.5 23.25 4.5 29.25 4.5 29.25 4.5 29.25 12 29.25 12 29.25 12 29.25 12 23.25 12 23.25ZM 16.5 36C 16.5 36 7.5 36 7.5 36 7.5 36 7.5 34.5 7.5 34.5 7.5 34.5 16.5 34.5 16.5 34.5 16.5 34.5 16.5 36 16.5 36ZM 24 36C 24 36 18 36 18 36 18 36 18 31.5 18 31.5 18 31.5 24 31.5 24 31.5 24 31.5 24 36 24 36ZM 22.5 33C 22.5 33 19.5 33 19.5 33 19.5 33 19.5 34.5 19.5 34.5 19.5 34.5 22.5 34.5 22.5 34.5 22.5 34.5 22.5 33 22.5 33ZM 15 27.75C 15 27.75 24 27.75 24 27.75 24 27.75 24 29.25 24 29.25 24 29.25 15 29.25 15 29.25 15 29.25 15 27.75 15 27.75ZM 19.5 24.75C 19.5 24.75 24 24.75 24 24.75 24 24.75 24 26.25 24 26.25 24 26.25 19.5 26.25 19.5 26.25 19.5 26.25 19.5 24.75 19.5 24.75ZM 15 26.25C 15 26.25 15 24.75 15 24.75 15 24.75 18 24.75 18 24.75 18 24.75 18 26.25 18 26.25 18 26.25 15 26.25 15 26.25ZM 15 21.75C 15 21.75 24 21.75 24 21.75 24 21.75 24 23.25 24 23.25 24 23.25 15 23.25 15 23.25 15 23.25 15 21.75 15 21.75ZM 15 17.25C 15 17.25 24 17.25 24 17.25 24 17.25 24 18.75 24 18.75 24 18.75 15 18.75 15 18.75 15 18.75 15 17.25 15 17.25ZM 19.5 14.25C 19.5 14.25 24 14.25 24 14.25 24 14.25 24 15.75 24 15.75 24 15.75 19.5 15.75 19.5 15.75 19.5 15.75 19.5 14.25 19.5 14.25ZM 15 15.75C 15 15.75 15 14.25 15 14.25 15 14.25 18 14.25 18 14.25 18 14.25 18 15.75 18 15.75 18 15.75 15 15.75 15 15.75ZM 15 11.25C 15 11.25 24 11.25 24 11.25 24 11.25 24 12.75 24 12.75 24 12.75 15 12.75 15 12.75 15 12.75 15 11.25 15 11.25ZM 15.75 5.25C 15.75 5.25 8.25 5.25 8.25 5.25 8.25 5.25 8.25 3.75 8.25 3.75 8.25 3.75 15.75 3.75 15.75 3.75 15.75 3.75 15.75 5.25 15.75 5.25ZM 18.75 5.25C 18.75 5.25 17.25 5.25 17.25 5.25 17.25 5.25 17.25 3.75 17.25 3.75 17.25 3.75 18.75 3.75 18.75 3.75 18.75 3.75 18.75 5.25 18.75 5.25Z" fill="rgb(255,159,243)"/></svg>