<?xml version="1.0" encoding="utf-8"?>
<svg xmlns="http://www.w3.org/2000/svg"
	xmlns:xlink="http://www.w3.org/1999/xlink"
	width="61px" height="36px" viewBox="0 0 61 36">
<path fillRule="evenodd" d="M 59.98 32.14C 59.98 32.14 43.89 32.14 43.89 32.14 43.89 32.14 43.89 34.97 43.89 34.97 43.89 35.54 43.43 35.99 42.87 35.99 42.87 35.99 18.13 35.99 18.13 35.99 17.57 35.99 17.11 35.54 17.11 34.97 17.11 34.97 17.11 32.14 17.11 32.14 17.11 32.14 1.02 32.14 1.02 32.14 0.46 32.14 0.01 31.68 0.01 31.12 0.01 31.12 0.01 25.74 0.01 25.74 0.02 20.47 4.24 16.2 9.45 16.19 9.45 16.19 17.3 16.19 17.3 16.19 18.92 16.19 20.51 16.61 21.92 17.42 23.12 18.11 24.16 19.05 24.97 20.19 25.5 20.09 26.04 20.04 26.59 20.04 26.59 20.04 34.44 20.04 34.44 20.04 34.98 20.04 35.53 20.09 36.06 20.19 36.87 19.05 37.91 18.11 39.11 17.42 40.52 16.61 42.11 16.19 43.73 16.19 43.73 16.19 51.58 16.19 51.58 16.19 56.78 16.22 60.98 20.48 60.99 25.74 60.99 25.74 60.99 31.11 60.99 31.11 60.99 31.68 60.54 32.14 59.98 32.14ZM 20.92 19.2C 19.81 18.57 18.57 18.24 17.3 18.24 17.3 18.24 9.45 18.24 9.45 18.24 5.36 18.25 2.05 21.6 2.03 25.74 2.03 25.74 2.03 30.09 2.03 30.09 2.03 30.09 17.22 30.09 17.22 30.09 17.22 30.09 17.22 29.59 17.22 29.59 17.22 29.59 17.22 29.18 17.22 29.18 17.22 29.08 17.22 28.99 17.22 28.89 17.22 28.89 17.22 28.67 17.22 28.67 17.56 25.21 19.73 22.21 22.89 20.82 22.33 20.17 21.66 19.63 20.92 19.2ZM 34.44 22.1C 34.44 22.1 26.59 22.1 26.59 22.1 26.59 22.1 26.39 22.22 26.39 22.22 23.18 22.23 20.34 24.31 19.33 27.39 19.33 27.39 19.28 27.56 19.28 27.56 19.28 27.56 19.21 27.82 19.21 27.82 19.21 27.82 19.17 27.99 19.17 27.99 19.17 27.99 19.17 28.14 19.17 28.14 19.17 28.14 19.17 28.22 19.17 28.22 19.17 28.22 19.17 28.29 19.17 28.29 19.17 28.29 19.17 28.52 19.17 28.52 19.17 28.59 19.17 28.66 19.17 28.73 19.17 28.73 19.17 28.91 19.17 28.91 19.17 29.04 19.17 29.16 19.17 29.28 19.17 29.36 19.17 29.43 19.17 29.52 19.17 29.52 19.17 33.95 19.17 33.95 19.17 33.95 41.84 33.95 41.84 33.95 41.84 33.95 41.84 29.59 41.84 29.59 41.84 29.43 41.84 29.27 41.84 29.11 41.79 28.96 41.79 28.8 41.79 28.65 41.31 24.91 38.16 22.12 34.44 22.1ZM 58.99 25.74C 58.98 21.6 55.67 18.25 51.58 18.24 51.58 18.24 43.72 18.24 43.72 18.24 42.45 18.24 41.21 18.57 40.1 19.2 39.51 19.68 39 20.24 38.58 20.87 40.96 21.91 42.82 23.88 43.73 26.33 43.73 26.33 43.83 26.6 43.83 26.6 43.83 26.6 43.83 26.69 43.83 26.69 43.83 26.69 43.83 26.76 43.83 26.76 43.83 26.76 43.83 26.81 43.83 26.81 43.83 26.81 43.83 26.88 43.83 26.88 43.83 26.88 43.83 26.95 43.83 26.95 43.83 26.95 43.88 27.12 43.88 27.12 43.88 27.12 43.88 27.22 43.88 27.22 43.88 27.22 43.88 27.31 43.88 27.31 43.88 27.31 43.88 27.38 43.88 27.38 43.88 27.38 43.88 27.53 43.88 27.53 43.88 27.53 43.88 27.6 43.88 27.6 43.88 27.6 43.88 27.66 43.88 27.66 43.88 27.66 43.88 27.73 43.88 27.73 43.88 27.73 43.88 27.78 43.88 27.78 43.88 27.78 43.88 27.87 43.88 27.87 43.88 27.87 43.88 27.97 43.88 27.97 43.88 27.97 43.88 28.02 43.88 28.02 43.88 28.02 43.88 28.09 43.88 28.09 43.88 28.09 43.88 28.18 43.88 28.18 43.88 28.18 43.88 28.21 43.88 28.21 43.88 28.21 43.88 28.43 43.88 28.43 43.88 28.43 43.88 28.55 43.88 28.55 43.88 28.55 43.88 28.66 43.88 28.66 43.88 28.77 43.88 28.89 43.88 29.01 43.88 29.09 43.88 29.17 43.88 29.25 43.88 29.32 43.88 29.4 43.88 29.48 43.88 29.48 43.88 30.1 43.88 30.1 43.88 30.1 58.99 30.1 58.99 30.1 58.99 30.1 58.99 25.74 58.99 25.74ZM 47.65 14.45C 45.75 14.45 43.94 13.69 42.6 12.33 41.26 10.97 40.51 9.13 40.51 7.22 40.52 3.23 43.72 0 47.66 0 51.61 0.01 54.8 3.24 54.8 7.23 54.8 11.22 51.6 14.45 47.65 14.45ZM 51.27 3.57C 49.28 1.55 46.04 1.55 44.04 3.57 43.08 4.54 42.54 5.85 42.54 7.23 42.54 8.6 43.08 9.91 44.04 10.88 46.04 12.9 49.28 12.9 51.28 10.88 53.27 8.86 53.27 5.59 51.27 3.57ZM 25.48 16.19C 22.69 13.37 22.68 8.8 25.46 5.98 26.8 4.62 28.62 3.86 30.51 3.86 32.4 3.86 34.22 4.62 35.56 5.96 38.35 8.78 38.36 13.35 35.57 16.17 32.79 18.99 28.27 19 25.48 16.19ZM 34.13 7.43C 33.17 6.46 31.87 5.92 30.52 5.92 27.69 5.92 25.4 8.23 25.4 11.09 25.4 13.94 27.69 16.26 30.51 16.26 33.34 16.26 35.63 13.94 35.63 11.09 35.63 9.72 35.09 8.4 34.13 7.43ZM 13.36 14.46C 9.41 14.45 6.22 11.22 6.22 7.23 6.22 3.24 9.42 0.01 13.37 0.01 15.27 0.01 17.09 0.77 18.42 2.13 19.76 3.49 20.51 5.33 20.51 7.24 20.5 11.23 17.3 14.46 13.36 14.46ZM 18.49 7.23C 18.49 5.86 17.95 4.54 16.99 3.57 14.99 1.55 11.75 1.55 9.75 3.57 7.76 5.59 7.76 8.87 9.75 10.89 11.75 12.9 14.99 12.9 16.99 10.88 17.95 9.91 18.49 8.6 18.49 7.23Z" fill="rgb(9,189,227)"/></svg>