<?xml version="1.0" encoding="utf-8"?>
<svg xmlns="http://www.w3.org/2000/svg"
	xmlns:xlink="http://www.w3.org/1999/xlink"
	width="48px" height="44px" viewBox="0 0 48 44">
<path fillRule="evenodd" d="M 42.99 44.01C 42.99 44.01 5.01 44.01 5.01 44.01 2.25 44.01 0.01 41.77 0.01 39.01 0.01 39.01 0.01 4.99 0.01 4.99 0.01 2.23 2.25-0.01 5.01-0.01 5.01-0.01 42.99-0.01 42.99-0.01 45.75-0.01 47.99 2.23 47.99 4.99 47.99 4.99 47.99 39.01 47.99 39.01 47.99 41.77 45.75 44.01 42.99 44.01ZM 45.99 4.99C 45.99 3.34 44.65 1.99 42.99 1.99 42.99 1.99 5.01 1.99 5.01 1.99 3.35 1.99 2.01 3.34 2.01 4.99 2.01 4.99 2.01 7.99 2.01 7.99 2.01 7.99 45.99 7.99 45.99 7.99 45.99 7.99 45.99 4.99 45.99 4.99ZM 45.99 39.01C 45.99 39.01 45.99 9.99 45.99 9.99 45.99 9.99 2.01 9.99 2.01 9.99 2.01 9.99 2.01 39.01 2.01 39.01 2.01 40.66 3.35 42.01 5.01 42.01 5.01 42.01 42.99 42.01 42.99 42.01 44.65 42.01 45.99 40.66 45.99 39.01 45.99 39.01 45.99 39.01 45.99 39.01ZM 42.99 30C 42.99 30 29 30 29 30 28.45 30 28 29.56 28 29 28 28.45 28.45 28 29 28 29 28 42.99 28 42.99 28 43.55 28 43.99 28.45 43.99 29 43.99 29.56 43.55 30 42.99 30ZM 42.99 24C 42.99 24 29 24 29 24 28.45 24 28 23.55 28 23 28 22.45 28.45 22 29 22 29 22 42.99 22 42.99 22 43.55 22 43.99 22.45 43.99 23 43.99 23.55 43.55 24 42.99 24ZM 42.99 18C 42.99 18 29 18 29 18 28.45 18 28 17.55 28 17 28 16.44 28.45 16 29 16 29 16 42.99 16 42.99 16 43.55 16 43.99 16.44 43.99 17 43.99 17.55 43.55 18 42.99 18ZM 25 36.01C 25 36.01 5.01 36.01 5.01 36.01 4.74 36.01 4.49 35.9 4.3 35.72 4.11 35.53 4.01 35.27 4.01 35.01 4.01 32.5 5.71 30.32 8.13 29.71 8.13 29.71 11.14 28.96 11.14 28.96 11.14 28.96 11.28 28.37 11.28 28.37 10.55 27.53 10.03 26.48 9.8 25.39 9.19 25.12 8.78 24.58 8.7 23.93 8.7 23.93 8.48 22.19 8.48 22.19 8.41 21.66 8.58 21.12 8.93 20.72 9.05 20.59 9.19 20.47 9.34 20.38 9.28 19.86 9.22 19.24 9.22 18.91 9.22 17.24 9.7 15.02 13.82 14.87 15.21 14 16.65 14 17.29 14 19.45 14 20.53 14.95 21.06 15.75 22.16 17.44 21.46 18.61 20.95 19.16 20.95 19.16 20.76 19.34 20.76 19.34 20.76 19.34 20.71 20.41 20.71 20.41 20.85 20.5 20.97 20.61 21.08 20.73 21.43 21.13 21.59 21.66 21.52 22.19 21.52 22.19 21.31 23.93 21.31 23.93 21.23 24.56 20.84 25.08 20.31 25.36 20.08 26.5 19.53 27.6 18.75 28.46 18.75 28.46 18.87 28.96 18.87 28.96 18.87 28.96 21.87 29.71 21.87 29.71 24.3 30.32 26 32.5 26 35 26 35.56 25.55 36.01 25 36.01ZM 21.39 31.65C 21.39 31.65 17.8 30.76 17.8 30.76 17.44 30.67 17.16 30.39 17.07 30.03 17.07 30.03 16.67 28.39 16.67 28.39 16.58 28.03 16.69 27.65 16.97 27.41 17.77 26.68 18.33 25.57 18.41 24.49 18.46 23.97 18.89 23.57 19.41 23.57 19.41 23.57 19.54 21.94 19.54 21.94 19.27 21.94 19.07 21.9 18.89 21.7 18.7 21.5 18.67 21.31 18.68 21.04 18.68 21.04 18.79 18.86 18.79 18.86 18.8 18.61 18.9 18.38 19.08 18.2 19.08 18.2 19.51 17.77 19.51 17.77 19.62 17.65 19.79 17.47 19.38 16.85 19.01 16.27 18.32 16 17.29 16 16.76 16 15.67 16 14.72 16.68 14.55 16.8 14.35 16.86 14.14 16.87 11.22 16.9 11.22 17.87 11.22 18.91 11.22 19.26 11.34 20.36 11.42 20.96 11.46 21.25 11.37 21.53 11.18 21.75 10.99 21.96 10.72 22.08 10.43 22.08 10.43 22.08 10.69 23.68 10.69 23.68 11.21 23.68 11.65 23.97 11.69 24.48 11.78 25.54 12.29 26.61 13.07 27.35 13.34 27.59 13.45 27.97 13.36 28.32 13.36 28.32 12.93 30.03 12.93 30.03 12.84 30.38 12.56 30.66 12.21 30.75 12.21 30.75 8.62 31.65 8.62 31.65 7.42 31.96 6.5 32.86 6.15 34 6.15 34 23.85 34.01 23.85 34.01 23.51 32.86 22.59 31.95 21.39 31.65ZM 29 34.01C 29 34.01 37 34.01 37 34.01 37.55 34.01 38 34.45 38 35.01 38 35.56 37.55 36.01 37 36.01 37 36.01 29 36.01 29 36.01 28.45 36.01 28 35.56 28 35.01 28 34.45 28.45 34.01 29 34.01ZM 5.01 3.99C 5.56 3.99 6.01 4.44 6.01 4.99 6.01 5.54 5.56 5.99 5.01 5.99 4.45 5.99 4.01 5.54 4.01 4.99 4.01 4.44 4.45 3.99 5.01 3.99ZM 9 3.99C 9.56 3.99 10 4.44 10 4.99 10 5.54 9.56 5.99 9 5.99 8.45 5.99 8 5.54 8 4.99 8 4.44 8.45 3.99 9 3.99ZM 13 3.99C 13.56 3.99 14 4.44 14 4.99 14 5.54 13.56 5.99 13 5.99 12.45 5.99 12 5.54 12 4.99 12 4.44 12.45 3.99 13 3.99Z" fill="rgb(83,159,255)"/></svg>