<?xml version="1.0" encoding="utf-8"?>
<svg xmlns="http://www.w3.org/2000/svg"
	xmlns:xlink="http://www.w3.org/1999/xlink"
	width="54px" height="43px" viewBox="0 0 54 43">
<path fillRule="evenodd" d="M 52.95 22.56C 52.95 22.56 49.99 22.56 49.99 22.56 49.41 22.56 48.93 22.09 48.93 21.5 48.93 20.91 49.41 20.44 49.99 20.44 49.99 20.44 52.95 20.44 52.95 20.44 53.53 20.44 54 20.91 54 21.5 54 22.09 53.53 22.56 52.95 22.56ZM 50.52 17.33C 50.35 17.43 50.17 17.48 49.99 17.48 49.62 17.48 49.27 17.29 49.07 16.95 48.78 16.44 48.96 15.79 49.46 15.49 49.46 15.49 51.4 14.36 51.4 14.36 51.9 14.07 52.55 14.24 52.84 14.75 53.13 15.26 52.96 15.91 52.45 16.21 52.45 16.21 50.52 17.33 50.52 17.33ZM 40.44 43C 40.09 43 39.75 42.92 39.42 42.75 39.42 42.75 24.68 36.5 24.68 36.5 24.68 36.5 24.68 36.56 24.68 36.56 24.68 38.23 23.33 39.59 21.67 39.59 21.67 39.59 12.08 39.59 12.08 39.59 10.42 39.59 9.07 38.23 9.07 36.56 9.07 36.56 9.07 29.88 9.07 29.88 9.07 29.88 6.34 28.73 6.34 28.73 6.34 28.73 6.34 28.72 6.33 28.72 6.33 28.72 0.65 26.31 0.65 26.31 0.25 26.15-0 25.76-0 25.33-0 25.33-0 17.67-0 17.67-0 17.24 0.25 16.85 0.65 16.69 0.65 16.69 39.42 0.25 39.42 0.25 39.75 0.08 40.09-0 40.44-0 42.3-0 43.71 2.23 44.75 6.81 45.65 10.75 46.14 15.96 46.14 21.5 46.14 27.04 45.65 32.25 44.75 36.19 43.71 40.77 42.3 43 40.44 43ZM 11.18 36.56C 11.18 37.06 11.58 37.47 12.08 37.47 12.08 37.47 21.67 37.47 21.67 37.47 22.17 37.47 22.57 37.06 22.57 36.56 22.57 36.56 22.57 36.56 22.57 36.56 22.57 36.56 22.57 35.61 22.57 35.61 22.57 35.61 11.18 30.78 11.18 30.78 11.18 30.78 11.18 36.56 11.18 36.56ZM 2.11 18.37C 2.11 18.37 2.11 24.62 2.11 24.62 2.11 24.62 5.69 26.14 5.69 26.14 5.69 26.14 5.69 21.48 5.69 21.48 5.69 20.9 6.17 20.42 6.75 20.42 7.33 20.42 7.8 20.9 7.8 21.48 7.8 21.48 7.8 27.04 7.8 27.04 7.8 27.04 37.08 39.45 37.08 39.45 36.74 38.54 36.42 37.46 36.13 36.19 35.24 32.25 34.75 27.04 34.75 21.5 34.75 17.23 35.04 13.14 35.59 9.69 35.59 9.69 24.82 13.78 24.82 13.78 24.7 13.83 24.58 13.85 24.45 13.85 24.03 13.85 23.62 13.59 23.47 13.16 23.26 12.61 23.54 12 24.08 11.79 24.08 11.79 36.04 7.25 36.04 7.25 36.07 7.1 36.1 6.96 36.13 6.81 36.42 5.54 36.74 4.46 37.08 3.55 37.08 3.55 2.11 18.37 2.11 18.37ZM 36.95 25.45C 38.81 25.13 40.23 23.48 40.23 21.51 40.23 19.54 38.81 17.9 36.94 17.58 36.89 18.86 36.86 20.17 36.86 21.5 36.86 22.84 36.89 24.16 36.95 25.45ZM 42.7 7.29C 41.73 3.05 40.66 2.13 40.44 2.13 40.44 2.13 40.43 2.13 40.43 2.13 40.43 2.13 40.34 2.17 40.34 2.17 39.98 2.39 39.04 3.54 38.19 7.29 37.66 9.6 37.28 12.4 37.07 15.45 40.04 15.84 42.34 18.41 42.34 21.51 42.34 24.62 40.04 27.19 37.07 27.58 37.29 30.62 37.67 33.4 38.19 35.71 39.04 39.46 39.98 40.62 40.34 40.83 40.34 40.83 40.36 40.84 40.36 40.84 40.38 40.85 40.4 40.86 40.41 40.87 40.42 40.87 40.44 40.87 40.44 40.87 40.66 40.87 41.73 39.95 42.7 35.71 43.56 31.93 44.03 26.88 44.03 21.5 44.03 16.12 43.56 11.07 42.7 7.29ZM 20.42 15.45C 20.42 15.45 20.4 15.46 20.4 15.46 20.28 15.51 20.15 15.53 20.03 15.53 19.6 15.53 19.2 15.27 19.04 14.84 18.84 14.29 19.11 13.68 19.66 13.47 19.66 13.47 19.68 13.46 19.68 13.46 20.23 13.26 20.84 13.53 21.04 14.09 21.25 14.64 20.97 15.25 20.42 15.45ZM 50.52 25.67C 50.52 25.67 52.45 26.79 52.45 26.79 52.96 27.09 53.13 27.74 52.84 28.25 52.64 28.59 52.29 28.78 51.92 28.78 51.74 28.78 51.56 28.73 51.4 28.64 51.4 28.64 49.46 27.51 49.46 27.51 48.96 27.21 48.78 26.56 49.07 26.05 49.37 25.55 50.01 25.37 50.52 25.67Z" fill="rgb(45,133,221)"/></svg>