<?xml version="1.0" encoding="utf-8"?>
<svg xmlns="http://www.w3.org/2000/svg"
	xmlns:xlink="http://www.w3.org/1999/xlink"
	width="32px" height="41px" viewBox="0 0 32 41">
<path fillRule="evenodd" d="M 29.47 41C 29.47 41 2.53 41 2.53 41 1.13 41-0 39.85-0 38.44-0 38.44-0 2.56-0 2.56-0 1.15 1.13-0 2.53-0 2.53-0 24.42-0 24.42-0 24.64-0 24.86 0.09 25.02 0.25 25.02 0.25 31.75 7.08 31.75 7.08 31.91 7.24 32 7.46 32 7.69 32 7.69 32 38.44 32 38.44 32 39.85 30.87 41 29.47 41ZM 30.32 8.04C 30.32 8.04 25.26 2.92 25.26 2.92 25.26 2.92 25.26 5.98 25.26 5.98 25.26 6.45 25.64 6.83 26.11 6.83 26.11 6.83 27.79 6.83 27.79 6.83 27.79 6.83 27.79 8.54 27.79 8.54 27.79 8.54 26.11 8.54 26.11 8.54 24.71 8.54 23.58 7.39 23.58 5.98 23.58 5.98 23.58 1.71 23.58 1.71 23.58 1.71 2.53 1.71 2.53 1.71 2.06 1.71 1.68 2.09 1.68 2.56 1.68 2.56 1.68 38.44 1.68 38.44 1.68 38.91 2.06 39.29 2.53 39.29 2.53 39.29 29.47 39.29 29.47 39.29 29.94 39.29 30.32 38.91 30.32 38.44 30.32 38.44 30.32 8.04 30.32 8.04ZM 5.05 33.31C 5.05 33.31 26.95 33.31 26.95 33.31 26.95 33.31 26.95 35.02 26.95 35.02 26.95 35.02 5.05 35.02 5.05 35.02 5.05 35.02 5.05 33.31 5.05 33.31ZM 25.26 29.04C 25.26 29.04 26.95 29.04 26.95 29.04 26.95 29.04 26.95 30.75 26.95 30.75 26.95 30.75 25.26 30.75 25.26 30.75 25.26 30.75 25.26 29.04 25.26 29.04ZM 21.89 30.75C 21.89 30.75 21.89 29.04 21.89 29.04 21.89 29.04 23.58 29.04 23.58 29.04 23.58 29.04 23.58 30.75 23.58 30.75 23.58 30.75 21.89 30.75 21.89 30.75ZM 25.26 26.48C 25.26 26.48 6.74 26.48 6.74 26.48 5.81 26.48 5.05 25.71 5.05 24.77 5.05 24.77 5.05 14.52 5.05 14.52 5.05 13.58 5.81 12.81 6.74 12.81 6.74 12.81 25.26 12.81 25.26 12.81 26.19 12.81 26.95 13.58 26.95 14.52 26.95 14.52 26.95 24.77 26.95 24.77 26.95 25.71 26.19 26.48 25.26 26.48ZM 25.26 14.52C 25.26 14.52 6.74 14.52 6.74 14.52 6.74 14.52 6.74 24.77 6.74 24.77 6.74 24.77 25.26 24.77 25.26 24.77 25.26 24.77 25.26 24.77 25.26 24.77 25.26 24.77 25.26 14.52 25.26 14.52ZM 8.42 10.25C 8.42 10.25 8.42 8.54 8.42 8.54 8.42 8.54 10.11 8.54 10.11 8.54 10.11 8.54 10.11 10.25 10.11 10.25 10.11 10.25 8.42 10.25 8.42 10.25ZM 5.05 5.12C 5.05 5.12 13.47 5.12 13.47 5.12 13.47 5.12 13.47 6.83 13.47 6.83 13.47 6.83 5.05 6.83 5.05 6.83 5.05 6.83 5.05 5.12 5.05 5.12ZM 6.74 10.25C 6.74 10.25 5.05 10.25 5.05 10.25 5.05 10.25 5.05 8.54 5.05 8.54 5.05 8.54 6.74 8.54 6.74 8.54 6.74 8.54 6.74 10.25 6.74 10.25ZM 18.53 30.75C 18.53 30.75 5.05 30.75 5.05 30.75 5.05 30.75 5.05 29.04 5.05 29.04 5.05 29.04 18.53 29.04 18.53 29.04 18.53 29.04 18.53 30.75 18.53 30.75Z" fill="rgb(95,39,205)"/></svg>