<?xml version="1.0" encoding="UTF-8"?>
<svg width="204px" height="160px" viewBox="0 0 204 160" version="1.1" xmlns="http://www.w3.org/2000/svg" xmlns:xlink="http://www.w3.org/1999/xlink">
    <!-- Generator: Sketch 52.6 (67491) - http://www.bohemiancoding.com/sketch -->
    <title>roles</title>
    <desc>Created with Sketch.</desc>
    <g id="Page-1" stroke="none" stroke-width="1" fill="none" fill-rule="evenodd" stroke-linecap="round" stroke-linejoin="round">
        <g id="roles" transform="translate(4.000000, 4.000000)" stroke="#57A1FC" stroke-width="7">
            <path d="M111.2,2.75 C113.6,1.18333333 116.5,0.4 119.9,0.4 C123.3,0.4 126.2,1.18333333 128.6,2.75 C130.619531,4.06822917 131.786198,5.60989583 132.1,7.375 C148.036328,9.44101562 161.969661,15.899349 173.9,26.75 C186.866667,38.55 194.15,59.8666667 195.75,90.7 C185.083333,108.4 158.7,119.266667 116.6,123.3 C86.1,150.8 53.5333333,158.766667 18.9,147.2 C-5.00039062,131.989453 -6.03372396,118.639453 15.8,107.15 L46.55,90.15 C47.55,59.4833333 54.4166667,38.35 67.15,26.75 C78.7740885,16.2016927 92.2740885,9.80169271 107.65,7.55 C107.927865,5.71354167 109.111198,4.11354167 111.2,2.75 Z M132.1,7.375 C132.166667,7.70950521 132.2,8.05117188 132.2,8.4 C132.2,10.6 131,12.4833333 128.6,14.05 C126.2,15.6166667 123.3,16.4 119.9,16.4 C116.5,16.4 113.6,15.6166667 111.2,14.05 C108.8,12.4833333 107.6,10.6 107.6,8.4 C107.6,8.11471354 107.616667,7.83138021 107.65,7.55 L132.1,7.375 Z M135.95,37.35 C147.65,54.6833333 153.383333,75.5666667 153.15,100 L135.95,37.35 Z M116.6,123.3 C76.4,122.7 53.0166667,113.15 46.45,94.65 C46.4833333,93.1166667 46.5166667,91.6166667 46.55,90.15 L116.6,123.3 Z" id="Layer0_0_1_STROKES"></path>
        </g>
    </g>
</svg>