<?xml version="1.0" encoding="utf-8"?>
<svg xmlns="http://www.w3.org/2000/svg"
	xmlns:xlink="http://www.w3.org/1999/xlink"
	width="46px" height="46px" viewBox="0 0 46 46">
<g><path fillRule="evenodd" d="M 43.7 26.07C 43.7 26.07 42.93 26.07 42.93 26.07 42.93 26.07 42.93 29.96 42.93 29.96 44.81 31.65 46 34.08 46 36.8 46 41.87 41.87 46 36.8 46 34.92 46 33.18 45.43 31.73 44.47 31.73 44.47 5.37 44.47 5.37 44.47 3.25 44.47 1.53 42.75 1.53 40.63 1.53 40.63 1.53 26.07 1.53 26.07 1.53 26.07 0.77 26.07 0.77 26.07 0.34 26.07-0 25.72-0 25.3-0 25.3-0 10.73-0 10.73-0 8.62 1.72 6.9 3.83 6.9 3.83 6.9 15.33 6.9 15.33 6.9 15.33 6.9 15.33 3.83 15.33 3.83 15.33 1.72 17.05-0 19.17-0 19.17-0 25.3-0 25.3-0 27.41-0 29.13 1.72 29.13 3.83 29.13 3.83 29.13 6.9 29.13 6.9 29.13 6.9 40.63 6.9 40.63 6.9 42.75 6.9 44.47 8.62 44.47 10.73 44.47 10.73 44.47 25.3 44.47 25.3 44.47 25.72 44.12 26.07 43.7 26.07ZM 30.31 40.85C 30.65 41.4 31.05 41.9 31.53 42.35 31.57 42.39 31.61 42.43 31.66 42.47 31.88 42.67 32.11 42.86 32.35 43.03 33.61 43.93 35.14 44.47 36.8 44.47 41.03 44.47 44.47 41.03 44.47 36.8 44.47 33.65 42.56 30.94 39.84 29.76 39.81 29.76 39.79 29.74 39.77 29.74 39.58 29.65 39.38 29.58 39.18 29.52 39.13 29.5 39.09 29.49 39.05 29.47 38.87 29.42 38.68 29.37 38.49 29.33 38.43 29.31 38.36 29.3 38.29 29.28 38.12 29.25 37.95 29.23 37.78 29.2 37.69 29.19 37.6 29.18 37.51 29.17 37.35 29.16 37.2 29.15 37.04 29.15 36.93 29.14 36.82 29.14 36.7 29.14 36.56 29.14 36.42 29.15 36.28 29.16 36.16 29.17 36.03 29.18 35.91 29.19 35.7 29.22 35.49 29.25 35.29 29.29 35.28 29.29 35.26 29.29 35.25 29.29 34.77 29.39 34.3 29.54 33.86 29.73 33.81 29.75 33.76 29.77 33.71 29.79 33.55 29.86 33.4 29.93 33.26 30.01 33.17 30.06 33.08 30.11 32.99 30.16 32.9 30.21 32.8 30.27 32.7 30.33 32.59 30.4 32.49 30.47 32.38 30.55 32.32 30.59 32.26 30.63 32.2 30.68 31.62 31.12 31.1 31.64 30.67 32.22 30.63 32.28 30.58 32.33 30.54 32.38 30.47 32.49 30.4 32.6 30.32 32.72 30.27 32.81 30.21 32.9 30.16 32.99 30.1 33.08 30.05 33.18 30 33.27 29.93 33.41 29.86 33.55 29.8 33.69 29.77 33.75 29.74 33.81 29.72 33.87 29.53 34.31 29.39 34.77 29.29 35.25 29.29 35.26 29.29 35.27 29.28 35.28 29.24 35.48 29.22 35.69 29.19 35.89 29.16 36.21 29.13 36.53 29.14 36.85 29.14 36.86 29.14 36.86 29.14 36.87 29.14 37.19 29.17 37.52 29.21 37.84 29.22 37.88 29.23 37.93 29.23 37.97 29.28 38.28 29.35 38.59 29.43 38.9 29.43 38.9 29.44 38.91 29.44 38.92 29.62 39.55 29.89 40.16 30.23 40.73 30.25 40.77 30.28 40.81 30.31 40.85ZM 3.07 40.63C 3.07 41.9 4.1 42.93 5.37 42.93 5.37 42.93 29.95 42.93 29.95 42.93 29.92 42.9 29.89 42.85 29.85 42.82 29.72 42.66 29.59 42.49 29.46 42.33 29.4 42.24 29.34 42.16 29.28 42.08 29.14 41.88 29.01 41.68 28.89 41.47 28.85 41.41 28.81 41.36 28.78 41.3 28.16 40.2 27.76 38.96 27.64 37.63 27.64 37.57 27.64 37.5 27.63 37.44 27.62 37.23 27.6 37.02 27.6 36.8 27.6 36.76 27.61 36.72 27.61 36.69 27.61 36.56 27.62 36.43 27.63 36.31 27.64 36.12 27.65 35.93 27.67 35.74 27.67 35.69 27.67 35.65 27.68 35.6 27.68 35.6 27.68 35.6 27.68 35.6 27.7 35.39 27.74 35.19 27.78 35 27.78 34.98 27.79 34.96 27.79 34.94 27.91 34.38 28.08 33.83 28.29 33.31 28.34 33.2 28.39 33.09 28.44 32.99 28.5 32.86 28.56 32.73 28.62 32.6 28.7 32.46 28.78 32.31 28.86 32.17 28.9 32.1 28.94 32.03 28.99 31.96 29.1 31.79 29.21 31.62 29.32 31.46 29.33 31.44 29.35 31.43 29.36 31.42 29.92 30.63 30.61 29.95 31.39 29.38 31.41 29.36 31.43 29.34 31.45 29.33 31.61 29.21 31.78 29.1 31.94 29 32.02 28.95 32.09 28.91 32.17 28.86 32.31 28.78 32.45 28.7 32.59 28.63 32.72 28.56 32.86 28.49 33 28.43 33.1 28.38 33.19 28.34 33.29 28.3 33.82 28.08 34.37 27.91 34.93 27.79 34.96 27.79 34.98 27.78 35 27.78 35.19 27.74 35.38 27.7 35.58 27.68 35.64 27.67 35.7 27.67 35.76 27.66 35.85 27.65 35.94 27.65 36.02 27.64 36.23 27.62 36.44 27.61 36.64 27.61 36.7 27.61 36.75 27.6 36.8 27.6 36.84 27.6 36.88 27.61 36.91 27.61 37.16 27.61 37.4 27.62 37.64 27.64 37.68 27.65 37.73 27.65 37.77 27.65 38.37 27.71 38.95 27.84 39.52 28.01 39.53 28.02 39.55 28.02 39.57 28.03 39.83 28.11 40.09 28.2 40.34 28.31 40.37 28.32 40.39 28.33 40.42 28.34 40.66 28.45 40.91 28.57 41.14 28.69 41.16 28.7 41.18 28.71 41.2 28.72 41.27 28.76 41.34 28.79 41.4 28.83 41.4 28.83 41.4 26.07 41.4 26.07 41.4 26.07 28.37 26.07 28.37 26.07 28.37 26.07 28.37 28.37 28.37 28.37 28.37 28.79 28.02 29.13 27.6 29.13 27.6 29.13 16.87 29.13 16.87 29.13 16.44 29.13 16.1 28.79 16.1 28.37 16.1 28.37 16.1 26.07 16.1 26.07 16.1 26.07 3.07 26.07 3.07 26.07 3.07 26.07 3.07 40.63 3.07 40.63ZM 19.93 26.07C 19.93 26.07 17.63 26.07 17.63 26.07 17.63 26.07 17.63 27.6 17.63 27.6 17.63 27.6 26.83 27.6 26.83 27.6 26.83 27.6 26.83 26.07 26.83 26.07 26.83 26.07 24.53 26.07 24.53 26.07 24.53 26.07 19.93 26.07 19.93 26.07ZM 23.77 24.53C 23.77 24.53 23.77 19.93 23.77 19.93 23.77 19.93 20.7 19.93 20.7 19.93 20.7 19.93 20.7 24.53 20.7 24.53 20.7 24.53 23.77 24.53 23.77 24.53ZM 27.6 3.83C 27.6 2.57 26.57 1.53 25.3 1.53 25.3 1.53 19.17 1.53 19.17 1.53 17.9 1.53 16.87 2.57 16.87 3.83 16.87 3.83 16.87 6.9 16.87 6.9 16.87 6.9 27.6 6.9 27.6 6.9 27.6 6.9 27.6 3.83 27.6 3.83ZM 42.93 10.73C 42.93 9.47 41.9 8.43 40.63 8.43 40.63 8.43 28.37 8.43 28.37 8.43 28.37 8.43 16.1 8.43 16.1 8.43 16.1 8.43 3.83 8.43 3.83 8.43 2.57 8.43 1.53 9.47 1.53 10.73 1.53 10.73 1.53 24.53 1.53 24.53 1.53 24.53 2.3 24.53 2.3 24.53 2.3 24.53 16.87 24.53 16.87 24.53 16.87 24.53 19.17 24.53 19.17 24.53 19.17 24.53 19.17 19.17 19.17 19.17 19.17 18.74 19.51 18.4 19.93 18.4 19.93 18.4 24.53 18.4 24.53 18.4 24.96 18.4 25.3 18.74 25.3 19.17 25.3 19.17 25.3 24.53 25.3 24.53 25.3 24.53 27.6 24.53 27.6 24.53 27.6 24.53 42.17 24.53 42.17 24.53 42.17 24.53 42.93 24.53 42.93 24.53 42.93 24.53 42.93 10.73 42.93 10.73ZM 39.87 21.47C 39.87 21.47 41.4 21.47 41.4 21.47 41.4 21.47 41.4 23 41.4 23 41.4 23 39.87 23 39.87 23 39.87 23 39.87 21.47 39.87 21.47ZM 36.8 21.47C 36.8 21.47 38.33 21.47 38.33 21.47 38.33 21.47 38.33 23 38.33 23 38.33 23 36.8 23 36.8 23 36.8 23 36.8 21.47 36.8 21.47ZM 33.73 21.47C 33.73 21.47 35.27 21.47 35.27 21.47 35.27 21.47 35.27 23 35.27 23 35.27 23 33.73 23 33.73 23 33.73 23 33.73 21.47 33.73 21.47ZM 32.97 32.2C 34.23 32.2 35.27 33.23 35.27 34.5 35.27 35.77 34.23 36.8 32.97 36.8 31.7 36.8 30.67 35.77 30.67 34.5 30.67 33.23 31.7 32.2 32.97 32.2ZM 32.97 35.27C 33.39 35.27 33.73 34.92 33.73 34.5 33.73 34.08 33.39 33.73 32.97 33.73 32.54 33.73 32.2 34.08 32.2 34.5 32.2 34.92 32.54 35.27 32.97 35.27ZM 40.51 32.62C 40.51 32.62 34.38 41.82 34.38 41.82 34.38 41.82 33.1 40.97 33.1 40.97 33.1 40.97 39.23 31.77 39.23 31.77 39.23 31.77 40.51 32.62 40.51 32.62ZM 40.63 36.8C 41.9 36.8 42.93 37.83 42.93 39.1 42.93 40.37 41.9 41.4 40.63 41.4 39.37 41.4 38.33 40.37 38.33 39.1 38.33 37.83 39.37 36.8 40.63 36.8ZM 40.63 39.87C 41.06 39.87 41.4 39.52 41.4 39.1 41.4 38.68 41.06 38.33 40.63 38.33 40.21 38.33 39.87 38.68 39.87 39.1 39.87 39.52 40.21 39.87 40.63 39.87Z" fill="rgb(0,209,211)"/><path fillRule="evenodd" d="" fill="rgb(0,209,211)"/></g></svg>