<svg
        xmlns="http://www.w3.org/2000/svg"
        xmlns:xlink="http://www.w3.org/1999/xlink"
        width="37px" height="37px">
    <path fill-rule="evenodd"  fill="rgb(255, 159, 67)"
          d="M33.917,37.000 L3.084,37.000 C1.380,37.000 -0.000,35.620 -0.000,33.916 L-0.000,6.551 C-0.000,4.848 1.380,3.469 3.084,3.469 L8.094,3.469 L8.094,1.156 C8.094,0.517 8.612,-0.000 9.250,-0.000 C9.888,-0.000 10.406,0.517 10.406,1.156 L10.406,3.469 L17.344,3.469 L17.344,1.156 C17.344,0.517 17.862,-0.000 18.500,-0.000 C19.138,-0.000 19.656,0.517 19.656,1.156 L19.656,3.469 L26.594,3.469 L26.594,1.156 C26.594,0.517 27.111,-0.000 27.750,-0.000 C28.389,-0.000 28.906,0.517 28.906,1.156 L28.906,3.469 L33.917,3.469 C35.620,3.469 37.000,4.848 37.000,6.551 L37.000,33.916 C37.000,35.620 35.620,37.000 33.917,37.000 ZM34.687,6.551 C34.687,6.127 34.342,5.781 33.917,5.781 L28.906,5.781 L28.906,8.094 C28.906,8.733 28.389,9.250 27.750,9.250 C27.111,9.250 26.594,8.733 26.594,8.094 L26.594,5.781 L19.656,5.781 L19.656,8.094 C19.656,8.733 19.138,9.250 18.500,9.250 C17.862,9.250 17.344,8.733 17.344,8.094 L17.344,5.781 L10.406,5.781 L10.406,8.094 C10.406,8.733 9.888,9.250 9.250,9.250 C8.612,9.250 8.094,8.733 8.094,8.094 L8.094,5.781 L3.084,5.781 C2.658,5.781 2.312,6.127 2.312,6.551 L2.312,33.916 C2.312,34.342 2.658,34.687 3.084,34.687 L33.917,34.687 C34.342,34.687 34.687,34.342 34.687,33.916 L34.687,6.551 ZM24.281,25.437 L28.906,25.437 L28.906,28.906 L24.281,28.906 L24.281,25.437 ZM24.281,19.656 L28.906,19.656 L28.906,23.125 L24.281,23.125 L24.281,19.656 ZM24.281,13.875 L28.906,13.875 L28.906,17.344 L24.281,17.344 L24.281,13.875 ZM16.187,25.437 L20.812,25.437 L20.812,28.906 L16.187,28.906 L16.187,25.437 ZM16.187,19.656 L20.812,19.656 L20.812,23.125 L16.187,23.125 L16.187,19.656 ZM16.187,13.875 L20.812,13.875 L20.812,17.344 L16.187,17.344 L16.187,13.875 ZM8.094,25.437 L12.719,25.437 L12.719,28.906 L8.094,28.906 L8.094,25.437 ZM8.094,19.656 L12.719,19.656 L12.719,23.125 L8.094,23.125 L8.094,19.656 ZM8.094,13.875 L12.719,13.875 L12.719,17.344 L8.094,17.344 L8.094,13.875 Z"/>
</svg>