<?xml version="1.0" encoding="utf-8"?>
<svg xmlns="http://www.w3.org/2000/svg"
	xmlns:xlink="http://www.w3.org/1999/xlink"
	width="43px" height="41px" viewBox="0 0 43 41">
<path fillRule="evenodd" d="M 27.65 28.42C 27.65 28.42 27.65 27.68 27.65 27.68 27.86 27.51 28.06 27.32 28.26 27.13 29.82 25.41 30.81 23.26 31.07 20.96 32.48 20.74 33.75 19.99 34.61 18.87 35.79 17.21 35.89 14.82 34.91 11.82 34.85 11.65 34.74 11.5 34.58 11.4 34.58 11.4 34.14 11.1 34.14 11.1 34.2 8.4 33.26 5.77 31.5 3.71 29.31 1.26 25.95 0.02 21.5-0 17.05-0 13.68 1.26 11.49 3.68 9.73 5.73 8.79 8.37 8.86 11.07 8.86 11.07 8.41 11.37 8.41 11.37 8.26 11.47 8.14 11.62 8.08 11.79 7.1 14.8 7.2 17.18 8.38 18.84 9.24 19.97 10.51 20.73 11.92 20.95 12.19 23.25 13.17 25.41 14.74 27.13 14.93 27.32 15.14 27.51 15.35 27.68 15.35 27.68 15.35 28.42 15.35 28.42 12.23 29.02-0.21 31.93 0 40.19 0 40.64 0.37 41 0.82 41 0.82 41 42.18 41 42.18 41 42.63 41 43 40.64 43 40.19 43.21 31.93 30.77 29.02 27.65 28.42ZM 11.43 19.14C 10.74 18.91 10.13 18.47 9.7 17.89 9.7 17.89 9.74 17.9 9.74 17.9 8.93 16.71 8.86 14.92 9.58 12.56 9.58 12.56 10.18 12.16 10.18 12.16 10.42 12 10.56 11.71 10.53 11.41 10.4 8.99 11.19 6.61 12.75 4.75 14.59 2.67 17.54 1.64 21.5 1.62 25.45 1.6 28.41 2.67 30.28 4.75 31.84 6.61 32.63 8.99 32.49 11.41 32.46 11.71 32.6 12 32.85 12.16 32.85 12.16 33.44 12.56 33.44 12.56 34.17 14.92 34.12 16.71 33.28 17.9 32.85 18.48 32.24 18.92 31.55 19.15 32.53 18.04 33.01 16.58 32.87 15.1 32.72 14.22 32.26 13.41 31.56 12.84 31.21 4.74 25.51 3.83 23.05 3.83 22.53 3.83 22.01 3.87 21.5 3.94 20.98 3.87 20.46 3.83 19.94 3.83 17.5 3.83 11.8 4.72 11.43 12.84 10.73 13.41 10.26 14.21 10.1 15.09 9.97 16.57 10.45 18.03 11.43 19.14ZM 29.94 12.5C 26.53 12.7 23.13 11.85 20.22 10.07 19.89 9.84 19.44 9.89 19.16 10.18 17.53 11.92 14.56 12.32 13.13 12.41 13.57 6.69 17.05 5.44 19.98 5.44 20.45 5.44 20.91 5.48 21.37 5.56 21.48 5.58 21.59 5.58 21.7 5.56 22.16 5.48 22.62 5.44 23.09 5.44 26 5.44 29.5 6.72 29.9 12.5 29.9 12.5 29.94 12.5 29.94 12.5ZM 13.41 19.3C 13.41 19.3 13.45 19.31 13.45 19.31 13.45 19.11 13.38 18.91 13.24 18.76 12.13 17.49 11.62 16.33 11.75 15.38 11.82 14.85 12.08 14.36 12.49 14.01 13.57 14.01 17.38 13.81 19.82 11.71 22.57 13.28 25.68 14.12 28.85 14.14 29.4 14.14 29.95 14.14 30.53 14.05 30.93 14.39 31.19 14.86 31.26 15.38 31.4 16.32 30.89 17.49 29.77 18.76 29.64 18.91 29.57 19.11 29.57 19.31 29.57 19.31 29.57 19.47 29.57 19.73 29.57 19.73 24.83 22.25 24.83 22.25 23.89 21.37 22.41 21.41 21.52 22.34 20.63 23.28 20.67 24.75 21.61 25.64 22.55 26.53 24.03 26.49 24.92 25.55 25.34 25.12 25.57 24.54 25.57 23.95 25.57 23.87 25.57 23.8 25.57 23.73 25.57 23.73 29.3 21.73 29.3 21.73 28.98 23.33 28.23 24.81 27.12 26.01 25.68 27.39 23.72 28.12 21.72 28.02 21.72 28.02 21.32 28.02 21.32 28.02 19.32 28.12 17.37 27.39 15.93 26.02 13.36 23.47 13.41 19.34 13.41 19.3ZM 23.94 23.95C 23.94 24.34 23.61 24.67 23.21 24.67 22.81 24.67 22.49 24.34 22.49 23.95 22.49 23.55 22.81 23.22 23.21 23.22 23.61 23.22 23.94 23.55 23.94 23.95ZM 20.68 39.33C 20.68 39.33 1.65 39.33 1.65 39.33 2.3 33.25 12.23 30.71 15.34 30.05 15.34 30.05 15.34 31.5 15.34 31.5 15.34 33.34 17.59 34.74 20.68 34.97 20.68 34.97 20.68 39.33 20.68 39.33ZM 16.97 31.5C 16.97 31.5 16.97 31.48 16.97 31.48 16.97 31.48 16.97 28.71 16.97 28.71 18.32 29.33 19.8 29.64 21.29 29.61 21.29 29.61 21.7 29.61 21.7 29.61 23.19 29.64 24.67 29.33 26.02 28.71 26.02 28.71 26.02 31.5 26.02 31.5 26.02 32.27 24.25 33.38 21.5 33.38 18.74 33.38 16.97 32.27 16.97 31.5ZM 22.31 39.36C 22.31 39.36 22.31 34.97 22.31 34.97 25.4 34.76 27.65 33.35 27.65 31.49 27.65 31.49 27.65 30.08 27.65 30.08 30.78 30.72 40.67 33.27 41.34 39.36 41.34 39.36 22.31 39.36 22.31 39.36 22.31 39.36 22.31 39.36 22.31 39.36Z" fill="rgb(237,83,83)"/></svg>