<?xml version="1.0" encoding="UTF-8"?>
<svg width="128px" height="104px" viewBox="0 0 128 104" version="1.1" xmlns="http://www.w3.org/2000/svg" xmlns:xlink="http://www.w3.org/1999/xlink">
    <!-- Generator: Sketch 52.6 (67491) - http://www.bohemiancoding.com/sketch -->
    <title>stripe</title>
    <desc>Created with Sketch.</desc>
    <g id="Page-1" stroke="none" stroke-width="1" fill="none" fill-rule="evenodd" stroke-linecap="round" stroke-linejoin="round">
        <g id="stripe" transform="translate(4.000000, 4.000000)" stroke="#66FFFF" stroke-width="7">
            <path d="M6.40206186,57.3402062 L2.3814433,42.6494845 L0.896907216,37.1752577 C-1.06185567,30 1.53608247,25.4329897 8.69072165,23.4742268 L91.7628866,0.865979381 C98.9175258,-1.09278351 103.474227,1.51546392 105.43299,8.69072165 L106.917526,14.1649485 L110.938144,28.8556701 L119.226804,59.3505155 C121.185567,66.5257732 118.587629,71.0927835 111.43299,73.0515464 L28.3608247,95.6597938 C21.2061856,97.6185567 16.6494845,95.0103093 14.6907216,87.8350515 L6.40206186,57.3402062 L110.938144,28.8556701 L6.40206186,57.3402062 Z M90.5876289,64.4536082 C88.5463918,65.0103093 86.6082474,64.7628866 84.7731959,63.7113402 C82.9587629,62.6804124 81.7731959,61.1443299 81.2164948,59.1030928 C80.6597938,57.0618557 80.8969072,55.1340206 81.9278351,53.3195876 C82.9793814,51.4845361 84.5257732,50.2886598 86.5670103,49.7319588 C88.1546392,49.3195876 89.6907216,49.3917526 91.1752577,49.9484536 C91.3814433,49.5773196 91.6185567,49.2371134 91.8865979,48.9278351 C92.8762887,47.7113402 94.1649485,46.8865979 95.7525773,46.4536082 C97.7731959,45.9175258 99.7010309,46.1752577 101.536082,47.2268041 C103.350515,48.257732 104.536082,49.7938144 105.092784,51.8350515 C105.649485,53.8762887 105.412371,55.8041237 104.381443,57.6185567 C103.329897,59.4536082 101.793814,60.6391753 99.7731959,61.1752577 C98.1649485,61.6082474 96.6185567,61.5463918 95.1340206,60.9896907 C94.9278351,61.3608247 94.6907216,61.7113402 94.4226804,62.0412371 C93.4329897,63.2371134 92.1546392,64.0412371 90.5876289,64.4536082 Z M95.1340206,60.9896907 C94.742268,60.8453608 94.3505155,60.6597938 93.9587629,60.4329897 C93.5670103,60.2061856 93.2061856,59.9690722 92.8762887,59.7216495 C91.6597938,58.7319588 90.8350515,57.4329897 90.4020619,55.8247423 C89.8453608,53.7835052 90.0824742,51.8556701 91.1134021,50.0412371 C91.1340206,50 91.1546392,49.9690722 91.1752577,49.9484536 C91.5670103,50.0927835 91.9587629,50.2783505 92.3505155,50.5051546 C92.742268,50.7319588 93.1030928,50.9793814 93.4329897,51.2474227 C94.6494845,52.2164948 95.4742268,53.5051546 95.9072165,55.1134021 C96.4639175,57.1546392 96.2268041,59.0824742 95.1958763,60.8969072 C95.1752577,60.9381443 95.1546392,60.9690722 95.1340206,60.9896907 Z M55.2371134,74.1030928 L34.6391753,79.7010309 L55.2371134,74.1030928 Z M52.4226804,63.7731959 L31.8247423,69.371134 L52.4226804,63.7731959 Z M106.917526,14.1649485 L2.3814433,42.6494845 L106.917526,14.1649485 Z" id="Layer0_0_1_STROKES"></path>
        </g>
    </g>
</svg>