<?xml version="1.0" encoding="utf-8"?>
<svg xmlns="http://www.w3.org/2000/svg"
	xmlns:xlink="http://www.w3.org/1999/xlink"
	width="42px" height="42px" viewBox="0 0 42 42">
<path fillRule="evenodd" d="M 41.77 3.56C 41.72 1.64 40.7 0.39 38.95 0.23 38.89 0.23 38.89 0.23 38.83 0.23 38.83 0.23 27.41-0 27.41-0 27.41-0 27.3-0 27.3-0 25.32-0 23.96 0.73 23.17 1.41 23.17 1.41 23.12 1.47 23.12 1.47 23.12 1.47 0.85 23.8 0.85 23.8-0.28 24.93-0.28 26.85 0.85 27.98 0.85 27.98 14.02 41.15 14.02 41.15 14.58 41.72 15.31 42 16.11 42 16.11 42 16.11 42 16.11 42 16.9 42 17.64 41.72 18.2 41.15 18.2 41.15 29.17 30.24 29.17 30.24 29.28 30.13 29.39 30.02 29.51 29.85 29.51 29.85 40.19 19.16 40.19 19.16 40.87 18.37 42.05 16.68 42 14.36 42 14.36 41.77 3.56 41.77 3.56ZM 38.67 17.69C 38.67 17.69 27.93 28.43 27.93 28.43 27.87 28.49 27.81 28.55 27.81 28.6 27.75 28.66 27.75 28.72 27.7 28.77 27.7 28.77 16.73 39.69 16.73 39.69 16.39 40.03 15.83 40.03 15.49 39.69 15.49 39.69 2.32 26.51 2.32 26.51 1.98 26.17 1.98 25.61 2.32 25.27 2.32 25.27 24.59 2.99 24.59 2.99 25.09 2.6 26 2.09 27.3 2.09 27.3 2.09 38.77 2.31 38.77 2.31 39.22 2.37 39.62 2.6 39.68 3.61 39.68 3.61 39.9 14.41 39.9 14.41 39.91 16 39.12 17.18 38.67 17.69ZM 32.33 5.65C 30.13 5.65 28.38 7.41 28.38 9.61 28.38 11.81 30.13 13.57 32.33 13.57 34.54 13.57 36.29 11.81 36.29 9.61 36.29 7.41 34.54 5.65 32.33 5.65ZM 32.33 11.47C 31.32 11.47 30.47 10.63 30.47 9.61 30.47 8.59 31.32 7.75 32.33 7.75 33.35 7.75 34.2 8.59 34.2 9.61 34.2 10.63 33.35 11.47 32.33 11.47ZM 24.87 21.76C 25.27 22.16 25.27 22.84 24.87 23.23 24.87 23.23 16.11 32 16.11 32 15.88 32.22 15.66 32.28 15.38 32.28 15.09 32.28 14.87 32.16 14.64 32 14.25 31.6 14.25 30.92 14.64 30.53 14.64 30.53 23.4 21.76 23.4 21.76 23.8 21.37 24.48 21.37 24.87 21.76ZM 23.74 15.66C 23.74 15.66 11.75 27.65 11.75 27.65 11.53 27.87 11.3 27.93 11.02 27.93 10.74 27.93 10.51 27.81 10.29 27.65 9.89 27.25 9.89 26.57 10.29 26.18 10.29 26.18 22.27 14.19 22.27 14.19 22.67 13.79 23.35 13.79 23.74 14.19 24.14 14.58 24.14 15.21 23.74 15.66Z" fill="rgb(0,163,163)"/></svg>