<?xml version="1.0" encoding="utf-8"?>
<svg xmlns="http://www.w3.org/2000/svg"
	xmlns:xlink="http://www.w3.org/1999/xlink"
	width="41px" height="47px" viewBox="0 0 41 47">
<path fillRule="evenodd" d="M 40.66 12.06C 40.66 12.06 35.64 21.31 35.64 21.31 36.67 21.54 37.47 22.5 37.47 23.58 37.47 23.58 37.47 30.21 37.47 30.21 37.47 30.21 38.44 30.21 38.44 30.21 38.95 30.21 39.35 30.61 39.35 31.12 39.35 31.12 39.35 37.87 39.35 37.87 39.35 38.38 38.95 38.78 38.44 38.78 38.44 38.78 37.47 38.78 37.47 38.78 37.47 38.78 37.47 44.67 37.47 44.67 37.47 45.98 36.44 47 35.13 47 35.13 47 2.34 47 2.34 47 1.03 47-0 45.98-0 44.67-0 44.67-0 23.52-0 23.52-0 23.52-0 19.44-0 19.44-0 18.13 1.03 17.11 2.34 17.11 2.34 17.11 12.6 17.11 12.6 17.11 12.6 17.11 21.04 1.52 21.04 1.52 21.78 0.15 23.67-0.41 25.03 0.32 25.03 0.32 39.46 8.09 39.46 8.09 40.89 8.89 41.4 10.65 40.66 12.06ZM 37.41 36.96C 37.41 36.96 37.47 36.96 37.47 36.96 37.47 36.96 37.47 32.03 37.47 32.03 37.47 32.03 37.41 32.03 37.41 32.03 37.41 32.03 32.05 32.03 32.05 32.03 31.54 32.03 31.14 32.42 31.14 32.93 31.14 32.93 31.14 36.05 31.14 36.05 31.14 36.56 31.54 36.96 32.05 36.96 32.05 36.96 37.41 36.96 37.41 36.96ZM 1.77 44.67C 1.77 44.96 2 45.19 2.28 45.19 2.28 45.19 35.07 45.19 35.07 45.19 35.36 45.19 35.58 44.96 35.58 44.67 35.58 44.67 35.58 38.78 35.58 38.78 35.58 38.78 32.05 38.78 32.05 38.78 30.57 38.78 29.31 37.59 29.31 36.05 29.31 36.05 29.31 32.93 29.31 32.93 29.31 31.46 30.51 30.21 32.05 30.21 32.05 30.21 35.53 30.21 35.53 30.21 35.53 30.21 35.53 23.58 35.53 23.58 35.53 23.29 35.3 23.07 35.01 23.07 35.01 23.07 34.05 23.07 34.05 23.07 34.05 23.07 21.21 23.07 21.21 23.07 21.21 23.07 14.54 23.07 14.54 23.07 14.54 23.07 10.89 23.07 10.89 23.07 10.89 23.07 2.28 23.07 2.28 23.07 2 23.07 1.77 23.29 1.77 23.58 1.77 23.58 1.77 44.67 1.77 44.67ZM 2.28 18.93C 2 18.93 1.77 19.21 1.77 19.38 1.77 19.38 1.77 21.25 1.77 21.25 1.94 21.2 2.11 21.2 2.28 21.2 2.28 21.2 10.32 21.2 10.32 21.2 10.32 21.2 11.58 18.93 11.58 18.93 11.58 18.93 2.28 18.93 2.28 18.93ZM 24.18 1.91C 23.67 1.63 22.98 1.86 22.7 2.37 22.7 2.37 12.43 21.25 12.43 21.25 12.43 21.25 15.57 21.25 15.57 21.25 15.57 21.25 25.6 2.71 25.6 2.71 25.6 2.71 24.18 1.91 24.18 1.91ZM 27.26 3.61C 27.26 3.61 17.62 21.25 17.62 21.25 17.62 21.25 20.19 21.25 20.19 21.25 20.19 21.25 29.2 4.63 29.2 4.63 29.2 4.63 27.26 3.61 27.26 3.61ZM 38.55 9.74C 38.55 9.74 30.79 5.54 30.79 5.54 30.79 5.54 22.24 21.25 22.24 21.25 22.24 21.25 33.53 21.25 33.53 21.25 33.53 21.25 39.01 11.16 39.01 11.16 39.29 10.65 39.12 9.97 38.55 9.74ZM 35.98 14.67C 35.53 15.41 34.73 15.92 33.82 15.92 33.42 15.92 33.02 15.81 32.68 15.64 32.68 15.64 32.22 15.41 32.22 15.41 31.65 15.13 31.19 14.62 31.02 13.99 30.79 13.37 30.91 12.69 31.19 12.12 31.19 12.12 31.76 11.04 31.76 11.04 32.39 9.91 33.93 9.46 35.07 10.08 35.07 10.08 35.53 10.31 35.53 10.31 36.67 10.93 37.12 12.4 36.55 13.6 36.55 13.6 35.98 14.67 35.98 14.67ZM 34.67 11.84C 34.67 11.84 34.22 11.61 34.22 11.61 34.1 11.55 34.05 11.55 33.93 11.55 33.7 11.55 33.47 11.72 33.36 11.89 33.36 11.89 32.79 12.97 32.79 12.97 32.68 13.09 32.68 13.26 32.73 13.43 32.79 13.54 32.9 13.71 33.02 13.77 33.02 13.77 33.47 14.05 33.47 14.05 33.76 14.22 34.16 14.11 34.33 13.82 34.33 13.82 34.9 12.74 34.9 12.74 35.01 12.4 34.9 12.06 34.67 11.84Z" fill="rgb(9,189,227)"/></svg>